<?xml version="1.0" encoding="UTF-8" standalone="no"?>
<svg
   xmlns:dc="http://purl.org/dc/elements/1.1/"
   xmlns:cc="http://creativecommons.org/ns#"
   xmlns:rdf="http://www.w3.org/1999/02/22-rdf-syntax-ns#"
   xmlns:svg="http://www.w3.org/2000/svg"
   xmlns="http://www.w3.org/2000/svg"
   xmlns:sodipodi="http://sodipodi.sourceforge.net/DTD/sodipodi-0.dtd"
   xmlns:inkscape="http://www.inkscape.org/namespaces/inkscape"
   version="1.1"
   id="svg44"
   width="700"
   height="700"
   viewBox="0 0 700 700"
   sodipodi:docname="communes-Martinique-972v5.2.svg"
   inkscape:version="1.0.2 (e86c870879, 2021-01-15, custom)">
  <metadata
     id="metadata50">
    <rdf:RDF>
      <cc:Work
         rdf:about="">
        <dc:format>image/svg+xml</dc:format>
        <dc:type
           rdf:resource="http://purl.org/dc/dcmitype/StillImage" />
        <dc:title />
      </cc:Work>
    </rdf:RDF>
  </metadata>
  <defs
     id="defs48" />
  <sodipodi:namedview
     pagecolor="#ffffff"
     bordercolor="#666666"
     borderopacity="1"
     objecttolerance="10"
     gridtolerance="10"
     guidetolerance="10"
     inkscape:pageopacity="0"
     inkscape:pageshadow="2"
     inkscape:window-width="1920"
     inkscape:window-height="1017"
     id="namedview46"
     showgrid="false"
     inkscape:zoom="2.8284273"
     inkscape:cx="263.73054"
     inkscape:cy="214.72363"
     inkscape:window-x="-8"
     inkscape:window-y="-8"
     inkscape:window-maximized="1"
     inkscape:current-layer="layer2"
     inkscape:document-rotation="0" />
  <g
     inkscape:groupmode="layer"
     id="layer1"
     inkscape:label="contour"
     style="display:inline">
    <path
       style="fill:none;stroke:#000000;stroke-width:1px;stroke-linecap:butt;stroke-linejoin:miter;stroke-opacity:1"
       d="m 125.83588,63.726535 -0.68471,-7.535216 8.43801,-11.443007 4.00605,-0.134946 7.40373,-1.466217 5.41088,-6.221562 6.72673,0.329927 2.65475,-3.629695 6.3079,-0.209232 2.13369,-6.739653 5.41051,2.412959 c 3.47567,-1.501033 5.27341,-3.763015 10.75439,-4.354634 l 9.11658,-1.240245 11.83077,-0.237988 5.11415,-1.917149 7.30038,2.945791 6.53597,-1.118722 3.42194,3.847043 9.89762,-0.698635 8.10781,4.136177 0.76451,2.796404 9.0145,-0.537442 4.48977,4.1453 16.78819,7.336036 10.47065,11.443436 7.3373,0.863923 5.8288,6.081402 c 0,0 14.50729,5.699222 17.64878,6.575666 3.14149,0.876443 3.33433,7.041506 3.33433,7.041506 l 9.69785,7.008235 8.83492,0.869767 7.55139,-5.535971 5.82939,6.922839 6.66835,2.603562 6.0573,-0.715937 c 0,0 0.42533,4.919491 -2.0101,8.489352 -2.43543,3.569861 6.17846,0.705366 6.17846,0.705366 l 2.90421,0.951556 5.0761,6.849539 1.80298,11.13309 6.68955,2.96656 4.55268,0.004 3.54707,-6.10669 1.67323,5.21486 5.59368,-1.19213 -1.24173,5.3636 -0.83695,3.55026 -1.82646,0.8673 1.99848,6.93184 5.79494,3.63136 1.88131,9.44627 6.96661,2.42329 6.71725,10.75364 6.65408,-2.11 3.50065,4.32999 -3.82651,-0.11151 -1.25641,3.51044 6.7039,7.44494 4.16005,-0.1816 -0.0497,4.55386 c 2.64562,2.20295 5.38181,4.02871 8.10263,5.91846 l 2.21124,4.47161 0.63683,3.12525 -1.95055,2.79161 8.17027,8.04718 -2.74944,1.67955 1.55881,8.20029 7.92435,3.89852 3.04003,-4.70095 1.29727,-11.58718 9.7757,-8.07187 0.004,-3.85002 c 0,0 1.00447,-1.39286 3.72618,0.28493 2.72172,1.67779 9.49866,-4.45938 9.49866,-4.45938 l 3.98554,-3.14811 9.43687,-0.0304 2.30541,4.07595 3.26232,2.4116 11.0843,-6.36418 -1.7956,-3.97212 5.58852,-5.84694 4.0926,5.0491 5.33237,-1.42104 1.7487,-4.49101 11.15671,-5.0249 6.70931,-8.38572 2.34631,6.18985 10.28173,0.0317 3.72826,-1.69715 0.28451,2.54974 -1.38956,2.99041 3.80136,1.48 -4.14983,7.48275 4.09723,9.63444 -5.4904,0.2365 -0.71606,5.15106 c 0,0 -8.02995,-8.74412 -7.05708,-13.41534 0.97287,-4.67122 -4.8273,-1.29781 -4.8273,-1.29781 l -8.0111,0.40944 -1.18072,4.86174 -3.01462,-0.48164 -1.8906,3.93768 9.81758,7.16982 0.18023,6.19213 -6.85405,0.38645 0.1581,3.94131 -2.53995,0.85583 -2.08061,2.45153 4.68367,2.45781 4.74888,0.93789 1.01066,7.4547 -5.78676,-1.67133 -0.63826,3.89915 -6.54634,-0.11249 -5.72806,-3.5668 -4.61082,2.76243 -4.07138,-2.49052 -1.74407,-8.59896 -17.39973,-9.01965 -4.69976,-0.17271 -2.17458,1.38511 -6.44594,-2.53613 -5.96748,10.54771 -2.31867,-0.20063 -1.98256,7.49927 6.60554,2.07567 2.99426,5.50803 -5.39533,-0.0107 -3.3102,-1.27368 -2.70623,4.41921 1.01606,7.64741 6.86632,3.42313 0.3096,3.96406 6.35394,3.06442 3.99101,-8.03352 4.70095,-1.39462 3.33527,4.00952 -5.47108,2.97027 1.17549,4.33875 -7.22006,5.06731 2.05501,3.67488 15.83016,-2.91603 3.30095,-6.68565 4.58058,-0.68102 -1.29448,15.47284 6.6851,6.49037 11.46132,-4.20895 -1.02945,10.39849 -6.49544,-0.0861 c 0,0 -0.96261,6.88565 -3.80263,8.36534 -2.84002,1.47968 -3.5802,0.49137 -3.5802,0.49137 l -1.49779,-3.66157 -8.12744,4.73703 -6.91691,-1.26713 -4.9072,7.70717 6.16808,6.35855 -7.74374,0.10413 -7.19191,-6.40404 -8.57942,13.0546 0.20242,6.78604 9.99091,6.10058 7.35429,12.13102 10.86768,-2.14653 11.39777,-13.22798 5.22451,3.45476 1.23727,-4.70249 5.93775,4.61802 6.23061,-1.78489 -0.18646,4.51426 7.88679,1.62231 3.41863,-8.0949 8.2828,1.28263 -2.7822,11.51871 0.13865,5.51623 -5.0862,-3.03403 -2.75155,7.29541 -5.31562,-2.37661 -2.33207,4.70211 -7.29451,-5.34312 0.28763,3.76493 -2.88427,1.76122 9.96474,5.77838 8.05641,-0.18364 2.70469,2.22808 -7.51123,5.31358 2.90558,10.3009 -6.10075,4.19276 -2.97598,9.08622 14.17587,-1.20236 2.03734,8.13195 3.96858,-5.19836 9.96056,-2.28804 7.27764,4.5166 -9.41916,5.75459 10.10779,10.95316 1.32314,6.99519 -4.36835,0.21385 -1.46802,3.33141 6.85351,9.51458 13.34995,1.26832 7.53503,-6.42669 3.22004,11.78313 -2.94238,7.41848 10.82331,1.93467 -12.85543,3.24902 0.44055,10.14276 11.63402,-3.06746 -6.33425,6.45539 9.67544,-0.32969 -4.10347,8.38231 16.92235,-10.72636 6.35964,0.52163 -4.6464,10.80714 -10.52487,13.13673 4.16355,6.35421 10.2711,7.51546 -0.71001,7.38089 -9.97876,-5.62184 -0.65298,7.99859 8.21984,0.81515 6.63468,-0.34724 -1.68232,10.88676 -0.16623,4.75236 -5.54755,-3.896 -5.10089,1.5113 -2.96184,13.49627 2.81079,3.97579 9.957,-6.39317 5.51502,9.0161 -1.72484,12.76752 1.65293,5.74722 8.001,2.64431 2.60982,8.43836 4.01065,7.07292 -3.12781,9.59262 -10.67093,1.7948 10.2719,16.01425 5.68971,-0.49539 0.5923,8.131 -8.98104,-4.04683 -10.12536,7.59171 1.62344,9.135 -5.15204,13.47855 -9.448,3.77083 0.25737,10.10152 -1.44256,1.26198 -8.94731,1.04169 -2.53813,-3.87485 -5.08039,-1.56224 -2.09162,6.79515 8.12533,2.54424 -1.63495,6.27186 8.51221,1.82648 -1.45743,5.23094 -11.6963,-2.24592 -9.14779,11.03258 1.36331,5.54725 -3.59342,4.38623 -12.28857,1.80191 -6.39958,0.0501 -10.85904,-3.00937 1.3643,-6.10617 -10.6722,-4.30051 -2.6074,-7.41221 2.06745,-3.38664 -9.74351,-10.02726 17.20109,-23.84143 -4.19825,-11.11655 c 0,0 -1.9114,-9.0203 1.22793,-6.64422 3.13933,2.37608 7.84909,6.30657 7.84909,6.30657 l 3.87424,-1.90652 -0.87168,-5.98446 2.5349,-7.61673 9.38244,4.04169 -2.59484,-6.86496 4.80446,-3.90819 -1.9689,-3.71419 -7.59301,3.52757 1.59228,-6.55711 -9.33222,3.62271 0.12941,-7.02496 -17.18189,16.43781 -3.32081,7.72918 -5.75671,5.08128 c 0,0 -4.84939,4.10088 -4.89819,-1.75365 -0.0337,-4.04042 -6.10229,-8.09203 -9.85996,-10.21498 -1.68716,-0.95319 -2.90845,-1.51757 -2.90845,-1.51757 l -2.06985,-12.55648 -26.01097,7.19907 -4.46928,1.48393 -2.01458,-2.39464 -7.07929,0.44484 -1.19402,-3.28155 -18.04697,0.94746 -9.40385,-8.91336 -5.7916,-0.74382 -8.26377,5.90721 -5.20613,-3.57616 -2.68886,-14.05811 -5.63661,11.84898 -6.84901,-6.05756 1.89245,11.63128 -3.12483,3.24564 -12.21207,-6.00708 -4.03854,-11.83827 -3.82707,9.53736 -14.69415,-11.21138 -19.52136,4.28067 -18.00502,12.31831 0.61584,12.04784 -7.27732,3.98291 -5.63242,3.08265 -14.87992,-7.6439 -0.78643,-9.34922 -5.36652,-4.08646 -8.74701,1.14964 -4.64372,-10.54765 4.2948,-3.49209 -1.60641,-14.70794 -12.42918,-3.91354 0.1045,-4.99548 8.06734,-5.60404 c 0,0 -1.96524,-9.84698 -12.19695,-10.16343 -10.23171,-0.31644 -10.01151,0.26749 -10.01151,0.26749 0,0 8.16227,-18.457 8.29988,-21.89228 0.13761,-3.43527 8.03931,-5.96116 8.03931,-5.96116 l -0.28829,-8.14717 15.19431,-10.69703 4.31134,1.59301 10.67863,-0.18184 5.26553,-12.47419 10.62967,-3.39745 -1.73881,-2.36087 -2.98011,-0.10267 1.02036,-3.23975 5.3005,-6.94929 4.32362,3.6204 -2.2734,11.32036 8.74916,-2.36073 5.29191,-6.27039 3.79892,2.84487 -0.87506,6.3396 -7.17829,4.99898 0.90949,8.24388 6.74858,-1.18545 5.34345,-1.09197 2.73289,1.98324 -0.34271,5.6293 5.57065,1.75705 6.26048,-5.96968 c 0,0 2.77135,1.02561 4.15279,0.72536 1.38144,-0.30025 3.10376,6.72173 3.10376,6.72173 l 3.20713,-0.62096 5.70242,-8.92654 10.15559,-0.43252 9.27507,-6.84667 -6.05088,-5.46619 8.96301,-0.88287 c 0,0 -8.49014,-10.28624 -12.55483,-10.18398 -1.29698,0.0326 -2.9205,-0.10826 -4.53012,-0.31526 -3.4349,-0.44173 -6.80652,-1.18451 -6.80652,-1.18451 l -4.4627,-13.45245 4.52977,-10.54128 -4.99154,3.39657 -3.05366,-4.02469 2.80159,-1.10865 -6.15742,-5.12878 -5.44252,-1.04756 -0.52379,-10.56178 8.00318,-3.66507 -1.11892,-5.44277 -7.56437,-0.29107 5.39293,-5.55895 -3.56802,-11.41586 -9.29116,7.30648 -6.65138,0.13926 -4.06812,0.97911 1.57594,16.95104 -4.83518,-2.8437 -3.85112,0.1544 -5.58312,6.07038 -1.88588,-8.47199 -5.6932,-1.24475 -4.46664,6.68044 -4.82729,-3.23651 0.0143,-6.16344 -7.45308,2.61383 -3.39336,-4.81346 -3.11755,3.47661 -4.70651,-4.26353 -20.77369,2.4784 -12.02089,-18.96473 c 0,0 -23.45562,-22.13702 -25.22009,-21.29646 -1.76447,0.84056 -5.27389,1.8123 -5.27389,1.8123 l -14.64965,-4.67764 -5.88999,-7.89941 -0.3211,-7.59971 -16.12439,-7.78065 c 0,0 -3.22509,-6.22209 -2.72337,-8.57809 0.50173,-2.35601 -3.64117,-0.22362 -3.64117,-0.22362 l -2.32693,-6.40031 -0.13767,-4.97576 -11.86414,-17.0731 -16.51523,-23.76624 -7.33972,-20.7581 8.55396,-31.91227 3.55906,-2.78916 -0.31595,-14.16513 -18.48809,-22.40265 -9.08795,-6.04172 -10.2099,-16.83511 -11.65734,-4.41838 -9.86611,-21.16249 -5.98481,-5.63813 1.10768,-8.37482 -3.64252,-7.3472 c 0,0 -0.86893,-17.270966 2.42266,-22.080826 3.2916,-4.809861 9.5957,-15.234204 9.5957,-15.234204 l 0.57522,-4.272165 0.56412,-4.094684 5.43933,0.0813 z"
       id="path70"
       sodipodi:nodetypes="cccccccccccccccccccccccccccscccccccsccccccccccccccccccccccccccccccccccccscccccccccccccccccccccccsccccccccccccccccccccccccccccccccccccccccccccccccccccsccccccccccccccccccccccccccccccccccccccccccccccccccccccccccccccccccccccccccccccccccccccccccccccccccccccccccccccccccccccscccccccccccccccssccccccccccccccccccccccccccccccccccccscscccccccccccccccccccccccccscccccccssccccccccccccccccccccccccccccccccscccccscccccccccccccccccsccccc" />
  </g>
  <g
     inkscape:groupmode="layer"
     id="layer2"
     inkscape:label="commune"
     style="display:inline">
    <path
       style="fill:none;stroke:#000000;stroke-width:1px;stroke-linecap:butt;stroke-linejoin:miter;stroke-opacity:1"
       d="m 580.95895,579.67295 8.43376,-1.03566 16.01604,-12.85152 6.82653,4.90965 23.74024,0.96282"
       id="path73"
       sodipodi:nodetypes="ccccc" />
    <path
       style="fill:none;stroke:#000000;stroke-width:1px;stroke-linecap:butt;stroke-linejoin:miter;stroke-opacity:1"
       d="m 633.73595,535.68052 -2.96389,-2.36553 -11.94233,-4.69776 -10.98397,-0.65695 -1.50945,2.18798 -2.86425,-0.6679 -12.99513,-10.35254 -1.31714,-8.37479 -6.8154,-0.67719 0.3577,5.77931 -13.861,14.98938 -0.59337,5.13061 c 0,0 -17.26605,8.93787 -18.32133,12.03764 -1.05529,3.09977 -0.14189,11.26016 -0.14189,11.26016 l -6.59768,2.7778 -8.07383,11.73944 0.65771,10.1318 -11.03639,6.35092"
       id="path77"
       sodipodi:nodetypes="ccccccccccccsccccc" />
    <path
       style="fill:none;stroke:#000000;stroke-width:1px;stroke-linecap:butt;stroke-linejoin:miter;stroke-opacity:1"
       d="m 582.30473,509.47264 0.0127,-8.26508 -5.79613,-10.80623 -10.13588,-1.00812 -9.74849,-5.6096 1.01308,-4.3603 -7.83332,-8.40078 -0.86386,-3.89834 -0.3155,-3.02389 -6.11019,-14.51535 8.70681,-3.86778 1.40772,-2.6914 -2.67505,-2.90532 4.877,-2.61745 1.92692,-6.42628 6.37072,2.08392 2.53937,-4.36735 5.76083,4.6499 21.06959,-9.08154 7.34128,-6.12186"
       id="path79"
       sodipodi:nodetypes="cccccccccccccccccccc" />
    <path
       style="fill:none;stroke:#000000;stroke-width:1px;stroke-linecap:butt;stroke-linejoin:miter;stroke-opacity:1"
       d="m 541.90214,449.14745 -8.61391,-11.06102 -9.53674,-4.95191 c 0,0 -0.17743,-7.35006 -11.07526,-7.93119 -10.89784,-0.58114 -15.93572,-0.69909 -15.93572,-0.69909 l -0.36115,-5.72631 -8.06021,-6.14799 1.79831,-6.69603 -3.34276,-4.42579 -1.93171,-7.50361 -6.42749,-0.75051 -5.12539,-4.54104 2.71394,-4.88952 -2.88602,-3.1378 -3.66483,-16.02861 4.58912,-4.75687 -3.85378,-7.74109 3.48089,-0.002 2.97213,1.3954 6.33146,-1.5429 8.08575,4.09176 8.84007,-4.09856 c 0,0 14.1605,-23.95831 18.65213,-25.1307 4.49163,-1.17238 7.80116,-2.22501 7.80116,-2.22501 l 12.80946,-0.13357 2.06557,4.0488"
       id="path135"
       sodipodi:nodetypes="cccsccccccccccccccccccsccc" />
    <path
       style="fill:none;stroke:#000000;stroke-width:1px;stroke-linecap:butt;stroke-linejoin:miter;stroke-opacity:1"
       d="m 469.21381,351.5255 -3.70544,-4.89313 0.50645,-5.94483 -2.66785,-5.57147 -7.88022,-4.92122 0.5569,-6.67356 -7.08324,-1.46319 -3.02374,-5.30484 -6.14316,0.87764 -2.47455,-7.43365 -8.60602,-9.62471 0.70218,-4.12604 -7.50497,-4.33532 -3.79936,-7.23714 2.43149,-3.67187 -2.7463,-2.78385 4.02993,-1.68557 9.04779,-0.68454 4.14041,-8.84746 5.61838,0.84157 2.48616,0.80104 3.8707,-8.66109 5.61097,-4.1229 11.23762,0.2423 20.93988,-5.54285 8.09214,-8.61423 3.20171,-2.2698"
       id="path137"
       sodipodi:nodetypes="ccccccccccccccccccccccccccc" />
    <path
       style="fill:none;stroke:#000000;stroke-width:1px;stroke-linecap:butt;stroke-linejoin:miter;stroke-opacity:1"
       d="m 435.06721,266.66465 1.58388,-9.19951 -4.96835,-3.93018 2.62354,-5.28767 -7.11786,0.19732 -4.57,-8.75958 -10.18692,-5.81786 -0.31281,-3.62403 -12.28173,-5.91513 -8.84358,-0.46615 -6.30457,-1.16247 -2.50708,-2.61423 -5.06434,0.95829 -2.16387,-4.51551 12.43572,0.2798 c 0,0 4.16448,-3.34378 4.99568,-8.50513 0.8312,-5.16135 6.67668,-1.23342 8.01354,-0.7194 1.33686,0.51402 8.6991,-7.42044 8.6991,-7.42044 l -2.02644,-4.66474 6.16728,-4.08599 6.18436,4.13387 9.95707,-7.97939 2.89533,-5.36173 7.42799,0.0471 0.0288,-2.60472"
       id="path139"
       sodipodi:nodetypes="cccccccccccccccsscccccccc" />
    <path
       style="fill:none;stroke:#000000;stroke-width:1px;stroke-linecap:butt;stroke-linejoin:miter;stroke-opacity:1"
       d="m 374.07626,215.94311 -3.28079,-2.29234 -10.85489,-0.48587 -3.52225,-3.04892 -10.68005,-0.163 -9.51617,-5.67463 -2.51566,-2.08467 -0.10961,-5.37504 -1.3229,-8.94537 4.6537,-7.67192 4.44602,-3.11297 -5.33424,-4.15584 4.02196,-6.54238 4.97385,-2.71238 1.7622,-5.09699 -5.11531,-5.52528 -1.32511,-3.40376 7.18171,-5.97211 3.90894,-6.32785 14.99504,-8.02546 1.89526,-5.64487 11.15639,-7.78981"
       id="path141"
       sodipodi:nodetypes="cccccccccccccccccccccc" />
    <path
       style="fill:none;stroke:#000000;stroke-width:1px;stroke-linecap:butt;stroke-linejoin:miter;stroke-opacity:1"
       d="m 353.06356,85.955328 -3.51894,5.999713 -6.47251,5.519156 -1.03705,6.059053 -0.55494,6.0562 -1.21091,5.26169 -6.73618,12.08425 1.48736,12.03532 -3.94342,4.19843 0.90167,12.45578 -3.53675,4.88661 1.76617,2.87071 -7.61701,8.38243 0.6445,18.58593 -10.27045,9.56635 -0.0303,-4.54543 -2.38982,0.19711 -2.54419,3.1214 -5.05001,-0.57247 -2.00506,1.494 -4.50699,-0.22359 -0.75424,1.30076 -4.24224,-0.33645 0.51218,2.36894 1.06175,0.92847 -3.39864,2.37567 0.74306,3.99925 0.53288,6.5692 9.45229,10.66145 12.23894,-4.85439 6.2043,-7.08879 12.46501,-1.8201 4.60349,-8.73854"
       id="path143"
       sodipodi:nodetypes="ccccccccccccccccccccccccccccccccc" />
    <path
       style="fill:none;stroke:#000000;stroke-width:1px;stroke-linecap:butt;stroke-linejoin:miter;stroke-opacity:1"
       d="m 294.50238,57.657332 -0.0868,1.638681 -3.55786,1.43775 -7.15328,8.817639 -0.32647,4.097947 -0.9235,1.162294 -0.0524,4.399905 -2.68137,1.625778 -2.3577,5.760599 -3.08951,-0.169919 -4.23684,13.715564 2.40525,4.79435 0.19479,5.91306 -3.61911,-0.51679 -6.72914,7.55614 0.86615,6.49114 -1.16865,10.99067 -0.44087,2.39571 6.08982,5.19341 0.14652,5.81959 4.32434,5.34104 0.5282,9.93647 3.79421,0.628 6.09082,2.09713 6.69115,5.46718 0.1631,12.53917 -3.80339,5.5517 4.82512,3.8629 0.41512,3.76759 0.25312,1.75994"
       id="path145"
       sodipodi:nodetypes="cccccccccccccccccccccccccccccc" />
    <path
       style="fill:none;stroke:#000000;stroke-width:1px;stroke-linecap:butt;stroke-linejoin:miter;stroke-opacity:1"
       d="m 299.58537,227.63719 -3.82767,1.17542 -2.7912,0.62304 -1.00669,2.57638 9.73478,10.84201 22.13951,15.8241 14.19767,6.21431 2.21967,-2.74109 16.11647,10.20408 5.53406,-5.306 3.46842,5.51501 2.78265,-1.53565 7.43227,4.32551 8.15187,9.05909 6.08085,0.0971 0.94092,2.34779 -0.20708,3.42702 9.55665,4.28705 1.12817,-3.1634 10.8372,5.79494 0.49484,-5.88517 2.88507,0.21834 1.02264,-1.02732 -0.40086,-3.97766 1.49828,-1.29617"
       id="path147"
       sodipodi:nodetypes="ccccccccccccccccccccccccc" />
    <path
       style="fill:none;stroke:#000000;stroke-width:1px;stroke-linecap:butt;stroke-linejoin:miter;stroke-opacity:1"
       d="m 411.73273,297.78874 -3.91377,4.83287 -0.19441,3.15648 2.39172,8.6836 0.64533,3.21653 -1.36637,1.15508 -0.51258,1.96763 -6.93448,3.76229 -4.48948,-2.2711 -10.39541,3.33281 c 0,0 -1.85454,8.25842 -6.38056,3.45258 -4.52602,-4.80585 -10.14085,6.43009 -12.60998,6.88443 -2.46913,0.45434 -11.45529,0.36441 -11.45529,0.36441 l -2.73603,1.20926 -2.27008,-0.24697 -0.31219,4.12215 -2.69621,-0.66738 -0.21367,-6.59184 -13.43472,-0.0169 -7.01981,-2.79195 0.75835,-3.8421 -0.24973,-3.56851 -12.33561,-12.1692 -3.81262,-0.0146 -19.7406,-13.92947 5.88382,-9.23878 -4.46528,-16.41699 10.78723,-11.61314 -10.69096,-9.76571 -4.09474,-11.98856 1.6037,-6.10544"
       id="path149"
       sodipodi:nodetypes="ccccccccccssccccccccccccccccccc" />
    <path
       style="fill:none;stroke:#000000;stroke-width:1px;stroke-linecap:butt;stroke-linejoin:miter;stroke-opacity:1"
       d="m 261.49581,118.16603 -14.1749,8.671 -9.39263,3.13892 -7.64588,-2.43063 -6.00812,1.48069 -16.18091,-8.24169 -9.86798,0.0449 -2.31777,-1.62102 -3.6359,-0.35023 -3.32036,-7.0658 0.39447,-4.7124 4.49774,4.78745 7.82619,-0.56765 10.9402,3.40133 2.84612,2.695 2.83341,-4.48459 3.04184,-5.53724 8.30914,-6.20164 12.58621,-7.516892"
       id="path151"
       sodipodi:nodetypes="ccccccccccccccccccc" />
    <path
       style="fill:none;stroke:#000000;stroke-width:1px;stroke-linecap:butt;stroke-linejoin:miter;stroke-opacity:1"
       d="m 242.22668,93.655578 8.22367,-1.236789 0.59538,-3.675243 7.12675,0.856621 12.45949,-5.446988 3.12459,1.861284"
       id="path153"
       sodipodi:nodetypes="cccccc" />
    <path
       style="fill:none;stroke:#000000;stroke-width:1px;stroke-linecap:butt;stroke-linejoin:miter;stroke-opacity:1"
       d="m 237.41239,27.001254 -0.94311,8.207977 -0.90567,4.941185 -6.30915,5.483318 -11.99258,15.869373 1.70415,2.778952 -1.42071,3.805829 -1.96881,6.379698 -7.67257,8.637269 -10.22086,5.958463 -0.55153,5.657497 -7.54457,8.458245 -0.94783,2.14623 -2.06129,-0.27518 -0.0535,-11.478254 2.61219,-10.623771 1.06512,-10.469864 -2.52746,-1.508573 0.35831,-7.347423 -2.63808,-5.698423 -0.53227,-7.3835 0.97062,-12.207245 1.04967,-3.745485 -1.05418,-2.444724 L 184.83,25.20193"
       id="path155"
       sodipodi:nodetypes="ccccccccccccccccccccccccc" />
    <path
       style="fill:none;stroke:#000000;stroke-width:1px;stroke-linecap:butt;stroke-linejoin:miter;stroke-opacity:1"
       d="m 137.84458,45.214487 2.99981,5.943844 4.12781,5.613489 6.46894,7.705278 3.95771,3.656095 -1.27379,3.793484 -0.92354,4.447572 0.90307,8.895339 5.59434,-0.520924 3.11851,3.029542 -0.0795,4.209129 6.2128,5.28554 4.71056,-0.987016 7.68105,9.008991 4.65067,-0.29348"
       id="path157"
       sodipodi:nodetypes="ccccccccccccccc" />
    <path
       style="fill:none;stroke:#000000;stroke-width:1px;stroke-linecap:butt;stroke-linejoin:miter;stroke-opacity:1"
       d="m 188.36652,111.30484 -1.79777,-0.59076 -1.78994,1.13034 -3.33975,-0.33141 -3.2717,5.01169 -2.61946,0.1022 -15.237,10.58422 -4.37882,-0.0671 -18.3874,11.39285 -3.52886,-1.79239 -5.79887,3.72865 -4.91753,10.93048"
       id="path159"
       sodipodi:nodetypes="cccccccccccc" />
    <path
       style="fill:none;stroke:#000000;stroke-width:1px;stroke-linecap:butt;stroke-linejoin:miter;stroke-opacity:1"
       d="m 208.09337,121.85264 1.48854,3.60583 0.95581,2.66254 -0.001,4.52744 1.12368,1.79097 -0.0697,2.25077 3.32768,0.55439 -1.72924,9.69482 -0.90379,8.61263 -10.53531,9.79125 -0.15546,6.11322 -6.05115,10.07824 5.83033,6.03002 4.79026,-5.33887 6.1639,8.6122 4.83982,-0.1835 1.60538,5.74802 10.25628,5.21698 -19.5885,0.67413 -8.66087,-0.0423 -7.65864,4.04225 7.10916,4.2545 -5.24769,3.06506 3.65547,4.27937 -7.72345,6.41421 -5.1485,-3.12853 -0.82526,-4.62919 -2.55163,-0.43879 -4.61879,4.16135 -7.68617,-1.07935"
       id="path161"
       sodipodi:nodetypes="cccccccccccccccccccccccccccccc" />
    <path
       style="fill:none;stroke:#000000;stroke-width:1px;stroke-linecap:butt;stroke-linejoin:miter;stroke-opacity:1"
       d="m 229.27308,201.10786 3.06914,-5.60323 2.82075,5.08466 14.22978,9.04753 5.11519,-0.54552 1.86934,3.60319 6.04645,-0.22716 4.8039,8.91558 6.07503,-7.53134 7.3344,-6.57711 2.48256,1.54105 3.2736,-4.92604 2.56141,1.78234"
       id="path163"
       sodipodi:nodetypes="ccccccccccccc" />
    <path
       style="fill:none;stroke:#000000;stroke-width:1px;stroke-linecap:butt;stroke-linejoin:miter;stroke-opacity:1"
       d="m 199.05187,218.3406 8.47033,7.29808 4.45781,0.73294 7.13209,1.98145 5.43905,4.66829 5.30681,-1.86266 11.68542,4.58615 4.59623,2.97993 2.27496,7.40707 5.11402,5.68129 0.35276,4.53968 3.27102,4.17999 6.7173,-0.0636 0.46979,2.54831 6.12183,-3.2613 0.094,5.52574 -2.58469,3.45736 4.86524,-0.47549 8.43835,-6.15919 4.24376,-8.88664 5.58544,1.65358 2.43523,-3.63935"
       id="path165"
       sodipodi:nodetypes="cccccccccccccccccccccc" />
    <path
       style="fill:none;stroke:#000000;stroke-width:1px;stroke-linecap:butt;stroke-linejoin:miter;stroke-opacity:1"
       d="m 241.15349,236.20785 -1.00384,2.02287 -10.07579,-0.97346 -8.13884,3.33004 -4.88587,-1.52245 -11.55795,7.02518 -13.26984,-2.12384 3.22727,8.43809 -0.6664,7.15979 -0.88256,1.59639 8.57524,12.66266 -7.9095,4.80225 -1.67789,6.69918 -5.0362,4.22846 -3.41121,5.94702"
       id="path167"
       sodipodi:nodetypes="ccccccccccccccc" />
    <path
       style="fill:none;stroke:#000000;stroke-width:1px;stroke-linecap:butt;stroke-linejoin:miter;stroke-opacity:1"
       d="m 202.85399,274.4262 0.58696,3.3117 2.99072,-2.38998 6.16715,2.62365 3.53233,-1.94396 3.91186,2.72944 13.71811,-3.69275 6.11886,2.15285 2.81663,-1.16711 2.37101,2.15202 6.66654,-3.55406 5.21144,-13.52934"
       id="path169"
       sodipodi:nodetypes="cccccccccccc" />
    <path
       style="fill:none;stroke:#000000;stroke-width:1px;stroke-linecap:butt;stroke-linejoin:miter;stroke-opacity:1"
       d="m 252.02658,275.13537 3.35206,4.70821 0.69389,6.41288 7.66677,4.65961 -0.13334,2.51429 -1.0124,1.38352 -0.0991,3.63131 3.18617,2.8525 -5.44299,16.97078 2.45571,9.95342 -13.12246,16.75346 1.67996,3.30127 -3.35307,10.05078"
       id="path171"
       sodipodi:nodetypes="ccccccccccccc" />
    <path
       style="fill:none;stroke:#000000;stroke-width:1px;stroke-linecap:butt;stroke-linejoin:miter;stroke-opacity:1"
       d="m 202.90666,323.38219 9.00664,-4.14896 19.59755,-12.89593 4.05403,0.28962 3.06154,-7.19072 -8.63846,-2.4645 7.79258,-8.13628 -0.76823,-8.71034 2.24736,-2.35654"
       id="path173"
       sodipodi:nodetypes="ccccccccc" />
    <path
       style="fill:none;stroke:#000000;stroke-width:1px;stroke-linecap:butt;stroke-linejoin:miter;stroke-opacity:1"
       d="m 267.92186,269.32416 0.60825,8.42848 3.90974,7.55583 -0.17539,5.29311 3.60783,3.94688 -0.42343,16.22923 4.35066,4.09791 -0.0917,7.93396 3.73901,1.29686 4.69692,-2.54673 0.61124,5.63908 1.94476,5.63556 -0.20792,6.27986 5.6702,6.90334 1.16582,7.63124 -2.16489,3.95977 2.95378,13.73748 -8.92631,11.6361 0.30098,5.68064 -4.00712,3.42065 -0.62646,5.81804"
       id="path175"
       sodipodi:nodetypes="ccccccccccccccccccccc" />
    <path
       style="fill:none;stroke:#000000;stroke-width:1px;stroke-linecap:butt;stroke-linejoin:miter;stroke-opacity:1"
       d="m 351.85709,341.97126 4.77694,3.43278 -0.0852,25.73914 1.51627,1.80282 -2.31921,3.57761 2.02999,5.27018 -0.20375,8.30271"
       id="path177"
       sodipodi:nodetypes="ccccccc" />
    <path
       style="fill:none;stroke:#000000;stroke-width:1px;stroke-linecap:butt;stroke-linejoin:miter;stroke-opacity:1"
       d="m 396.68623,452.49997 5.89563,-7.94066 -0.62853,-8.34366 4.53378,-0.35104 0.21688,-5.38997 5.65089,-2.56682 -1.41742,-6.40646 1.6519,-1.48484 2.55476,0.18058 12.63791,-12.84458 5.73446,0.0151 7.17445,-15.76076 8.18524,-4.83814 2.35238,3.26003 3.29155,-3.8783 17.79773,2.38576"
       id="path179"
       sodipodi:nodetypes="cccccccccccccccc" />
    <path
       style="fill:none;stroke:#000000;stroke-width:1px;stroke-linecap:butt;stroke-linejoin:miter;stroke-opacity:1"
       d="m 414.62494,463.86042 5.44581,0.41218 3.44682,1.62539 10.10076,-2.65293 5.61796,5.36257 2.41613,-1.28733 9.37305,0.5042 5.18332,-6.66466 8.67876,-1.56145 -1.67159,-4.34979 0.29895,-2.0096 8.21243,-0.89762 -0.1597,-3.53016 -5.98403,-2.06741 6.52692,-3.20292 -1.53651,-3.20571 5.4751,-7.32964 6.00335,1.53839 -1.7686,-6.06571 6.89422,-6.67736 0.76335,-8.42769"
       id="path181"
       sodipodi:nodetypes="ccccccccccccccccccccc" />
    <path
       style="fill:none;stroke:#000000;stroke-width:1px;stroke-linecap:butt;stroke-linejoin:miter;stroke-opacity:1"
       d="m 465.6063,459.66089 5.33376,-0.20503 7.75575,6.26922 15.06526,3.61587 9.41343,7.17423 0.48487,3.26517 14.59971,5.04018 8.62048,-0.53471 13.9738,-3.43166 2.45899,-11.29726 3.41164,-0.41285 0.98526,-4.20406"
       id="path183"
       sodipodi:nodetypes="cccccccccccc" />
    <path
       style="fill:none;stroke:#000000;stroke-width:1px;stroke-linecap:butt;stroke-linejoin:miter;stroke-opacity:1"
       d="m 503.175,480.17097 -1.80124,1.31004 0.0151,11.60665 7.33494,0.22822 -0.0395,8.23799 -6.3509,-4.95979 -5.06505,11.03471 0.27785,1.88057 4.85005,0.18208 1.57294,2.29192 0.35932,5.64934 0.3552,5.55812 10.77576,13.22444 6.20778,28.07301 0.22643,9.20691 -2.31061,2.14181"
       id="path185"
       sodipodi:nodetypes="cccccccccccccccc" />
    <path
       style="fill:none;stroke:#000000;stroke-width:1px;stroke-linecap:butt;stroke-linejoin:miter;stroke-opacity:1"
       d="m 497.28103,510.12808 -0.40161,6.13821 -5.08676,10.11832 -2.36271,-1.43302 -14.63995,5.76681 -4.07745,1.54475 -4.94711,3.80338 -10.035,-5.31949 -11.39139,1.37467 -9.10377,-0.80282 -9.08757,-1.39763 0.4363,8.94813 4.91461,6.10713 -0.21536,5.27622 -4.51947,-6.9e-4 -2.57583,3.16957 4.13174,5.30537"
       id="path187"
       sodipodi:nodetypes="ccccccccccccccccc" />
    <path
       style="fill:none;stroke:#000000;stroke-width:1px;stroke-linecap:butt;stroke-linejoin:miter;stroke-opacity:1"
       d="m 425.17544,529.12576 -1.91445,-2.50027 -5.40124,-1.48476 -1.50287,1.50471 -0.0513,3.12506 -4.19952,2.6219 -6.16783,-4.77109 -5.80224,0.30561 0.43534,-6.41695 -5.11783,-3.3526 -0.26128,3.92276 1.36807,1.32215 -3.7906,2.78356 -7.17285,0.35817 -6.94041,-5.78452 -10.94672,0.27351 -3.31939,1.62741 -4.1969,5.02813 -8.33849,-6.10049 -0.58243,-3.98655 -4.44747,-2.2804 -3.06614,3.64706 -8.74183,3.96101 3.77898,1.83535 -2.50715,5.1404 7.16202,9.02913 -8.70584,8.02731 1.39239,3.78522 -4.11816,-0.29153 -3.36176,1.61444 2.96011,7.84142 3.60554,4.9598 0.35061,11.35955 -6.10624,5.24792 6.27629,11.38112"
       id="path189"
       sodipodi:nodetypes="ccccccccccccccccccccccccccccccccccc" />
    <path
       style="fill:none;stroke:#000000;stroke-width:1px;stroke-linecap:butt;stroke-linejoin:miter;stroke-opacity:1"
       d="m 400.8365,520.62609 0.70296,-6.62709 -0.27639,-8.87858 1.30563,-6.57606 1.79008,-3.96985 0.45147,-4.63386 -3.74871,-4.39135 2.36744,-7.08654 -1.47838,-1.06233"
       id="path191"
       sodipodi:nodetypes="ccccccccc" />
    <path
       style="fill:none;stroke:#000000;stroke-width:1px;stroke-linecap:butt;stroke-linejoin:miter;stroke-opacity:1"
       d="m 308.23406,479.13127 6.66616,8.76018 -3.01629,2.9283 18.73599,32.5722 2.98293,-0.37439"
       id="path193"
       sodipodi:nodetypes="ccccc" />
  </g>
</svg>
