<?xml version="1.0" encoding="UTF-8" standalone="no"?>
<svg
   xmlns:dc="http://purl.org/dc/elements/1.1/"
   xmlns:cc="http://creativecommons.org/ns#"
   xmlns:rdf="http://www.w3.org/1999/02/22-rdf-syntax-ns#"
   xmlns:svg="http://www.w3.org/2000/svg"
   xmlns="http://www.w3.org/2000/svg"
   xmlns:sodipodi="http://sodipodi.sourceforge.net/DTD/sodipodi-0.dtd"
   xmlns:inkscape="http://www.inkscape.org/namespaces/inkscape"
   width="210mm"
   height="297mm"
   viewBox="0 0 210 297"
   version="1.1"
   id="svg2762"
   inkscape:version="1.0.2 (e86c870, 2021-01-15)"
   sodipodi:docname="darryl.svg">
  <defs
     id="defs2756" />
  <sodipodi:namedview
     id="base"
     pagecolor="#ffffff"
     bordercolor="#666666"
     borderopacity="1.0"
     inkscape:pageopacity="0.0"
     inkscape:pageshadow="2"
     inkscape:zoom="2.8"
     inkscape:cx="598.38353"
     inkscape:cy="461.6902"
     inkscape:document-units="mm"
     inkscape:current-layer="layer1"
     inkscape:document-rotation="0"
     showgrid="false"
     inkscape:window-width="1652"
     inkscape:window-height="948"
     inkscape:window-x="117"
     inkscape:window-y="72"
     inkscape:window-maximized="0" />
  <metadata
     id="metadata2759">
    <rdf:RDF>
      <cc:Work
         rdf:about="">
        <dc:format>image/svg+xml</dc:format>
        <dc:type
           rdf:resource="http://purl.org/dc/dcmitype/StillImage" />
        <dc:title></dc:title>
      </cc:Work>
    </rdf:RDF>
  </metadata>
  <g
     inkscape:label="Calque 1"
     inkscape:groupmode="layer"
     id="layer1">
    <g
       aria-label="Darryl"
       transform="matrix(1.1683164,0,0,0.89432768,-6.130224,10.981964)"
       id="text3345"
       style="font-style:normal;font-variant:normal;font-weight:800;font-stretch:normal;font-size:36.2885px;line-height:1.25;font-family:Sansita;-inkscape-font-specification:'Sansita, Ultra-Bold';font-variant-ligatures:normal;font-variant-caps:normal;font-variant-numeric:normal;font-variant-east-asian:normal;stroke-width:0.907222">
      <path
         d="m 71.708949,98.2132 v 23.55124 c 3.229676,0.32659 6.096468,0.50804 9.144702,0.50804 8.201202,0 12.446956,-4.4272 12.446956,-12.66469 0,-8.09234 -3.882869,-11.830052 -11.975205,-11.830052 -2.90308,0 -6.713373,0.181443 -9.616453,0.435462 z m 9.652741,21.37393 c -0.653193,0 -1.233809,-0.0726 -1.887002,-0.25402 V 100.7534 c 0.762059,-0.21774 1.088655,-0.29031 1.850714,-0.29031 3.157099,0 3.592561,4.97152 3.592561,9.36243 0,4.35462 -0.435462,9.76161 -3.556273,9.76161 z"
         style="font-style:normal;font-variant:normal;font-weight:800;font-stretch:normal;font-size:36.2885px;font-family:Sansita;-inkscape-font-specification:'Sansita, Ultra-Bold';font-variant-ligatures:normal;font-variant-caps:normal;font-variant-numeric:normal;font-variant-east-asian:normal;stroke-width:0.907222"
         id="path3347" />
      <path
         d="m 106.90878,120.53063 c 0.76206,1.30638 2.06844,1.92329 4.24575,1.92329 1.01608,0 2.61278,-0.29031 3.37483,-0.97979 -0.87092,-1.12494 -1.12494,-2.39504 -1.12494,-3.81029 v -7.83832 c 0,-5.33441 -3.73771,-7.14883 -9.07212,-7.14883 -3.51999,0 -8.564091,1.34267 -8.564091,4.89894 0,2.14103 1.995867,3.01195 4.100601,3.01195 0.47175,0 1.52412,-0.0726 1.92329,-0.3266 -0.10887,-0.65319 -0.14515,-1.27009 -0.14515,-1.887 0,-2.03216 0.6169,-3.62885 2.57648,-3.62885 1.81442,0 2.06844,1.70556 2.06844,3.51999 v 3.26596 c -5.22554,0 -11.721182,0.58062 -11.721182,5.69729 0,3.73772 3.229677,5.47957 6.967392,5.47957 1.99587,0 3.91916,-0.47175 5.3707,-2.17731 z m -2.97566,-0.39917 c -1.63298,0 -2.28617,-1.41526 -2.28617,-3.04824 0,-2.79421 1.70556,-3.73771 4.60864,-3.73771 v 3.01194 c 0,1.81443 -0.54433,3.77401 -2.32247,3.77401 z"
         style="font-style:normal;font-variant:normal;font-weight:800;font-stretch:normal;font-size:36.2885px;font-family:Sansita;-inkscape-font-specification:'Sansita, Ultra-Bold';font-variant-ligatures:normal;font-variant-caps:normal;font-variant-numeric:normal;font-variant-east-asian:normal;stroke-width:0.907222"
         id="path3349" />
      <path
         d="m 125.45218,105.7975 c 1.52412,0 1.70556,1.81442 1.70556,3.30225 0,0.61691 -0.0726,1.52412 -0.21773,2.14102 0.39917,0.25402 1.56041,0.36289 2.03216,0.36289 2.57648,0 4.1006,-1.48783 4.1006,-4.06432 0,-3.08452 -1.99587,-4.86265 -5.04411,-4.86265 -2.43133,0 -4.35462,1.27009 -5.18925,3.55627 l -0.29031,-3.26597 -5.76987,0.43547 v 18.50713 h 7.11255 v -11.61232 c 0,-2.14102 0,-4.49977 1.5604,-4.49977 z"
         style="font-style:normal;font-variant:normal;font-weight:800;font-stretch:normal;font-size:36.2885px;font-family:Sansita;-inkscape-font-specification:'Sansita, Ultra-Bold';font-variant-ligatures:normal;font-variant-caps:normal;font-variant-numeric:normal;font-variant-east-asian:normal;stroke-width:0.907222"
         id="path3351" />
      <path
         d="m 143.16093,105.7975 c 1.52412,0 1.70556,1.81442 1.70556,3.30225 0,0.61691 -0.0726,1.52412 -0.21773,2.14102 0.39917,0.25402 1.56041,0.36289 2.03216,0.36289 2.57648,0 4.1006,-1.48783 4.1006,-4.06432 0,-3.08452 -1.99587,-4.86265 -5.0441,-4.86265 -2.43133,0 -4.35462,1.27009 -5.18926,3.55627 l -0.29031,-3.26597 -5.76987,0.43547 v 18.50713 h 7.11255 v -11.61232 c 0,-2.14102 0,-4.49977 1.5604,-4.49977 z"
         style="font-style:normal;font-variant:normal;font-weight:800;font-stretch:normal;font-size:36.2885px;font-family:Sansita;-inkscape-font-specification:'Sansita, Ultra-Bold';font-variant-ligatures:normal;font-variant-caps:normal;font-variant-numeric:normal;font-variant-east-asian:normal;stroke-width:0.907222"
         id="path3353" />
    </g>
    <g
       aria-label="Darryl"
       transform="matrix(1.1429623,0,0,0.87491948,-1.5904152,11.668319)"
       id="g3378"
       style="font-style:normal;font-variant:normal;font-weight:800;font-stretch:normal;font-size:36.2885px;line-height:1.25;font-family:Sansita;-inkscape-font-specification:'Sansita, Ultra-Bold';font-variant-ligatures:normal;font-variant-caps:normal;font-variant-numeric:normal;font-variant-east-asian:normal;stroke-width:0.907222">
      <path
         d="m 70.859498,99.663719 v 23.551241 c 3.229676,0.32659 6.096468,0.50804 9.144702,0.50804 8.201202,0 12.446956,-4.4272 12.446956,-12.66469 0,-8.09234 -3.882869,-11.830051 -11.975205,-11.830051 -2.90308,0 -6.713373,0.18144 -9.616453,0.43546 z m 9.652741,21.373931 c -0.653193,0 -1.233809,-0.0726 -1.887002,-0.25402 v -18.57971 c 0.762059,-0.21774 1.088655,-0.29031 1.850714,-0.29031 3.157099,0 3.592561,4.97152 3.592561,9.36243 0,4.35462 -0.435462,9.76161 -3.556273,9.76161 z"
         style="font-style:normal;font-variant:normal;font-weight:800;font-stretch:normal;font-size:36.2885px;font-family:Sansita;-inkscape-font-specification:'Sansita, Ultra-Bold';font-variant-ligatures:normal;font-variant-caps:normal;font-variant-numeric:normal;font-variant-east-asian:normal;fill:#ff0000;stroke-width:0.907222"
         id="path3366" />
      <path
         d="m 106.90878,120.53063 c 0.76206,1.30638 2.06844,1.92329 4.24575,1.92329 1.01608,0 2.61278,-0.29031 3.37483,-0.97979 -0.87092,-1.12494 -1.12494,-2.39504 -1.12494,-3.81029 v -7.83832 c 0,-5.33441 -3.73771,-7.14883 -9.07212,-7.14883 -3.51999,0 -8.564091,1.34267 -8.564091,4.89894 0,2.14103 1.995867,3.01195 4.100601,3.01195 0.47175,0 1.52412,-0.0726 1.92329,-0.3266 -0.10887,-0.65319 -0.14515,-1.27009 -0.14515,-1.887 0,-2.03216 0.6169,-3.62885 2.57648,-3.62885 1.81442,0 2.06844,1.70556 2.06844,3.51999 v 3.26596 c -5.22554,0 -11.721182,0.58062 -11.721182,5.69729 0,3.73772 3.229677,5.47957 6.967392,5.47957 1.99587,0 3.91916,-0.47175 5.3707,-2.17731 z m -2.97566,-0.39917 c -1.63298,0 -2.28617,-1.41526 -2.28617,-3.04824 0,-2.79421 1.70556,-3.73771 4.60864,-3.73771 v 3.01194 c 0,1.81443 -0.54433,3.77401 -2.32247,3.77401 z"
         style="font-style:normal;font-variant:normal;font-weight:800;font-stretch:normal;font-size:36.2885px;font-family:Sansita;-inkscape-font-specification:'Sansita, Ultra-Bold';font-variant-ligatures:normal;font-variant-caps:normal;font-variant-numeric:normal;font-variant-east-asian:normal;fill:#ffff00;stroke-width:0.907222"
         id="path3368" />
      <path
         d="m 125.45218,105.7975 c 1.52412,0 1.70556,1.81442 1.70556,3.30225 0,0.61691 -0.0726,1.52412 -0.21773,2.14102 0.39917,0.25402 1.56041,0.36289 2.03216,0.36289 2.57648,0 4.1006,-1.48783 4.1006,-4.06432 0,-3.08452 -1.99587,-4.86265 -5.04411,-4.86265 -2.43133,0 -4.35462,1.27009 -5.18925,3.55627 l -0.29031,-3.26597 -5.76987,0.43547 v 18.50713 h 7.11255 v -11.61232 c 0,-2.14102 0,-4.49977 1.5604,-4.49977 z"
         style="font-style:normal;font-variant:normal;font-weight:800;font-stretch:normal;font-size:36.2885px;font-family:Sansita;-inkscape-font-specification:'Sansita, Ultra-Bold';font-variant-ligatures:normal;font-variant-caps:normal;font-variant-numeric:normal;font-variant-east-asian:normal;fill:#ff00ff;stroke-width:0.907222"
         id="path3370" />
      <path
         d="m 143.16093,105.7975 c 1.52412,0 1.70556,1.81442 1.70556,3.30225 0,0.61691 -0.0726,1.52412 -0.21773,2.14102 0.39917,0.25402 1.56041,0.36289 2.03216,0.36289 2.57648,0 4.1006,-1.48783 4.1006,-4.06432 0,-3.08452 -1.99587,-4.86265 -5.0441,-4.86265 -2.43133,0 -4.35462,1.27009 -5.18926,3.55627 l -0.29031,-3.26597 -5.76987,0.43547 v 18.50713 h 7.11255 v -11.61232 c 0,-2.14102 0,-4.49977 1.5604,-4.49977 z"
         style="font-style:normal;font-variant:normal;font-weight:800;font-stretch:normal;font-size:36.2885px;font-family:Sansita;-inkscape-font-specification:'Sansita, Ultra-Bold';font-variant-ligatures:normal;font-variant-caps:normal;font-variant-numeric:normal;font-variant-east-asian:normal;fill:#aa4400;stroke-width:0.907222"
         id="path3372" />
      <g
         id="g3383">
        <path
           d="m 178.65101,95.78187 -7.11254,0.72577 v 21.41022 c 0,3.08452 1.81442,4.53606 4.86266,4.53606 1.01608,0 2.61277,-0.29031 3.37483,-0.97979 -0.87093,-1.12494 -1.12495,-2.39504 -1.12495,-3.81029 z"
           style="font-style:normal;font-variant:normal;font-weight:800;font-stretch:normal;font-size:36.2885px;line-height:1.25;font-family:Sansita;-inkscape-font-specification:'Sansita, Ultra-Bold';font-variant-ligatures:normal;font-variant-caps:normal;font-variant-numeric:normal;font-variant-east-asian:normal;stroke-width:0.907222"
           id="path3357"
           transform="matrix(1.0221828,0,0,1.0221828,-2.6124219,-0.78447778)" />
        <path
           d="m 178.65101,95.78187 -7.11254,0.72577 v 21.41022 c 0,3.08452 1.81442,4.53606 4.86266,4.53606 1.01608,0 2.61277,-0.29031 3.37483,-0.97979 -0.87093,-1.12494 -1.12495,-2.39504 -1.12495,-3.81029 z"
           style="font-style:normal;font-variant:normal;font-weight:800;font-stretch:normal;font-size:36.2885px;font-family:Sansita;-inkscape-font-specification:'Sansita, Ultra-Bold';font-variant-ligatures:normal;font-variant-caps:normal;font-variant-numeric:normal;font-variant-east-asian:normal;fill:#ff8080;stroke-width:0.907222"
           id="path3376" />
      </g>
      <g
         id="g3388">
        <g
           id="g3392">
          <path
             d="m 160.97855,128.91327 9.03584,-25.51081 h -5.84245 l -3.04824,13.49932 -2.8305,-13.49932 h -7.43914 l 4.57235,16.36611 h 2.72164 l -4.28205,8.67295 z"
             style="font-style:normal;font-variant:normal;font-weight:800;font-stretch:normal;font-size:36.2885px;line-height:1.25;font-family:Sansita;-inkscape-font-specification:'Sansita, Ultra-Bold';font-variant-ligatures:normal;font-variant-caps:normal;font-variant-numeric:normal;font-variant-east-asian:normal;stroke-width:0.907222"
             id="path3355"
             transform="matrix(1.0221828,0,0,1.0221828,-2.6124219,-0.78447778)" />
          <path
             d="m 160.97855,128.91327 9.03584,-25.51081 h -5.84245 l -3.04824,13.49932 -2.8305,-13.49932 h -7.43914 l 4.57235,16.36611 h 2.72164 l -4.28205,8.67295 z"
             style="font-style:normal;font-variant:normal;font-weight:800;font-stretch:normal;font-size:36.2885px;font-family:Sansita;-inkscape-font-specification:'Sansita, Ultra-Bold';font-variant-ligatures:normal;font-variant-caps:normal;font-variant-numeric:normal;font-variant-east-asian:normal;fill:#800000;stroke-width:0.907222"
             id="path3374" />
        </g>
      </g>
    </g>
  </g>
</svg>
