<?xml version="1.0" encoding="UTF-8" standalone="no"?>
<svg
   xmlns:dc="http://purl.org/dc/elements/1.1/"
   xmlns:cc="http://creativecommons.org/ns#"
   xmlns:rdf="http://www.w3.org/1999/02/22-rdf-syntax-ns#"
   xmlns:svg="http://www.w3.org/2000/svg"
   xmlns="http://www.w3.org/2000/svg"
   xmlns:sodipodi="http://sodipodi.sourceforge.net/DTD/sodipodi-0.dtd"
   xmlns:inkscape="http://www.inkscape.org/namespaces/inkscape"
   width="210mm"
   height="297mm"
   viewBox="0 0 210 297"
   version="1.1"
   id="svg8"
   inkscape:version="1.0.2 (e86c870, 2021-01-15)"
   sodipodi:docname="dimitri.svg">
  <defs
     id="defs2" />
  <sodipodi:namedview
     id="base"
     pagecolor="#ffffff"
     bordercolor="#666666"
     borderopacity="1.0"
     inkscape:pageopacity="0.0"
     inkscape:pageshadow="2"
     inkscape:zoom="15.839192"
     inkscape:cx="230.68731"
     inkscape:cy="557.20966"
     inkscape:document-units="mm"
     inkscape:current-layer="layer1"
     inkscape:document-rotation="0"
     showgrid="false"
     inkscape:window-width="1652"
     inkscape:window-height="948"
     inkscape:window-x="72"
     inkscape:window-y="27"
     inkscape:window-maximized="0" />
  <metadata
     id="metadata5">
    <rdf:RDF>
      <cc:Work
         rdf:about="">
        <dc:format>image/svg+xml</dc:format>
        <dc:type
           rdf:resource="http://purl.org/dc/dcmitype/StillImage" />
        <dc:title></dc:title>
      </cc:Work>
    </rdf:RDF>
  </metadata>
  <g
     inkscape:label="prenom"
     inkscape:groupmode="layer"
     id="layer1">
    <path
       id="text835"
       style="font-style:normal;font-variant:normal;font-weight:normal;font-stretch:normal;font-size:4.93889px;line-height:1.25;font-family:'Heroes Assemble 3D';-inkscape-font-specification:'Heroes Assemble 3D';fill:#000000;stroke-width:0.999999"
       d="M 225.46094 539.91992 C 224.45553 539.9703 223.27552 540.24997 222.48242 540.01562 C 217.8239 540.02696 213.17653 539.95011 208.51562 539.97656 L 208.51562 541.97656 L 208.51562 541.97852 L 208.51562 558.55859 C 206.89144 560.22419 203.71964 562.53127 207.96484 561.76172 C 209.98378 561.93331 211.92122 562.30557 214.08789 562.11523 C 216.35202 562.13791 218.29782 561.95454 220.48242 562.10156 C 220.53787 564.22142 219.7594 566.77797 222.49805 566.54492 C 224.07609 566.0009 227.9497 567.75142 227.73047 565.41016 C 227.85841 563.34544 227.07821 560.89249 229.51758 562.10156 L 238.44336 562.10156 C 238.49453 564.21783 237.72983 566.75493 240.45898 566.52344 C 244.58117 566.4932 247.94654 566.55248 252.0918 566.54492 C 252.32775 564.56876 251.02918 561.05962 254.2832 562.10156 C 256.12959 561.84607 258.99563 562.60922 260.21094 561.72266 L 260.21094 541.6543 C 260.24533 538.98742 257.18114 540.33103 255.21094 540.01562 C 246.46293 539.92907 237.78679 540.05947 229.01562 540.01562 C 228.41384 542.49741 228.31268 544.71399 227.39258 541.19922 C 227.29682 540.04807 226.46634 539.86954 225.46094 539.91992 z M 210.62109 541.48047 L 216.66992 541.48047 C 216.80681 541.48047 216.94319 541.51713 217.08008 541.5918 C 217.22941 541.65402 217.36579 541.74152 217.49023 541.85352 C 217.62712 541.95307 217.74615 542.05792 217.8457 542.16992 C 217.9577 542.28192 218.03811 542.37651 218.08789 542.45117 L 218.08789 542.48828 L 218.14453 542.54297 C 218.28142 542.6923 218.37918 542.81133 218.44141 542.89844 L 218.44141 558.65234 C 218.39163 558.72701 218.31831 558.82159 218.21875 558.93359 C 218.11919 559.04559 218.00726 559.15044 217.88281 559.25 C 217.75837 559.362 217.62004 559.4495 217.4707 559.51172 C 217.33381 559.58639 217.19744 559.62305 217.06055 559.62305 L 210.78906 559.62305 L 210.43359 559.26953 L 210.24805 559.26953 L 210.62109 558.89648 L 210.62109 541.48047 z M 246.62891 541.48047 L 252.52734 541.48047 C 252.66423 541.48047 252.8077 541.51713 252.95703 541.5918 C 253.10636 541.65402 253.24274 541.74152 253.36719 541.85352 C 253.50408 541.95307 253.6231 542.05792 253.72266 542.16992 C 253.82221 542.28192 253.89553 542.38164 253.94531 542.46875 L 253.96484 542.48828 L 254.02148 542.52539 C 254.19571 542.69961 254.30056 542.84308 254.33789 542.95508 L 254.33789 551.01758 C 254.313 551.25402 254.27634 551.46054 254.22656 551.63477 C 254.17678 551.80899 254.07707 551.96981 253.92773 552.11914 C 253.70373 552.34314 253.47277 552.50591 253.23633 552.60547 C 253.01233 552.69258 252.81998 552.74855 252.6582 552.77344 L 254.74805 559.60547 L 251.6875 559.60547 L 251.33203 559.25 L 251.24023 559.25 L 250.19336 555.9082 L 250.19336 564.04688 L 247.0957 564.04688 L 246.74023 563.69336 L 246.62891 563.69336 L 246.62891 541.48047 z M 218.74023 541.51758 L 221.95117 541.51758 L 221.95117 541.62891 L 222.30664 541.98438 L 222.30664 559.60547 L 219.20703 559.60547 L 218.85352 559.25 L 218.74023 559.25 L 218.74023 541.51758 z M 222.58594 541.51758 L 225.5918 541.51758 L 225.62891 541.66602 L 225.94531 541.98438 L 228.29883 551.89648 L 230.70703 541.51758 L 233.73047 541.51758 L 233.73047 541.62891 L 234.08398 541.98438 L 234.08398 559.60547 L 231.28516 559.60547 L 230.92969 559.25 L 230.81836 559.25 L 230.81836 554.9375 L 229.62305 559.60547 L 227.45898 559.60547 L 227.10352 559.25 L 227.00977 559.25 L 225.83398 554.58398 L 225.83398 564.04688 L 223.05273 564.04688 L 222.69922 563.69336 L 222.58594 563.69336 L 222.58594 541.51758 z M 234.40234 541.51758 L 237.61328 541.51758 L 237.61328 541.62891 L 237.9668 541.98438 L 237.9668 559.60547 L 234.86914 559.60547 L 234.51367 559.25 L 234.40234 559.25 L 234.40234 541.51758 z M 238.26562 541.51758 L 245.95703 541.51758 L 245.95703 541.62891 L 246.3125 541.98438 L 246.3125 544.37305 L 244.07227 544.37305 L 244.07227 564.0293 L 241.00977 564.0293 L 240.65625 563.67383 L 240.54297 563.67383 L 240.54297 544.37305 L 238.73242 544.37305 L 238.37891 544.01758 L 238.26562 544.01758 L 238.26562 541.51758 z M 254.74805 541.51758 L 257.95898 541.51758 L 257.95898 541.62891 L 258.31445 541.98438 L 258.31445 559.60547 L 255.21484 559.60547 L 254.86133 559.25 L 254.74805 559.25 L 254.74805 541.51758 z M 210.90039 541.75977 L 210.90039 558.9707 L 210.91992 558.9707 L 210.90039 558.98828 L 216.65039 558.98828 C 216.76239 558.98828 216.87433 558.96384 216.98633 558.91406 C 217.11077 558.85184 217.2298 558.77852 217.3418 558.69141 C 217.4538 558.6043 217.54643 558.5168 217.62109 558.42969 C 217.7082 558.33013 217.77126 558.24777 217.80859 558.18555 L 217.80859 542.54297 C 217.77126 542.48075 217.7082 542.40742 217.62109 542.32031 C 217.53398 542.22076 217.44135 542.13326 217.3418 542.05859 C 217.24224 541.97148 217.1303 541.90329 217.00586 541.85352 C 216.89386 541.79129 216.78192 541.75977 216.66992 541.75977 L 210.90039 541.75977 z M 246.9082 541.75977 L 246.9082 563.41406 L 249.55859 563.41406 L 249.55859 552.92188 L 251.44531 558.9707 L 254.03906 558.9707 L 251.9668 552.15625 C 252.05391 552.15625 252.24112 552.12668 252.52734 552.06445 C 252.81357 552.00223 253.09341 551.83432 253.36719 551.56055 C 253.49163 551.4361 253.57204 551.29264 253.60938 551.13086 C 253.64671 550.96908 253.67824 550.78187 253.70312 550.57031 L 253.70312 542.5625 C 253.67824 542.50028 253.62227 542.425 253.53516 542.33789 C 253.46049 542.23834 253.36786 542.15084 253.25586 542.07617 C 253.14386 541.98906 253.02484 541.91574 252.90039 541.85352 C 252.77595 541.79129 252.65179 541.75977 252.52734 541.75977 L 246.9082 541.75977 z M 219.02148 541.79688 L 219.02148 558.9707 L 221.67188 558.9707 L 221.67188 541.79688 L 219.02148 541.79688 z M 222.86719 541.79688 L 222.86719 563.41406 L 225.19922 563.41406 L 225.19922 550.86914 L 227.23438 558.9707 L 229.02539 558.9707 L 231.09766 550.86914 L 231.09766 558.9707 L 233.45117 558.9707 L 233.45117 541.79688 L 230.94922 541.79688 L 228.18555 553.66992 L 225.34961 541.79688 L 222.86719 541.79688 z M 234.68164 541.79688 L 234.68164 558.9707 L 237.33203 558.9707 L 237.33203 541.79688 L 234.68164 541.79688 z M 238.54688 541.79688 L 238.54688 543.73828 L 240.82422 543.73828 L 240.82422 563.39453 L 243.4375 563.39453 L 243.4375 543.73828 L 245.67773 543.73828 L 245.67773 541.79688 L 238.54688 541.79688 z M 255.0293 541.79688 L 255.0293 558.9707 L 257.67969 558.9707 L 257.67969 541.79688 L 255.0293 541.79688 z M 249.37305 543.62695 L 250.4375 543.62695 C 250.62417 543.62695 250.77277 543.65139 250.88477 543.70117 C 250.99677 543.73851 251.09648 543.85753 251.18359 544.05664 L 251.2207 544.24219 L 251.2207 549.50586 C 251.2207 549.66764 251.18918 549.7918 251.12695 549.87891 C 251.07718 549.96602 251.00899 550.03616 250.92188 550.08594 C 250.84721 550.12327 250.7668 550.14771 250.67969 550.16016 L 250.45508 550.16016 L 249.37305 550.16016 L 249.37305 543.62695 z M 213.40234 543.66406 L 214.56055 543.66406 C 214.73477 543.66406 214.87628 543.6885 214.98828 543.73828 C 215.10028 543.77561 215.18778 543.88755 215.25 544.07422 C 215.26244 544.08666 215.26953 544.1375 215.26953 544.22461 L 215.26953 556.30078 L 215.26953 556.52539 L 215.25 556.69336 C 215.17533 556.89247 215.07562 557.01663 214.95117 557.06641 C 214.83917 557.10374 214.69571 557.12305 214.52148 557.12305 L 213.40234 557.12305 L 213.40234 543.66406 z M 250.00781 544.26172 L 250.00781 549.87891 L 250.45508 549.87891 C 250.52974 549.87891 250.62946 549.86669 250.75391 549.8418 C 250.87835 549.80446 250.94141 549.69253 250.94141 549.50586 L 250.94141 544.26172 L 250.00781 544.26172 z M 214.03711 544.29883 L 214.03711 556.8418 L 214.52148 556.8418 C 214.62104 556.8418 214.70854 556.83666 214.7832 556.82422 C 214.85787 556.79933 214.92093 556.73627 214.9707 556.63672 L 214.98828 556.50586 L 214.98828 544.29883 L 214.03711 544.29883 z "
       transform="scale(0.26458333)" />
  </g>
  <g
     inkscape:groupmode="layer"
     id="layer2"
     inkscape:label="commune"
     sodipodi:insensitive="true">
    <g
       id="g3007"
       transform="matrix(1.4539724,0,0,1.4539724,-82.185883,-153.66413)">
      <g
         id="g1511">
        <path
           style="display:inline;fill:none;stroke:#000000;stroke-width:0.264583px;stroke-linecap:butt;stroke-linejoin:miter;stroke-opacity:1"
           d="m 112.83013,212.023 -1.49135,3.13505 -1.81214,-1.60273 0.50072,3.07744 -0.82678,0.85874 -3.23111,-1.58937 -1.06853,-3.13221 -1.01258,2.52343 -3.88783,-2.96635 -5.16503,1.1326 -4.76382,3.25921 0.16294,3.18766 -1.92546,1.05381"
           id="path70"
           sodipodi:nodetypes="ccccccccccccc" />
        <path
           style="display:inline;opacity:0.997;fill:none;stroke:#000000;stroke-width:0.264583px;stroke-linecap:butt;stroke-linejoin:miter;stroke-opacity:1"
           d="m 112.14233,204.15552 0.11544,2.36753 1.30032,1.61585 -0.057,1.396 -1.19578,-1.9e-4 -0.68152,0.83862 1.2063,1.65013"
           id="path187"
           sodipodi:nodetypes="ccccccc" />
        <path
           style="display:inline;opacity:0.997;fill:none;stroke:#000000;stroke-width:0.264583px;stroke-linecap:butt;stroke-linejoin:miter;stroke-opacity:1"
           d="m 112.14233,204.15552 -0.76378,-0.872 -1.42908,-0.39284 -0.39763,0.39812 -0.0136,0.82684 -1.11113,0.69371 -1.6319,-1.26235 -1.53518,0.0809 0.11519,-1.69782 -1.3541,-0.88704 -0.0691,1.03789 0.36197,0.34982 -1.00293,0.73648 -1.89781,0.0948 -1.83632,-1.53049 -2.89632,0.0724 -0.87826,0.43058 -1.11043,1.33036 -2.20622,-1.61408 -0.1541,-1.05478 -1.17673,-0.60335 -0.81125,0.96495 -2.64035,1.11817 1.32726,0.41545 -0.66335,1.36006 1.89496,2.38896 -2.30342,2.12389 0.3684,1.00151 -1.0896,-0.0771 -0.88946,0.42716 0.78319,2.07471 0.95397,1.31228 0.0928,3.00554 -1.61561,1.38852 1.75985,3.17221"
           id="path189"
           sodipodi:nodetypes="ccccccccccccccccccccccccccccccccccc" />
      </g>
    </g>
  </g>
  <g
     inkscape:groupmode="layer"
     id="layer3"
     inkscape:label="boss la"
     sodipodi:insensitive="true">
    <text
       xml:space="preserve"
       style="font-size:5.64444px;line-height:1.25;font-family:Madina;-inkscape-font-specification:Madina;stroke-width:0.264583"
       x="54.978233"
       y="154.17035"
       id="text841"><tspan
         sodipodi:role="line"
         id="tspan839"
         x="54.978233"
         y="154.17035"
         style="font-style:normal;font-variant:normal;font-weight:normal;font-stretch:normal;font-size:4.23333px;font-family:Z003;-inkscape-font-specification:Z003;stroke-width:0.264583">boss la</tspan></text>
  </g>
</svg>
