<?xml version="1.0" encoding="UTF-8" standalone="no"?>
<svg
   xmlns:dc="http://purl.org/dc/elements/1.1/"
   xmlns:cc="http://creativecommons.org/ns#"
   xmlns:rdf="http://www.w3.org/1999/02/22-rdf-syntax-ns#"
   xmlns:svg="http://www.w3.org/2000/svg"
   xmlns="http://www.w3.org/2000/svg"
   xmlns:sodipodi="http://sodipodi.sourceforge.net/DTD/sodipodi-0.dtd"
   xmlns:inkscape="http://www.inkscape.org/namespaces/inkscape"
   width="35.033649mm"
   height="33.345844mm"
   viewBox="0 0 35.033649 33.345844"
   version="1.1"
   id="svg1767"
   inkscape:version="1.0.2 (e86c870, 2021-01-15)"
   sodipodi:docname="Le François.svg">
  <defs
     id="defs1761" />
  <sodipodi:namedview
     id="base"
     pagecolor="#ffffff"
     bordercolor="#666666"
     borderopacity="1.0"
     inkscape:pageopacity="0.0"
     inkscape:pageshadow="2"
     inkscape:zoom="2.8"
     inkscape:cx="36.815697"
     inkscape:cy="64.831189"
     inkscape:document-units="mm"
     inkscape:current-layer="layer1"
     inkscape:document-rotation="0"
     showgrid="false"
     inkscape:window-width="1848"
     inkscape:window-height="1016"
     inkscape:window-x="72"
     inkscape:window-y="27"
     inkscape:window-maximized="1"
     fit-margin-top="0"
     fit-margin-left="0"
     fit-margin-right="0"
     fit-margin-bottom="0" />
  <metadata
     id="metadata1764">
    <rdf:RDF>
      <cc:Work
         rdf:about="">
        <dc:format>image/svg+xml</dc:format>
        <dc:type
           rdf:resource="http://purl.org/dc/dcmitype/StillImage" />
        <dc:title></dc:title>
      </cc:Work>
    </rdf:RDF>
  </metadata>
  <g
     inkscape:label="Calque 1"
     inkscape:groupmode="layer"
     id="layer1"
     transform="translate(-125.2751,-108.96271)">
    <g
       id="g2383">
      <path
         style="display:inline;fill:none;stroke:#000000;stroke-width:0.264583px;stroke-linecap:butt;stroke-linejoin:miter;stroke-opacity:1"
         d="m 144.50101,110.33442 c -0.0243,0.4147 -0.23959,0.8294 -0.61703,1.2441 -0.64333,-0.11618 -1.28667,-0.59114 -1.93,-1.4137 l 0.0761,0.99614 -0.76313,0.46599 c 0.82953,0.70684 1.71894,1.17413 2.6365,1.52886 0.62597,0.15293 1.32909,0.15154 2.13159,-0.0486 0.503,0.0643 0.53865,0.36223 0.71562,0.58951 -0.57953,0.67592 -1.23135,1.17113 -1.98735,1.40589 0.51942,0.9962 0.77914,1.90584 0.76877,2.72544 -0.65527,0.29164 -1.22308,0.64158 -1.61415,1.10934 -0.4634,0.64061 -0.76477,1.41084 -0.7874,2.40406 1.28585,0.0364 2.55249,-0.004 3.7507,-0.31812 -0.0957,0.71719 0.10509,1.43438 0.53905,2.15158 l 1.05002,-1.3754 c 0.87846,-0.57939 1.75693,-0.63663 2.63539,-0.60538 0.4519,0.24638 1.03389,0.59683 1.92555,1.19502 -0.76508,0.57317 -1.47501,1.20147 -2.49216,1.52256 0.84013,0.65807 1.74647,1.71343 2.67436,2.89803 0.34774,0.57073 0.44363,1.19182 0.35008,1.85081 -0.38527,0.0654 -0.77053,0.0794 -1.1558,0.0566 -0.58583,0.359 -0.37747,0.60456 -0.38841,0.88144 0.8099,0.89049 1.35443,1.71465 1.81333,2.51739 1.17739,-0.13643 2.35478,-0.14129 3.53217,0.33558 0.48797,-0.86109 1.24877,-1.26747 1.99364,-1.70039 0.17845,1.16586 0.25481,2.45421 0.85197,3.11762"
         id="path70"
         sodipodi:nodetypes="cccccccccccccccccccccccccc" />
      <path
         style="display:inline;opacity:0.997;fill:none;stroke:#000000;stroke-width:0.264583px;stroke-linecap:butt;stroke-linejoin:miter;stroke-opacity:1"
         d="m 144.75383,142.18765 2.30367,-1.02335 0.37246,-0.7121 -0.70777,-0.7687 1.29037,-0.69254 0.50983,-1.70028 1.68559,0.55137 0.67187,-1.15553 1.52422,1.23029 5.57467,-2.40283 2.23123,-1.64461"
         id="path79"
         sodipodi:nodetypes="ccccccccccc" />
      <path
         style="display:inline;opacity:0.997;fill:none;stroke:#000000;stroke-width:0.264583px;stroke-linecap:butt;stroke-linejoin:miter;stroke-opacity:1"
         d="m 144.75421,142.18765 -2.44447,-3.04232 -2.52326,-1.31019 c 0,0 -0.0469,-1.94471 -2.93033,-2.09847 -2.88338,-0.15376 -4.21632,-0.18496 -4.21632,-0.18496 l -0.0956,-1.51509 -2.13259,-1.62666 0.4758,-1.77165 -0.88444,-1.17099 -0.5111,-1.98533 -1.7006,-0.19858 -1.3561,-1.20148 0.71807,-1.29369 -0.7636,-0.83021 -0.96965,-4.2409 1.2142,-1.25859 -1.06477,-2.04171 0.96611,-0.007 0.78638,0.3692 1.6752,-0.40822 2.13935,1.08261 2.33894,-1.08441 c 0,0 3.74663,-6.33897 4.93504,-6.64916 1.18841,-0.3102 2.06406,-0.58871 2.06406,-0.58871 l 3.38917,-0.0353 0.63719,1.23906"
         id="path135" />
    </g>
  </g>
</svg>
