<?xml version="1.0" encoding="UTF-8" standalone="no"?>
<svg
   xmlns:dc="http://purl.org/dc/elements/1.1/"
   xmlns:cc="http://creativecommons.org/ns#"
   xmlns:rdf="http://www.w3.org/1999/02/22-rdf-syntax-ns#"
   xmlns:svg="http://www.w3.org/2000/svg"
   xmlns="http://www.w3.org/2000/svg"
   xmlns:sodipodi="http://sodipodi.sourceforge.net/DTD/sodipodi-0.dtd"
   xmlns:inkscape="http://www.inkscape.org/namespaces/inkscape"
   width="32.573723mm"
   height="29.199533mm"
   viewBox="0 0 32.573723 29.199533"
   version="1.1"
   id="svg1126"
   inkscape:version="1.0.2 (e86c870, 2021-01-15)"
   sodipodi:docname="Saint-Joseph.svg">
  <defs
     id="defs1120" />
  <sodipodi:namedview
     id="base"
     pagecolor="#ffffff"
     bordercolor="#666666"
     borderopacity="1.0"
     inkscape:pageopacity="0.0"
     inkscape:pageshadow="2"
     inkscape:zoom="5.6"
     inkscape:cx="54.314326"
     inkscape:cy="49.162762"
     inkscape:document-units="mm"
     inkscape:current-layer="layer1"
     inkscape:document-rotation="0"
     showgrid="false"
     inkscape:window-width="1652"
     inkscape:window-height="948"
     inkscape:window-x="110"
     inkscape:window-y="65"
     inkscape:window-maximized="0"
     fit-margin-top="0"
     fit-margin-left="0"
     fit-margin-right="0"
     fit-margin-bottom="0" />
  <metadata
     id="metadata1123">
    <rdf:RDF>
      <cc:Work
         rdf:about="">
        <dc:format>image/svg+xml</dc:format>
        <dc:type
           rdf:resource="http://purl.org/dc/dcmitype/StillImage" />
        <dc:title></dc:title>
      </cc:Work>
    </rdf:RDF>
  </metadata>
  <g
     inkscape:label="Calque 1"
     inkscape:groupmode="layer"
     id="layer1"
     transform="translate(-85.676487,-118.74297)">
    <g
       id="g1759">
      <path
         style="display:inline;opacity:0.997;fill:none;stroke:#000000;stroke-width:0.264583px;stroke-linecap:butt;stroke-linejoin:miter;stroke-opacity:1"
         d="m 118.1474,136.08006 -1.03552,1.2787 -0.1417,0.98989 0.63281,2.29754 0.17074,0.85104 -0.36152,0.30561 -0.13562,0.5206 -1.83475,0.99544 -1.18784,-0.60089 -2.75045,0.8818 c 0,0 -0.49068,2.18504 -1.68819,0.9135 -1.19751,-1.27155 -2.6831,1.70129 -3.33639,1.8215 -0.65329,0.12021 -3.03088,0.0964 -3.03088,0.0964 l -0.72391,0.31995 -0.60062,-0.0653 -0.0826,1.09065 -0.71337,-0.17658 -0.0565,-1.74409 -3.554601,-0.004 -1.857325,-0.73871 0.200647,-1.01655 -0.06607,-0.94417 -3.263797,-3.21977 -1.008756,-0.004 -5.223034,-3.68551 1.556761,-2.44442 -1.181439,-4.34366 2.854122,-3.07265 -2.82865,-2.58384 -1.0834,-3.17198 0.551712,-1.79483"
         id="path149" />
      <path
         style="display:inline;opacity:0.997;fill:none;stroke:#000000;stroke-width:0.264583px;stroke-linecap:butt;stroke-linejoin:miter;stroke-opacity:1"
         d="m 86.36723,118.83135 2.57566,2.86863 5.85774,4.1868 3.75647,1.6442 0.58729,-0.72525 4.26415,2.69983 1.46422,-1.40388 0.91768,1.45918 0.73624,-0.40631 1.96646,1.14446 2.15685,2.39689 1.60889,0.0257 0.24895,0.62118 -0.0548,0.90674 2.52853,1.13428 0.2985,-0.83698 2.86734,1.53324"
         id="path147"
         sodipodi:nodetypes="ccccccccccccccccc" />
    </g>
  </g>
</svg>
