<?xml version="1.0" encoding="UTF-8" standalone="no"?>
<svg
   xmlns:dc="http://purl.org/dc/elements/1.1/"
   xmlns:cc="http://creativecommons.org/ns#"
   xmlns:rdf="http://www.w3.org/1999/02/22-rdf-syntax-ns#"
   xmlns:svg="http://www.w3.org/2000/svg"
   xmlns="http://www.w3.org/2000/svg"
   xmlns:sodipodi="http://sodipodi.sourceforge.net/DTD/sodipodi-0.dtd"
   xmlns:inkscape="http://www.inkscape.org/namespaces/inkscape"
   version="1.1"
   id="svg44"
   width="700"
   height="700"
   viewBox="0 0 700 700"
   sodipodi:docname="martinique3dprint.svg"
   inkscape:version="1.0.2 (e86c870879, 2021-01-15, custom)">
  <metadata
     id="metadata50">
    <rdf:RDF>
      <cc:Work
         rdf:about="">
        <dc:format>image/svg+xml</dc:format>
        <dc:type
           rdf:resource="http://purl.org/dc/dcmitype/StillImage" />
        <dc:title></dc:title>
      </cc:Work>
    </rdf:RDF>
  </metadata>
  <defs
     id="defs48" />
  <sodipodi:namedview
     pagecolor="#ffffff"
     bordercolor="#666666"
     borderopacity="1"
     objecttolerance="10"
     gridtolerance="10"
     guidetolerance="10"
     inkscape:pageopacity="0"
     inkscape:pageshadow="2"
     inkscape:window-width="1920"
     inkscape:window-height="1017"
     id="namedview46"
     showgrid="false"
     inkscape:zoom="0.93303299"
     inkscape:cx="429.66388"
     inkscape:cy="336.78847"
     inkscape:window-x="-8"
     inkscape:window-y="-8"
     inkscape:window-maximized="1"
     inkscape:current-layer="layer5"
     inkscape:document-rotation="0"
     inkscape:lockguides="true" />
  <g
     inkscape:groupmode="layer"
     id="layer5"
     inkscape:label="communeColor">
    <path
       style="fill:#0000ff;stroke:#000000;stroke-width:0.676354;stroke-linejoin:round"
       d="m 294.67099,322.88471 v -3.17413 l -7.45792,-0.52938 c -4.10186,-0.29116 -8.60337,-0.94358 -10.00336,-1.44982 -2.36573,-0.85546 -2.5414,-1.18493 -2.48846,-4.66689 0.0554,-3.64401 -0.12064,-3.91784 -6.43863,-10.01438 -4.04698,-3.90515 -7.17381,-6.27724 -8.29473,-6.29261 -1.39432,-0.0191 -16.52898,-9.87106 -19.96208,-12.99435 -0.3578,-0.32551 0.54573,-2.51622 2.00784,-4.86826 l 2.65837,-4.27643 -2.14673,-8.19584 -2.14673,-8.19584 5.21357,-5.52666 c 2.86747,-3.03966 5.21358,-5.8433 5.21358,-6.2303 0,-0.387 -2.40064,-2.94931 -5.33476,-5.69403 -4.61033,-4.31274 -5.59788,-5.76405 -7.27252,-10.68769 -1.54825,-4.55205 -1.76685,-6.13825 -1.08747,-7.89091 l 0.85031,-2.1936 4.59533,4.99778 c 10.45225,11.36764 42.35099,30.53681 42.35099,25.45032 0,-1.49736 1.49697,-0.83841 9.38542,4.13135 l 7.84644,4.9433 2.58021,-2.50084 2.58021,-2.50083 1.43498,2.42923 c 1.53586,2.6 1.94841,2.79262 3.65923,1.70851 1.74381,-1.10502 7.65028,2.69803 11.88059,7.64965 2.41876,2.8312 4.43061,4.44239 5.55592,4.44946 4.12323,0.0259 5.41788,0.88989 5.41788,3.61558 0,2.44933 0.34018,2.76971 5.07468,4.77933 5.89306,2.50138 6.29261,2.56053 6.29261,0.93143 0,-0.66986 0.19483,-1.21793 0.43296,-1.21793 0.85352,0 8.49848,4.09693 8.49848,4.55432 0,0.25697 -0.73075,1.39622 -1.62389,2.53167 -1.96094,2.49292 -2.04677,5.41858 -0.33204,11.31703 1.71063,5.88438 1.08411,7.97463 -3.01747,10.0671 -2.79753,1.4272 -3.68387,1.54627 -5.60046,0.75239 -1.89354,-0.78432 -3.24579,-0.6311 -8.03078,0.91001 -3.16462,1.01923 -5.75384,2.25946 -5.75384,2.75607 0,0.4966 -0.49444,1.5791 -1.09875,2.40554 -1.03264,1.41222 -1.21451,1.42156 -3.02249,0.15519 -3.18905,-2.2337 -5.39832,-1.65003 -9.9335,2.62439 l -4.21413,3.97181 -6.90157,0.47846 c -3.79586,0.26317 -7.54098,0.50813 -8.32248,0.54438 -0.82569,0.0383 -1.42092,0.70494 -1.42092,1.59141 0,0.83904 -0.36537,1.75133 -0.81195,2.02733 -0.48841,0.30185 -0.81194,-0.76299 -0.81194,-2.67232 z"
       id="path385" />
    <path
       style="fill:#0000ff;stroke:#000000;stroke-width:0.676354;stroke-linejoin:round"
       d="m 216.55843,249.1874 c 0.40706,-4.90869 -0.3538,-5.50875 -3.86581,-3.04884 -1.38769,0.97198 -2.05019,1.09003 -2.2782,0.40598 -0.18321,-0.54962 -1.85614,-0.96454 -3.88891,-0.96454 -3.89886,0 -5.3916,-1.39586 -6.51229,-6.08962 -0.31987,-1.33972 -1.63918,-3.78713 -2.93179,-5.43869 -1.29261,-1.65155 -2.91318,-4.65506 -3.60125,-6.67445 -1.40044,-4.11006 -3.27987,-5.553 -11.67019,-8.95985 -4.14526,-1.68316 -6.0647,-2.03699 -8.9457,-1.64906 -3.20055,0.43095 -3.90888,0.23753 -5.55779,-1.51764 -1.25999,-1.3412 -3.82576,-2.48031 -7.69926,-3.41818 -6.64638,-1.60925 -7.44557,-2.07684 -13.33763,-7.80355 l -4.3167,-4.19556 2.58,-1.63354 c 2.53718,-1.60644 2.55285,-1.65466 0.94399,-2.9061 -0.8998,-0.69991 -2.31873,-1.67844 -3.15318,-2.17451 -1.39667,-0.83031 -1.29146,-1.03967 1.32464,-2.6358 2.60277,-1.588 3.98587,-1.73411 16.44198,-1.73689 12.51529,-0.003 13.72969,-0.13257 15.22406,-1.62693 0.89314,-0.89315 1.62389,-1.98928 1.62389,-2.43585 0,-1.39806 1.4913,-0.88496 1.98943,0.68449 0.74656,2.35222 14.55047,10.6828 17.70157,10.6828 1.77362,0 2.98911,0.53826 3.66711,1.6239 0.72013,1.15311 1.89488,1.62446 4.05207,1.62583 2.85742,0.002 3.17653,0.26717 5.37033,4.46572 1.28283,2.45509 2.61369,4.4638 2.95748,4.4638 0.34379,0 1.98753,-1.78658 3.65276,-3.97017 4.23228,-5.54972 9.53567,-9.83851 11.52329,-9.31873 1.11519,0.29163 2.02915,-0.24139 3.0281,-1.76598 1.20896,-1.84511 1.60251,-2.01177 2.53825,-1.07494 0.6091,0.60981 1.35819,3.30101 1.66465,5.98045 0.49277,4.30841 1.02485,5.41491 4.60188,9.56987 2.22457,2.58399 3.90569,4.83476 3.73583,5.0017 -0.16987,0.16695 -1.5732,0.62989 -3.11851,1.02875 -2.56016,0.66083 -2.95509,1.17992 -4.44764,5.84596 l -1.63799,5.12074 2.09636,5.86974 c 2.5961,7.26894 1.96051,8.91579 -3.12702,8.10226 l -3.21501,-0.5141 -1.80626,4.45033 c -1.73318,4.27028 -4.78244,7.28421 -10.28618,10.16699 -1.62732,0.85237 -1.67392,0.7276 -1.32036,-3.53579 z"
       id="path387" />
    <path
       style="fill:#0000ff;stroke:#000000;stroke-width:0.676354;stroke-linejoin:round"
       d="m 163.26342,262.03373 c -1.58399,-1.10284 -2.17845,-1.1511 -3.55905,-0.2889 -1.37926,0.86137 -2.18125,0.79889 -4.77832,-0.37222 -2.54177,-1.14618 -3.35034,-1.21689 -4.35746,-0.38105 -1.00726,0.83594 -1.23658,0.81561 -1.23658,-0.10966 0,-0.62476 -1.951,-3.93889 -4.33555,-7.36473 l -4.33556,-6.2288 0.62782,-4.6264 c 0.47184,-3.47702 0.31339,-5.41221 -0.63779,-7.78944 -0.69608,-1.73968 -1.11968,-3.30896 -0.94134,-3.48731 0.17835,-0.17834 2.87465,0.0705 5.9918,0.553 l 5.66754,0.87725 5.5009,-3.36693 c 4.7492,-2.90683 5.92655,-3.29886 8.61572,-2.86884 2.15002,0.3438 4.21749,0.0312 6.67481,-1.00915 2.65629,-1.12461 4.7967,-1.40416 8.43171,-1.10124 2.67943,0.22328 5.49067,0.0568 6.24719,-0.36994 1.91846,-1.08219 4.41014,1.33677 5.08558,4.93718 0.29274,1.56046 1.79043,4.22984 3.3282,5.93197 1.61195,1.78423 2.79594,3.95228 2.79594,5.11973 0,1.11372 0.77455,3.00963 1.72121,4.21312 l 1.72121,2.18816 -2.60431,6.73633 c -2.2412,5.7971 -2.99636,6.92328 -5.41619,8.07721 -1.94018,0.92521 -3.25315,1.10473 -4.23533,0.57909 -0.80039,-0.42836 -1.91239,-0.45963 -2.54049,-0.0715 -0.67229,0.41551 -2.35911,0.19339 -4.23671,-0.55788 -2.89237,-1.1573 -3.61908,-1.12299 -9.97414,0.47091 -7.97192,1.99941 -6.84857,1.96165 -9.22081,0.30999 z"
       id="path389" />
    <path
       style="fill:#0000ff;stroke:#000000;stroke-width:0.676354;stroke-linejoin:round"
       d="m 180.23655,343.16135 c -6.13988,-1.9886 -7.12618,-2.59611 -9.50067,-5.85189 -1.7986,-2.46614 -2.81743,-4.95937 -3.17224,-7.76294 l -0.52268,-4.13 -8.01775,-3.94492 c -7.15068,-3.51829 -8.15214,-4.28078 -9.26045,-7.05073 -0.68349,-1.7082 -1.2427,-3.42136 -1.2427,-3.80703 0,-0.38567 1.93343,-1.48594 4.2965,-2.44504 2.36308,-0.95911 8.66584,-4.65474 14.00613,-8.21252 6.95122,-4.631 10.43089,-6.46906 12.24848,-6.46998 2.2811,-0.001 2.72102,-0.42475 4.33326,-4.1725 1.99835,-4.64528 1.75299,-5.1381 -3.01535,-6.05656 -1.45136,-0.27956 -2.63884,-0.75885 -2.63884,-1.06509 0,-0.30624 1.4703,-1.99251 3.26732,-3.74725 3.2303,-3.15431 3.2615,-3.24185 2.75402,-7.7274 -0.48211,-4.26134 -0.38415,-4.62156 1.61266,-5.92991 1.66019,-1.0878 2.48996,-1.19817 3.78746,-0.50377 1.32443,0.70882 2.25966,0.53631 4.6098,-0.85031 l 2.94828,-1.73953 1.45267,1.88939 c 0.79898,1.03917 1.68148,3.55366 1.96112,5.58776 0.46667,3.39451 0.83535,3.88212 4.48729,5.93498 3.4126,1.91832 3.86291,2.45325 3.16421,3.75879 -1.36637,2.55308 -0.98035,6.35481 0.73866,7.27479 1.50133,0.80349 1.46363,1.1169 -1.12672,9.36816 -2.65172,8.44675 -2.66716,8.58786 -1.46246,13.37029 l 1.21754,4.83343 -5.89933,7.54663 c -3.24464,4.15065 -6.23388,7.98 -6.64277,8.50967 -0.45898,0.59454 -0.39716,1.61007 0.16155,2.65403 0.70003,1.30801 0.57876,2.72594 -0.53544,6.26059 -1.19289,3.78427 -1.89242,4.75845 -4.07037,5.66846 -1.44646,0.60436 -2.73301,1.08321 -2.859,1.0641 -0.12599,-0.0191 -3.31207,-1.03328 -7.08018,-2.2537 z"
       id="path391" />
    <path
       style="fill:#0000ff;stroke:#000000;stroke-width:0.676354;stroke-linejoin:round"
       d="m 224.1716,373.91846 c -5.23055,-8.25897 -13.14922,-16.57316 -24.28041,-25.49314 -2.7995,-2.24338 -5.09,-4.51543 -5.09,-5.04901 0,-0.53358 0.57,-2.56893 1.26666,-4.52301 0.69667,-1.95408 1.06439,-4.59162 0.81716,-5.86119 -0.38113,-1.95716 0.51442,-3.56287 5.887,-10.55534 l 6.33651,-8.24703 -1.21299,-5.10828 c -1.20863,-5.08989 -1.20313,-5.13878 1.52693,-13.58569 l 2.73992,-8.47741 -1.91302,-2.03631 c -1.65885,-1.76577 -1.78733,-2.31214 -0.96707,-4.11242 1.63362,-3.58541 1.1298,-4.73733 -3.11464,-7.12122 -3.32319,-1.86648 -4.05892,-2.68162 -4.05892,-4.49703 0,-1.21953 -0.73075,-3.65067 -1.6239,-5.40252 -2.05566,-4.03206 -2.06983,-3.76909 0.57963,-10.75833 2.14252,-5.65192 2.33733,-5.88663 4.88568,-5.88663 1.81798,0 2.65419,0.38371 2.65419,1.21792 0,1.54508 1.08254,1.53958 4.10007,-0.0208 2.27854,-1.17828 2.39553,-1.15706 2.39553,0.43454 0,0.92033 -0.61586,2.61323 -1.36857,3.76201 -1.94401,2.96693 -1.49309,9.4611 0.99784,14.37109 1.09704,2.16243 1.99462,5.24459 1.99462,6.84924 0,1.8575 0.62706,3.58501 1.72584,4.75461 1.55281,1.6529 1.71139,2.67782 1.58184,10.22364 -0.13786,8.02972 -0.0558,8.46941 1.92794,10.33306 1.71394,1.61016 2.07193,2.68727 2.07193,6.23387 0,4.23171 0.0358,4.29412 2.75633,4.80449 1.54435,0.28972 3.50796,0.11483 4.46572,-0.39775 1.51805,-0.81244 1.7094,-0.69585 1.7094,1.04152 0,1.076 0.54806,3.50974 1.21792,5.40832 0.66986,1.89858 1.21793,4.80758 1.21793,6.46443 0,2.17101 0.76468,4.01359 2.73758,6.5965 3.18321,4.16744 4.20276,8.89302 2.59169,12.01235 -0.94259,1.82504 -0.89143,3.08078 0.36037,8.84458 l 1.45892,6.71756 -4.38623,5.67694 c -3.54645,4.59004 -4.38623,6.26932 -4.38623,8.77094 0,2.23205 -0.55317,3.61367 -1.98559,4.95937 -1.09207,1.02594 -2.09686,2.74349 -2.23286,3.81675 -0.20126,1.58823 -1.2034,0.44169 -5.38472,-6.16057 z"
       id="path393" />
    <path
       style="fill:#0000ff;stroke:#000000;stroke-width:0.676354;stroke-linejoin:round"
       d="m 143.77869,306.03204 c -0.51825,-1.13745 -0.94228,-3.3404 -0.94228,-4.89545 0,-2.17713 -1.32798,-4.75654 -5.77432,-11.21579 -6.58163,-9.56121 -6.62145,-10.03868 -1.26528,-15.17287 2.16362,-2.07395 3.67892,-4.41423 4.19778,-6.4832 0.64063,-2.55457 1.54005,-3.67152 4.26273,-5.29372 3.3046,-1.96891 3.45079,-1.9873 3.45079,-0.43401 0,2.15943 1.20093,2.79985 2.44327,1.30292 1.23447,-1.48744 3.01929,-1.49854 5.66288,-0.0352 1.39151,0.77025 2.46937,0.87388 3.47754,0.33432 0.97756,-0.52318 2.37389,-0.4518 4.21987,0.21571 2.36452,0.85502 3.69485,0.74111 9.307,-0.79692 5.7752,-1.58272 6.80185,-1.66161 8.69759,-0.66832 1.37364,0.71972 1.81456,1.3332 1.2216,1.69967 -0.51659,0.31927 -0.92787,2.58282 -0.92787,5.10671 0,4.19784 -0.27033,4.84968 -3.65377,8.81004 -2.00958,2.35223 -3.65377,4.44506 -3.65377,4.65072 0,0.20567 1.73554,0.84494 3.85676,1.4206 2.12121,0.57566 3.94975,1.11196 4.06341,1.19178 0.11365,0.0798 -0.19612,1.30051 -0.6884,2.71264 -0.68665,1.96974 -1.37335,2.56751 -2.94947,2.56751 -1.2001,0 -5.97859,2.59217 -11.49085,6.23338 -10.61903,7.01457 -17.89147,10.81757 -20.68632,10.81757 -1.23374,0 -2.21269,-0.71567 -2.82889,-2.06808 z"
       id="path395" />
    <path
       style="fill:#0000ff;stroke:#000000;stroke-width:0.676354;stroke-linejoin:round"
       d="m 286.07593,392.69671 c -0.57711,-3.60907 -1.51259,-4.48249 -5.63404,-5.26024 -2.17907,-0.41122 -2.68633,-0.10488 -4.50124,2.71822 -1.95519,3.04132 -2.12442,3.12631 -3.83678,1.92693 -1.33221,-0.93312 -1.79137,-2.07539 -1.79137,-4.45648 0,-3.60159 -0.12956,-3.65696 -4.74593,-2.02821 -3.31639,1.17009 -3.33135,1.16629 -5.08111,-1.29103 l -1.75493,-2.46456 -1.68629,1.68629 -1.68629,1.68629 -2.06314,-1.97051 -2.06313,-1.97051 -8.52547,1.14354 c -4.68901,0.62895 -9.16488,1.15511 -9.94638,1.16927 -2.13389,0.0386 -1.76291,-2.88204 0.79143,-6.23096 1.49567,-1.96093 2.13194,-3.66709 1.96413,-5.26686 -0.19213,-1.83168 0.79899,-3.75765 4.3867,-8.52436 l 4.63491,-6.15803 -1.4232,-6.78178 c -1.15745,-5.51545 -1.24086,-7.22198 -0.44671,-9.13923 1.55377,-3.75113 0.28331,-9.65494 -2.92129,-13.57523 -2.08591,-2.55176 -2.72324,-4.09556 -2.72324,-6.59651 0,-1.79579 -0.54806,-4.81846 -1.21792,-6.71704 -0.66986,-1.89858 -1.21792,-4.50216 -1.21792,-5.78573 0,-2.61503 -1.17993,-2.96036 -3.81312,-1.11601 -2.84143,1.99022 -4.30638,0.76946 -4.30638,-3.58856 0,-3.20646 -0.40111,-4.20451 -2.49405,-6.20574 l -2.49405,-2.38477 0.56475,-7.56412 c 0.55894,-7.48627 0.54175,-7.58812 -1.66988,-9.89656 -1.70284,-1.77738 -2.13178,-2.87042 -1.80248,-4.59307 0.28084,-1.4691 -0.23631,-3.57977 -1.47698,-6.02812 -1.05003,-2.07213 -2.15813,-5.64448 -2.46245,-7.93857 -0.54766,-4.12843 -0.53086,-4.17107 1.64284,-4.17107 3.52207,0 11.09333,-6.35685 13.37606,-11.23057 1.81996,-3.88568 2.06111,-4.08262 4.44499,-3.62993 1.38634,0.26327 2.65732,0.59334 2.8244,0.73349 0.16709,0.14015 0.89784,-0.44095 1.6239,-1.29133 1.27686,-1.49547 1.46322,-1.41599 5.68771,2.4258 l 4.3676,3.97194 -4.97656,5.51397 c -2.73711,3.03268 -4.97656,5.99555 -4.97656,6.58415 0,0.5886 0.93274,4.38763 2.07276,8.4423 l 2.07276,7.37212 -2.88471,4.34468 c -1.58659,2.38958 -2.88471,4.64784 -2.88471,5.01835 0,1.30947 20.09218,14.77836 22.04558,14.77836 1.34195,0 3.79954,1.86441 7.90313,5.99557 5.87034,5.90978 5.95132,6.04882 5.6595,9.71791 l -0.29605,3.72234 3.96886,1.64938 c 2.84362,1.18176 5.77978,1.64939 10.35619,1.64939 h 6.38732 v 3.15977 c 0,2.59427 0.32696,3.24509 1.82688,3.63646 1.00479,0.26218 2.81642,1.30657 4.02585,2.32088 l 2.19896,1.84421 0.13124,13.80314 c 0.0722,7.59173 -0.13686,14.44912 -0.46454,15.23864 -0.32768,0.78952 -0.16775,2.46885 0.3554,3.73184 0.52315,1.263 0.83879,4.2708 0.70143,6.684 -0.22168,3.8946 -0.46315,4.41788 -2.14871,4.65656 -1.82193,0.258 -1.87821,0.47207 -1.3873,5.27767 0.28143,2.75482 0.71693,6.41197 0.9678,8.12698 0.42999,2.93959 0.36136,3.0675 -1.19817,2.23286 -0.90985,-0.48694 -2.93065,-0.88535 -4.49064,-0.88535 -2.23069,0 -3.27406,0.55929 -4.88617,2.61918 l -2.04981,2.61917 z"
       id="path397" />
    <path
       style="fill:#0000ff;stroke:#000000;stroke-width:0.676354;stroke-linejoin:round"
       d="m 351.34181,278.59166 c -4.41197,-2.44596 -4.67434,-2.49521 -5.71949,-1.07376 -1.05511,1.43501 -1.23577,1.4216 -4.91267,-0.36478 -2.84434,-1.38188 -3.81729,-2.31378 -3.81729,-3.65625 0,-3.44987 -0.84853,-4.37033 -4.02883,-4.37033 -2.63407,0 -3.60882,-0.59811 -7.25118,-4.44938 -4.89248,-5.17307 -10.78357,-8.90669 -13.09831,-8.30137 -1.15547,0.30216 -1.99105,-0.23903 -2.99618,-1.94059 -1.74366,-2.95178 -2.39111,-2.94618 -5.47973,0.0474 l -2.48343,2.40703 -7.53961,-4.84288 c -4.14678,-2.66359 -7.84314,-4.84289 -8.21413,-4.84289 -0.37099,0 -1.10053,0.5133 -1.6212,1.14067 -2.61511,3.151 -30.49901,-14.19844 -40.6843,-25.31389 -2.68995,-2.93561 -4.78265,-5.66198 -4.65045,-6.05859 0.13221,-0.39662 2.82252,-1.59065 5.97846,-2.65341 10.38843,-3.49826 14.47175,-5.67742 17.27829,-9.22095 1.46495,-1.84966 3.24232,-3.36301 3.94972,-3.36301 0.7074,0 3.62417,-0.40714 6.48171,-0.90476 l 5.19554,-0.90477 2.09682,-4.27534 2.09683,-4.27535 4.54742,2.74217 c 3.94186,2.37702 5.26048,2.74246 9.90223,2.74426 4.32196,0.002 5.63828,0.31532 6.82443,1.62599 1.18778,1.31249 2.50077,1.6239 6.84675,1.6239 6.0136,0 8.24487,1.0828 10.25959,4.97882 1.05527,2.04068 1.69148,2.40849 3.85212,2.22697 1.44951,-0.12177 3.54701,0.41436 4.76785,1.21869 1.42716,0.94026 4.37076,1.57146 8.52547,1.8281 7.86385,0.48577 18.66551,5.05225 19.46256,8.22792 0.30772,1.22603 2.24962,2.90952 5.53732,4.80044 4.24832,2.44341 5.40767,3.61414 7.20192,7.27256 2.05946,4.19914 2.25967,4.36033 5.41598,4.36033 h 3.27748 l -1.23312,2.38459 c -1.20004,2.32061 -1.16578,2.43254 1.27664,4.1717 2.43563,1.73431 2.49319,1.91971 1.94884,6.27659 -0.30851,2.46922 -1.49653,6.39714 -2.64004,8.72872 l -2.07912,4.23924 -4.9103,0.55553 c -4.18907,0.47394 -7.20318,1.37872 -8.57096,2.57285 -0.18333,0.16006 0.33348,1.02783 1.14848,1.9284 1.4377,1.58863 1.43142,1.69152 -0.21061,3.45576 -0.93083,1.00011 -1.81302,2.91451 -1.96042,4.25423 -0.1987,1.80594 -0.74044,2.50294 -2.0949,2.69531 -1.30803,0.18577 -1.82689,0.80632 -1.82689,2.18494 0,1.05901 -0.27567,2.09586 -0.6126,2.30409 -0.33693,0.20823 -2.69344,-0.77499 -5.23669,-2.18494 z"
       id="path399" />
    <path
       style="fill:#0000ff;stroke:#000000;stroke-width:0.676354;stroke-linejoin:round"
       d="m 321.72878,201.15187 c -1.41811,-0.17763 -3.0157,-0.84992 -3.55021,-1.49396 -0.66329,-0.79921 -2.63964,-1.17099 -6.22501,-1.17099 -4.02372,0 -5.73633,-0.38006 -7.31762,-1.6239 -1.57297,-1.2373 -3.34316,-1.63496 -7.43562,-1.67037 -4.88336,-0.0423 -5.88693,-0.36642 -11.05036,-3.56928 l -5.67921,-3.52279 -0.8385,-7.03729 c -0.81934,-6.87644 -0.78902,-7.12202 1.32646,-10.74422 1.19073,-2.03881 3.35119,-4.458 4.80102,-5.37597 l 2.63606,-1.66903 -2.67487,-2.38999 -2.67487,-2.39 1.5283,-2.83788 c 0.84057,-1.56084 2.68253,-3.3883 4.09324,-4.06102 1.78407,-0.85076 2.87782,-2.17118 3.59268,-4.33724 1.0025,-3.0376 0.95497,-3.19467 -1.93454,-6.39302 -1.62926,-1.80339 -2.96229,-3.7819 -2.96229,-4.39667 0,-0.61478 1.5648,-2.40001 3.47732,-3.96719 1.91253,-1.56717 4.16202,-4.1208 4.99887,-5.67474 1.17775,-2.18695 3.23352,-3.72088 9.09828,-6.78881 6.56359,-3.43348 7.70369,-4.34348 8.52616,-6.8053 1.00619,-3.01176 1.13469,-3.13977 7.84245,-7.81323 l 4.30693,-3.00073 2.82518,1.34723 c 1.55385,0.74098 4.18967,1.34724 5.85737,1.34724 2.41306,0 3.29971,-0.4409 4.34238,-2.15931 l 1.31019,-2.15931 0.58351,1.83848 c 0.48869,1.53972 0.98068,1.75905 3.02755,1.34967 2.43734,-0.48747 2.44254,-0.48047 1.89706,2.55369 -0.30084,1.67338 -1.10162,3.46977 -1.77951,3.99199 -1.07626,0.82911 -1.09256,1.44676 -0.12853,4.8717 0.84463,3.00074 1.7926,4.36962 4.03505,5.82664 2.52567,1.64105 3.0587,2.55331 3.85409,6.59619 0.89167,4.53227 1.04517,4.73839 4.51608,6.06394 2.94903,1.12625 4.18457,2.30883 6.89342,6.59799 3.42001,5.41519 4.10264,5.79715 7.82875,4.38049 1.74817,-0.66466 2.49077,-0.57789 3.47464,0.40597 1.12709,1.12709 1.11114,1.2513 -0.16072,1.2513 -0.78082,0 -1.77817,0.96308 -2.23114,2.15448 -0.72221,1.89957 -0.44583,2.59604 2.33604,5.88663 2.31235,2.73519 3.83857,3.80017 5.71344,3.98677 2.20614,0.21958 2.49485,0.50727 2.09758,2.09013 -0.28679,1.14264 0.0188,2.2334 0.80944,2.88961 2.40475,1.99576 1.50533,3.29112 -2.28515,3.29112 -3.20989,0 -3.6565,0.2444 -4.59734,2.51578 -0.93156,2.249 -9.75036,10.50268 -11.17335,10.45736 -0.31174,-0.01 -1.48025,-0.73256 -2.59668,-1.60585 -2.66971,-2.08828 -3.48259,-2.02888 -7.36121,0.53787 -2.31802,1.53399 -3.11147,2.53609 -2.7323,3.45078 1.29772,3.13049 1.07361,3.89077 -2.04372,6.93324 -3.20117,3.12431 -3.36189,3.18142 -6.13357,2.17916 -3.89371,-1.40798 -5.80612,-0.59114 -6.96217,2.97375 -0.53615,1.65331 -1.67974,4.0108 -2.54131,5.23888 -1.39278,1.98526 -2.03304,2.21845 -5.77393,2.10291 -2.31409,-0.0714 -5.36771,-0.27527 -6.78581,-0.4529 z"
       id="path401" />
    <path
       style="fill:#0000ff;stroke:#000000;stroke-width:0.676354;stroke-linejoin:round"
       d="m 241.54648,206.8914 c -3.51775,-3.95325 -4.08396,-5.09954 -4.68318,-9.48112 -0.63083,-4.61274 -0.54739,-5.08542 1.11971,-6.34291 1.4901,-1.12399 1.62491,-1.57133 0.78027,-2.58906 -0.88565,-1.06715 -0.39582,-1.30594 3.6938,-1.80066 2.59317,-0.31369 5.13663,-0.90637 5.65213,-1.31707 0.51549,-0.4107 1.90589,-0.50362 3.08976,-0.20649 1.61877,0.40629 2.64466,0.0779 4.13741,-1.32449 l 1.98492,-1.86474 v 2.57739 c 0,1.41756 0.20948,2.57738 0.46552,2.57738 0.25603,0 3.02207,-2.28361 6.14676,-5.07469 l 5.68126,-5.07468 -0.3282,-9.33742 -0.32821,-9.33742 4.03516,-4.65557 c 3.33463,-3.84731 3.86191,-4.86431 3.03722,-5.85801 -0.80737,-0.97282 -0.66645,-1.668 0.7379,-3.64022 1.55214,-2.17978 1.67682,-3.08909 1.17814,-8.59216 -0.52905,-5.83827 -0.45232,-6.26711 1.49384,-8.34918 1.97883,-2.11702 2.02402,-2.40058 1.27513,-8.00135 l -0.77641,-5.80656 3.73843,-7.18464 c 3.19377,-6.13787 3.85616,-8.249303 4.54644,-14.492181 l 0.808,-7.307546 4.03728,-3.730152 c 2.2205,-2.051585 4.04889,-4.06116 4.0631,-4.465723 0.0142,-0.404564 0.5259,-1.395079 1.1371,-2.201146 1.02387,-1.35029 1.33989,-1.370061 4.01735,-0.251345 1.76838,0.738875 4.04229,1.029847 5.80839,0.743248 2.85789,-0.463771 2.89371,-0.435062 2.34011,1.875245 -0.30922,1.290424 -0.87705,2.961616 -1.26185,3.713759 -1.62673,3.179692 -0.9032,4.068885 3.15713,3.879997 5.49782,-0.255759 5.36899,-0.311395 8.06008,3.480928 1.63148,2.299118 2.70786,5.101222 3.22521,8.39605 l 0.77648,4.945266 -5.66018,3.98618 c -4.15255,2.92443 -5.90861,4.72894 -6.59287,6.77476 -0.79682,2.38235 -2.03246,3.37588 -8.48207,6.82006 -5.99013,3.19881 -7.96724,4.71911 -9.57251,7.36079 -1.11272,1.83112 -3.64076,4.60813 -5.61786,6.17113 -4.17852,3.30334 -4.22683,5.22583 -0.23562,9.37608 3.72562,3.87406 3.10631,6.27067 -2.63969,10.21512 -1.05945,0.72728 -2.63355,2.63566 -3.49801,4.24086 l -1.57173,2.91854 2.1383,2.25473 2.1383,2.25473 -1.86697,1.38455 c -1.02684,0.7615 -2.83877,3.04279 -4.02653,5.06954 -2.12783,3.63087 -2.14611,3.78939 -1.24453,10.79469 0.50325,3.91035 1.28767,7.89048 1.74315,8.84476 0.65876,1.38014 0.38849,2.48527 -1.32129,5.40279 -2.04894,3.49626 -2.38838,3.70937 -7.25912,4.55757 -2.81032,0.4894 -5.52182,0.88981 -6.02556,0.88981 -0.50374,0 -2.54532,1.73554 -4.53685,3.85676 -2.48411,2.64589 -5.11731,4.43033 -8.38705,5.68365 -2.62135,1.00479 -5.11706,1.80668 -5.54602,1.782 -0.42895,-0.0247 -2.58061,-2.06851 -4.78147,-4.54183 z"
       id="path403" />
    <path
       style="fill:#0000ff;stroke:#000000;stroke-width:0.676354;stroke-linejoin:round"
       d="m 237.60536,184.99592 c -0.32054,-0.32054 -0.5828,-1.65679 -0.5828,-2.96945 0,-1.57867 -0.68719,-2.9272 -2.02987,-3.98335 -2.31739,-1.82286 -2.56612,-3.2708 -0.81195,-4.72664 0.9221,-0.76527 1.21793,-2.83647 1.21793,-8.52707 v -7.5163 l -3.50806,-2.87459 c -1.92944,-1.58103 -5.54022,-3.46536 -8.02398,-4.1874 -4.85257,-1.41068 -5.51891,-2.48846 -5.51891,-8.92661 0,-1.72222 -0.68467,-3.24201 -2.02987,-4.50576 -1.50572,-1.41455 -2.02987,-2.74137 -2.02987,-5.13833 0,-2.74103 -0.47159,-3.63502 -3.10779,-5.89152 l -3.10779,-2.66015 0.73541,-5.9432 c 0.40447,-3.26877 0.55199,-7.58913 0.3278,-9.60082 -0.37745,-3.38707 -0.16933,-3.91303 2.81382,-7.11112 2.61947,-2.808219 3.59408,-3.359995 5.21583,-2.952962 1.87841,0.471452 1.99441,0.304195 1.99441,-2.875575 0,-1.856877 -0.58414,-4.505741 -1.29808,-5.886363 -1.21599,-2.351455 -1.18317,-2.913801 0.51879,-8.891124 1.4643,-5.14264 2.12182,-6.380902 3.38826,-6.380902 1.0651,0 2.00974,-1.046175 2.93199,-3.24713 0.74834,-1.785922 1.95396,-3.440122 2.67916,-3.676001 0.93462,-0.30399 1.48203,-1.873815 1.87998,-5.391229 0.47206,-4.172447 1.10228,-5.638719 3.95912,-9.211362 1.86874,-2.336951 4.55781,-4.786836 5.97573,-5.444189 2.46704,-1.14373 2.67678,-1.099024 4.8717,1.038382 1.86762,1.818688 9.56659,5.163169 19.50504,8.473115 0.53481,0.178116 1.36819,1.793759 1.85195,3.590319 0.71785,2.665879 1.80802,3.922291 5.92919,6.833293 4.10139,2.897034 5.91961,3.652018 9.68258,4.020531 4.20259,0.411565 4.93734,0.233225 7.90948,-1.919781 1.80209,-1.305422 3.55371,-2.353279 3.89251,-2.32857 0.33879,0.02471 1.4769,1.134151 2.52913,2.465429 1.70874,2.1619 1.80571,2.679857 0.90764,4.848001 -0.55303,1.335124 -2.73941,3.986424 -4.85862,5.891779 -3.44617,3.09841 -3.91124,3.932252 -4.40346,7.89528 -1.14258,9.199107 -2.31377,13.216259 -5.48453,18.811749 l -3.26631,5.7641 0.54954,6.59717 c 0.50543,6.06764 0.41148,6.72212 -1.17057,8.15385 -1.5121,1.36844 -1.70245,2.35824 -1.57403,8.18479 0.12714,5.7685 -0.0951,6.95428 -1.71331,9.14308 -1.54938,2.09565 -1.68525,2.72478 -0.81493,3.77345 0.88692,1.06868 0.4609,1.88237 -2.82453,5.39476 l -3.86899,4.13626 0.56767,8.97123 0.56767,8.97123 -3.87763,3.93683 c -4.08667,4.14906 -5.15661,4.7132 -5.15661,2.7189 0,-1.7542 -3.84224,-1.54416 -4.97648,0.27204 -0.61659,0.98731 -1.57975,1.36585 -2.85506,1.12205 -1.05852,-0.20235 -2.9265,0.0183 -4.15107,0.49039 -3.14582,1.21269 -8.66522,1.9615 -9.35723,1.26949 z"
       id="path405" />
    <path
       style="fill:#0000ff;stroke:#000000;stroke-width:0.676354;stroke-linejoin:round"
       d="m 210.65036,201.28306 c -1.91332,-3.26482 -2.40782,-3.60809 -5.19773,-3.60809 -2.43389,0 -3.26335,-0.3953 -3.93846,-1.877 -0.69637,-1.52836 -1.36152,-1.82069 -3.58111,-1.57387 -3.79421,0.42192 -15.8121,-7.1479 -18.15294,-11.43415 -0.89315,-1.63542 -1.84244,-2.97447 -2.10955,-2.97568 -0.26711,-0.001 -1.13634,1.44079 -1.93163,3.20442 l -1.44598,3.20662 -4.63353,-2.339 c -3.72945,-1.88262 -4.78339,-2.86475 -5.40153,-5.0335 -0.63681,-2.23425 -1.20869,-2.73754 -3.34801,-2.94646 -2.04833,-0.20003 -3.20398,-1.12032 -5.60777,-4.46572 -1.66526,-2.31757 -3.17191,-4.39621 -3.34811,-4.61918 -0.1762,-0.22298 -1.42336,0.82906 -2.77148,2.33786 l -2.45112,2.74328 -2.32127,-2.33787 -2.32127,-2.33786 2.79128,-4.46572 c 1.88127,-3.00982 2.79726,-5.46755 2.80962,-7.53864 0.0163,-2.73344 0.64624,-3.67641 5.70199,-8.53563 5.00076,-4.80637 5.68364,-5.81874 5.68364,-8.42594 0,-1.62977 0.54801,-5.82704 1.21779,-9.32726 0.66978,-3.50022 1.21785,-6.45538 1.21792,-6.56702 8e-5,-0.11165 -0.67213,-0.20299 -1.4938,-0.20299 -1.02478,0 -1.77701,-0.95619 -2.39532,-3.04481 -1.10883,-3.74553 -1.96915,-9.94638 -1.37998,-9.94638 0.23847,0 3.39208,1.48749 7.00801,3.30555 5.77905,2.90565 6.93106,3.21926 9.52239,2.59225 2.0889,-0.50545 4.06878,-0.35979 6.79417,0.49982 3.50519,1.10557 4.25171,1.08531 8.4197,-0.22853 2.51542,-0.79292 7.61152,-3.23609 11.32466,-5.42928 3.71315,-2.19319 6.91818,-3.98761 7.12231,-3.98761 1.07085,0 1.30098,4.89526 0.52404,11.14749 l -0.87587,7.04849 2.85073,2.47229 c 2.02565,1.75674 3.00742,3.4123 3.39209,5.72009 0.29774,1.78629 1.40946,4.41089 2.47047,5.83246 1.3599,1.82202 1.92911,3.65915 1.92911,6.2262 0,5.37358 0.50994,6.04145 5.73148,7.50653 2.8528,0.80046 6.07524,2.46085 8.0402,4.14278 3.26968,2.79873 3.27927,2.82408 3.27927,8.67554 0,5.0213 -0.29936,6.27237 -2.07341,8.66519 l -2.0734,2.79658 2.82638,2.43585 c 2.41254,2.07919 2.90815,3.11944 3.38488,7.10455 0.4483,3.74746 0.33176,4.66872 -0.59059,4.66872 -0.63199,0 -1.61481,-0.45673 -2.18403,-1.01494 -0.83124,-0.81518 -1.39347,-0.56933 -2.85657,1.24909 -1.28607,1.59838 -2.24794,2.10044 -3.2716,1.70763 -1.10279,-0.42318 -2.97293,1.01646 -7.81077,6.01278 l -6.36082,6.56918 z"
       id="path407" />
    <path
       style="fill:#0000ff;stroke:#000000;stroke-width:0.676354;stroke-linejoin:round"
       d="m 133.68521,207.27334 c -1.3484,-0.98224 -2.21609,-2.37652 -2.21609,-3.561 0,-3.08132 -3.57023,-3.56238 -6.38988,-0.86098 -1.22345,1.17214 -2.81399,2.13116 -3.53453,2.13116 -2.16909,0 -3.90199,-0.92939 -3.362,-1.80312 0.27908,-0.45155 0.43769,-4.27788 0.35247,-8.50296 l -0.15495,-7.68194 -9.21014,-11.10174 c -5.99615,-7.22765 -10.855496,-12.23511 -13.925115,-14.34955 -3.948787,-2.72003 -5.511849,-4.59206 -9.618839,-11.52021 -4.876981,-8.22707 -4.93058,-8.2821 -9.775566,-10.03616 -2.679434,-0.97005 -5.15866,-2.02857 -5.509392,-2.35225 -0.350732,-0.32369 0.448854,-2.88603 1.776857,-5.69409 2.768911,-5.85486 6.358257,-8.76027 9.045632,-7.32203 1.856148,0.99338 1.854424,0.99417 12.545767,-5.74143 4.701153,-2.96175 8.562266,-4.83288 9.972746,-4.83288 1.50962,0 4.92443,-1.81601 9.92405,-5.27767 4.19235,-2.90272 8.26171,-5.27767 9.043,-5.27767 0.78129,0 2.06803,-1.09613 2.85942,-2.43585 1.00443,-1.700366 2.12152,-2.472623 3.69968,-2.557641 1.24343,-0.06699 2.7126,-0.158331 3.26482,-0.202988 0.55222,-0.04466 1.77986,1.556239 2.72809,3.557549 1.95648,4.12927 3.59691,4.84111 12.57205,5.45543 l 5.34285,0.3657 0.89844,3.79553 c 0.49414,2.08755 1.13286,5.57278 1.41938,7.74496 0.39842,3.02055 0.90417,4.04963 2.1504,4.37553 1.33325,0.34865 1.54348,0.88529 1.15654,2.95215 -0.2601,1.38932 -0.80752,5.19432 -1.21649,8.45555 l -0.74358,5.92951 -5.34831,4.90075 c -4.82026,4.41689 -5.34831,5.21031 -5.34831,8.03596 0,2.14367 -0.89809,4.62459 -2.83974,7.84458 -1.56185,2.59015 -2.84067,5.09194 -2.84182,5.55953 -0.001,0.46758 1.45643,2.27435 3.23906,4.01504 l 3.24114,3.16489 2.38858,-2.2884 2.38858,-2.2884 2.64607,3.75401 c 2.20561,3.12913 3.07806,3.75402 5.24124,3.75402 2.3019,0 2.65293,0.30796 3.10641,2.72524 0.4089,2.17961 1.15409,3.01512 3.72201,4.17309 1.76592,0.79631 3.01646,1.76222 2.77899,2.14646 -0.23747,0.38423 -5.5174,0.69861 -11.73315,0.69861 -10.64164,0 -11.56315,0.12837 -15.7851,2.19902 -2.46605,1.20945 -4.48372,2.42099 -4.48372,2.69231 0,0.2713 1.5147,1.34459 3.36599,2.38507 l 3.36598,1.89179 -2.14806,1.12548 c -2.50537,1.3127 -2.58705,1.70944 -0.85966,4.17563 1.44605,2.06454 0.94287,3.08432 -2.85695,5.79002 -2.07207,1.47545 -2.16759,1.47312 -4.33485,-0.10561 z"
       id="path409" />
    <path
       style="fill:#0000ff;stroke:#000000;stroke-width:0.676354;stroke-linejoin:round"
       d="m 121.60247,267.70562 c -6.85291,-9.90631 -8.11591,-12.30793 -11.20877,-21.31367 l -3.48562,-10.14937 4.05157,-15.02107 4.05157,-15.02107 4.79323,0.27158 c 4.03451,0.22859 5.03569,0.004 6.32492,-1.42091 2.09269,-2.3124 3.42671,-2.12324 3.96377,0.56206 0.30515,1.52575 1.45345,2.81344 3.55228,3.9835 l 3.10137,1.72896 3.61369,-3.13101 3.61369,-3.13102 4.09983,3.4784 c 3.14735,2.67029 5.42027,3.80364 9.78348,4.87834 3.59106,0.88451 6.83715,2.31957 8.81667,3.89776 2.86736,2.28601 3.37429,2.42378 5.97814,1.62463 2.34892,-0.7209 3.57258,-0.58821 7.01634,0.76086 6.43781,2.52197 6.64786,3.43469 0.65496,2.846 -4.19185,-0.41177 -5.87222,-0.19001 -9.10804,1.202 -3.2251,1.3874 -4.42571,1.54732 -6.41373,0.85429 -2.19841,-0.76637 -3.04315,-0.48965 -8.34888,2.73486 l -5.90301,3.5875 -6.90157,-1.12379 c -3.79586,-0.61808 -7.00631,-1.02271 -7.13432,-0.89918 -0.12801,0.12354 0.5485,2.19034 1.50335,4.59291 1.37468,3.45892 1.65019,5.46698 1.32344,9.64597 -0.40672,5.20177 -0.3612,5.34983 3.16536,10.29486 1.96791,2.75946 3.57802,5.32473 3.57802,5.70061 0,0.37588 -1.61639,1.5664 -3.59198,2.64561 -2.91289,1.59124 -3.69438,2.50807 -4.13364,4.84954 -0.33773,1.80025 -1.8895,4.32828 -4.12155,6.71451 -1.96893,2.10495 -3.57987,4.20821 -3.57987,4.67392 0,2.18895 -1.90344,0.02 -9.0547,-10.31758 z"
       id="path411" />
    <path
       style="fill:#0000ff;stroke:#000000;stroke-width:0.676354;stroke-linejoin:round"
       d="m 179.37414,113.53781 c -2.53458,-0.80312 -4.52425,-0.94085 -6.49559,-0.44964 -2.54728,0.63472 -3.7037,0.25195 -11.15725,-3.69298 -8.01403,-4.24157 -8.47777,-4.3808 -12.79435,-3.84148 -2.60629,0.32563 -4.9007,0.2275 -5.48772,-0.23471 -0.55483,-0.43688 -1.94048,-1.016 -3.07921,-1.28695 -2.07518,-0.49376 -4.83115,-4.837164 -4.83115,-7.613884 0,-1.086374 0.36886,-0.985377 2.00091,0.547854 1.69246,1.589977 2.55641,1.803627 5.60423,1.385878 4.11774,-0.564399 12.78791,1.901392 15.58775,4.433142 0.92193,0.83365 1.90647,1.51573 2.18787,1.51573 0.2814,0 1.93929,-2.38382 3.68419,-5.297373 3.44893,-5.758855 7.7113,-9.390828 18.02686,-15.36072 3.698,-2.140136 7.64246,-3.743918 10.0403,-4.082299 2.94527,-0.415633 4.05392,-0.956951 4.36043,-2.129048 0.33723,-1.289559 1.08583,-1.553087 4.17008,-1.467972 2.65082,0.07315 5.41719,-0.650578 9.38327,-2.454838 4.83302,-2.198652 5.78485,-2.397931 6.76617,-1.416609 0.98132,0.981322 0.85838,2.041433 -0.87397,7.535976 -1.80427,5.722714 -1.89662,6.624725 -0.87953,8.591552 0.62502,1.208649 1.13639,3.31182 1.13639,4.673713 0,1.913806 -0.35962,2.476171 -1.58348,2.476171 -0.88329,0 -2.93591,1.61793 -4.64195,3.658896 -3.48605,4.170441 -15.72301,11.838381 -22.75132,14.256481 -2.51207,0.86428 -4.60155,1.53529 -4.64328,1.49114 -0.0417,-0.0442 -1.72007,-0.60127 -3.72965,-1.23803 z"
       id="path413" />
    <path
       style="fill:#0000ff;stroke:#000000;stroke-width:0.676354;stroke-linejoin:round"
       d="m 159.44078,100.31673 c -1.7639,-1.683589 -12.93015,-4.303345 -16.34643,-3.835085 -3.19782,0.438306 -3.604,0.274398 -5.50893,-2.223094 -1.1311,-1.482954 -2.05655,-3.04558 -2.05655,-3.4725 0,-0.426919 1.82688,-2.825938 4.05974,-5.331153 3.14109,-3.524222 4.06193,-5.168552 4.06938,-7.266637 0.009,-2.4817 0.4361,-2.946017 5.0375,-5.474213 7.38568,-4.057994 12.28917,-9.711047 14.79827,-17.060362 1.48944,-4.36269 1.81737,-6.306252 1.1913,-7.060615 -0.64823,-0.781068 0.66187,-3.055562 5.24854,-9.112096 3.36181,-4.439165 7.44843,-9.172484 9.08136,-10.518487 2.74218,-2.260331 3.03986,-2.941101 3.89694,-8.911865 l 0.92797,-6.464588 3.45078,1.672053 c 2.16555,1.049298 3.45079,2.217294 3.45079,3.135988 0,1.253081 0.72452,1.463935 5.03025,1.463935 4.14652,0 5.39468,0.334603 7.10456,1.904576 1.14087,1.047516 5.83141,3.485896 10.42342,5.418621 7.7546,3.263822 8.72822,3.937629 13.67314,9.462718 4.23615,4.733157 5.79328,5.948673 7.62049,5.948673 2.78729,0 4.86511,0.730645 4.86511,1.710769 0,0.398794 -0.71416,0.72508 -1.58703,0.72508 -0.96426,0 -3.16826,1.954204 -5.61649,4.979931 -3.47584,4.295732 -4.10564,5.636455 -4.58405,9.758428 -0.39484,3.401922 -0.98021,5.006274 -2.03201,5.569181 -0.81258,0.434875 -1.89621,2.05968 -2.40809,3.610676 l -0.93068,2.819994 -3.26762,-1.307441 c -3.21359,-1.285827 -3.37415,-1.263454 -9.71206,1.353284 -5.23836,2.162765 -7.11407,2.568944 -10.02237,2.170316 -3.25542,-0.446204 -3.60104,-0.3278 -3.83439,1.313616 -0.20721,1.457587 -1.04271,1.959947 -4.35077,2.615973 -8.19622,1.625408 -24.14134,12.634077 -27.65802,19.095374 -2.2804,4.18986 -2.71542,4.54846 -4.01405,3.30895 z"
       id="path415" />
    <path
       style="fill:#0000ff;stroke:#000000;stroke-width:0.676354;stroke-linejoin:round"
       d="m 133.16912,84.813978 c -0.0287,-3.349292 0.47574,-8.32787 1.12088,-11.063506 0.64514,-2.735637 1.4223,-7.407379 1.72703,-10.381651 0.47525,-4.638713 0.34955,-5.55729 -0.88386,-6.459185 -1.09014,-0.797129 -1.34544,-1.821011 -1.05559,-4.233443 0.24483,-2.037739 -0.15544,-4.447162 -1.11308,-6.700123 -1.64183,-3.862645 -1.96241,-13.55272 -0.68946,-20.840387 0.45755,-2.61946 0.38439,-5.708102 -0.2062,-8.705975 -0.50344,-2.555425 -0.70448,-4.857091 -0.44675,-5.114813 0.25772,-0.257723 4.43923,-0.653858 9.29224,-0.880301 4.85301,-0.226442 10.31549,-0.7868505 12.13884,-1.245351 2.64817,-0.6659111 3.95507,-0.5642971 6.49559,0.5050455 2.12414,0.8940815 4.27652,1.1771515 6.48075,0.8523155 2.67664,-0.394453 3.58272,-0.174343 4.79456,1.164721 1.17775,1.301407 2.49933,1.651089 6.24007,1.651089 5.30882,0 5.1201,-0.33019 3.9445,6.901571 -0.69026,4.246152 -1.2494,5.299214 -4.35455,8.201152 -1.95943,1.831199 -6.21278,6.855276 -9.45189,11.164615 -4.78327,6.36372 -5.70738,8.054329 -4.92073,9.002192 0.75833,0.91373 0.65424,2.191336 -0.47958,5.886326 -1.95035,6.355938 -7.19424,12.463013 -14.22956,16.571866 -5.05666,2.953249 -5.54787,3.474219 -5.54787,5.884057 0,2.010774 -0.94157,3.70356 -3.93182,7.068744 -2.1625,2.433647 -4.14323,4.97288 -4.40162,5.642738 -0.25839,0.669859 -0.49325,-1.522405 -0.5219,-4.871697 z"
       id="path417" />
    <path
       style="fill:#0000ff;stroke:#000000;stroke-width:0.676354;stroke-linejoin:round"
       d="m 123.77779,86.015914 c -3.39513,-3.974038 -4.22358,-4.526974 -6.49011,-4.331701 -3.34798,0.288445 -9.07598,-4.080007 -8.23238,-6.278411 0.84815,-2.210229 -3.29815,-6.117675 -5.82,-5.484731 -1.26402,0.317247 -2.24081,0.08991 -2.69498,-0.627228 -1.010869,-1.596163 -0.90329,-7.183138 0.23311,-12.106276 0.84434,-3.657906 0.80254,-4.297666 -0.32192,-4.926948 -1.75576,-0.982571 -13.116921,-15.119817 -14.769298,-18.378154 -1.328367,-2.619418 -1.327985,-2.620721 0.915315,-3.120278 4.504888,-1.003186 4.979059,-1.273189 7.085169,-4.034441 1.872884,-2.455477 2.594374,-2.809988 5.718827,-2.809988 2.731317,0 4.054827,-0.479277 5.605417,-2.029874 1.38433,-1.384327 2.92486,-2.029873 4.84409,-2.029873 2.46432,0 2.88048,-0.301697 3.34718,-2.426538 0.67052,-3.052867 1.40915,-3.506047 3.87973,-2.380374 1.63335,0.744202 2.67852,0.538084 6.12348,-1.207609 5.45725,-2.7654 6.6438,-2.715748 6.6438,0.278016 0,1.310645 0.33786,3.271627 0.75079,4.357737 0.4564,1.200422 0.45983,3.210999 0.009,5.127543 -1.2843,5.45662 -1.01863,20.189313 0.41402,22.959764 0.69427,1.342552 1.2623,4.429632 1.2623,6.860178 0,3.194583 0.34017,4.54971 1.22757,4.89024 1.41965,0.544771 1.04221,6.558673 -0.90596,14.434967 -0.62346,2.520607 -1.13356,7.361857 -1.13356,10.758332 0,3.396474 -0.3355,6.175408 -0.74555,6.175408 -0.41004,0 -1.26491,0.199302 -1.8997,0.442894 -0.7193,0.276023 -2.62052,-1.273507 -5.04608,-4.112655 z"
       id="path419" />
    <path
       style="fill:#0000ff;stroke:#000000;stroke-width:0.676354;stroke-linejoin:round"
       d="m 63.455985,125.41146 c -3.509231,-7.33284 -5.584554,-10.6801 -7.478438,-12.06183 -2.540561,-1.85354 -2.604684,-2.0456 -2.081367,-6.23409 0.409811,-3.28001 0.20967,-4.96032 -0.830376,-6.97155 -2.359331,-4.562446 -2.649644,-6.804496 -1.981706,-15.304439 0.625884,-7.964776 0.787066,-8.48224 4.514953,-14.494965 6.822217,-11.003584 7.218223,-11.808571 7.648774,-15.548158 l 0.423501,-3.678358 4.370365,-0.249153 4.370365,-0.249151 -0.482163,-4.07112 C 71.4635,42.610693 71.585445,42.2935 75.658,36.851416 c 2.315649,-3.094361 4.814814,-5.626111 5.5537,-5.626111 0.739155,0 1.816215,1.141404 2.394529,2.537578 1.364999,3.295397 7.346164,11.39929 12.210052,16.543421 l 3.838754,4.059931 -0.957528,3.771127 c -0.526639,2.074119 -0.767361,5.910498 -0.534937,8.525287 l 0.422589,4.754161 3.237501,0.263488 c 4.03301,0.328232 5.28797,1.334101 5.28797,4.238383 0,3.391182 5.99059,8.353618 9.33742,7.734855 2.18042,-0.403116 2.81746,0.0134 6.07504,3.972032 3.31619,4.029848 3.96479,4.443653 7.30755,4.662151 2.97454,0.194429 3.71311,0.552399 3.90501,1.892677 0.24142,1.686143 -0.54341,1.968844 -5.53328,1.993148 -1.50343,0.0073 -2.45607,0.766173 -3.57865,2.850677 -0.92785,1.722909 -2.14089,2.840699 -3.08277,2.840699 -0.85413,0 -4.95934,2.37495 -9.1227,5.27767 -4.79344,3.34202 -8.37853,5.27767 -9.77495,5.27767 -1.29025,0 -5.838709,2.22063 -10.962539,5.35208 -7.527006,4.60016 -8.995501,5.22461 -10.45263,4.44478 -2.870079,-1.53602 -7.976704,2.50454 -10.688831,8.45741 l -2.226197,4.8863 z"
       id="path421" />
    <path
       style="fill:#0000ff;stroke:#000000;stroke-width:0.676354;stroke-linejoin:round"
       d="m 431.93058,338.61493 c -2.78921,-1.45864 -4.1544,-1.73472 -5.98371,-1.21008 -7.11617,2.0409 -14.66658,-2.36165 -13.75254,-8.01891 0.68617,-4.24685 -1.81144,-8.7119 -6.48,-11.5845 -3.87817,-2.38626 -3.99094,-2.56369 -3.72956,-5.86792 l 0.26954,-3.40725 -3.55981,-0.75741 c -2.79252,-0.59416 -3.91029,-1.35145 -5.18591,-3.51346 -1.50168,-2.54517 -1.85517,-2.71734 -4.61999,-2.25022 -2.95194,0.49873 -3.00843,0.4573 -4.03097,-2.95563 -0.62514,-2.08653 -2.78906,-5.39745 -5.44781,-8.33547 -3.63386,-4.01554 -4.32871,-5.24752 -3.945,-6.99453 0.41261,-1.8786 0.0141,-2.36633 -3.49317,-4.27523 -4.9696,-2.70479 -7.58293,-7.48407 -5.85638,-10.71016 0.83244,-1.55542 0.85135,-2.24435 0.0869,-3.16544 -1.17529,-1.41613 -0.27618,-1.76835 6.5596,-2.56971 l 4.60937,-0.54035 1.72984,-4.26204 1.72983,-4.26204 3.40419,0.65905 c 1.87231,0.36247 3.81848,0.67495 4.32483,0.6944 0.50635,0.0195 1.73432,-1.96944 2.72884,-4.41976 2.43147,-5.99077 5.25265,-7.72412 12.57168,-7.72412 7.7051,0 25.97579,-4.97703 29.04503,-7.91202 0.4314,-0.41253 5.64546,-6.26316 5.93842,-6.49499 0.38288,-0.30298 3.4223,-2.84949 2.51046,-1.61072 -0.27418,0.37248 1.14205,1.4528 0.50521,2.17497 -1.90203,2.15689 -6.72123,4.7852 -6.72123,5.07543 0,0.70393 0.65339,2.08677 1.45197,3.07298 l 1.45196,1.79309 8.07514,-1.50475 8.07513,-1.50475 1.90103,-3.44619 c 1.09024,-1.97639 2.49532,-3.44619 3.29445,-3.44619 1.25776,0 1.33283,0.69088 0.77115,7.09701 l -0.62225,7.09702 3.7334,3.7904 3.7334,3.7904 5.17801,-1.949 5.17799,-1.94899 v 2.76844 c 0,4.45007 -0.66118,5.3371 -3.97821,5.3371 -2.8563,0 -3.03658,0.16472 -3.96032,3.61849 -0.92975,3.47621 -4.19478,6.66868 -4.84014,4.73258 -0.1491,-0.44728 -0.73388,-1.44614 -1.29952,-2.2197 -0.9564,-1.30796 -1.32366,-1.23239 -5.24393,1.07909 -3.75892,2.21633 -4.6063,2.41255 -7.82338,1.81153 l -3.60787,-0.67402 -2.4862,3.99946 c -1.36742,2.19971 -2.48621,4.31253 -2.48621,4.69517 0,0.38263 0.94592,1.81987 2.10205,3.19385 l 2.10206,2.49814 h -2.15938 c -1.35121,0 -3.66445,-1.26911 -6.18094,-3.39104 -2.36782,-1.99657 -4.30207,-3.08172 -4.70368,-2.63884 -0.37515,0.41372 -2.58917,3.61238 -4.92003,7.10815 -4.022,6.0321 -4.2111,6.55104 -3.71131,10.18491 0.49614,3.60738 0.80537,4.00321 5.34345,6.83993 3.6021,2.25165 5.58513,4.25663 7.86335,7.95039 5.05695,8.19902 4.0137,7.57382 10.65713,6.38657 l 5.8637,-1.04789 5.36598,-6.35867 c 2.95128,-3.49727 5.52651,-6.35867 5.72272,-6.35867 0.1962,0 1.43896,0.77062 2.76168,1.71248 1.32272,0.94186 2.4948,1.58127 2.60462,1.42091 0.10982,-0.16036 0.55363,-1.14037 0.98623,-2.1778 l 0.78657,-1.88623 2.24708,1.76756 c 1.75075,1.37714 2.86764,1.65113 5.05664,1.24047 2.57904,-0.48383 2.80956,-0.36507 2.80956,1.4474 0,1.72573 0.47339,2.04546 3.75758,2.53796 2.06667,0.30992 4.20291,0.73437 4.7472,0.94324 0.59068,0.22666 1.69164,-1.30953 2.73111,-3.81075 l 1.74149,-4.1905 3.05172,0.57004 c 1.67844,0.31353 3.12961,0.6458 3.2248,0.73838 0.0952,0.0926 -0.35719,2.16092 -1.0053,4.5963 -0.64811,2.43538 -1.18272,5.65746 -1.18802,7.16018 -0.01,2.71687 -0.0209,2.72485 -2.01095,1.42091 -1.10072,-0.72122 -2.16663,-1.3113 -2.36869,-1.3113 -0.20206,0 -0.99011,1.63059 -1.75123,3.62355 -1.36506,3.57435 -1.41343,3.60825 -3.56286,2.49673 -1.19845,-0.61974 -2.60768,-2.06765 -3.13162,-3.21756 -0.92213,-2.02387 -1.18952,-2.09077 -8.35559,-2.09077 -4.31238,0 -9.227,0.53026 -11.7721,1.27014 -5.26332,1.53008 -7.63163,4.06522 -16.0309,17.16012 -5.1883,8.08882 -6.25236,9.27674 -9.63659,10.75833 -4.61205,2.01912 -4.28962,2.0301 -8.74081,-0.29768 z"
       id="path423"
       sodipodi:nodetypes="ssssscsssssssssscccsssssssssscccssscccccssssssscssscsssssssscssssscsssssscssscsssssssssss" />
    <path
       style="fill:#0000ff;stroke:#000000;stroke-width:0.676354;stroke-linejoin:round"
       d="m 384.95917,252.83742 c -1.47402,-0.31546 -2.84594,-0.73949 -3.04871,-0.94226 -0.20278,-0.20277 0.004,-2.33261 0.45899,-4.73298 0.8147,-4.2959 0.78942,-4.39424 -1.61317,-6.27455 -2.35247,-1.84109 -2.397,-1.99504 -1.22974,-4.25226 0.66611,-1.28811 1.2111,-2.54286 1.2111,-2.78832 0,-0.24546 -1.61738,-0.4463 -3.59418,-0.4463 -3.50576,0 -3.65707,-0.10991 -6.1502,-4.46745 -2.04776,-3.57911 -3.51077,-4.99182 -7.3575,-7.10456 -3.70806,-2.03656 -4.80368,-3.06513 -4.81112,-4.51666 -0.008,-1.55975 -1.1494,-2.40621 -6.70822,-4.97482 -5.45673,-2.52142 -7.9654,-3.18625 -13.53183,-3.58607 -5.31421,-0.3817 -7.22591,-0.85971 -8.59968,-2.1503 -1.19355,-1.12128 -2.63537,-1.58698 -4.4457,-1.43594 -1.58842,0.13253 -2.82543,-0.18968 -3.03826,-0.79139 -0.26482,-0.74866 1.11279,-1.01494 5.25077,-1.01494 4.87497,0 5.85009,-0.25581 7.44442,-1.95289 1.00906,-1.07409 2.32185,-3.3577 2.91731,-5.07469 0.92956,-2.68033 1.40776,-3.10663 3.38158,-3.01458 1.2644,0.059 3.02966,0.3405 3.9228,0.62562 1.20819,0.38569 2.76196,-0.49561 6.06953,-3.44265 4.32917,-3.85729 4.4178,-4.0221 3.38373,-6.29164 -0.99002,-2.17286 -0.90758,-2.45361 1.21807,-4.14855 1.97591,-1.57554 2.49917,-1.67564 3.92381,-0.75069 5.32262,3.45573 4.68027,3.51264 10.13074,-0.89754 2.77978,-2.24923 5.74716,-5.22908 6.59418,-6.62189 1.36101,-2.23801 1.96912,-2.53238 5.23122,-2.53238 2.51177,0 3.83871,-0.38441 4.15285,-1.20306 0.75752,-1.97406 3.48499,0.075 5.20066,3.90706 1.31564,2.93858 1.36763,3.61057 0.39425,5.09613 -1.03504,1.57968 -0.81623,2.01163 2.84685,5.61962 3.30141,3.25177 3.76689,4.05563 2.77059,4.78473 -1.00406,0.73479 -1.05008,1.60995 -0.28494,5.4184 0.88725,4.41624 1.03434,4.60181 5.30958,6.69858 2.41838,1.18609 4.54185,2.15652 4.71882,2.15652 0.17697,0 1.07404,-1.21721 1.99349,-2.70491 1.02273,-1.65481 1.88449,-4.88578 2.21978,-8.32249 l 0.54804,-5.61757 5.154,-4.31023 c 3.25275,-2.72025 5.15399,-4.92422 5.15399,-5.97466 0,-1.35727 0.3642,-1.57301 1.97353,-1.1691 2.67627,0.6717 5.6118,-0.56777 10.4295,-4.40369 3.5321,-2.81229 4.57792,-3.22248 8.20476,-3.218 3.76497,0.005 4.28703,0.23422 5.53998,2.43612 2.54027,4.46422 4.42979,4.59965 11.0358,0.791 3.21737,-1.85495 5.84976,-3.54775 5.84976,-3.76179 0,-0.21405 -0.39812,-1.13307 -0.88472,-2.04229 -0.73673,-1.37659 -0.5057,-2.04873 1.38106,-4.01809 l 2.26579,-2.36497 1.70642,2.14005 c 1.52238,1.90925 2.06772,2.07901 5.05656,1.57404 2.74308,-0.46344 3.50023,-0.99651 4.17835,-2.94176 0.652,-1.87031 2.08946,-2.96418 6.75655,-5.14151 4.40043,-2.05292 6.55281,-3.63377 8.35126,-6.13372 l 2.4229,-3.36798 1.20112,2.53618 1.20112,2.53619 6.75023,-0.25774 6.75023,-0.25773 -0.47694,2.16257 c -0.37903,1.71859 -0.12569,2.27406 1.23404,2.70562 1.7093,0.54251 1.70896,0.54652 -0.34616,4.0533 l -2.05715,3.51026 2.00889,4.54246 2.0089,4.54246 h -2.3709 c -1.6714,0 -2.52562,0.48749 -2.89533,1.65235 -0.5085,1.60217 -0.57248,1.59128 -2.10619,-0.35852 -2.1457,-2.72782 -3.9744,-7.27691 -3.9744,-9.88678 0,-2.13839 -0.0242,-2.1467 -4.66871,-1.60705 -8.93805,1.03852 -9.83916,1.32189 -10.10362,3.17722 -0.15013,1.05326 -0.9289,1.84219 -1.96438,1.98998 -1.53671,0.21935 -3.56203,3.08673 -3.56203,5.04302 0,0.41018 2.19226,2.2918 4.8717,4.18139 3.90018,2.75048 4.8717,3.87217 4.8717,5.62475 0,2.3097 -1.23499,3.17483 -4.53214,3.17483 -1.42674,0 -1.96346,0.44703 -1.96346,1.63534 0,0.89944 -1.18748,2.72084 -2.63884,4.04756 -3.03014,2.76991 -2.78361,3.13947 3.65378,5.47703 2.12121,0.77026 3.85676,1.83289 3.85676,2.36141 0,0.52852 0.24162,1.59061 0.53695,2.3602 0.46707,1.21717 0.16217,1.32896 -2.34297,0.85899 -2.60296,-0.48832 -2.92938,-0.3432 -3.39424,1.50897 -0.69499,2.76905 -4.33027,2.75047 -8.55258,-0.0437 -3.05888,-2.02427 -3.23243,-2.04725 -5.28814,-0.7003 -3.41598,2.23824 -5.54228,0.74262 -6.53336,-4.5955 l -0.81402,-4.38451 -8.93145,-4.68292 c -8.25737,-4.32949 -9.26745,-4.6603 -13.38341,-4.38323 -2.55276,0.17184 -5.54919,-0.15877 -7.02402,-0.77499 -2.96196,-1.23758 -2.90448,-1.28353 -6.4692,5.1716 -1.34535,2.43622 -2.92095,4.26227 -3.67808,4.26274 -0.88941,5.5e-4 -1.62291,1.18584 -2.23286,3.60817 -1.3566,5.38756 -1.20659,5.89937 1.89991,6.48216 1.847,0.34649 3.42181,1.38849 4.60074,3.04415 l 1.7925,2.51733 -2.36789,-0.44204 c -1.30233,-0.24312 -3.13026,-0.68588 -4.06207,-0.98392 -3.40302,-1.08844 -5.71761,6.0137 -3.90231,11.97397 0.2403,0.78899 1.84566,2.15322 3.56747,3.03162 2.00837,1.02459 3.22418,2.25669 3.39175,3.43717 0.17401,1.22595 3.99129,3.89323 6.68282,4.87969 l 5.54075,-7.10309 3.94916,-1.63899 2.35889,2.89954 -3.81586,1.71875 -4.83556,3.11354 -2.54705,2.36412 -2.66457,3.08567 c -2.84406,3.29352 -3.8481,3.57569 -14.03564,6.27876 -9.06492,2.4052 -11.6805,2.79902 -15.75866,2.37277 -4.50411,-0.47078 -5.12523,-0.33148 -7.87544,1.76621 -1.64213,1.25251 -3.96431,4.15863 -5.16041,6.45806 -2.09967,4.03648 -2.26723,4.16097 -4.85477,3.60718 z"
       id="path425"
       sodipodi:nodetypes="sscsssssssssssssssssssssssssssssssssscsssscssssscssssscccccssscccssssssssssssssssssssscsssssssscssssssccccccsssssss" />
    <path
       style="fill:#0000ff;stroke:#000000;stroke-width:0.676354;stroke-linejoin:round"
       d="m 337.26635,437.23805 c -1.15863,-0.46954 -2.23508,-2.51785 -3.58458,-6.8209 l -1.92869,-6.14984 2.57897,-5.83885 c 1.41843,-3.21137 2.41311,-6.0047 2.21041,-6.2074 -0.2027,-0.2027 -1.49869,0.43618 -2.87997,1.41974 -1.52704,1.08735 -3.05705,1.57672 -3.9035,1.24851 -1.28888,-0.49976 -1.27892,-0.62308 0.1343,-1.66337 1.45556,-1.07145 1.4029,-1.2289 -1.13472,-3.39279 -3.62919,-3.09469 -5.7417,-4.23629 -7.90221,-4.27031 -1.68674,-0.0266 -1.82689,-0.39957 -1.82689,-4.86248 v -4.8337 l 3.65378,-1.61624 c 3.78941,-1.67623 4.30379,-2.85303 3.14201,-7.18821 -0.39139,-1.46047 -1.06896,-1.82688 -3.37825,-1.82688 h -2.88866 l 1.76544,-1.87922 c 0.97099,-1.03357 1.76543,-2.36434 1.76543,-2.95727 0,-2.06372 -3.32121,-12.21445 -3.99644,-12.21445 -0.37393,0 -2.79727,1.64419 -5.38521,3.65377 -3.45751,2.68482 -5.43453,3.65377 -7.45499,3.65377 h -2.74965 l 0.5363,-3.57629 c 0.33212,-2.21475 0.13838,-4.67671 -0.50889,-6.4667 -0.86443,-2.39055 -0.85312,-3.2493 0.0654,-4.9656 0.85323,-1.59427 0.88861,-2.29715 0.15266,-3.0331 -0.65731,-0.65731 -0.95793,-5.09688 -0.95793,-14.1468 v -13.18888 l -2.43585,-1.43889 c -5.29781,-3.12949 -1.23718,-5.96046 8.54946,-5.96046 h 5.59234 l 3.87218,-4.05975 c 4.0763,-4.27376 5.49914,-4.83877 7.15646,-2.84182 1.96822,2.37155 7.30755,0.45121 7.30755,-2.62823 0,-0.48206 2.23126,-1.62998 4.95837,-2.55093 4.51426,-1.52449 5.16841,-1.56586 7.30331,-0.46186 2.14344,1.10842 2.61852,1.07305 5.5286,-0.41156 1.75101,-0.8933 3.9391,-2.68511 4.86242,-3.98179 l 1.67876,-2.35761 -1.59128,-5.98326 c -2.02407,-7.61058 -2.05707,-7.13775 0.79158,-11.34173 1.33159,-1.96513 2.42772,-4.55234 2.43585,-5.74936 0.0111,-1.63321 0.47072,-2.24114 1.84166,-2.43584 1.39612,-0.19828 1.92261,-0.92604 2.23286,-3.08642 l 0.40598,-2.82696 1.47322,3.27847 c 1.04048,2.31546 2.53111,3.85636 5.07469,5.24585 2.9628,1.6185 3.60146,2.37926 3.60146,4.29001 0,1.66209 1.25115,3.7272 4.39938,7.26148 2.75743,3.09554 4.76658,6.25029 5.3832,8.45266 0.96695,3.45359 1.04425,3.51381 4.5112,3.51381 3.07344,0 3.68457,0.30391 4.74859,2.36151 0.93319,1.8046 1.99125,2.49161 4.48657,2.91319 3.21557,0.54327 3.26539,0.60449 3.26539,4.01272 0,3.2716 0.22037,3.59803 4.0261,5.9638 4.52904,2.8154 6.52638,6.39857 5.90953,10.6015 -0.30643,2.08782 0.12941,3.30395 2.033,5.67272 1.33268,1.65834 3.23268,4.60215 4.22221,6.5418 l 1.79916,3.52664 -2.17646,2.27173 -2.17645,2.27173 1.78875,7.9884 c 0.98383,4.39362 2.31935,8.82715 2.96782,9.8523 1.63216,2.58015 0.69827,5.03767 -1.91437,5.03767 -1.14737,0 -5.31575,-0.43 -9.26309,-0.95555 -6.6865,-0.89024 -7.29428,-0.84936 -8.89381,0.59819 -1.67607,1.51682 -1.74327,1.51761 -2.82875,0.0331 -1.06701,-1.45923 -1.29854,-1.40964 -5.73611,1.2287 -4.38384,2.6064 -4.80532,3.15025 -8.1085,10.46283 -3.47179,7.68586 -3.49557,7.71439 -6.63253,7.95619 -2.70066,0.20817 -4.00262,1.10279 -9.1578,6.29261 -3.30526,3.32746 -6.61338,6.04994 -7.35137,6.04994 -2.26334,0 -3.25318,2.00164 -2.70013,5.4602 0.48189,3.01359 0.3616,3.2684 -2.00577,4.249 -1.49519,0.61932 -2.5184,1.63593 -2.5184,2.50214 0,2.70574 -0.9752,4.02765 -2.97126,4.02765 -1.89869,0 -1.97809,0.20718 -1.81467,4.7356 0.15322,4.24609 -0.11514,5.12407 -2.59628,8.4938 -2.79567,3.79693 -3.85181,4.26619 -6.8589,3.04754 z"
       id="path427" />
    <path
       style="fill:#0000ff;stroke:#000000;stroke-width:0.676354;stroke-linejoin:round"
       d="m 301.36957,509.28634 c -2.34862,-1.73471 -3.45079,-3.15497 -3.45079,-4.44669 0,-1.36974 -0.79114,-2.27517 -2.84288,-3.25358 -2.79825,-1.33439 -2.87793,-1.32236 -5.07469,0.76654 -2.2747,2.16303 -9.69115,5.49243 -12.20824,5.48053 -0.95125,-0.004 -4.18741,-4.88272 -10.23879,-15.43407 -8.5559,-14.9183 -8.80067,-15.47972 -7.41599,-17.00978 1.37976,-1.52462 1.32494,-1.72806 -1.50442,-5.58241 -1.615,-2.20008 -2.93637,-4.20698 -2.93637,-4.45979 0,-0.25282 2.03483,-0.56924 4.52185,-0.70317 l 4.52184,-0.24351 2.60039,-6.02639 2.6004,-6.02639 5.20979,-1.7395 c 2.86538,-0.95672 5.34084,-2.13267 5.50102,-2.61321 0.16018,-0.48054 -0.68887,-1.64466 -1.88678,-2.58694 l -2.17801,-1.71323 2.2504,-3.24732 c 2.54829,-3.67719 2.61287,-3.70591 4.4977,-2.00017 1.2456,1.12725 1.274,1.73226 0.29544,6.29261 -1.59101,7.41455 -1.77112,7.12369 3.52901,5.69903 3.32751,-0.89443 5.51434,-2.1197 7.61235,-4.26515 2.52572,-2.58283 3.14186,-2.86526 4.3398,-1.9893 2.39346,1.75014 0.8632,5.73502 -3.34012,8.69779 l -3.60884,2.54375 0.54338,4.48721 c 0.29886,2.46797 0.67105,4.63018 0.82709,4.80492 0.15605,0.17474 3.02692,-0.12481 6.37971,-0.66568 3.35279,-0.54086 6.46777,-0.75361 6.92217,-0.47278 0.45441,0.28084 0.82619,1.89273 0.82619,3.58197 0,2.88393 0.19982,3.13123 3.27434,4.05238 3.1774,0.95197 3.37405,0.89567 6.64175,-1.90135 1.85207,-1.58531 3.8497,-2.88237 4.43918,-2.88237 1.60686,0 4.31957,3.02935 4.31957,4.82378 0,4.31611 4.58266,2.72144 8.13366,-2.83035 l 2.82766,-4.4209 5.16938,-0.004 c 4.97805,-0.004 5.14969,0.0634 4.63711,1.82269 -1.48421,5.09417 -1.43153,6.71667 0.26805,8.25477 2.04015,1.84631 2.15338,4.35717 0.37953,8.41628 -0.84876,1.94223 -1.44781,6.20374 -1.67986,11.95018 -0.45194,11.1918 -0.52173,11.4309 -2.85909,9.79375 -2.64899,-1.85539 -3.0733,-1.60452 -3.0733,1.81716 0,3.98843 -1.14376,5.03408 -5.5064,5.03408 -2.88002,0 -4.23426,-0.55436 -7.10934,-2.91028 -3.50851,-2.87496 -3.61858,-2.90385 -9.06809,-2.3801 -6.85461,0.65878 -9.54348,1.65806 -11.17926,4.15457 -0.70193,1.07127 -1.54184,1.93329 -1.86647,1.9156 -0.32463,-0.0177 -2.1431,-1.17913 -4.04103,-2.58096 z"
       id="path429" />
    <path
       style="fill:#0000ff;stroke:#000000;stroke-width:0.676354;stroke-linejoin:round"
       d="m 278.97607,572.5927 -2.85182,-5.07469 2.77777,-2.29197 c 2.72866,-2.25145 2.77777,-2.40385 2.77777,-8.61896 0,-5.21506 -0.30223,-6.71121 -1.71973,-8.51327 -0.94585,-1.20246 -2.3931,-3.95844 -3.2161,-6.12442 -1.67018,-4.39554 -1.32478,-4.89949 3.35804,-4.89949 2.13497,0 2.30805,-0.20549 1.89837,-2.25386 -0.38978,-1.94892 0.1073,-2.72443 3.67407,-5.73198 2.26867,-1.91296 4.12485,-3.77402 4.12485,-4.13567 0,-0.36166 -1.52169,-2.56872 -3.38154,-4.90459 -3.18527,-4.00053 -3.32665,-4.39883 -2.43585,-6.86229 1.22556,-3.38923 1.20683,-3.54306 -0.47522,-3.90223 -0.94051,-0.20083 -0.0706,-0.9123 2.57286,-2.10436 2.19658,-0.99053 4.49173,-2.51189 5.10035,-3.38081 0.93371,-1.33306 1.41963,-1.4372 3.11078,-0.66666 1.28796,0.58683 2.00421,1.58262 2.00421,2.78642 0,1.31384 1.295,2.85097 4.33652,5.14734 2.38508,1.80076 4.59198,3.2741 4.90422,3.2741 0.31224,0 1.95801,-1.46151 3.65726,-3.2478 3.0491,-3.20526 3.1665,-3.24779 8.96526,-3.24779 5.52303,0 6.08571,0.17208 9.37449,2.86698 3.42318,2.80504 3.59728,2.85155 8.05707,2.15219 5.22212,-0.81892 8.3421,-2.97957 6.86774,-4.75607 -1.25637,-1.51383 -0.22354,-2.36977 1.31687,-1.09134 0.71941,0.59706 1.23755,2.34525 1.23755,4.17545 0,3.10241 0.0449,3.14838 3.07548,3.14838 2.23324,0 3.84534,0.65804 5.88664,2.40285 1.54613,1.32157 3.12012,2.4177 3.49776,2.43585 1.53427,0.0737 5.31143,-3.36774 5.5517,-5.05831 0.32453,-2.28344 3.44964,-2.0628 6.14392,0.43376 1.4632,1.35582 1.83346,2.59408 1.85988,6.22 0.0279,3.81543 0.41077,4.96913 2.43585,7.33833 1.41563,1.65617 2.40285,3.74113 2.40285,5.07468 0,1.96984 -0.31362,2.26353 -2.41713,2.26353 -1.67042,0 -2.82057,0.61573 -3.7231,1.99316 -1.23792,1.88931 -1.19659,2.13655 0.79324,4.74535 2.59605,3.40361 2.59463,3.58263 -0.0717,9.01916 l -2.17088,4.42635 -3.68699,-3.15154 c -2.02784,-1.73334 -3.78425,-3.05427 -3.90313,-2.9354 -0.11886,0.11888 0.26385,2.97628 0.85048,6.34978 0.88636,5.09708 0.88356,6.38397 -0.0165,7.61491 -1.03089,1.40983 -1.35636,1.34908 -6.74866,-1.25954 l -5.66556,-2.74081 -2.11376,-6.34706 c -1.16257,-3.49089 -2.3995,-6.34706 -2.74873,-6.34706 -0.34923,0 -1.28071,1.73554 -2.06996,3.85676 -0.78925,2.12122 -1.72427,4.1758 -2.07783,4.56575 -0.35355,0.38995 -3.53489,-1.52828 -7.06963,-4.26273 -3.53475,-2.73445 -7.05565,-4.97173 -7.82422,-4.97173 -0.76858,0 -5.48615,0.91961 -10.4835,2.04358 -8.6894,1.95436 -9.48767,2.31742 -18.28398,8.31574 l -9.19789,6.27216 0.24703,5.91912 c 0.24128,5.78152 0.19085,5.95614 -2.16941,7.51192 -1.32904,0.87605 -2.65715,1.59522 -2.95135,1.59816 -0.2942,0.003 -1.81823,-2.27826 -3.38673,-5.06933 z"
       id="path431" />
    <path
       style="fill:#0000ff;stroke:#000000;stroke-width:0.676354;stroke-linejoin:round"
       d="m 268.75481,577.67562 c -3.31287,-1.75826 -6.32164,-3.66688 -6.68615,-4.24137 -0.36451,-0.5745 -0.66834,-2.73672 -0.67517,-4.80493 -0.0111,-3.35738 -0.32595,-3.99952 -2.93772,-5.99161 -2.61003,-1.99077 -3.4013,-2.1821 -7.34215,-1.77537 l -4.41687,0.45586 -2.01863,-4.56449 -2.01863,-4.56448 2.09555,-1.67303 2.09555,-1.67303 -0.93319,-7.71352 c -0.51326,-4.24244 -1.08944,-7.87483 -1.2804,-8.07199 -0.19096,-0.19715 -2.80442,-1.12338 -5.8077,-2.05829 -4.69025,-1.46004 -5.49466,-1.98909 -5.70259,-3.75051 -0.19714,-1.66994 0.51727,-2.56887 3.84762,-4.84149 4.48718,-3.06203 4.61225,-3.81806 1.4234,-8.60394 -2.64288,-3.96647 -5.79826,-5.39434 -12.8188,-5.80076 l -6.24023,-0.36124 1.68054,-3.75762 c 0.9243,-2.06669 2.81351,-7.04601 4.19824,-11.06516 2.37281,-6.88705 2.71145,-7.40099 5.885,-8.93145 3.26314,-1.57365 3.37541,-1.75924 3.62877,-5.99836 l 0.26144,-4.37447 6.99575,-4.84922 c 8.22938,-5.70432 8.99909,-5.67918 13.67022,0.4465 2.82736,3.70778 3.06105,4.34151 2.02359,5.48789 -0.64509,0.71282 -1.1729,1.59883 -1.1729,1.96892 0,0.37009 4.28374,8.10559 9.51942,17.19 l 9.51941,16.5171 h 3.01789 c 3.57913,0 4.26692,0.79853 3.02863,3.51629 -0.81569,1.79023 -0.54948,2.49633 2.39532,6.35345 l 3.31299,4.33938 -4.06022,4.11636 c -2.83796,2.87719 -3.90262,4.52705 -3.53669,5.48066 0.38591,1.00567 0.0839,1.3643 -1.14903,1.3643 -0.91991,0 -2.58007,0.41349 -3.68925,0.91886 l -2.01668,0.91887 1.69808,4.56179 c 0.93395,2.50899 2.55502,5.69243 3.60238,7.07429 1.51961,2.00495 1.90429,3.52256 1.90429,7.51264 0,4.7868 -0.13591,5.12296 -3.18514,7.87775 l -3.18514,2.87758 3.2431,5.72315 c 1.7837,3.14773 3.12567,5.82152 2.98215,5.94176 -0.73836,0.61862 -3.89449,2.0597 -4.4703,2.04113 -0.36429,-0.0118 -3.37287,-1.45994 -6.68575,-3.2182 z"
       id="path433" />
    <path
       style="fill:#0000ff;stroke:#000000;stroke-width:0.676354;stroke-linejoin:round"
       d="m 433.10839,568.73594 c -0.276,-0.44658 -2.15865,-0.81195 -4.18368,-0.81195 -3.04295,0 -3.7583,-0.29226 -4.1223,-1.6842 -0.32225,-1.2323 -0.90096,-1.57108 -2.15684,-1.2626 -0.94403,0.23188 -5.10163,0.49211 -9.23909,0.57829 l -7.52268,0.15669 -4.79928,-4.57774 c -4.25638,-4.0599 -5.18144,-4.57774 -8.17761,-4.57774 -2.50627,0 -4.31317,0.67136 -6.9999,2.60082 -3.50042,2.51381 -3.69501,2.55676 -5.81639,1.28374 -1.90256,-1.14172 -2.39699,-2.32588 -3.71328,-8.89343 -0.83516,-4.16699 -1.7486,-7.75904 -2.02987,-7.98232 -0.28127,-0.22329 -1.20124,-1.22122 -2.04437,-2.21763 -1.2563,-1.48469 -1.34826,-2.03422 -0.50954,-3.04481 0.56288,-0.67824 2.07482,-1.23316 3.35985,-1.23316 2.23665,0 2.33643,-0.16014 2.33643,-3.74957 0,-3.00838 -0.4815,-4.29797 -2.43584,-6.52385 -1.94222,-2.21206 -2.43585,-3.52208 -2.43585,-6.46431 v -3.69004 l 2.63883,0.58179 c 5.16961,1.13975 14.90308,1.57113 20.31162,0.90019 5.24259,-0.65034 5.6964,-0.56699 9.93409,1.82461 5.26963,2.974 6.0056,3.03813 8.88381,0.77414 1.211,-0.95257 6.22995,-3.32053 11.15323,-5.26213 6.8894,-2.71698 9.30205,-3.34253 10.47353,-2.71558 1.33528,0.71462 1.87331,0.11722 4.3833,-4.86696 1.57366,-3.12487 2.8612,-6.39157 2.8612,-7.25934 0,-2.57424 0.89496,-4.14643 2.36033,-4.14643 2.49356,0 3.32332,1.81949 3.32332,7.2873 v 5.33862 l 5.5705,6.88122 5.5705,6.88122 2.92257,13.39717 c 3.36278,15.41517 3.9259,22.14404 2.01322,24.05672 -1.09159,1.09159 -27.70309,9.14259 -30.44098,9.20956 -0.53186,0.013 -1.19283,-0.34172 -1.46883,-0.78829 z"
       id="path435" />
    <path
       style="fill:#0000ff;stroke:#000000;stroke-width:0.676354;stroke-linejoin:round"
       d="m 406.69872,518.30806 c -4.25645,-2.22987 -4.77245,-2.30767 -12.2008,-1.83938 -10.13056,0.63864 -22.43466,-0.94786 -23.55268,-3.03689 -0.90605,-1.69297 -6.51335,-3.61592 -8.41551,-2.88599 -0.70338,0.26991 -1.27888,1.32777 -1.27888,2.35079 0,1.02303 -0.76612,2.3385 -1.70249,2.92327 -1.48716,0.92875 -2.08318,0.79941 -4.71235,-1.02261 -1.75795,-1.21826 -4.13293,-2.08584 -5.70997,-2.08584 h -2.70011 l 0.63331,-5.88663 c 0.34831,-3.23765 0.56664,-8.0789 0.48516,-10.75833 -0.0815,-2.67944 0.43356,-6.88128 1.14452,-9.33742 2.60831,-9.01087 2.72305,-11.05442 0.75897,-13.5176 -1.70673,-2.14044 -1.73265,-2.40532 -0.56953,-5.81889 0.81952,-2.40516 0.94152,-3.7476 0.37252,-4.09925 -0.46533,-0.28759 1.13086,-1.95557 3.54708,-3.70662 2.41623,-1.75105 4.39314,-3.45873 4.39314,-3.79485 0,-0.33612 -1.18747,-1.547 -2.63883,-2.69085 l -2.63884,-2.07972 3.2478,-0.15112 c 5.20053,-0.24198 9.5817,0.13967 11.86869,1.03391 1.58806,0.62094 3.30175,0.489 6.77928,-0.52194 l 4.65397,-1.35295 2.55815,2.41523 c 2.52055,2.37973 2.66195,2.40929 9.62134,2.0113 l 7.06318,-0.40393 2.10929,-3.0437 c 1.79699,-2.59306 2.78487,-3.17938 6.67238,-3.9601 7.3936,-1.48485 8.95688,-1.21943 13.33115,2.26342 3.21468,2.55956 5.42712,3.50986 11.34237,4.87181 6.13519,1.41259 8.14293,2.30315 12.15855,5.3931 4.84491,3.72807 5.83522,5.47485 3.59195,6.33568 -0.94064,0.36096 -1.21792,1.93042 -1.21792,6.89374 0,6.93786 0.33071,7.38539 5.48066,7.41664 1.49292,0.009 1.82689,0.46393 1.82689,2.48826 v 2.47717 l -2.82445,-2.15431 -2.82445,-2.15431 -2.72016,5.96975 c -1.78778,3.92352 -2.76246,7.36129 -2.84356,10.0295 -0.16775,5.51843 -3.83765,13.3926 -6.18074,13.26144 -2.3359,-0.13076 -19.00466,6.43509 -22.00751,8.66879 l -2.45717,1.82778 z"
       id="path437" />
    <path
       style="fill:#0000ff;stroke:#000000;stroke-width:0.676354;stroke-linejoin:round"
       d="m 381.93995,450.23104 -2.42023,-2.3961 -5.36489,1.50064 c -3.13162,0.87596 -5.81941,1.21972 -6.45676,0.82581 -0.60054,-0.37115 -2.85083,-0.91673 -5.00065,-1.21241 -2.64101,-0.36323 -4.17823,-1.04107 -4.73955,-2.0899 -1.52263,-2.84507 -8.88289,-8.03508 -11.39502,-8.03508 -2.9714,0 -2.95536,-0.56243 0.13776,-4.83236 2.26101,-3.12123 2.44826,-3.83332 1.95368,-7.42937 l -0.54701,-3.97726 h 2.51204 c 2.33647,0 2.51204,-0.20151 2.51204,-2.88326 0,-2.53846 0.34664,-3.02809 2.89872,-4.09441 2.68828,-1.12324 2.85866,-1.40022 2.34686,-3.81533 -0.30352,-1.4323 -0.60315,-2.96087 -0.66586,-3.39684 -0.0627,-0.43597 0.64197,-0.90944 1.56594,-1.05216 0.92397,-0.14271 4.56918,-3.16575 8.10045,-6.71786 5.66265,-5.69605 6.76715,-6.45838 9.35726,-6.45838 2.93503,0 2.93887,-0.005 6.51465,-8.02626 3.2545,-7.30083 3.91145,-8.21395 7.26843,-10.10278 3.66176,-2.06031 3.69853,-2.06372 4.71414,-0.43748 1.0128,1.62176 1.05233,1.6171 3.75214,-0.44214 l 2.72855,-2.08117 8.22202,1.15383 c 7.1582,1.00455 8.58889,1.47595 11.05742,3.64335 1.98411,1.74207 3.67074,2.48951 5.61767,2.48951 2.5919,0 2.84337,0.23612 3.67521,3.45079 0.49111,1.89793 1.63152,4.48161 2.53424,5.74152 1.43854,2.00774 1.53736,2.76007 0.79992,6.08962 -0.46278,2.08939 -1.07652,5.44308 -1.36388,7.45266 -0.40734,2.84866 -1.31759,4.47253 -4.13092,7.36948 -3.31182,3.41025 -3.5377,3.90184 -2.74763,5.97988 0.84967,2.2348 0.82641,2.25802 -1.79335,1.79043 -2.46044,-0.43916 -2.87395,-0.17066 -5.66463,3.67814 -2.23726,3.08556 -2.82255,4.50294 -2.27891,5.51875 0.59512,1.11199 0.021,1.71519 -3.07919,3.23489 -4.10722,2.01338 -4.12358,1.97361 1.66995,4.06152 1.22808,0.44259 2.23286,1.13651 2.23286,1.54205 0,0.88019 -2.80868,1.71222 -5.83191,1.7276 -2.53505,0.0129 -3.65804,2.32206 -2.33317,4.7976 0.92656,1.73129 0.7356,1.85207 -4.63962,2.93453 -1.72771,0.34793 -3.54798,1.64552 -5.21057,3.71439 -2.53937,3.1599 -2.59108,3.17966 -8.32161,3.17966 -5.29775,0 -5.96303,-0.19472 -8.18659,-2.3961 z"
       id="path439" />
    <path
       style="fill:#0000ff;stroke:#000000;stroke-width:0.676354;stroke-linejoin:round"
       d="m 459.90273,468.40511 c -9.06491,-3.23363 -10.14937,-3.7808 -10.14937,-5.12096 0,-0.76336 -2.19313,-3.06742 -4.87362,-5.12013 -4.01551,-3.07506 -6.19568,-4.05551 -12.38223,-5.56842 -5.88702,-1.43967 -8.36445,-2.51131 -11.47144,-4.96209 -3.00515,-2.37045 -4.70108,-3.12586 -7.01769,-3.12586 -2.03662,0 -3.21914,-0.42809 -3.54771,-1.28433 -0.9941,-2.59059 -0.51216,-3.58727 1.74002,-3.59846 4.49206,-0.0223 5.88663,-0.82954 5.88663,-3.40742 0,-1.73431 -0.45875,-2.53713 -1.6239,-2.84183 -2.18752,-0.57204 -2.04387,-1.40714 0.43644,-2.53725 1.77441,-0.80847 1.93451,-1.17384 1.15368,-2.63282 -0.75114,-1.40352 -0.52853,-2.2397 1.2979,-4.87523 2.38496,-3.4415 2.70715,-3.5589 6.65775,-2.42588 2.98438,0.85591 2.95471,0.91129 1.71989,-3.21019 -0.89202,-2.97727 -0.83618,-3.11924 2.36368,-6.01012 2.70993,-2.44826 3.37324,-3.65856 3.83161,-6.99129 0.30488,-2.21675 0.72225,-4.03046 0.92749,-4.03046 0.20524,0 1.63246,1.00479 3.17159,2.23286 1.83564,1.46467 2.8027,2.93122 2.81087,4.26274 0.007,1.11643 0.2809,2.44025 0.60899,2.94183 0.34495,0.52736 4.59783,1.159 10.08434,1.49772 10.78675,0.66596 14.22909,1.91744 16.0886,5.84908 0.85619,1.81028 2.56424,3.22199 5.75082,4.75309 3.37666,1.62243 5.62988,3.55443 8.83351,7.57426 3.82271,4.79661 8.45174,13.31246 10.13723,18.64906 0.98657,3.12369 -0.11203,5.82803 -2.36756,5.82803 -1.76365,0 -2.07517,0.51656 -2.92911,4.85704 -0.52556,2.67137 -1.36604,5.37556 -1.86774,6.00931 -1.10219,1.3923 -14.47729,4.58344 -18.87558,4.50348 -1.73101,-0.0315 -4.6088,-0.57856 -6.39509,-1.21576 z"
       id="path441" />
    <path
       style="fill:#0000ff;stroke:#000000;stroke-width:0.676354;stroke-linejoin:round"
       d="m 467.83177,574.2166 c -0.43739,-0.55822 -1.15018,-3.29867 -1.58397,-6.08989 -0.7114,-4.57752 -0.6337,-5.2142 0.7927,-6.49559 1.38805,-1.24695 1.5265,-2.16525 1.13234,-7.51028 -0.41809,-5.66944 -5.6826,-30.91882 -6.83556,-32.78434 -0.28381,-0.45922 -2.82361,-3.69319 -5.644,-7.1866 -5.02897,-6.22904 -5.12797,-6.44635 -5.12797,-11.256 0,-6.18284 -0.94646,-8.04538 -4.08832,-8.04538 -3.0136,0 -3.07296,-1.17617 -0.33232,-6.58457 l 2.07496,-4.09473 2.88477,2.20032 c 3.46561,2.64335 4.3013,1.90511 4.32017,-3.81638 0.0134,-4.06685 -0.68539,-4.75558 -4.82513,-4.75558 -2.17377,0 -2.28591,-0.19574 -2.67485,-4.66871 -0.58697,-6.75047 -0.1341,-6.98465 8.11497,-4.19629 4.28633,1.44887 8.69682,2.3694 11.35241,2.3694 4.23963,0 17.83458,-2.88522 19.15823,-4.06591 0.36579,-0.32628 1.21772,-3.01602 1.89316,-5.97719 1.16944,-5.12685 1.34124,-5.38394 3.59766,-5.38394 1.30326,0 2.36957,0.32586 2.36957,0.72414 0,0.39827 1.68772,2.60128 3.75049,4.89558 3.0553,3.39823 3.66917,4.5809 3.3118,6.38042 -0.39802,2.00423 0.0258,2.48224 4.572,5.15716 3.62555,2.13321 6.42227,3.11018 10.11716,3.5342 l 5.10648,0.58602 2.81002,5.57996 c 2.51516,4.99444 2.81003,6.27039 2.81003,12.15954 v 6.57958 l -6.69859,7.29117 c -4.55016,4.95269 -6.82879,8.10372 -7.10455,9.82463 -0.35048,2.1871 -1.34954,3.07348 -7.30755,6.48336 -3.79586,2.17245 -7.97466,5.01422 -9.28622,6.31507 -2.17308,2.15532 -2.38018,2.84076 -2.33422,7.72555 l 0.0504,5.36039 -3.0905,1.23657 c -2.32299,0.92948 -4.13515,2.7477 -7.2969,7.32134 -4.13874,5.98689 -4.2012,6.16635 -3.88344,11.1566 l 0.32294,5.07183 -5.04931,2.98674 c -5.55446,3.28554 -6.21185,3.46121 -7.37889,1.97181 z"
       id="path443" />
    <path
       style="fill:#0000ff;stroke:#000000;stroke-width:0.676354;stroke-linejoin:round"
       d="m 514.30335,658.98946 -4.8717,-1.36684 0.25384,-3.24596 0.25383,-3.24596 -5.30935,-1.98557 c -4.92103,-1.84034 -5.39437,-2.2351 -6.47187,-5.39739 -1.02458,-3.00699 -1.01484,-3.6227 0.0821,-5.18885 1.18921,-1.69784 1.02479,-1.99963 -3.6899,-6.77279 l -4.93458,-4.99577 6.48351,-8.93144 c 3.56592,-4.9123 7.39708,-10.24721 8.51367,-11.85536 l 2.03017,-2.92391 -2.46249,-6.39499 c -2.2896,-5.94599 -3.10648,-10.0858 -1.99017,-10.0858 0.25977,0 2.03294,1.27882 3.94038,2.84182 3.81391,3.12521 4.33061,3.26268 7.25514,1.93017 1.70121,-0.77512 1.93531,-1.31551 1.56323,-3.6084 -0.46651,-2.87475 0.15979,-7.37793 1.26922,-9.12592 0.53281,-0.83947 1.6573,-0.62556 5.39053,1.02545 2.59451,1.14742 4.85299,1.9505 5.01886,1.78464 0.16586,-0.16587 -0.42014,-1.98526 -1.30224,-4.04311 l -1.60381,-3.74154 2.48428,-1.94424 c 2.11853,-1.65799 2.35333,-2.18894 1.59478,-3.6063 -0.83047,-1.55174 -0.60732,-1.69954 3.36186,-2.22679 3.7265,-0.49502 5.20364,-1.33792 11.96488,-6.82749 l 7.71352,-6.26275 3.2478,2.24975 c 3.0823,2.13511 3.87224,2.27781 15.50225,2.80049 l 12.25445,0.55073 5.16578,8.09137 c 5.07378,7.94727 5.21343,8.08364 7.8413,7.6572 2.58421,-0.41936 2.67552,-0.34047 2.67552,2.3116 v 2.74578 l -4.00845,-1.66584 -4.00844,-1.66583 -5.12599,3.88408 c -2.81929,2.13625 -5.24246,3.96649 -5.38482,4.0672 -0.14235,0.10071 0.13241,2.29949 0.61058,4.88616 0.81008,4.38211 0.70046,5.1507 -1.6064,11.2628 l -2.47581,6.55974 -4.83335,1.87417 -4.83335,1.87417 v 5.51276 5.51275 l -4.19557,0.55656 c -3.8018,0.50433 -4.35428,0.37027 -5.88663,-1.42834 -1.29463,-1.51957 -5.72789,-3.79071 -7.39949,-3.79071 -0.25177,0 -2.0051,7.00021 -2.0051,8.00541 0,0.43489 1.55285,1.31492 3.45078,1.95562 3.37357,1.13884 3.44521,1.23862 3.20138,4.45868 -0.23828,3.14659 -0.12944,3.31795 2.43584,3.83506 5.07016,1.02206 5.38104,1.20917 4.9225,2.96262 -0.3644,1.39348 -0.8608,1.58755 -2.96141,1.15773 -9.09956,-1.86191 -8.72306,-1.9722 -13.83394,4.05223 -4.43905,5.2325 -4.64296,5.6663 -4.16417,8.85905 0.72087,4.80716 -1.3454,6.46565 -9.52613,7.64609 -7.99801,1.15408 -9.61818,1.09342 -15.59686,-0.58399 z"
       id="path445" />
    <path
       style="fill:#0000ff;stroke:#000000;stroke-width:0.676354;stroke-linejoin:round"
       d="m 479.80044,585.80527 c -0.59994,-2.22802 -1.98577,-4.16242 -4.4692,-6.23832 l -3.59962,-3.00891 5.30606,-3.17775 5.30607,-3.17776 -0.5201,-4.99603 c -0.51748,-4.97088 -0.50039,-5.02465 3.39493,-10.67968 2.92742,-4.24988 4.78545,-6.07716 7.36547,-7.24356 l 3.45043,-1.5599 v -5.94554 -5.94553 l 3.42981,-2.48454 c 1.88639,-1.3665 6.08823,-3.95202 9.33742,-5.74561 5.25163,-2.89897 5.90762,-3.52553 5.90762,-5.64269 0,-1.87763 1.55249,-4.04747 7.3366,-10.25392 6.51101,-6.98644 7.28039,-8.12826 6.83706,-10.14674 -0.47216,-2.1497 -0.34531,-2.27442 2.31323,-2.27442 2.7785,0 2.81983,0.052 3.3908,4.26274 0.56035,4.13241 0.76649,4.40939 6.74294,9.06002 7.20806,5.60901 10.44407,7.12695 11.51151,5.39979 1.21359,-1.96363 9.96478,-1.0879 17.01502,1.70269 7.21829,2.85711 9.46952,4.71197 10.15525,8.36723 0.43736,2.3313 0.96367,2.802 4.12178,3.68622 4.18705,1.1723 4.70742,1.69413 6.07191,6.08892 0.5546,1.78629 1.88371,4.85143 2.95356,6.81143 1.91416,3.50681 1.9238,3.63147 0.60448,7.81682 l -1.3407,4.25317 -5.58522,0.92238 c -3.56843,0.58932 -9.75653,0.72824 -17.13707,0.38474 -10.93582,-0.50898 -11.73285,-0.6611 -14.94595,-2.85256 -1.86674,-1.2732 -3.64443,-2.31492 -3.95041,-2.31492 -0.30598,0 -4.16096,2.88005 -8.56663,6.4001 -7.30604,5.83741 -8.42205,6.45155 -12.6937,6.98526 -2.57587,0.32183 -5.67043,1.09556 -6.87679,1.71939 -3.07242,1.58881 -3.22609,1.4889 -2.62643,-1.70758 0.29322,-1.563 0.40112,-2.84164 0.23978,-2.84141 -0.16135,2.2e-4 -2.19193,0.72202 -4.51241,1.60399 l -4.21906,1.60359 -0.24667,-3.73068 -0.24666,-3.73067 -9.26837,8.82526 c -6.94531,6.61326 -9.73011,9.86903 -11.11055,12.98959 -1.58576,3.58469 -7.70356,10.0448 -9.51255,10.0448 -0.27173,0 -0.88536,-1.45324 -1.36364,-3.22941 z"
       id="path447" />
    <path
       style="fill:#0000ff;stroke:#000000;stroke-width:0.676354;stroke-linejoin:round"
       d="m 577.69464,519.30283 c -0.24343,-0.39387 -3.27936,-1.82535 -6.7465,-3.18107 -7.7822,-3.043 -16.78421,-4.09735 -18.86959,-2.21011 -1.28762,1.16528 -1.95627,0.84016 -8.36998,-4.06992 -6.95509,-5.32452 -6.9718,-5.34619 -7.52312,-9.75881 -0.47434,-3.79652 -0.79787,-4.42402 -2.28588,-4.43353 -4.5877,-0.0293 -5.3871,-0.76768 -5.3871,-4.97559 0,-2.93295 -0.745,-5.46468 -2.82132,-9.5877 l -2.82132,-5.60239 -4.68921,-0.48278 c -2.89778,-0.29835 -6.65185,-1.48155 -9.82654,-3.09712 -4.80046,-2.44291 -5.10716,-2.7651 -4.67744,-4.91371 0.38871,-1.94354 -0.16654,-2.96173 -3.58789,-6.5793 -3.17046,-3.3523 -4.213,-5.14355 -4.81015,-8.26465 -0.41931,-2.1916 -1.6501,-5.9943 -2.7351,-8.45045 -3.47569,-7.86804 -3.50131,-7.60927 0.96056,-9.6991 4.47886,-2.09779 6.4414,-4.97872 4.49309,-6.59567 -1.01954,-0.84614 -0.8521,-1.19904 1.14516,-2.41365 1.45949,-0.88757 2.52882,-2.37026 2.84323,-3.94231 0.53273,-2.66366 1.54378,-3.02571 4.89319,-1.75227 1.71186,0.65085 2.22433,0.45332 3.3733,-1.30023 l 1.35479,-2.06767 2.20464,2.11218 c 1.21256,1.1617 2.48065,2.11218 2.81799,2.11218 1.60269,0 22.3148,-9.37386 24.65341,-11.15761 2.81088,-2.14396 3.22006,-1.96762 1.76087,0.7589 -1.09573,2.0474 0.12167,3.05425 3.7376,3.09116 3.18883,0.0326 1.27694,1.33402 -3.0282,2.06137 l -3.06142,0.51722 v 6.11975 6.11974 l 2.34113,-0.46822 c 1.28761,-0.25752 3.38853,-0.71811 4.66871,-1.02353 l 2.32758,-0.55531 -2.38477,2.54594 -2.38477,2.54593 h 5.03729 5.03728 l -2.09814,4.14049 c -1.15398,2.27726 -1.91282,4.3258 -1.68632,4.5523 0.2265,0.22651 4.51519,-2.18478 9.53042,-5.3584 8.62468,-5.45768 12.91144,-7.03868 12.89359,-4.7553 -0.0189,2.42037 -4.39135,10.08359 -8.90554,15.60804 -2.68932,3.29118 -4.88967,6.40357 -4.88967,6.91643 0,2.0889 4.95328,7.9146 9.23737,10.86434 4.02499,2.77135 4.56578,3.46857 4.56578,5.88664 0,1.50862 -0.12431,2.74294 -0.27625,2.74294 -0.15194,0 -2.25286,-1.08951 -4.66872,-2.42114 -2.41585,-1.33162 -4.63404,-2.42775 -4.9293,-2.43584 -0.29526,-0.008 -0.66064,2.15091 -0.81195,4.79779 -0.27065,4.73451 -0.23728,4.82003 2.05925,5.27767 1.2839,0.25584 4.53184,0.46517 7.21766,0.46517 h 4.8833 l -0.51202,4.26274 c -0.28161,2.3445 -0.51519,5.2924 -0.51907,6.55088 l -0.007,2.28815 -2.41341,-1.7185 c -2.13749,-1.52202 -2.77162,-1.61118 -5.54642,-0.77983 l -3.133,0.93867 -1.44318,7.10905 c -1.44235,7.10498 -1.39269,7.63832 1.05154,11.29328 0.60341,0.90232 1.72613,0.51721 5.77145,-1.9797 4.14914,-2.561 5.15551,-2.89692 5.78845,-1.93219 4.06405,6.1945 4.05749,6.17261 3.49503,11.66258 -0.50785,4.95693 -1.21078,6.37365 -2.29331,4.62207 z"
       id="path449" />
    <path
       style="fill:#0000ff;stroke:#000000;stroke-width:0.676354;stroke-linejoin:round"
       d="m 483.87862,428.70401 c -2.86009,-3.59432 -5.67076,-6.06993 -8.91867,-7.85548 -3.14364,-1.72822 -5.15601,-3.47437 -5.96909,-5.17942 -1.84738,-3.874 -5.47783,-5.16592 -16.24489,-5.78087 l -9.3863,-0.53609 -0.5283,-3.12697 c -0.29056,-1.71983 -0.77021,-3.13239 -1.06589,-3.13904 -0.29568,-0.007 -1.94721,-1.20479 -3.67007,-2.66255 -3.04672,-2.5779 -3.10886,-2.73598 -2.26993,-5.77434 0.77193,-2.79571 0.65319,-3.39835 -1.13026,-5.73658 -1.09604,-1.43698 -1.99484,-2.94359 -1.99733,-3.34801 -0.002,-0.40442 -0.38504,-2.10547 -0.85012,-3.78012 -0.7484,-2.69489 -1.13945,-3.04481 -3.40261,-3.04481 -1.4433,0 -3.90853,-0.93659 -5.65995,-2.15032 -2.96913,-2.05761 -3.04978,-2.23141 -1.87052,-4.03118 1.59017,-2.42691 1.55325,-3.48596 -0.18853,-5.40782 -0.7815,-0.8623 -2.19532,-4.91022 -3.14183,-8.99538 l -1.72091,-7.42756 2.39561,-2.54233 2.39562,-2.54232 -1.70614,-3.34431 c -1.70189,-3.33598 -1.28466,-4.06262 1.48241,-2.58173 0.90121,0.48231 2.63096,0.45645 4.70645,-0.0704 2.88303,-0.73179 3.78543,-0.57762 7.43061,1.26953 l 4.14906,2.10249 4.55152,-2.23228 c 4.14582,-2.0333 5.08233,-3.03949 10.50651,-11.28817 10.55621,-16.05308 13.5653,-18.15008 26.04454,-18.15008 5.26594,0 5.97519,0.19281 7.11642,1.93453 1.04359,1.59272 1.08436,2.18505 0.23076,3.35241 -0.96354,1.31773 -1.29026,1.23371 -4.62495,-1.18933 l -3.58817,-2.60722 -0.25805,2.29962 c -0.14193,1.26479 -0.99972,2.87618 -1.90621,3.58087 -1.59378,1.23898 -1.46004,1.39301 4.05377,4.66871 4.86194,2.88842 6.36882,3.38746 10.2287,3.38746 2.48972,0 4.52676,0.36537 4.52676,0.81195 0,0.44657 -0.28784,0.81195 -0.63964,0.81195 -0.3518,0 -1.84873,1.00939 -3.32651,2.2431 l -2.68688,2.24311 1.39041,4.78283 1.39041,4.78283 -2.93653,2.51447 c -2.03012,1.73833 -3.43814,3.99668 -4.5616,7.3164 -0.89378,2.64107 -1.49114,4.93586 -1.32746,5.09954 0.16368,0.16368 3.45864,-0.006 7.32212,-0.37666 l 7.02452,-0.67427 0.83956,3.28825 c 1.52302,5.96508 1.4643,5.92944 4.26792,2.59001 2.06655,-2.46149 3.52223,-3.30859 7.05154,-4.10346 4.00935,-0.90298 4.708,-0.84789 7.09304,0.55932 1.4551,0.85853 2.64563,1.67622 2.64563,1.81709 0,0.14087 -1.82688,1.38023 -4.05974,2.75412 -2.23287,1.37389 -4.05975,2.73409 -4.05975,3.02266 0,0.28857 2.32223,3.12363 5.16052,6.30012 6.00642,6.72212 7.40303,10.79897 3.84239,11.2163 -1.39321,0.16329 -2.31773,0.94735 -2.8236,2.39462 -0.6493,1.85759 -0.26274,2.82586 2.82687,7.08089 1.96847,2.71099 4.1271,4.9623 4.79696,5.00292 0.66986,0.0406 3.94353,0.34647 7.27484,0.67966 l 6.05692,0.6058 3.09897,-2.79973 c 1.70444,-1.53986 3.21442,-2.65716 3.35552,-2.48289 0.14111,0.17427 0.79995,2.32275 1.4641,4.77438 l 1.20755,4.45752 -3.60789,2.75483 c -3.1201,2.38238 -22.54716,11.47069 -24.5196,11.47069 -0.38577,0 -1.8744,-0.987 -3.30804,-2.19333 l -2.60663,-2.19334 -1.77673,2.22824 c -1.5906,1.99479 -2.01923,2.13604 -4.09129,1.34824 -3.07225,-1.16807 -4.20657,-0.61531 -4.86211,2.36933 -0.50018,2.27734 -3.15672,5.14793 -5.53563,5.98168 -0.67417,0.23628 -0.5121,0.86231 0.52626,2.03279 0.82525,0.93024 1.24172,2.11 0.92549,2.62167 -0.46259,0.74848 -7.06899,4.04371 -8.10699,4.04371 -0.14781,0 -2.14803,-2.36173 -4.44494,-5.24829 z"
       id="path451" />
  </g>
</svg>
