<?xml version="1.0" encoding="UTF-8" standalone="no"?>
<svg
   xmlns:dc="http://purl.org/dc/elements/1.1/"
   xmlns:cc="http://creativecommons.org/ns#"
   xmlns:rdf="http://www.w3.org/1999/02/22-rdf-syntax-ns#"
   xmlns:svg="http://www.w3.org/2000/svg"
   xmlns="http://www.w3.org/2000/svg"
   xmlns:sodipodi="http://sodipodi.sourceforge.net/DTD/sodipodi-0.dtd"
   xmlns:inkscape="http://www.inkscape.org/namespaces/inkscape"
   width="45mm"
   height="8mm"
   viewBox="0 0 45 8"
   version="1.1"
   id="svg8"
   inkscape:version="1.0.2 (e86c870, 2021-01-15)"
   sodipodi:docname="chryslene2.svg">
  <defs
     id="defs2" />
  <sodipodi:namedview
     id="base"
     pagecolor="#ffffff"
     bordercolor="#666666"
     borderopacity="1.0"
     inkscape:pageopacity="0.0"
     inkscape:pageshadow="2"
     inkscape:zoom="11.2"
     inkscape:cx="35.765293"
     inkscape:cy="26.352531"
     inkscape:document-units="mm"
     inkscape:current-layer="layer1"
     inkscape:document-rotation="0"
     showgrid="false"
     inkscape:window-width="1652"
     inkscape:window-height="948"
     inkscape:window-x="72"
     inkscape:window-y="27"
     inkscape:window-maximized="0"
     fit-margin-top="0"
     fit-margin-left="0"
     fit-margin-right="0"
     fit-margin-bottom="0" />
  <metadata
     id="metadata5">
    <rdf:RDF>
      <cc:Work
         rdf:about="">
        <dc:format>image/svg+xml</dc:format>
        <dc:type
           rdf:resource="http://purl.org/dc/dcmitype/StillImage" />
        <dc:title></dc:title>
      </cc:Work>
    </rdf:RDF>
  </metadata>
  <g
     inkscape:label="Calque 1"
     inkscape:groupmode="layer"
     id="layer1"
     transform="translate(-8.3550736,-3.3519482)">
    <path
       id="path881"
       style="font-style:normal;font-variant:normal;font-weight:normal;font-stretch:normal;font-size:10.5833px;line-height:1.25;font-family:Stealdream;-inkscape-font-specification:'Stealdream, Normal';font-variant-ligatures:normal;font-variant-caps:normal;font-variant-numeric:normal;font-variant-east-asian:normal;stroke-width:0.220134"
       d="m 16.355846,3.9070768 c -0.367659,0 -0.704672,0.060407 -1.011034,0.1812191 -0.302772,0.1185329 -0.573108,0.2780979 -0.810993,0.4786921 -0.234286,0.1983146 -0.432515,0.4205659 -0.594722,0.6667496 -0.162195,0.2439042 -0.286532,0.4946493 -0.373071,0.7522303 -0.083,0.2553016 -0.12443,0.4969287 -0.12443,0.7248765 0,0.5493543 0.12443,1.0109532 0.373064,1.3847876 0.248687,0.3715549 0.587499,0.6519332 1.016432,0.8411303 0.43252,0.1869171 0.917308,0.2803767 1.454356,0.2803767 0.29556,0 0.565892,-0.04559 0.810987,-0.1367692 0.245095,-0.0889 0.455953,-0.2028747 0.632571,-0.3419228 0.176617,-0.139048 0.313582,-0.2849363 0.410894,-0.4376613 0.09739,-0.1550048 0.145996,-0.2963336 0.145996,-0.4239844 0,-0.1116943 -0.04157,-0.2028744 -0.124445,-0.2735383 -0.08298,-0.072943 -0.212652,-0.1094153 -0.389278,-0.1094153 0,0.1869173 -0.05581,0.3761158 -0.167602,0.5675921 -0.111647,0.1914762 -0.270331,0.3521813 -0.475778,0.4821112 -0.205448,0.1276512 -0.446943,0.1914768 -0.724476,0.1914768 -0.252309,0 -0.470382,-0.047869 -0.654195,-0.1436077 C 15.569967,8.4956821 15.422198,8.3657505 15.306857,8.2016282 15.195187,8.0375056 15.11041,7.849447 15.052747,7.6374554 c -0.0542,-0.2142711 -0.08101,-0.4388018 -0.08101,-0.673588 0,-0.3008913 0.04157,-0.6040648 0.124495,-0.9095149 0.08301,-0.3054501 0.198225,-0.5835492 0.346017,-0.8342918 0.147762,-0.2530222 0.324397,-0.4558977 0.529843,-0.6086228 0.205437,-0.1550045 0.430714,-0.2325074 0.675814,-0.2325074 0.18383,0 0.337019,0.033053 0.459571,0.099158 0.126015,0.063825 0.221658,0.1458875 0.286545,0.2461845 0.06505,0.1002971 0.09739,0.2028747 0.09739,0.3077307 0,0.1390481 -0.05781,0.2632807 -0.173011,0.3726959 0.183824,0.063825 0.342428,0.095738 0.475778,0.095738 0.147738,0 0.266722,-0.028494 0.356835,-0.085481 0.09024,-0.059266 0.154983,-0.1287911 0.194641,-0.2085729 0.04306,-0.082061 0.06651,-0.1618437 0.07014,-0.2393461 v -0.047869 c 0,-0.1094149 -0.03227,-0.22339 -0.09739,-0.3419228 C 18.257148,4.4587129 18.149028,4.3492969 17.994046,4.2489998 17.839065,4.1487027 17.628206,4.0666407 17.361483,4.0028153 17.094751,3.9389903 16.759547,3.9070773 16.355875,3.9070773 Z m 3.17365,0.00684 c -0.111645,0 -0.219869,0.012537 -0.324395,0.037612 -0.104503,0.022795 -0.191036,0.059267 -0.259511,0.1094153 -0.06863,0.050149 -0.102624,0.1139746 -0.102624,0.1914768 0,0.4581752 -0.01639,1.0200721 -0.04869,1.6856798 -0.03946,0.8046558 -0.05937,1.5888041 -0.05937,2.3524291 0,0.1595636 0.04157,0.2849363 0.124457,0.3761153 0.08301,0.091178 0.185627,0.1572835 0.308167,0.1983152 0.122431,0.04103 0.239696,0.067244 0.351434,0.078642 0.115222,0.00912 0.212658,0.013678 0.291955,0.013678 h 0.04302 c 0.07223,0 0.110081,-0.014816 0.113708,-0.04445 0.0064,-0.029633 0.0092,-0.053568 0.0092,-0.071804 0,-0.036472 -0.004,-0.080922 -0.01637,-0.13335 -0.0092,-0.068384 -0.01637,-0.1470269 -0.01637,-0.2359267 0,-0.3715549 0.06656,-0.7476727 0.200036,-1.1283457 0.136849,-0.3829524 0.29737,-0.6998027 0.481195,-0.9505455 0.187428,-0.253022 0.364037,-0.3829534 0.529838,-0.389792 0.06505,0 0.104512,0.025075 0.118814,0.075223 0.0129,0.050148 0.02151,0.1014373 0.02151,0.153865 0,0.041031 -0.0023,0.086621 -0.0092,0.1367692 -0.0129,0.1139738 -0.03435,0.2439056 -0.05937,0.3897922 -0.03228,0.1755196 -0.05787,0.3407837 -0.07584,0.4957881 -0.0179,0.1527251 -0.02716,0.2826565 -0.02716,0.3897919 0,0.0889 0.0023,0.1778005 0.0092,0.2667 0.01794,0.1914763 0.07225,0.365858 0.162199,0.523142 0.09024,0.1572846 0.230677,0.2837966 0.421707,0.3795344 0.194644,0.095738 0.457757,0.1436076 0.789363,0.1436076 0.162199,0 0.309977,-0.034192 0.443341,-0.1025768 0.13326,-0.070664 0.248697,-0.1561449 0.346022,-0.2564422 0.08123,-0.080897 0.144672,-0.1618683 0.197869,-0.2427654 0.01961,0.1032703 0.05291,0.1913983 0.104757,0.2598615 0.08302,0.109415 0.185628,0.1880579 0.308169,0.235927 0.122441,0.047869 0.239691,0.076363 0.351433,0.085481 0.115223,0.00912 0.212653,0.013678 0.291949,0.013678 h 0.04305 c 0.07222,0 0.110075,-0.014816 0.113704,-0.04445 0.0064,-0.029634 0.0092,-0.053568 0.0092,-0.071804 0,-0.036472 -0.004,-0.080922 -0.01637,-0.13335 -0.0092,-0.068384 -0.01639,-0.1470272 -0.01639,-0.2359268 0,-0.3669961 0.06505,-0.7385545 0.194637,-1.1146685 0.133239,-0.3783937 0.2505,-0.6656107 0.35142,-0.8616456 0.10094,-0.1983149 0.225279,-0.3624387 0.373055,-0.492369 0.01791,0.109415 0.08663,0.2085731 0.205452,0.2974726 0.118806,0.0889 0.290153,0.13335 0.513621,0.13335 0.17301,-0.00684 0.322593,-0.056987 0.448745,-0.1504461 0.126034,-0.095738 0.18923,-0.208573 0.18923,-0.3385035 0,-0.075223 -0.02356,-0.1493067 -0.07019,-0.22225 -0.04258,-0.072943 -0.113215,-0.1344895 -0.210377,-0.184638 -0.09739,-0.052428 -0.22888,-0.078642 -0.394684,-0.078642 -0.02152,0 -0.04303,0.00114 -0.06505,0.00342 -0.0359,-0.00228 -0.07378,-0.00342 -0.113693,-0.00342 -0.252305,0 -0.468571,0.074084 -0.648789,0.2222499 -0.176613,0.1458866 -0.313577,0.2986131 -0.410897,0.4581767 -0.09739,0.1572839 -0.200052,0.3407837 -0.30817,0.5504958 0.0023,-0.059266 0.0075,-0.1185336 0.01636,-0.1777999 0.02511,-0.2940527 0.03799,-0.5459376 0.03799,-0.7556495 0,-0.1002971 -0.06505,-0.1743809 -0.194636,-0.22225 -0.126045,-0.050148 -0.270333,-0.075223 -0.432528,-0.075223 -0.162194,0 -0.308178,0.025074 -0.437934,0.075223 -0.126028,0.047869 -0.189232,0.1196734 -0.189232,0.2154114 -0.04144,0.7898064 -0.06156,1.5563148 -0.06317,2.3025088 -0.01337,0.01814 -0.02817,0.031353 -0.04502,0.05334 -0.04668,0.059266 -0.10095,0.1219529 -0.162197,0.1880576 -0.06148,0.063826 -0.131674,0.1185332 -0.210851,0.164123 -0.07584,0.045589 -0.162197,0.068385 -0.259519,0.068385 -0.154987,0 -0.254111,-0.04673 -0.297364,-0.1401883 -0.04304,-0.093458 -0.06505,-0.200595 -0.06505,-0.3214077 0,-0.036471 0.0011,-0.075222 0.004,-0.1162537 0.01288,-0.1732403 0.04158,-0.3647183 0.08094,-0.5744303 0.02869,-0.1755198 0.05225,-0.3373645 0.07017,-0.4855307 0.01793,-0.1504456 0.02716,-0.2815168 0.02716,-0.3932111 0,-0.056987 -0.0011,-0.1128349 -0.004,-0.1675425 C 22.600676,6.1569344 22.557639,6.0110463 22.48906,5.8833954 22.420888,5.7534651 22.312888,5.6508876 22.165106,5.5756649 22.017357,5.4981629 21.815487,5.459411 21.559578,5.4594112 c -0.223477,0 -0.434334,0.059267 -0.632571,0.1777997 -0.19464,0.118533 -0.371253,0.2712595 -0.529843,0.4581767 -0.154987,0.1846378 -0.286548,0.3818145 -0.394677,0.5915266 0.0023,-0.068384 0.0063,-0.1379092 0.0092,-0.208573 0.02151,-0.3487601 0.03946,-0.7100609 0.05419,-1.0838954 0.01789,-0.3761141 0.02716,-0.7784459 0.02716,-1.2069879 0,-0.0889 -0.05786,-0.1561449 -0.17301,-0.2017345 -0.111641,-0.047871 -0.243294,-0.071806 -0.394674,-0.071805 z m 16.079131,0 c -0.155,0 -0.293757,0.022795 -0.416311,0.068385 -0.126026,0.047869 -0.189221,0.1208131 -0.189221,0.2188307 0,0.070664 -0.0064,0.2416264 -0.02152,0.5128843 -0.0092,0.271258 -0.02509,0.5801303 -0.04308,0.9266111 -0.01793,0.4148651 -0.03588,0.8080787 -0.05419,1.1796339 -0.0179,0.3692754 -0.02716,0.6120423 -0.02716,0.7282956 0,0.4718523 0.111643,0.825175 0.335208,1.059961 0.227079,0.2325067 0.576704,0.3487613 1.04888,0.3487613 0.176611,0 0.333403,-0.034192 0.470366,-0.1025768 0.13684,-0.070664 0.254115,-0.1561449 0.351432,-0.2564422 0.09739,-0.1025764 0.17301,-0.2040146 0.227076,-0.3043113 0.01305,-0.027137 0.02246,-0.046612 0.0337,-0.069411 0.04806,0.070544 0.100548,0.1388073 0.161115,0.2027603 0.155006,0.1595636 0.35143,0.2872157 0.589317,0.3829536 0.241491,0.095738 0.531647,0.1436077 0.87046,0.1436077 0.22707,0 0.428927,-0.034192 0.605533,-0.102577 0.176613,-0.070664 0.327999,-0.1561453 0.45415,-0.256442 0.126029,-0.1025764 0.22527,-0.2040142 0.297362,-0.3043117 0.0075,-0.011997 0.01191,-0.0199 0.0215,-0.031115 0.01096,0.1509984 0.05114,0.273073 0.118804,0.3627803 0.08302,0.1071352 0.185624,0.1846386 0.308174,0.2325076 0.12243,0.047869 0.239693,0.076363 0.351427,0.085481 0.115233,0.00912 0.212661,0.013678 0.291955,0.013678 h 0.04304 c 0.07221,0 0.110034,-0.014816 0.113718,-0.04445 0.0064,-0.029634 0.0092,-0.053569 0.0092,-0.071804 0,-0.036471 -0.004,-0.080922 -0.01638,-0.1333498 -0.0092,-0.068385 -0.01637,-0.1470274 -0.01637,-0.2359267 0,-0.3715555 0.06655,-0.7476729 0.200044,-1.1283456 0.136834,-0.3829524 0.297364,-0.6998031 0.48118,-0.9505455 0.187435,-0.2530221 0.36405,-0.3829537 0.529851,-0.3897921 0.06505,0 0.102569,0.026214 0.113703,0.078642 0.01291,0.050148 0.02152,0.1014373 0.02152,0.1538652 0,0.041031 -10e-4,0.085481 -0.004,0.13335 -0.01289,0.1139738 -0.03435,0.2439055 -0.05937,0.389792 C 42.77747,6.9308165 42.75191,7.0960804 42.73391,7.2510848 42.716,7.40381 42.70675,7.5337415 42.70675,7.640877 c 0,0.0889 0.0023,0.1778 0.0092,0.2666997 0.01792,0.1914759 0.07223,0.3658577 0.162199,0.5231421 0.09024,0.1572841 0.230673,0.2837964 0.421702,0.3795345 0.194639,0.095738 0.457768,0.1436075 0.789367,0.1436075 0.162197,0 0.309983,-0.034192 0.443345,-0.1025768 0.133247,-0.070664 0.248694,-0.1561455 0.34602,-0.2564422 0.10095,-0.1025764 0.180217,-0.2040142 0.237878,-0.3043115 0.0097,-0.02018 0.01745,-0.03385 0.02715,-0.05163 0.0454,0.065323 0.09472,0.1288002 0.151377,0.1883994 0.154996,0.1595636 0.351422,0.2872157 0.589309,0.3829536 0.241486,0.095738 0.53166,0.1436077 0.870455,0.1436077 0.227073,0 0.428919,-0.034192 0.605547,-0.1025768 0.176602,-0.070664 0.328,-0.1561455 0.454128,-0.2564422 0.126049,-0.1025764 0.225313,-0.2040142 0.2974,-0.3043115 0.07583,-0.1002971 0.120831,-0.1732412 0.135234,-0.2188306 0.0129,-0.047871 0.02149,-0.079783 0.02149,-0.095738 0,-0.029634 -0.0092,-0.04445 -0.03228,-0.04445 -0.03945,0 -0.10272,0.042171 -0.189222,0.1265115 -0.06505,0.061546 -0.146001,0.1276511 -0.243286,0.1983152 -0.09383,0.068384 -0.203658,0.1287913 -0.329811,0.1812191 -0.126041,0.052428 -0.268518,0.078642 -0.427113,0.078642 -0.158594,0 -0.290144,-0.025075 -0.394682,-0.075223 C 46.54846,8.3908277 46.463732,8.3247227 46.398848,8.2426612 46.337392,8.1583202 46.292466,8.064861 46.263596,7.9622844 46.454625,7.846031 46.629437,7.7183791 46.788036,7.5793308 46.950219,7.4402826 47.096209,7.2818573 47.225967,7.1040581 47.35919,6.9262588 47.449438,6.7587155 47.496285,6.6014314 c 0.04677,-0.1595634 0.07021,-0.2951937 0.07021,-0.4068881 0,-0.063825 -0.004,-0.1253718 -0.01642,-0.1846382 -0.02856,-0.164124 -0.124312,-0.296335 -0.286386,-0.396632 -0.158254,-0.1025766 -0.379927,-0.1538653 -0.664671,-0.1538653 -0.288349,0 -0.540653,0.051289 -0.756915,0.1538653 -0.216268,0.1025764 -0.398293,0.2404862 -0.546067,0.4137266 -0.14405,0.1709608 -0.254107,0.3635787 -0.329809,0.5778494 -0.07583,0.2119918 -0.113678,0.4308236 -0.113678,0.6564919 0,0.2165506 0.03589,0.4251248 0.108066,0.6257189 0.02189,0.061379 0.04933,0.1199204 0.07907,0.177458 -0.0074,0.011528 -0.0135,0.018275 -0.02472,0.031115 -0.04671,0.059267 -0.100951,0.1219529 -0.162201,0.1880577 -0.06149,0.063825 -0.131676,0.1185332 -0.210859,0.1641229 -0.07585,0.045589 -0.162191,0.068385 -0.259518,0.068385 -0.154983,0 -0.254109,-0.04673 -0.29736,-0.1401883 -0.04304,-0.093459 -0.06505,-0.2005952 -0.06505,-0.3214076 0,-0.036471 0.001,-0.075222 0.004,-0.1162537 0.01288,-0.1732402 0.04158,-0.3647184 0.08091,-0.5744304 0.02869,-0.1755199 0.05225,-0.3350849 0.07017,-0.478692 0.01791,-0.1436072 0.02716,-0.2655605 0.02716,-0.3658576 0,-0.068384 -0.0023,-0.1356294 -0.0092,-0.2017345 C 44.183317,6.1535121 44.142867,6.0076242 44.074372,5.8799733 44.005782,5.7500431 43.897708,5.6474656 43.749921,5.5722428 43.60212,5.4947408 43.400306,5.4559889 43.144392,5.4559889 c -0.227075,0 -0.439734,0.060407 -0.637978,0.1812191 -0.194633,0.118533 -0.371245,0.2712595 -0.529835,0.4581768 -0.154982,0.186917 -0.286549,0.3852338 -0.394689,0.5949458 0.0023,-0.061546 0.0075,-0.1219526 0.01637,-0.1812194 0.0251,-0.2940525 0.03795,-0.5459373 0.03801,-0.7556493 0,-0.1002971 -0.06505,-0.1743809 -0.194644,-0.2222498 -0.126017,-0.050149 -0.270318,-0.075223 -0.432524,-0.075223 -0.162192,0 -0.308173,0.025075 -0.437926,0.075223 -0.126045,0.047869 -0.189241,0.1196732 -0.189241,0.2154112 -0.04029,0.7683643 -0.05975,1.5138746 -0.0627,2.2409626 -0.02543,0.019668 -0.05137,0.039197 -0.08338,0.070436 -0.06505,0.061546 -0.145993,0.1276511 -0.243289,0.1983152 -0.09383,0.068384 -0.203653,0.1287915 -0.329807,0.1812191 -0.126041,0.052428 -0.268527,0.078642 -0.427125,0.078642 -0.158583,0 -0.290146,-0.025075 -0.394673,-0.075223 C 38.736505,8.3908262 38.651789,8.3247213 38.586906,8.2426598 38.525468,8.1583188 38.480479,8.0648596 38.451653,7.962283 38.642688,7.8460297 38.817508,7.7183777 38.976095,7.5793294 39.138296,7.4402813 39.284273,7.281856 39.41402,7.1040567 39.547246,6.9262573 39.637495,6.758714 39.684359,6.6014299 c 0.04672,-0.1595634 0.07018,-0.2951937 0.07018,-0.4068881 0,-0.063825 -0.004,-0.1253718 -0.01636,-0.1846382 -0.028,-0.1641225 -0.123487,-0.2963335 -0.28571,-0.3966305 -0.158595,-0.1025766 -0.380261,-0.1538653 -0.665009,-0.1538653 -0.288353,0 -0.540651,0.051289 -0.756922,0.1538653 -0.216258,0.1025764 -0.398282,0.2404862 -0.546054,0.4137266 -0.144096,0.1709608 -0.254117,0.3635787 -0.329808,0.5778494 -0.07583,0.2119918 -0.113694,0.4308236 -0.113694,0.6564919 0,0.2165506 0.03588,0.4251248 0.10808,0.6257189 0.01873,0.052615 0.04116,0.1033889 0.06553,0.1531815 -0.01655,0.019547 -0.0311,0.034598 -0.04906,0.058811 -0.04307,0.059266 -0.09536,0.1208127 -0.156789,0.1846383 -0.06148,0.063825 -0.131677,0.1196728 -0.210858,0.1675421 -0.07581,0.045589 -0.162188,0.068385 -0.259519,0.068385 -0.158586,0 -0.272122,-0.09118 -0.340612,-0.2735383 -0.06865,-0.1823582 -0.10807,-0.3761156 -0.118817,-0.5812688 -0.0064,-0.2074325 -0.0092,-0.3749759 -0.0092,-0.5026267 0,-0.1914761 0.0064,-0.3920722 0.0215,-0.6017842 0.0251,-0.3510397 0.05225,-0.7009429 0.08096,-1.0497031 0.05785,-0.5265596 0.08664,-0.9608044 0.08664,-1.3027262 0,-0.095738 -0.06505,-0.1686821 -0.194636,-0.2188306 -0.126045,-0.050149 -0.270328,-0.075223 -0.432528,-0.075223 z m 2.541089,0.2222498 c -0.08663,0 -0.173005,0.00342 -0.259512,0.010258 v 0.058127 c 0,0.2028735 0.05033,0.3875131 0.151348,0.553915 0.111645,0.1823583 0.237888,0.2963324 0.378456,0.3419229 0.140429,0.04559 0.252309,0.068385 0.335207,0.068385 0.147759,0 0.309982,-0.038752 0.486596,-0.1162538 C 39.011125,4.9658987 38.843524,4.8314079 38.738995,4.6490496 38.634478,4.4666913 38.569588,4.3071263 38.544361,4.1703576 38.429087,4.1498436 38.297457,4.1384456 38.149675,4.1361656 Z m -5.109205,1.0052518 c -0.126016,0 -0.273934,0.021655 -0.443336,0.064965 -0.169408,0.041031 -0.335215,0.1071362 -0.497406,0.1983154 -0.158596,0.088899 -0.291956,0.2062939 -0.400086,0.3521804 -0.108068,0.1458867 -0.1622,0.322548 -0.1622,0.5299805 0,0.1344893 0.04513,0.2610016 0.135247,0.3795344 0.09383,0.1185329 0.209057,0.2313681 0.346029,0.3385036 0.140437,0.1048561 0.284742,0.2074335 0.43252,0.3077306 0.191034,0.1253714 0.356833,0.2473247 0.497403,0.3658575 0.140438,0.1185327 0.210857,0.2370668 0.210857,0.3555998 0,0.1253716 -0.05581,0.2279493 -0.167605,0.3077305 -0.111645,0.079782 -0.268524,0.1196731 -0.47037,0.1196731 -0.227077,0 -0.400087,-0.030773 -0.519028,-0.092319 -0.11882,-0.063825 -0.205449,-0.1390489 -0.259525,-0.2256691 -0.05033,-0.08662 -0.08816,-0.1686823 -0.113696,-0.2461844 -0.01789,-0.056987 -0.03798,-0.1037168 -0.05937,-0.1401884 -0.02151,-0.036472 -0.05418,-0.054708 -0.09739,-0.054708 -0.07583,-2e-7 -0.12963,0.036472 -0.162196,0.1094153 -0.02869,0.070664 -0.04305,0.142468 -0.04305,0.2154113 0,0.04331 0.0023,0.0889 0.0092,0.1367691 0.02152,0.1299305 0.08095,0.2598621 0.17842,0.3897923 0.09739,0.1299303 0.239685,0.2404861 0.427114,0.3316651 0.187431,0.0889 0.430725,0.13335 0.729891,0.13335 0.515421,0 0.933534,-0.1116954 1.254326,-0.3350846 0.320864,-0.2256683 0.481262,-0.5174445 0.481262,-0.8753225 0,-0.1367689 -0.05225,-0.2644208 -0.156798,-0.3829537 C 34.091183,7.3069303 33.963228,7.1952347 33.80824,7.0903788 33.653256,6.9832432 33.491058,6.879526 33.321652,6.7792289 33.112598,6.6606961 32.925172,6.5410223 32.759368,6.42021 32.593572,6.2993976 32.494448,6.1968201 32.462008,6.1124793 c -0.02866,-0.08434 -0.04307,-0.145887 -0.04307,-0.1846383 0,-0.100297 0.04869,-0.2062939 0.14599,-0.3179884 0,0.127651 0.0579,0.241626 0.173013,0.3419231 0.118819,0.1002969 0.300971,0.1504459 0.546067,0.1504459 0.17301,-0.00684 0.320794,-0.056987 0.443338,-0.1504459 0.122402,-0.093459 0.185603,-0.2051543 0.189228,-0.3350845 -0.0026,-0.072943 -0.0359,-0.1447476 -0.0974,-0.2154115 -0.05781,-0.072943 -0.151452,-0.1344898 -0.281219,-0.1846382 -0.126155,-0.050149 -0.29195,-0.075223 -0.497399,-0.075223 z m -5.04974,0.3179884 c -0.16219,0 -0.306368,0.025074 -0.432523,0.075223 -0.126018,0.047869 -0.18923,0.1196732 -0.18923,0.2154114 -0.0129,0.1208124 -0.02716,0.3054519 -0.03795,0.553915 -0.0092,0.2461838 -0.02001,0.4832518 -0.02716,0.7111996 -0.0064,0.2256686 -0.0092,0.4068888 -0.0092,0.5436574 v 0.1265113 c 0,0.2256685 0.04513,0.4342426 0.135248,0.625719 0.09025,0.1914759 0.228883,0.3476216 0.416306,0.4684343 0.187434,0.1185326 0.425318,0.1777999 0.713668,0.1777999 0.201847,0 0.374857,-0.029633 0.519034,-0.0889 0.147734,-0.061546 0.272128,-0.143608 0.373052,-0.2461844 0.10095,-0.104856 0.182023,-0.2256693 0.243292,-0.3624384 -0.01789,0.255302 -0.04869,0.514025 -0.09172,0.776165 -0.14773,0.054707 -0.302769,0.13449 -0.464964,0.2393459 -0.158591,0.1071355 -0.308175,0.2268096 -0.448745,0.3590193 -0.136848,0.1322098 -0.246898,0.2632811 -0.329799,0.3932119 -0.07941,0.12993 -0.118819,0.248464 -0.118819,0.3556 v 0.02735 c 0.0064,0.116254 0.07377,0.209714 0.200046,0.280377 0.129628,0.07066 0.34061,0.105996 0.63257,0.105996 0.299163,0 0.551473,-0.08206 0.75692,-0.246184 0.205443,-0.161843 0.373054,-0.378396 0.502802,-0.6496542 0.129642,-0.2712577 0.228882,-0.5755711 0.297373,-0.9129339 0.07225,-0.3350835 0.120837,-0.6804276 0.145987,-1.0360264 0.02867,-0.3555989 0.04512,-0.6564928 0.04869,-0.9026764 0.0023,-0.2461837 0.004,-0.4422208 0.004,-0.5881074 0,-0.1458867 -0.0011,-0.2815168 -0.004,-0.4068882 -0.0023,-0.1299303 -0.004,-0.245045 -0.004,-0.3453421 0,-0.072943 -0.05581,-0.1287909 -0.167606,-0.1675421 -0.111645,-0.04103 -0.209052,-0.062685 -0.291958,-0.064965 -0.07941,-0.00228 -0.126026,-0.00342 -0.140416,-0.00342 -0.126045,0 -0.237893,0.014818 -0.33521,0.04445 -0.111643,0.031913 -0.167604,0.083202 -0.167604,0.1538653 V 6.31421 c -0.01288,0.166402 -0.03945,0.3715571 -0.07581,0.6154612 -0.03227,0.2439044 -0.07941,0.4866709 -0.14044,0.7282958 -0.05777,0.2416248 -0.131674,0.4456403 -0.221664,0.612042 -0.08663,0.1664019 -0.189227,0.2496036 -0.308172,0.2496036 -0.133237,0 -0.232483,-0.061546 -0.297358,-0.1846382 -0.06147,-0.1230919 -0.09899,-0.264421 -0.113704,-0.4239844 -0.0129,-0.1595633 -0.02152,-0.3088709 -0.02152,-0.447919 0,-0.084341 0.0011,-0.1709617 0.004,-0.2598614 0.0064,-0.2347862 0.02,-0.468435 0.03797,-0.7009418 0.02511,-0.2894939 0.03799,-0.5379594 0.03799,-0.745392 0,-0.1002971 -0.06293,-0.1743809 -0.189228,-0.2222498 -0.12639,-0.050149 -0.272478,-0.075223 -0.438285,-0.075223 z m 11.040218,0.4171458 c 0.104513,0 0.156786,0.087761 0.156786,0.2632805 0,0.027354 -0.001,0.055848 -0.004,0.085481 -0.02152,0.2325067 -0.106392,0.4752735 -0.254106,0.7282957 -0.147741,0.2530221 -0.329804,0.4718541 -0.546068,0.6564919 -0.0064,-0.1162534 -0.0092,-0.22339 -0.0092,-0.3214076 0,-0.1914761 0.03225,-0.3966312 0.09739,-0.6154612 0.06854,-0.2188299 0.153103,-0.4057489 0.254027,-0.5607535 0.10095,-0.1572841 0.203647,-0.2359267 0.308179,-0.2359267 z m 7.812493,0 c 0.104515,0 0.156788,0.087761 0.156788,0.2632805 0,0.027354 -0.0011,0.055848 -0.004,0.085481 -0.02149,0.2325067 -0.106457,0.4752735 -0.254104,0.7282957 -0.147786,0.2530221 -0.329806,0.4718541 -0.546073,0.6564919 -0.0064,-0.1162534 -0.0092,-0.22339 -0.0092,-0.3214076 0,-0.1914761 0.03227,-0.3966312 0.09739,-0.6154612 0.06862,-0.2188299 0.153181,-0.4057489 0.254113,-0.5607535 0.10094,-0.1572841 0.203644,-0.2359267 0.308165,-0.2359267 z"
       sodipodi:nodetypes="sccccsccscscsccscscccssccscsscscccscsssscsscssscsscscscccsscccscscscccsscsscscscccsccsccscsccccscsccccccssscccscccscccccscsscscccscsccccccscccccscsscscsccccscccscscsccscccsccccssccssscccccsccssccssccccsssccsscccsccccscscccccssscccccsccssccssccscsscsccscssccscsscsccsccsscccsssscccsscscscscscccscscccccccsssccccssscscccccccsccscsccsscsccscsccccscssccscssscscsccsssscscsccs" />
  </g>
</svg>
