<?xml version="1.0" encoding="UTF-8" standalone="no"?>
<svg
   xmlns:dc="http://purl.org/dc/elements/1.1/"
   xmlns:cc="http://creativecommons.org/ns#"
   xmlns:rdf="http://www.w3.org/1999/02/22-rdf-syntax-ns#"
   xmlns:svg="http://www.w3.org/2000/svg"
   xmlns="http://www.w3.org/2000/svg"
   xmlns:sodipodi="http://sodipodi.sourceforge.net/DTD/sodipodi-0.dtd"
   xmlns:inkscape="http://www.inkscape.org/namespaces/inkscape"
   width="210mm"
   height="297mm"
   viewBox="0 0 210 297"
   version="1.1"
   id="svg8"
   inkscape:version="1.0.2 (e86c870, 2021-01-15)"
   sodipodi:docname="Pauline.svg">
  <defs
     id="defs2" />
  <sodipodi:namedview
     id="base"
     pagecolor="#ffffff"
     bordercolor="#666666"
     borderopacity="1.0"
     inkscape:pageopacity="0.0"
     inkscape:pageshadow="2"
     inkscape:zoom="1.4"
     inkscape:cx="92.046143"
     inkscape:cy="557.24321"
     inkscape:document-units="mm"
     inkscape:current-layer="layer3"
     inkscape:document-rotation="0"
     showgrid="false"
     inkscape:window-width="1848"
     inkscape:window-height="1016"
     inkscape:window-x="72"
     inkscape:window-y="27"
     inkscape:window-maximized="1"
     inkscape:lockguides="false" />
  <metadata
     id="metadata5">
    <rdf:RDF>
      <cc:Work
         rdf:about="">
        <dc:format>image/svg+xml</dc:format>
        <dc:type
           rdf:resource="http://purl.org/dc/dcmitype/StillImage" />
        <dc:title />
      </cc:Work>
    </rdf:RDF>
  </metadata>
  <g
     inkscape:label="hybiscus"
     inkscape:groupmode="layer"
     id="layer1">
    <text
       xml:space="preserve"
       style="font-size:10.5833px;line-height:1.25;font-family:Madina;-inkscape-font-specification:Madina;stroke-width:0.264583"
       x="171.4913"
       y="84.714706"
       id="text839"><tspan
         sodipodi:role="line"
         id="tspan837"
         x="171.4913"
         y="84.714706"
         style="stroke-width:0.264583" /></text>
    <text
       xml:space="preserve"
       style="font-size:10.5833px;line-height:1.25;font-family:Madina;-inkscape-font-specification:Madina;stroke-width:0.264583"
       x="97.888649"
       y="50.913559"
       id="text913"><tspan
         sodipodi:role="line"
         id="tspan911"
         x="97.888649"
         y="50.913559"
         style="font-style:normal;font-variant:normal;font-weight:normal;font-stretch:normal;font-family:Leafs;-inkscape-font-specification:Leafs;stroke-width:0.264583" /></text>
    <g
       aria-label="c"
       transform="matrix(0.79359956,0.3883228,-0.3883228,0.79359956,7.2769761,16.009993)"
       id="text917"
       style="font-style:normal;font-variant:normal;font-weight:normal;font-stretch:normal;font-size:7.45979px;line-height:1.25;font-family:BonusHearts;-inkscape-font-specification:BonusHearts;stroke-width:0.186495"
       inkscape:transform-center-x="-0.1345256"
       inkscape:transform-center-y="-0.53219199">
      <path
         d="m 116.68151,94.930689 q 0.18649,0.141736 0.19395,0.365529 0.0149,0.223794 -0.18649,0.469967 -0.097,0.111897 -0.26109,0.216334 -0.16412,0.104437 -0.2984,0.171575 -0.13427,0.06714 -0.47742,0.231254 -0.24618,-0.290932 -0.34315,-0.402829 -0.0895,-0.119357 -0.19396,-0.283472 -0.10443,-0.171575 -0.14919,-0.305851 -0.0895,-0.298392 0.0149,-0.499806 0.11189,-0.208875 0.33569,-0.261093 0.20887,-0.04476 0.39537,0.0746 0.19395,0.111897 0.23871,0.313311 0.11936,-0.164115 0.34315,-0.186495 0.22379,-0.02984 0.38791,0.09698 z"
         style="font-style:normal;font-variant:normal;font-weight:normal;font-stretch:normal;font-family:BonusHearts;-inkscape-font-specification:BonusHearts;stroke-width:0.186495"
         id="path948" />
    </g>
    <g
       aria-label="a"
       transform="rotate(10.493351,-3.1313949,-2.6469815)"
       id="text918"
       style="font-size:14.8687px;line-height:1.25;font-family:Madina;-inkscape-font-specification:Madina;stroke-width:0.371719">
      <path
         d="m 75.036894,110.69455 q 0,0.31945 -0.159723,0.53725 -0.159722,0.21781 -0.479167,0.21781 -0.174242,0 -0.377525,-0.0871 -0.261364,0.55177 -0.871213,0.84218 -0.63889,0.23232 -1.510103,0.87121 -1.3649,1.27778 -1.655304,1.78599 -0.290404,0.5082 -1.33586,1.4375 -0.842172,-0.0871 -0.726011,-0.84217 0.842173,-0.95834 2.729801,-2.64268 0.755051,-0.55177 1.742426,-0.87122 0.69697,-0.34848 1.248738,-1.07449 0,-0.029 0,-0.17425 0,-0.2904 0.246844,-0.52272 0.246843,-0.23233 0.508207,-0.23233 0.319445,0 0.479167,0.23233 0.159723,0.23232 0.159723,0.52272 z m -5.662884,2.26516 v -0.37753 q -0.116162,-1.01641 -0.232324,0 -0.174242,0.37753 -0.261363,0.87122 -0.232324,0.63889 -0.493688,0 -0.05808,-0.52273 -0.116161,-0.66793 -0.05808,-0.14521 -0.203283,-0.40657 -0.145203,-0.26136 -0.290405,-1.04546 -0.232323,-0.66793 0,-1.39394 0.145202,-0.46464 0.493688,-0.63889 1.974749,-0.87121 3.513892,0.90026 0.842172,0.81313 0.116161,1.3649 -1.161617,0.58081 -2.003789,1.5101 -0.580809,0.72601 -0.522728,-0.11616 z m -1.33586,1.24874 q -0.02904,0.81313 -0.493687,0.26136 -1.016415,-0.95833 -2.00379,-1.01641 -0.726011,-0.11617 -0.145202,0.26136 1.393941,0.63889 2.00379,1.24874 0.203283,0.49369 -0.377526,0.37752 -2.148992,0.0581 -4.617428,-1.39394 -0.609849,-0.84217 0,-1.74242 0.493687,-1.39394 2.003789,-2.14899 0.784092,-0.52273 1.481062,0 1.364901,0.34848 1.887628,2.26515 0.290405,0.95833 0.261364,1.88763 z m -1.39394,1.3649 q -2.67172,-0.43561 -3.746216,0 -1.132577,0.20328 -1.510102,1.24874 -0.406566,0.87121 0,1.62626 0.813132,0.69697 1.118056,1.4375 0.304925,0.74053 0.885733,0.68245 0.580809,0.26136 1.248739,0 1.045455,-0.11616 1.481062,-1.10354 0.319444,-1.10353 1.655304,-2.52651 0.493688,-0.49369 -0.232323,-0.37753 -0.522728,-0.029 -1.510103,0.63889 -0.929293,0.40657 -0.261363,-0.26136 0.638889,-0.37753 1.248738,-0.75505 1.219698,-0.52273 -0.377525,-0.60985 z m 2.497476,1.24874 q -0.232323,-0.84218 -0.987374,0.37752 -1.422981,1.16162 -1.742426,2.49748 -0.232323,0.69697 -0.145202,1.39394 0.05808,1.04545 1.132577,1.10354 1.539142,0.52272 3.252528,-0.11617 1.945709,-0.11616 1.742426,-2.75884 -1.016415,-1.71338 -2.119952,-2.75884 -0.958334,-0.66793 -0.522728,0.26137 0.60985,1.53914 0.755052,2.61363 0.145202,1.13258 -0.377526,0 -0.493687,-2.00379 -0.987375,-2.61363 z m 1.248739,-2.23612 q -0.377526,0.31945 0.755051,0.52273 0.66793,0.31944 1.510102,0.69697 0.726011,0.58081 -0.145202,0.26136 -1.190657,-0.46464 -2.381315,-0.60984 -0.813132,0.029 -0.116162,0.46464 0.755052,0.43561 1.771467,1.65531 0.406566,0.78409 0.871212,0.87121 0.406566,0.26136 0.755052,0 0.987374,-0.0871 1.248738,-1.77147 0.842173,-2.46843 -0.377525,-3.22348 -0.813133,-0.55177 -1.626265,0 -1.016415,0.20328 -2.265153,1.13257 z"
         style="font-style:normal;font-variant:normal;font-weight:normal;font-stretch:normal;font-family:Hibiscus;-inkscape-font-specification:Hibiscus;stroke-width:0.371719"
         id="path931" />
    </g>
    <text
       xml:space="preserve"
       style="font-size:25.4px;line-height:1.25;font-family:Madina;-inkscape-font-specification:Madina;stroke-width:0.264583"
       x="9.1503372"
       y="240.6519"
       id="text926"><tspan
         sodipodi:role="line"
         id="tspan924"
         x="9.1503372"
         y="240.6519"
         style="font-style:normal;font-variant:normal;font-weight:normal;font-stretch:normal;font-size:25.4px;font-family:Ananda;-inkscape-font-specification:Ananda;stroke-width:0.264583">P</tspan></text>
  </g>
  <g
     inkscape:groupmode="layer"
     id="layer2"
     inkscape:label="P">
    <g
       aria-label="P"
       id="text922"
       style="font-size:25.4px;line-height:1.25;font-family:Madina;-inkscape-font-specification:Madina;stroke-width:0.264583"
       transform="matrix(1.2443659,0,0,1.2443659,-7.4594138,-27.628136)">
      <path
         d="m 37.904993,127.23237 c -0.626533,1.28693 -0.520127,1.05885 -1.028127,2.32885 -0.507999,-0.59267 -0.922866,-1.43933 -1.244599,-2.54 -0.508,0.22013 -0.719667,0.49107 -0.635,0.8128 0.135467,1.0668 0.635,1.9558 1.498599,2.667 -0.507999,1.33773 -0.922866,2.59927 -1.244599,3.7846 -0.3048,1.18533 -0.474133,2.2352 -0.508,3.1496 -0.03387,0.11853 0.01693,0.31327 0.1524,0.5842 0.135467,0.27093 0.287867,0.5334 0.4572,0.7874 0.186267,0.254 0.3556,0.4572 0.508,0.6096 0.1524,0.1524 0.237067,0.16933 0.254,0.0508 0.135467,-1.04987 0.4064,-2.25213 0.812799,-3.6068 0.4064,-1.35467 0.931333,-2.80247 1.5748,-4.3434 0.6096,0.18627 1.2954,0.28787 2.0574,0.3048 0.9652,0.0339 2.023533,-0.0677 3.175,-0.3048 1.151467,-0.254 2.3114,-0.62653 3.4798,-1.1176 1.1684,-0.508 2.302933,-1.12607 3.4036,-1.8542 1.100667,-0.74507 2.074333,-1.59173 2.921,-2.54 0.846667,-0.9652 1.524,-2.01507 2.032,-3.1496 0.524933,-1.15147 0.7874,-2.37913 0.7874,-3.683 0,-0.84667 -0.160867,-1.66793 -0.4826,-2.4638 -0.3048,-0.8128 -0.821267,-1.51553 -1.5494,-2.1082 -0.728133,-0.59267 -1.6764,-1.02447 -2.8448,-1.2954 -1.1684,-0.28787 -2.599267,-0.32173 -4.2926,-0.1016 -1.998133,0.1016 -3.894667,0.56727 -5.6896,1.397 -1.794933,0.8128 -3.420533,1.87113 -4.8768,3.175 -1.456266,1.28693 -2.700866,2.75167 -3.733799,4.3942 -1.032933,1.6256 -1.786467,3.29353 -2.2606,5.0038 -0.1524,0.54187 -0.135467,1.0668 0.0508,1.5748 0.186267,0.508 0.423333,0.93133 0.7112,1.27 0.287867,0.32173 0.5588,0.52493 0.8128,0.6096 0.254,0.0677 0.372533,-0.0593 0.3556,-0.381 -0.03387,-0.52493 0.0508,-1.15147 0.254,-1.8796 0.220133,-0.72813 0.5334,-1.51553 0.9398,-2.3622 0.4064,-0.84667 0.905933,-1.71873 1.4986,-2.6162 0.592667,-0.9144 1.2446,-1.8034 1.955799,-2.667 0.7112,-0.88053 1.4732,-1.71027 2.286,-2.4892 0.8128,-0.77893 1.651,-1.46473 2.5146,-2.0574 0.8636,-0.59267 1.735667,-1.0668 2.6162,-1.4224 0.897467,-0.3556 1.778,-0.54187 2.6416,-0.5588 1.524,-0.0169 2.726267,0.13547 3.6068,0.4572 0.880533,0.32173 1.540933,0.7366 1.9812,1.2446 0.440267,0.49107 0.7112,1.03293 0.8128,1.6256 0.1016,0.57573 0.1524,1.10913 0.1524,1.6002 -0.01693,1.0668 -0.237067,2.09973 -0.6604,3.0988 -0.4064,0.98213 -0.948267,1.91347 -1.6256,2.794 -0.677333,0.8636 -1.464733,1.65947 -2.3622,2.3876 -0.897467,0.7112 -1.845733,1.32927 -2.8448,1.8542 -0.982133,0.508 -1.9812,0.90593 -2.9972,1.1938 -1.016,0.27093 -1.9812,0.4064 -2.8956,0.4064 -0.5588,0.0169 -1.0922,-0.0339 -1.6002,-0.1524 0.491067,-1.1176 0.688195,-1.56095 1.26378,-2.69202 -0.240314,-0.0215 0.06229,-0.48508 -0.145624,-0.46237 -0.166615,0.0182 -0.126094,-0.12147 -0.287039,-0.13401 -0.824843,-0.0643 -1.374484,0.42991 -1.75879,-0.18345 z"
         style="font-style:normal;font-variant:normal;font-weight:normal;font-stretch:normal;font-size:25.4px;font-family:Ananda;-inkscape-font-specification:Ananda;stroke-width:0.264583"
         id="path928"
         sodipodi:nodetypes="cccccccscscscccccccscsccccccsccccsccssccscccccccccccssc" />
    </g>
  </g>
  <g
     inkscape:groupmode="layer"
     id="layer3"
     inkscape:label="auline">
    <g
       aria-label="auline"
       id="text847"
       style="font-size:25.4px;line-height:1.25;font-family:Madina;-inkscape-font-specification:Madina;stroke-width:0.264583"
       transform="translate(21.08944,35.05)">
      <path
         id="path951"
         style="font-size:25.4px;stroke-width:0.264583"
         d="m 41.459506,95.194255 c -0.762494,4.95e-4 -1.869693,0.574352 -3.234943,2.526977 -1.5748,2.2606 -2.74329,4.851268 -3.47989,7.061068 -0.08133,0.24631 -0.146217,0.47414 -0.203605,0.6935 -0.431567,0.71871 -0.892651,1.4487 -1.295014,1.97352 -0.634997,0.8128 -1.472967,1.3714 -1.244367,-0.1018 0.0508,-0.4064 0.584295,-1.93053 1.473295,-3.30213 0.3302,-0.4826 0.482444,-0.99028 0.05064,-1.26969 -0.635,-0.43179 -1.066773,-0.0257 -1.346171,0.4315 -0.482602,0.7874 -0.889005,1.52396 -1.168405,2.18436 -1.2446,2.0066 -2.006857,2.99735 -2.591057,2.79415 -0.5334,-0.1778 0.02591,-2.00673 0.838708,-3.30212 0.762,-1.1938 1.066343,-1.87964 0.482143,-2.15904 -0.7366,-0.3556 -1.091994,0.12742 -1.904794,1.70222 -0.07879,0.14773 -0.163684,0.32502 -0.248563,0.51314 -0.356775,0.64064 -0.974291,1.67343 -1.478462,2.25516 -0.6858,0.7874 -1.473486,1.24479 -1.244886,-0.22841 0.0508,-0.4064 0.330562,-1.3719 1.219562,-2.7435 0.3302,-0.4826 0.939374,-1.52354 0.304374,-1.65054 -1.1938,-0.254 -1.37166,0.43163 -1.65106,0.88883 -0.0254,-0.5334 -0.533202,-1.04156 -1.066602,-1.11776 -1.8796,-0.3048 -3.327143,1.37168 -3.758943,3.14968 -0.254,1.0668 0.02493,3.02263 1.320331,2.99723 0.9144,-0.0254 1.727288,-1.04132 2.311488,-2.03192 -0.0254,0.3556 -0.02504,0.66044 0.05116,0.99064 0.254,1.1938 1.422252,1.34582 2.387452,0.45682 0.367282,-0.34433 0.702294,-0.79482 1.019059,-1.29036 -0.06942,0.29817 -0.112078,0.57868 -0.104905,0.80822 0.0508,1.27 1.067078,1.651 2.083078,1.1684 0.4826,-0.2286 1.06694,-0.96538 1.62574,-1.77818 -0.0254,0.2286 -0.0508,0.45722 0,0.66042 0.254,1.1938 1.650897,1.67635 2.539897,0.68575 0.423402,-0.46574 0.80827,-1.03366 1.196827,-1.67018 -0.163679,1.45229 0.37488,2.09501 1.215945,2.30528 0.993103,0.24421 1.964489,-0.77488 2.741952,-1.95905 -0.02788,0.1937 -0.03188,0.36897 0.0016,0.51108 0.2794,1.1684 1.320451,1.57474 2.285651,0.68574 0.762,-0.6858 1.676439,-2.46384 2.159039,-3.32744 0.06186,-0.11487 0.101286,-0.20095 0.129191,-0.27492 0.01738,-0.0294 0.02854,-0.0466 0.04858,-0.0806 0.127,-0.2286 0.508304,-0.78756 0.736904,-0.78756 0.381,0.0254 -0.12709,0.83841 -0.30489,1.27021 -0.3302,0.7874 -0.685758,1.57489 -1.015958,2.31149 -0.508,1.1684 -0.203549,1.44766 0.279051,1.54926 0.6604,0.127 0.965486,-0.73641 1.244886,-1.39681 0.1524,-0.3556 0.279098,-0.60988 0.431498,-0.91468 0.0254,-0.0508 0.07632,-0.12681 0.127124,-0.22841 0.6858,-1.4986 3.200557,-4.16587 3.124357,-2.92127 -0.0254,0.762 -1.625741,2.69255 -1.625741,3.96255 0,1.27 1.066639,1.75297 2.057239,1.21956 0.664657,-0.34815 1.240996,-1.18952 1.740463,-2.06292 -0.04017,1.01669 0.305388,1.75607 1.028362,2.08825 2.159,0.9652 3.556037,-1.93044 4.165637,-2.99724 0.6604,-1.1176 0.660535,-1.16868 0.457335,-1.24488 -0.1524,-0.0508 -0.254305,0.27964 -0.736905,1.09244 -0.4572,0.762 -1.778113,3.12403 -2.971913,2.89543 -0.762,-0.1524 -0.685811,-1.57459 -0.330211,-2.74299 0.3302,0.1524 0.99091,0.17746 1.90531,-0.55913 0.6858,-0.5588 1.015992,-1.42212 0.838192,-1.93012 -0.1778,-0.508 -1.041509,-0.78774 -1.803509,-0.55914 -1.2192,0.381 -2.107972,1.57491 -2.412772,2.97191 -0.0059,0.0252 -0.01,0.0494 -0.0155,0.0744 -0.857332,1.49787 -1.813285,2.88236 -2.295985,2.46548 -0.4318,-0.381 0.12696,-1.8286 1.01596,-3.0732 0.8382,-1.1684 0.685898,-2.08301 -0.533302,-2.43861 -0.635,-0.1778 -1.676667,0.5334 -2.921267,2.0066 0.1778,-0.9144 -0.12685,-1.57454 -1.21905,-1.42214 -0.635,0.0762 -0.965282,0.71116 -1.143082,1.01596 -0.143256,0.23876 -0.247671,0.42023 -0.287321,0.54674 -0.03509,0.065 -0.06837,0.12828 -0.118854,0.21549 -0.4318,0.7366 -1.219464,2.10806 -1.752864,2.71766 -0.6858,0.7874 -1.396961,0.81279 -1.015961,-0.33021 0.127,-0.4064 0.609495,-1.54967 1.371495,-2.92127 0.2794,-0.508 0.838245,-1.47306 0.152445,-1.54926 -0.9398,-0.1016 -1.270019,0.48272 -1.498619,0.96532 -0.156207,0.32218 -0.413046,0.81775 -0.659389,1.35392 -0.877621,1.60331 -2.407216,3.98262 -3.099554,3.14193 -0.3048,-0.381 -0.203467,-1.54923 0.253733,-2.89544 0.177799,-0.53339 0.406783,-1.14318 0.711583,-1.77818 1.1938,-0.889 2.361832,-1.9811 3.962032,-3.7083 1.524,-1.6256 2.209784,-3.454596 1.676384,-4.114996 -0.1905,-0.238125 -0.523838,-0.444198 -0.981337,-0.443899 z m 0.409279,0.692465 c 0.07966,0.0052 0.152231,0.03164 0.216525,0.08165 0.381,0.3048 -0.203095,1.803479 -1.371495,3.149679 -2.032,2.336801 -2.41309,2.489291 -3.479889,3.479891 0.4318,-0.889 0.888891,-1.8037 1.371491,-2.743503 1.058862,-2.071687 2.493296,-4.017957 3.263368,-3.967715 z m -18.19579,7.04763 c 0.11765,-0.005 0.227619,0.0174 0.327631,0.0698 0.381,0.2032 0.432015,0.78744 0.432015,0.99064 -0.2286,0.4572 -0.457462,0.83805 -0.584462,1.21905 -0.2286,0.381 -0.50799,0.83825 -0.838192,1.32085 -0.8128,1.1684 -1.574827,1.70188 -1.828827,1.14308 -0.3556,-0.762 0.177745,-2.3876 0.685745,-3.175 0.639762,-0.9906 1.296281,-1.54508 1.80609,-1.56838 z m 29.601295,0.0145 c 0.179895,-0.007 0.312375,0.0743 0.367937,0.23306 0.1016,0.3048 -0.05062,0.81277 -0.558622,1.34617 -0.4572,0.4826 -1.219341,0.83854 -1.625741,0.55914 0.0762,-0.2286 0.152647,-0.48262 0.254247,-0.66042 0.541337,-1.01283 1.166407,-1.46158 1.562179,-1.47795 z" />
    </g>
  </g>
  <g
     inkscape:groupmode="layer"
     id="layer4"
     inkscape:label="Saint-Joseph"
     style="display:inline">
    <g
       id="g1759"
       transform="matrix(2.8227078,0,0,2.8227078,-231.88419,-253.00832)">
      <path
         style="display:inline;opacity:0.997;fill:none;stroke:#000000;stroke-width:0.264583px;stroke-linecap:butt;stroke-linejoin:miter;stroke-opacity:1"
         d="m 118.1474,136.08006 -1.03552,1.2787 -0.1417,0.98989 0.63281,2.29754 0.17074,0.85104 -0.36152,0.30561 -0.13562,0.5206 -1.83475,0.99544 -1.18784,-0.60089 -2.75045,0.8818 c 0,0 -0.49068,2.18504 -1.68819,0.9135 -1.19751,-1.27155 -2.6831,1.70129 -3.33639,1.8215 -0.65329,0.12021 -3.03088,0.0964 -3.03088,0.0964 l -0.72391,0.31995 -0.60062,-0.0653 -0.0826,1.09065 -0.71337,-0.17658 -0.0565,-1.74409 -3.554601,-0.004 -1.857325,-0.73871 0.200647,-1.01655 -0.06607,-0.94417 -3.263797,-3.21977 -1.008756,-0.004 -5.223034,-3.68551 1.556761,-2.44442 -1.181439,-4.34366 2.854122,-3.07265 -2.82865,-2.58384 -1.0834,-3.17198 0.551712,-1.79483"
         id="path149" />
      <path
         style="display:inline;opacity:0.997;fill:none;stroke:#000000;stroke-width:0.264583px;stroke-linecap:butt;stroke-linejoin:miter;stroke-opacity:1"
         d="m 86.36723,118.83135 2.57566,2.86863 5.85774,4.1868 3.75647,1.6442 0.58729,-0.72525 4.26415,2.69983 1.46422,-1.40388 0.91768,1.45918 0.73624,-0.40631 1.96646,1.14446 2.15685,2.39689 1.60889,0.0257 0.24895,0.62118 -0.0548,0.90674 2.52853,1.13428 0.2985,-0.83698 2.86734,1.53324"
         id="path147"
         sodipodi:nodetypes="ccccccccccccccccc" />
    </g>
  </g>
</svg>
