<?xml version="1.0" encoding="UTF-8" standalone="no"?>
<svg
   xmlns:dc="http://purl.org/dc/elements/1.1/"
   xmlns:cc="http://creativecommons.org/ns#"
   xmlns:rdf="http://www.w3.org/1999/02/22-rdf-syntax-ns#"
   xmlns:svg="http://www.w3.org/2000/svg"
   xmlns="http://www.w3.org/2000/svg"
   xmlns:sodipodi="http://sodipodi.sourceforge.net/DTD/sodipodi-0.dtd"
   xmlns:inkscape="http://www.inkscape.org/namespaces/inkscape"
   version="1.1"
   id="svg94"
   width="700"
   height="780"
   viewBox="0 0 700 780"
   sodipodi:docname="communes-Guyane-973v4svg.svg"
   inkscape:version="1.0.2 (e86c870, 2021-01-15)">
  <metadata
     id="metadata100">
    <rdf:RDF>
      <cc:Work
         rdf:about="">
        <dc:format>image/svg+xml</dc:format>
        <dc:type
           rdf:resource="http://purl.org/dc/dcmitype/StillImage" />
        <dc:title></dc:title>
      </cc:Work>
    </rdf:RDF>
  </metadata>
  <defs
     id="defs98" />
  <sodipodi:namedview
     pagecolor="#ffffff"
     bordercolor="#666666"
     borderopacity="1"
     objecttolerance="10"
     gridtolerance="10"
     guidetolerance="10"
     inkscape:pageopacity="0"
     inkscape:pageshadow="2"
     inkscape:window-width="1848"
     inkscape:window-height="1016"
     id="namedview96"
     showgrid="false"
     inkscape:zoom="0.89711474"
     inkscape:cx="297.95422"
     inkscape:cy="212.94428"
     inkscape:window-x="72"
     inkscape:window-y="27"
     inkscape:window-maximized="1"
     inkscape:current-layer="layer1"
     inkscape:document-rotation="0" />
  <g
     inkscape:groupmode="layer"
     id="layer1"
     inkscape:label="contour"
     style="display:inline"
     sodipodi:insensitive="true">
    <path
       style="font-variation-settings:normal;opacity:1;vector-effect:none;fill:none;fill-opacity:1;stroke:#000000;stroke-width:1px;stroke-linecap:butt;stroke-linejoin:miter;stroke-miterlimit:4;stroke-dasharray:none;stroke-dashoffset:0;stroke-opacity:1;stop-color:#000000;stop-opacity:1"
       d="m 176.58599,83.190385 c 0,0 1.64688,-0.472975 1.77996,-5.075147 0.13309,-4.602172 8.70969,-8.905381 8.70969,-8.905381 0,0 7.62125,0.781759 8.00576,-0.150355 0.38451,-0.932114 15.7172,7.442294 15.7172,7.442294 0,0 3.40264,0.5191 4.1296,0.191587 0.72696,-0.327513 3.94112,3.112103 3.94112,3.112103 0,0 3.38153,1.31 2.98956,-1.860812 -0.39197,-3.170812 -6.90959,-5.51108 -6.90959,-5.51108 l -2.53642,-2.556495 -4.89765,-2.513637 -3.05032,-1.418895 -2.19613,-0.814156 c 0,0 -4.67121,-3.729802 1.48112,-3.157877 6.15234,0.571925 5.4972,1.902642 5.4972,1.902642 0,0 0.66903,1.86894 2.21281,2.047337 1.54378,0.178397 3.70845,1.952403 5.01689,1.903481 1.30844,-0.04892 3.27556,0.138307 3.27556,0.138307 0,0 4.24904,2.902118 4.59609,3.34768 0.34704,0.445561 5.81751,1.61181 5.81751,1.61181 0,0 18.33766,3.844178 20.42784,6.566753 2.09017,2.722574 10.95241,11.567118 19.83939,13.110515 8.88698,1.543398 17.19021,4.389881 17.19021,4.389881 0,0 16.96331,11.15423 24.54861,10.62415 7.58531,-0.53008 14.12301,3.70639 14.12301,3.70639 0,0 10.67203,0.85112 11.82059,2.22065 1.14855,1.36953 11.89421,0.78486 11.89421,0.78486 l 11.30939,-0.23331 c 0,0 7.25298,4.94084 10.55228,4.49773 3.29929,-0.4431 7.37654,6.51622 7.37654,6.51622 l 3.40415,0.19799 4.61189,4.06074 -0.14639,-4.70279 c 0,0 -4.57966,-1.95334 -5.11831,-4.13713 -0.53866,-2.18379 -1.09745,-4.96782 3.72271,-2.55982 4.82016,2.40799 9.65916,1.85818 14.86593,7.31004 5.20678,5.45186 14.23343,14.59588 18.07948,15.14263 3.84604,0.54675 2.47807,7.5252 2.47807,7.5252 0,0 11.87267,8.30311 13.70191,13.69468 1.82924,5.39158 6.10215,4.04746 6.10215,4.04746 0,0 4.04923,3.35258 3.55634,7.86971 -0.49288,4.51713 1.47028,4.15313 1.47028,4.15313 0,0 12.62755,1.08247 13.49934,2.20564 0.87179,1.12317 8.00452,5.02258 8.00452,5.02258 l 7.02084,2.60916 c 0,0 5.39356,7.30094 6.53369,7.22176 1.14012,-0.0792 7.28138,2.26798 7.28138,2.26798 0,0 14.82619,10.6633 14.98,16.14611 0.15381,5.48281 -0.43547,6.18004 -0.43547,6.18004 0,0 -5.7908,2.78928 -7.24987,2.39358 -9.90667,3.72376 -6.21478,7.17857 1.15428,4.83712 2.73576,-0.96544 8.15041,-1.98484 8.15041,-1.98484 l 3.40956,-0.0739 2.42879,-4.10125 c 0,0 3.03529,-0.89192 3.78501,-1.92977 0.74971,-1.03785 7.33212,-7.87774 10.71187,-1.67032 3.37975,6.20742 4.86387,12.10367 3.72929,12.7431 -1.13458,0.63942 -7.03203,3.71322 -8.18559,2.9838 -1.15356,-0.72942 -8.51474,15.35695 -8.33468,19.54483 0.18007,4.18788 9.91403,-13.22851 9.91403,-13.22851 0,0 6.79094,-10.1447 27.36018,4.54537 20.56923,14.69006 22.33952,15.45869 22.33952,15.45869 l 8.61454,12.35884 -0.16956,7.9645 7.84733,17.12416 c 0,0 5.02693,14.76713 -1.39656,19.05423 -6.4235,4.2871 -6.44394,4.78021 -7.78185,4.21753 -1.33791,-0.56268 -5.43157,5.27194 -8.90303,5.91217 -3.47146,0.64023 -6.5648,4.93422 -10.23764,3.42046 -3.67284,-1.51376 4.50618,2.86983 4.50618,2.86983 l 7.65226,-0.44068 c 0,0 0.93188,-4.92077 3.82087,-5.27465 2.88899,-0.35387 8.19913,-2.00102 10.35563,-1.5048 2.15651,0.49623 6.87857,-9.18524 6.78703,-10.0063 -0.0915,-0.82106 1.57817,-5.99362 2.45588,-6.11007 0.8777,-0.11645 0.0858,-6.73941 0.0858,-6.73941 0,0 -3.53072,-5.71143 -2.15706,-12.5789 1.37367,-6.86746 1.03786,-17.37715 1.03786,-17.37715 0,0 3.64423,-4.5007 3.79467,-5.2458 0.15043,-0.74509 18.95127,11.14562 19.83655,12.32143 0.88528,1.17581 6.14428,2.66808 6.14428,2.66808 0,0 3.67896,5.34093 3.82219,6.84166 0.14323,1.50073 0.15423,5.06166 1.241,7.16379 1.08678,2.10213 2.1854,1.3117 2.1854,1.3117 0,0 0.70503,10.35112 0.23182,10.51603 -0.47321,0.16492 5.38159,9.99098 8.92709,9.18791 3.54551,-0.80308 1.281,5.99392 1.281,5.99392 l -1.8848,2.67813 c 0,0 -0.8128,6.36401 0.42661,8.24648 1.23941,1.88248 12.33799,17.03239 12.33799,17.03239 0,0 0.16862,10.77449 -1.07196,11.15854 -1.24057,0.38405 -1.35366,12.08767 -1.35366,12.08767 0,0 -1.80795,6.89517 -6.39556,8.35616 -4.58762,1.46098 -11.80183,5.17392 -11.80183,5.17392 l -2.06964,4.91525 -5.63552,5.95133 c 0,0 -2.27431,8.01376 -3.86891,9.72624 -1.5946,1.71248 -7.5348,7.15993 -8.89472,6.89234 -1.35991,-0.26759 -4.05427,6.00008 -6.66953,6.75083 -2.61526,0.75074 -7.62332,2.99302 -7.62332,2.99302 l -1.01224,11.45131 c 0,0 -12.74315,4.09394 -13.65253,5.53822 -0.90938,1.44427 -3.60929,1.31109 -3.53322,9.16294 0.0761,7.85184 -0.0675,7.97065 -0.0675,7.97065 l -7.89058,10.16565 -4.98471,6.77163 c 0,0 1.60289,4.12821 -4.98279,6.78772 -6.58568,2.65951 -6.032,10.42978 -6.032,10.42978 l -9.17231,13.35531 -11.99377,12.96401 c 0,0 -15.86101,6.54864 -15.54537,12.05827 0.31564,5.50962 0.26221,3.73511 0.26221,3.73511 l -7.66136,6.21158 -2.63688,5.55474 c 0,0 -2.03145,8.11665 -0.35904,8.01032 1.6724,-0.10634 4.81647,-2.5361 5.25719,-3.67183 0.44073,-1.13572 6.99782,1.42929 6.10364,4.57383 -0.89418,3.14454 -4.81964,9.81718 -4.81964,9.81718 0,0 -8.53852,8.09619 -8.57811,8.87439 -0.0396,0.7782 -6.22675,4.28918 -4.31004,5.83059 1.91671,1.54141 5.8845,3.94638 5.8845,3.94638 0,0 0.46412,2.09135 -2.02919,3.22599 -2.49331,1.13463 -8.64616,4.59825 -8.64616,4.59825 l -4.85168,4.90333 -4.7e-4,4.57767 -3.8958,4.5151 -3.74612,8.6526 -3.37895,18.8022 -8.62337,1.48683 c 0,0 -4.31547,4.83573 -2.13931,7.87297 2.17616,3.03723 4.3141,3.57333 2.78471,6.07478 -1.52938,2.50144 -2.21928,3.95728 -2.21928,3.95728 l -0.0245,6.20091 -4.06893,4.98866 -8.13013,5.71949 -0.39032,4.71858 -4.45885,1.58558 c 0,0 -3.56893,2.5658 -4.55389,5.30031 -0.98495,2.7345 -4.85957,6.13987 -4.85957,6.13987 l -3.11008,2.05266 -0.13095,3.86438 -6.99384,0.12676 c 0,0 -2.55452,-1.59842 -4.29877,-0.62004 -1.74425,0.97837 -12.07352,5.83777 -12.07352,5.83777 0,0 -6.32153,0.68974 -6.87025,1.59915 -0.54872,0.90941 -1.32685,5.31345 -1.32685,5.31345 0,0 -2.26247,2.17786 -3.36992,2.31792 -1.10745,0.14006 -2.25415,1.94581 -2.43969,3.85776 -0.18555,1.91194 -1.33159,6.78624 -4.69291,7.1372 -3.36131,0.35096 -8.34377,-0.41253 -8.34377,-0.41253 0,0 -7.77322,6.14419 -7.71289,6.6019 0.0603,0.45772 -6.80194,-0.27698 -6.80194,-0.27698 l -14.80103,-11.41518 -5.42626,0.008 -10.73201,3.62951 -7.99378,-0.48615 c 0,0 -5.06032,-3.99335 -7.56616,-1.66084 -2.50584,2.33252 -4.97979,3.70479 -4.97979,3.70479 l -5.79208,-0.0715 c 0,0 -3.56915,-0.12133 0.0492,-4.74649 3.61837,-4.62515 6.89238,-10.23863 6.89238,-10.23863 0,0 3.48335,-4.29292 -4.64731,-5.82745 -8.13067,-1.53453 -8.74807,-2.46858 -8.74807,-2.46858 l -6.62998,-8.70475 -20.97766,15.62832 -3.2414,0.76716 -2.00691,1.96835 c 0,0 -45.75008,-11.19681 -49.432,-9.51852 -3.68193,1.67829 -4.86313,-13.96152 -4.86313,-13.96152 0,0 -11.90584,1.26014 -11.99416,0.005 -0.0883,-1.25471 -3.08095,3.12761 -3.08095,3.12761 0,0 0.33613,8.28944 -1.51301,8.707 0,0 -11.00118,2.08686 -12.21223,4.17402 -1.21104,2.08716 -11.76451,6.86303 -11.76451,6.86303 0,0 -6.81246,11.06773 -8.69456,10.96521 -1.8821,-0.10252 -9.55309,0.69597 -10.96414,-0.0785 -1.41106,-0.77446 -4.1299,-4.27548 -6.33986,2.62008 -2.20996,6.89556 -3.40119,7.62216 -3.40119,7.62216 0,0 -8.23478,7.04923 -14.5308,3.0887 -6.29603,-3.96054 -4.90733,-7.13368 -4.90733,-7.13368 0,0 -0.50328,-5.77521 -16.37414,-1.67358 -15.87085,4.10164 -21.804945,-11.09766 -21.804945,-11.09766 l -12.29328,0.33397 c 0,0 -16.474509,-7.07574 -16.597169,-11.51175 -0.122661,-4.436 -0.347648,-21.33114 -0.347648,-21.33114 0,0 5.259033,-9.04435 4.708574,-10.91555 -0.550458,-1.8712 8.81056,-0.55846 8.81056,-0.55846 0,0 11.10513,-9.757 14.405076,-10.30843 3.299947,-0.55143 3.546842,-12.53122 6.600072,-13.64232 3.05322,-1.1111 4.50381,-4.50419 4.99701,-8.86563 0.49319,-4.36145 8.75381,-6.18125 9.78058,-8.96448 1.02678,-2.78324 -0.40954,-9.53611 -0.40954,-9.53611 l 11.36486,-9.89449 1.65603,-11.27582 c 0,0 1.38751,-13.97456 -0.15719,-14.07812 -1.5447,-0.10356 7.73819,-6.44925 7.73819,-6.44925 0,0 1.67639,-2.37604 -2.52437,-5.80302 -4.20076,-3.42698 -0.31386,-17.96307 -0.31386,-17.96307 0,0 2.91407,-5.18891 -1.24995,-7.4489 -4.16402,-2.26 -7.97725,1.6876 -8.6824,-4.61247 -0.70515,-6.30006 5.65571,-5.3595 5.65571,-5.3595 0,0 1.70503,-3.51287 2.08058,-5.54274 0.37555,-2.02987 9.92745,-7.22692 9.92745,-7.22692 0,0 6.70312,-8.85357 7.6385,-8.85357 0.93538,0 13.58361,-0.48588 13.58361,-0.48588 l 0.0962,-4.41733 2.591,-4.23379 3.84314,-4.21017 c 0,0 3.4122,-4.01307 3.22488,-6.31772 -0.18733,-2.30466 0.80401,-10.17991 0.80401,-10.17991 l 2.68245,-5.1047 -0.46011,-9.99748 6.48609,-9.08601 c 0,0 -3.74322,-13.02812 -5.05682,-13.02812 -1.31361,0 -9.00302,-0.0929 -9.00302,-0.0929 0,0 -8.12084,-4.25021 -6.95403,-5.46964 1.16682,-1.21943 -1.04456,-4.33201 -1.04456,-4.33201 l -4.4991,-4.50588 c 0,0 -0.28564,-4.35029 -0.4515,-5.02635 -0.16586,-0.67606 -7.08482,-7.81061 -7.08482,-7.81061 l -5.3019,-0.74702 -3.34289,-1.76436 -25.82846,-23.39464 c 0,0 -2.61201,-6.81095 -7.94528,-11.03233 -5.33328,-4.22139 -4.05918,-6.26325 -4.05918,-6.26325 l 0.4336,-4.08641 c 0,0 5.56983,-3.71245 5.60671,-6.90364 0.0369,-3.19118 -1.4599,-7.28942 -2.23648,-7.29837 -0.77658,-0.009 -10.352745,-3.88379 -9.510924,-8.98892 0.84182,-5.10514 -2.192258,-14.77534 -2.192258,-14.77534 l 0.375964,-11.81583 c 0,0 -13.81602,-19.70577 -8.402988,-28.60123 5.413033,-8.89546 5.37614,-8.96925 5.37614,-8.96925 l 0.570354,-4.84056 c 0,0 5.126895,-24.57395 -7.993775,-29.75372 -5.95627,-2.35141 -0.821126,-17.08353 0.23439,-29.62086 0.480092,-5.70248 4.473527,-9.44847 4.180987,-10.05313 l -0.297128,-5.86079 21.974288,-34.01968 c 0,0 5.0952,-2.84931 5.52694,-5.53094 0.43173,-2.68162 8.68313,-4.14266 9.05201,-4.03473 0.36889,0.10792 6.65999,-5.12506 6.65999,-5.12506 0,0 10.41372,-14.80039 19.98971,-16.93737 9.57598,-2.13698 6.92338,-1.64014 6.92338,-1.64014 0,0 3.17511,-8.50343 6.61278,-12.62234 3.43766,-4.11891 10.03037,-17.79358 10.03037,-17.79358 l 0.41501,-10.924296 0.28662,-5.098454 z"
       id="path119"
       sodipodi:nodetypes="cscscscscccccscsscscsscscsccsccccsssscscscsccscsccccccssssscsccccssssccsssscscsscsscssccscscscccsssccsscccscccscccssscsscscccccccssccccccsccccscscssscscccccsccscscccccscsccscssscscsccscscsssscccscscsscscsccccsccccscsccsccccsccsssccsccsscccsscscscccc" />
  </g>
  <g
     inkscape:groupmode="layer"
     id="layer2"
     inkscape:label="communes">
    <path
       style="font-variation-settings:normal;opacity:1;vector-effect:none;fill:none;fill-opacity:1;stroke:#000000;stroke-width:1px;stroke-linecap:butt;stroke-linejoin:miter;stroke-miterlimit:4;stroke-dasharray:none;stroke-dashoffset:0;stroke-opacity:1;stop-color:#000000;stop-opacity:1"
       d="m 176.58599,83.190385 c 2.12591,2.979939 3.38603,2.129453 6.7212,1.437578 l -0.028,2.50931 c 3.81824,1.45981 2.05723,-4.858528 4.57448,0.872188 l 2.96734,-0.122125 c 2.28842,8.084924 4.57603,-0.152492 8.31151,6.725509 6.71555,0.08653 -0.58448,-7.484159 8.44466,-9.185274 0,0 6.83205,-5.776871 3.2214,-8.925775"
       id="path140"
       sodipodi:nodetypes="cccccccc" />
    <path
       style="font-variation-settings:normal;opacity:1;vector-effect:none;fill:none;fill-opacity:1;stroke:#000000;stroke-width:1px;stroke-linecap:butt;stroke-linejoin:miter;stroke-miterlimit:4;stroke-dasharray:none;stroke-dashoffset:0;stroke-opacity:1;stop-color:#000000;stop-opacity:1"
       d="m 287.62339,96.99094 c 0,0 -4.31377,3.87375 1.16636,8.63352 5.48013,4.75976 4.08577,7.12386 4.08577,7.12386 l -1.119,8.37981 -6.52237,0.45845 -1.42397,-2.48776 -5.42223,1.67597 -0.54306,4.78424 -3.66134,2.45904 -1.1229,6.58323 0.47369,5.60389 -1.23776,2.07406 2.55057,2.9593 -2.52506,8.48423 0.9256,0.76962 -0.10411,1.73065 4.01236,2.88189 c -1.4385,5.55211 0.25546,6.40106 -5.27584,6.25901 l -0.37466,4.38857 c 3.32265,2.44402 4.13419,2.21092 0.67591,4.55475 l -0.11106,3.44642 2.39263,0.93364 2.26479,0.83435 c 1.29884,-1.64912 1.32012,-1.34508 2.69027,0.0389 l 0.51052,3.05573 -5.14376,4.81427 -1.00303,6.8052 0.44737,1.88898 3.10329,-0.37993 1.72185,-1.66399 3.025,1.48528 -0.34189,2.10214 4.463,6.24438 c 3.41841,0.93515 6.50642,-0.4542 5.66971,3.45333 l 0.76996,2.19111 -1.59038,1.85067 0.47231,3.09292 c -3.68732,2.95191 -3.30282,2.68541 1.10151,3.13313 l 3.36709,-2.36065 11.25522,5.54605 1.13661,-3.81153 c 3.11608,-0.77344 2.68637,-1.30966 2.32394,-4.2615 l 0.81832,-2.03464 2.50993,-1.0781 c 0.72791,-4.563 3.9607,-0.14862 6.07629,0.26174 l 2.52632,-2.53255 4.99642,-2.87134 -1.14109,-3.78428 0.27355,-3.24951 3.59373,1.00733 0.68206,-3.67015 -2.06001,-2.30981 c -0.21489,-5.04325 8.93761,1.39262 10.72137,2.22262 l 3.37074,-3.69283 -0.57041,-4.5297 8.19607,-4.22926 c -1.02275,-3.09486 -1.29172,-3.11408 1.86629,-3.38198 l 1.30283,-3.54925 -2.51554,-5.04223 0.38705,-2.22462 -1.31041,-1.90712 1.32194,-1.50345 c 0.0953,-4.37598 -1.86917,-7.02671 2.74273,-7.64408 l 6.21836,7.57042 -0.50807,2.8135 1.84661,2.31488 1.73388,-0.58352 1.87846,3.43266 c 2.92729,0.14505 2.96135,0.28927 2.70024,-2.51416 l -2.36484,-1.95177 -2.15678,-2.53465 1.3962,-2.63908 -3.69639,-5.35295 -1.1663,-3.81714 c 2.97136,-0.54901 1.91029,-1.75877 1.31963,-4.31681 3.46384,-1.33561 2.87886,-2.43022 2.70505,-5.87173 l 1.30309,-1.42448 -0.88046,-2.64467 0.56644,-1.94875 c 3.2358,-1.93954 4.1219,-1.66847 0.70428,-3.63985 l -0.29368,-1.65222 2.08017,-0.93175 0.41158,-2.85256 -1.59135,-2.49224 -5.11274,-0.48913 -1.42611,-2.2587 -4.85674,-0.5902 -6.1261,-8.43384"
       id="path142"
       sodipodi:nodetypes="cscccccccccccccccccccccccccccccccccccccccccccccccccccccccccccccccccccccccccccccccccccccc" />
    <path
       style="font-variation-settings:normal;opacity:1;vector-effect:none;fill:none;fill-opacity:1;stroke:#000000;stroke-width:1px;stroke-linecap:butt;stroke-linejoin:miter;stroke-miterlimit:4;stroke-dasharray:none;stroke-dashoffset:0;stroke-opacity:1;stop-color:#000000;stop-opacity:1"
       d="m 330.35977,198.46479 0.63588,2.50357 3.30794,-0.39652 2.13429,1.00635 c 1.04383,2.73756 1.5813,1.70934 3.76834,0.36133 l 1.67954,1.77638 2.1026,-1.45566 2.88411,0.66254 1.14058,-1.55735 -1.76406,-2.55493 3.43465,-5.78665 c 3.85802,-0.16322 3.77723,0.0382 4.18268,3.64331 l -0.12137,1.9843 4.59605,2.16365 -0.0172,1.71069 4.97045,1.77231 -0.10165,2.9546 5.9398,0.86024 -0.8131,-4.05961 7.28121,-2.29478 10.90753,0.70574 c 4.71054,0.46801 10.3883,6.96086 8.22121,-0.10222 l -8.63458,-6.32575 -3.39085,-2.5793 1.00169,-1.66562 3.99397,-1.8844 -2.12484,-5.16328 3.10474,-2.59169 2.97259,0.28763 3.88262,-4.12379 2.65305,0.17303 -0.16723,-1.9248 3.43708,-0.59672 0.17006,-2.79738 1.41891,-4.20914 1.68883,-1.19266 0.24275,-3.42464 7.61468,-7.20007 2.51409,0.24435 0.41834,-4.28859 5.62043,-5.15477"
       id="path144"
       sodipodi:nodetypes="ccccccccccccccccccccccccccccccccccccccccc" />
    <path
       style="font-variation-settings:normal;opacity:1;vector-effect:none;fill:none;fill-opacity:1;stroke:#000000;stroke-width:1px;stroke-linecap:butt;stroke-linejoin:miter;stroke-miterlimit:4;stroke-dasharray:none;stroke-dashoffset:0;stroke-opacity:1;stop-color:#000000;stop-opacity:1"
       d="m 395.25138,205.22672 c 1.71937,0.97154 0.94568,1.99789 -2.3694,3.08011 3.86217,5.00805 7.229,5.20073 10.83804,7.74806 l 2.1491,0.4343 -1.45556,3.35926 c 4.03541,4.73169 10.88939,5.45066 1.88768,6.35308 l -1.32632,3.12118 -3.22476,4.97009 -1.44146,8.28154 2.87563,3.16262 c 3.51328,-0.62035 3.94144,-1.26172 2.8798,2.39518 l -3.10222,-0.61869 -2.17068,2.31656 0.0256,3.8065 -1.66333,8.18124 1.7294,3.42151 1.12412,3.53709 c -3.02383,3.08397 0.1706,2.75054 3.23262,3.59325 -1.49261,3.33657 1.47684,2.05488 4.04946,1.92091 2.75233,-2.24697 1.53621,1.69863 1.46028,3.68209 l 2.20483,1.26838 c 4.15458,-0.52826 2.28314,2.01691 1.548,5.13746 l 3.40455,1.34497 -0.0313,2.47232 2.46723,2.03236 0.16394,3.23237 2.72436,2.10119 3.7235,-2.67695 -0.67221,-2.73553 6.00448,-2.27708 1.42541,-2.64364 -0.65402,-2.74978 c -4.80171,-1.06711 1.36955,-1.90166 3.3793,-2.50052 l 4.79103,-3.25196 -0.0209,-3.70234 2.38414,-2.05433 3.56134,-0.91635 c -0.43142,-4.91349 -0.32883,-4.72955 4.33087,-4.66309 l 1.60285,-3.65822 2.9534,-1.08398 -0.44705,-5.1551 -1.3007,-2.53697 0.079,-2.70064 -1.1137,-2.50946 0.97179,-2.03772 c -0.58999,-2.34767 -1.90932,-3.22805 0.68319,-3.65909 -3.18005,-11.14653 5.47283,-3.95774 2.65112,-10.66912 l 1e-4,-1.46737 c -1.51719,-2.41461 -0.80241,-2.51612 1.23042,-4.18898 l 1.06466,-5.62618 -0.33099,-3.77902 0.20757,-3.75797 2.84582,-3.27225 1.25323,-4.03704 1.74807,-3.13389 0.6025,-2.73485 -2.56336,-2.05138 -2.85989,1.24752 -1.44088,-3.60418 3.54099,-1.52385 4.61805,-8.51268"
       id="path146"
       sodipodi:nodetypes="ccccccccccccccccccccccccccccccccccccccccccccccccccccccccccccc" />
    <path
       style="font-variation-settings:normal;opacity:1;vector-effect:none;fill:none;fill-opacity:1;stroke:#000000;stroke-width:1px;stroke-linecap:butt;stroke-linejoin:miter;stroke-miterlimit:4;stroke-dasharray:none;stroke-dashoffset:0;stroke-opacity:1;stop-color:#000000;stop-opacity:1"
       d="m 489.71694,226.38458 c -2.24692,-2.2168 -2.48533,-2.43003 -1.0834,-5.01886 -2.25053,-2.28408 -0.90677,-2.17891 1.58604,-3.2934 1.82622,-2.73423 2.00136,-2.6844 -0.86178,-4.02861 l -1.25725,0.15988 c -0.95748,-4.14916 -2.9386,-0.46591 -5.02187,1.46323 -1.33959,-2.3167 -1.97936,-1.81673 -4.40538,-1.2737 l -2.08231,3.91161 c -3.11891,-0.56136 -2.73717,0.0906 -2.99801,2.97471 l -3.61887,3.60791 -1.58496,-0.47358 c -0.61463,-2.13948 -0.5308,-2.21415 -2.52842,-1.46916 -0.38468,-2.03365 -1.46401,-0.99478 -3.06283,-0.44865 l -2.93889,-2.39871"
       id="path148"
       sodipodi:nodetypes="cccccccccccccc" />
    <path
       style="font-variation-settings:normal;opacity:1;vector-effect:none;fill:none;fill-opacity:1;stroke:#000000;stroke-width:1px;stroke-linecap:butt;stroke-linejoin:miter;stroke-miterlimit:4;stroke-dasharray:none;stroke-dashoffset:0;stroke-opacity:1;stop-color:#000000;stop-opacity:1"
       d="m 455.59313,255.49278 c 2.86454,3.30182 3.4759,3.29762 7.36149,2.06164 l 2.66225,0.76216 c 0,0 2.75387,1.22591 3.27329,1.22591 1.68577,2.58303 1.5536,2.70546 4.771,2.88941 2.38941,3.18659 4.28327,3.01386 8.03455,3.25233 l 1.72066,2.78904 1.70566,-0.12137 c 1.25726,-1.30762 1.25045,-1.68898 2.5533,-0.49199 l 2.04685,-1.95999 1.79765,-2.74796 c -0.33882,-3.91652 -0.11218,-4.37425 3.14219,-6.06931 -2.22352,-4.62974 2.82756,-1.82234 0.16645,-6.932 l 1.29862,-1.26363 c -0.20139,-1.93455 -1.21256,-2.84374 0.92979,-2.84374 l 0.90327,2.856 3.21516,-0.5355 c 1.86946,3.38405 3.08863,1.79029 6.20827,0.36753 l -1.3455,-1.52753 c -1.63279,-2.33906 -1.738,-4.22005 -1.73721,-6.933 l 1.15632,-0.84056 c 1.38244,-3.47748 2.32362,-3.82359 -1.57672,-3.57911 l -1.98833,-1.93122 -1.93755,-1.18075 c -1.54883,-3.37282 -0.25579,-2.1767 2.29171,-0.93904 1.59193,-0.11591 1.62317,-0.23875 1.88208,-1.71062 l -1.44866,-2.17635 2.23549,-3.30453"
       id="path150"
       sodipodi:nodetypes="cccccccccccccccccccccccccccc" />
    <path
       style="font-variation-settings:normal;opacity:1;vector-effect:none;fill:none;fill-opacity:1;stroke:#000000;stroke-width:1px;stroke-linecap:butt;stroke-linejoin:miter;stroke-miterlimit:4;stroke-dasharray:none;stroke-dashoffset:0;stroke-opacity:1;stop-color:#000000;stop-opacity:1"
       d="m 507.38358,248.73131 2.59699,0.70127 0.98723,2.00168 1.70912,1.31908"
       id="path152" />
    <path
       style="font-variation-settings:normal;opacity:1;vector-effect:none;fill:none;fill-opacity:1;stroke:#000000;stroke-width:1px;stroke-linecap:butt;stroke-linejoin:miter;stroke-miterlimit:4;stroke-dasharray:none;stroke-dashoffset:0;stroke-opacity:1;stop-color:#000000;stop-opacity:1"
       d="m 548.99629,243.33772 -0.48401,5.13559 -2.80864,1.4446 -0.44449,4.39089 -0.75131,2.15807 1.59496,4.24654 c -1.56289,2.54424 -1.54127,3.57432 -4.30622,2.69067 l -6.18048,6.53649 -0.57998,6.20116 4.9786,10.24481 4.15368,0.048 c 4.36163,4.87175 0.48184,5.05039 -3.9601,8.64413 l 0.13937,5.29357 c 3.88209,-0.066 3.22983,0.74556 2.96727,4.26434 l 2.43957,1.1492 -0.436,2.51393 -2.48632,1.14888 -0.5509,1.45222 -3.21394,2.54314 c 3.44248,6.35063 -1.32742,2.66223 -5.27401,1.30469 l -1.018,2.47256 -2.43502,0.44287 -0.83207,3.93746 -3.90867,2.22818 -4.62955,-5.28377 -3.87883,0.0222 0.36216,1.50945 2.29614,0.7578 -0.33384,3.1512 -2.56341,0.84269 -0.82484,1.55774 c 1.83216,2.0491 0.6464,1.86637 -1.54351,2.6137 l -0.61305,3.26257 -1.08419,2.84825 -3.5349,3.28589 -2.9771,-1.1386 -3.92513,1.40976 -1.47953,2.90439 c -4.34619,-0.81223 -4.74427,-0.13345 -7.06538,3.27853 l -5.05338,-0.26831 -5.19493,1.35264 c -3.18016,-2.63902 -4.10628,-0.2895 -6.80433,2.16161 -5.12065,0.87559 -5.19411,1.04174 -5.09835,5.92932 l -4.91259,4.47925 -1.41184,3.78905 -2.52257,0.25881 -1.1747,3.05305 -3.661,1.55188 c -0.032,3.43047 0.0342,3.35526 -3.16932,2.68287 l -2.12555,-0.41275 -1.95854,1.31948 -3.81172,-2.25521 c -3.46741,2.4 -3.92088,4.53904 -4.95484,-0.0409 l -2.45754,-2.60101 c -2.65268,-0.30445 -2.98563,-0.23605 -3.31844,-2.73664 l -2.4991,-0.89823 -6.97129,0.46292 c -2.51351,1.55993 -3.53847,-0.5583 -5.49322,-2.28029 l -1.49098,0.24107 -4.64477,-4.34025 1.17946,-1.88219 c 3.04154,0.001 1.80268,-3.32508 1.81477,-5.68477 l -2.60538,-1.4604 0.4083,-7.40352 c -1.86258,-2.64888 -0.83176,-3.12574 1.03967,-5.46479 l -1.75468,-4.26463 -1.63757,-1.67138 0.26008,-3.35034 -5.65894,-7.13139 c 1.33568,-2.03643 1.45751,-2.58675 0.46508,-4.62396 2.20429,-1.58787 3.30949,-2.13212 3.18174,-4.71893 l 4.44831,-2.1479 c 3.20832,0.41943 3.47387,0.89749 3.32603,-2.29357 l 1.56009,-1.35991 -0.9721,-2.6957 3.01869,-1.97867 0.0819,-2.6062"
       id="path76"
       sodipodi:nodetypes="ccccccccccccccccccccccccccccccccccccccccccccccccccccccccccccccccccccccccccccc" />
    <path
       style="font-variation-settings:normal;opacity:1;vector-effect:none;fill:none;fill-opacity:1;stroke:#000000;stroke-width:1px;stroke-linecap:butt;stroke-linejoin:miter;stroke-miterlimit:4;stroke-dasharray:none;stroke-dashoffset:0;stroke-opacity:1;stop-color:#000000;stop-opacity:1"
       d="m 631.38288,307.12801 -20.25709,4.74747 -0.4185,11.7587 c -1.88385,2.52104 -1.79565,2.60695 0.32594,4.67048 l -0.015,10.18276 1.17216,4.0461 -1.87157,3.63409 1.12028,3.66299 9.17631,3.50277 0.27362,3.06027 -5.41207,0.55502 c -1.33966,7.93449 -1.86189,0.0236 -6.94081,2.93334 l -2.53491,-1.8351 -3.35097,2.00777 -0.1897,3.97166 -1.98105,1.90203 -4.42403,-1.58951 -5.5159,0.30199 -6.11624,-1.56177 c -3.86348,7.63667 -8.22419,6.94097 -0.30343,10.38378 l -0.51946,5.75748 6.2615,5.72893 0.0224,4.10995 4.72123,1.4149 1.85217,-0.71274 5.75448,2.11927 1.60715,-0.49714 5.94429,3.44719 2.12281,-1.00993 0.0159,-2.25422 7.81628,-0.55271 1.72174,1.12028 3.4397,-5.47946 c -0.31007,-6.44781 0.14925,-4.81015 6.16513,-4.49736 l 2.73627,-4.44526 c 5.29793,-2.92095 10.34759,-0.57124 8.87077,-6.90232 l -3.38755,-0.90878 1.62974,-2.79564 -0.34813,-3.5961 2.82627,0.20392 9.56261,-13.22699"
       id="path78"
       sodipodi:nodetypes="ccccccccccccccccccccccccccccccccccccccccc" />
    <path
       style="font-variation-settings:normal;opacity:1;vector-effect:none;fill:none;fill-opacity:1;stroke:#000000;stroke-width:1px;stroke-linecap:butt;stroke-linejoin:miter;stroke-miterlimit:4;stroke-dasharray:none;stroke-dashoffset:0;stroke-opacity:1;stop-color:#000000;stop-opacity:1"
       d="m 589.88436,389.05921 -2.41711,1.31849 -4.47585,0.11596 -4.04659,3.74778 -2.56871,-1.52005 c -1.037,-3.17689 -1.74906,-1.65071 -3.93599,0.0615 l -2.8079,2.05476 -3.52454,0.97567 -0.74446,4.77424 -2.33717,-1.74027 -0.1725,-4.28329 c -5.5354,-2.13698 -5.23308,-4.23385 -8.04593,0.82976 l -0.14641,4.173 -3.65988,2.17653 -0.99175,2.94427 -3.27603,3.49935 -3.50613,0.59346 c -3.88799,-2.59155 -3.94782,-3.52945 -5.24532,1.00002 l -5.00133,7.24061 -2.31029,-0.51623 -3.93546,6.3575 -3.15577,0.0456 -3.54002,2.03343 -2.42711,-1.65617 -1.95726,1.65828 -3.86162,-1.02519 -1.63797,1.51991 c -4.74051,-2.52052 -5.06404,1.51558 -7.28417,5.45054 l 1.62257,3.93206 -2.16769,7.84687 1.06218,3.86459 -4.6854,5.96935 -7.31299,0.40603 -3.61975,2.42483 c -3.37629,-6.245 -2.58393,-4.32117 -5.07474,1.12846 l -0.25359,10.26329 -3.72543,6.84608 -4.06855,3.57569 -0.53228,2.62016 6.83621,0.11734 -0.29427,2.2069 9.50069,4.5511 c 9.10799,-2.17946 7.08392,-2.01499 7.27719,6.747 l 4.29281,4.24489 c 5.56096,-3.14369 4.40775,-3.89374 7.50051,1.37022 l 4.10014,-3.24327 3.35678,0.32008 c 1.40891,-4.16727 2.26017,-3.27307 6.17381,-2.28271 l 4.35466,-5.00084 3.92847,-6.79774 c 3.56191,-3.01182 3.68781,-3.06676 6.93663,-0.0976 l 1.40234,-3.38586 4.43876,0.93871 6.50242,-3.29745 0.59159,-4.7034 2.4897,0.64016 1.96002,-3.69606 3.64437,-0.15836 c 1.74407,2.66447 1.77574,2.05717 3.69866,-0.13076 l 8.82171,0.19231"
       id="path80"
       sodipodi:nodetypes="cccccccccccccccccccccccccccccccccccccccccccccccccccccccccccc" />
    <path
       style="font-variation-settings:normal;opacity:1;vector-effect:none;fill:none;fill-opacity:1;stroke:#000000;stroke-width:1px;stroke-linecap:butt;stroke-linejoin:miter;stroke-miterlimit:4;stroke-dasharray:none;stroke-dashoffset:0;stroke-opacity:1;stop-color:#000000;stop-opacity:1"
       d="m 480.65736,482.09034 -7.49511,2.47981 c -3.45428,-1.62797 -3.43199,-1.7581 -4.70403,1.66112 l 2.97149,5.06179 -1.85473,4.47903 -0.23535,11.42764 c -15.88806,2.23033 -22.01092,0.78701 -14.06666,14.29508 l 3.21837,0.12993 0.14001,1.49085 -13.45713,11.2331 c -1.08347,4.4481 -1.73262,3.17962 -5.22452,1.12147 l -5.41033,1.40612 c -2.47726,-1.57321 -4.86059,-3.63729 -7.86886,-2.43581 l -1.94578,-5.01501 2.99957,-2.02638 0.3161,-3.16433 -4.81017,-2.52191 -3.74143,-4.02359 -6.79075,1.05275 -2.89883,3.10379 -11.95127,0.35226 -3.70192,-2.58669 -13.73504,-3.87402 -4.15333,2.02616 -3.82134,-1.80351 -4.99635,0.69464 -3.81052,3.7033 2.18722,3.1934 -1.4782,3.66079 -1.47703,6.27111 3.7378,2.58268 c 3.55968,8.60492 -0.0572,10.42355 -6.35296,18.92909 l 0.28122,9.49228 c 0,0 1.99226,3.05607 1.6031,3.72668 -0.97883,2.83723 -2.02772,1.88737 -4.75257,1.34905 l -2.93491,1.9464 -1.90432,5.49842 -7.74972,2.43361 -3.12054,3.08637 -0.52501,4.10036 -2.62656,1.61781 -4.7708,7.30227 0.19646,4.38203 c 1.37037,3.35271 1.71323,3.55652 -1.32927,5.19562 l -2.63411,-0.30241 -2.24327,1.70203 -0.54077,3.35182 -6.71441,7.25902 c 2.46983,5.85357 3.39229,4.97872 -2.77358,5.22686 l -1.83661,4.37598 1.81251,2.98214 -3.13179,3.59943 c -0.13524,2.66072 1.86487,3.84983 3.32752,5.40935 l -1.823,1.66488 -4.43863,0.74126 c -3.7586,2.62948 -1.08792,4.00475 1.23063,7.13845 l 1.73284,0.32008 1.08504,5.78036 -4.45847,2.86387 2.04436,4.71565 -0.11577,3.10884 4.51509,0.88275 5.23584,6.50546 c 5.00851,1.84299 11.29603,-0.65308 4.35283,3.86715 l -2.44695,3.14135 -5.402,7.0928 0.45367,3.73758 -7.16082,4.88588"
       id="path82"
       sodipodi:nodetypes="cccccccccccccccccccccccccccccccccccccccccccccccccccccccccccccccccccc" />
    <path
       style="font-variation-settings:normal;opacity:1;vector-effect:none;fill:none;fill-opacity:1;stroke:#000000;stroke-width:1px;stroke-linecap:butt;stroke-linejoin:miter;stroke-miterlimit:4;stroke-dasharray:none;stroke-dashoffset:0;stroke-opacity:1;stop-color:#000000;stop-opacity:1"
       d="m 362.86144,533.48323 c -3.7998,2.43563 -3.55692,0.59161 -5.0985,-3.0477 l 0.4189,-1.85403 -2.79162,-2.54068 c -0.0786,-4.67498 -1.68935,-3.8461 -5.91218,-4.07996 -6.53325,-7.93144 -6.62822,-6.34246 -1.74944,-14.71859 l -2.90255,-6.27017 1.51329,-4.18728 c 5.89598,-3.46339 7.33588,-2.42706 7.07463,-8.87202 l -3.05251,-3.79917 3.56589,-8.75947 2.50185,0.0207 3.16715,-4.09457 0.34773,-3.83468 -1.67761,-1.90216 c 3.0626,-3.69006 4.21235,-3.77875 0.54208,-6.74605 l -4.50081,2.69791 -2.8475,-0.52402 -0.54522,-1.29555 1.8631,-3.78342 -0.71625,-7.39838 c -0.28199,-4.56962 -4.28204,-8.08625 -8.56598,-11.52249 l -1.57341,-4.1413 -4.38002,-0.5456 -5.08848,-7.0365 0.86636,-2.14346 c 4.26533,-0.11393 6.10238,1.40167 6.12607,-3.04288 l 7.22818,-5.58823 4.17675,-0.59889 c 2.09325,-3.50436 2.5957,-3.95269 -7.5e-4,-6.80166 -4.59918,-0.72157 -4.68788,-0.43781 -1.48416,-3.72406 l 7.53821,-2.14629 c 1.62841,-3.95993 2.25628,-3.95226 6.25248,-3.89567 6.35044,-10.97415 1.84672,5.32411 9.97335,-6.44698 7.46285,-1.54934 7.40952,-1.49099 10.4494,-7.92901 l 6.08708,-0.22471 2.02733,-2.75666 1.80261,-6.91972 c 0.93964,-2.5965 1.45365,-3.0474 3.9566,-3.61935 0.30745,-4.46514 -0.43051,-5.61863 3.90425,-6.07308 l 4.53412,-1.98937 c 2.13993,-4.11351 4.91333,-4.0813 9.18376,-5.04825"
       id="path84"
       sodipodi:nodetypes="cccccccccccccccccccccccccccccccccccccccccc" />
    <path
       style="font-variation-settings:normal;opacity:1;vector-effect:none;fill:none;fill-opacity:1;stroke:#000000;stroke-width:1px;stroke-linecap:butt;stroke-linejoin:miter;stroke-miterlimit:4;stroke-dasharray:none;stroke-dashoffset:0;stroke-opacity:1;stop-color:#000000;stop-opacity:1"
       d="m 347.3389,406.41088 -5.13944,-8.45637 0.34467,-3.09864 -3.47091,-4.56421 0.47553,-3.60231 -2.47828,-1.72618 0.24007,-2.26229 -6.1568,-2.52484 -1.57014,-5.82358 1.1018,-3.78788 3.48137,-2.223 c 2.70977,-0.99009 2.74947,-3.67441 2.9361,-6.2655 l -3.58469,-3.43896 -1.20756,-5.28293 c -4.66951,0.3485 -3.64371,-2.20032 -4.02047,-6.24922 l -4.68368,-1.99921 -2.52001,-2.80344 c -2.60676,0.76724 -3.50073,1.5776 -5.12854,-0.50494 l 2.09375,-1.68966 c -2.95849,-3.78387 -4.20062,-3.88985 -0.25987,-6.58223 l -1.2623,-3.02717 c -0.95587,-3.11058 -2.38523,-2.00778 -5.22319,-1.48565 l -1.76418,-1.26076 -1.43087,-5.1421 1.9068,-4.17913 -0.9401,-4.18334 c 1.14494,-5.42097 -1.09591,-7.10636 4.51313,-6.34494 l 2.48893,-4.83767 -0.74624,-4.76346 1.55308,-1.85801 c -2.39276,-6.66281 3.5901,-2.0032 0.75648,-7.58471 2.3189,-1.51945 0.0684,-2.11161 -1.58764,-3.35738 -1.95402,-4.5384 -2.18103,-4.50828 -6.68595,-3.3888 l -6.44638,-5.61882 c -0.1089,-2.14903 -0.0199,-2.32474 -2.05539,-2.50583 l -4.73748,-4.10094 1.97235,-7.19823 -5.59257,-2.70869 1.34039,-2.59063 -1.30381,-3.94795 3.18214,-1.99113 -0.29263,-2.8208 c 7.92489,-2.08989 4.44155,-2.76157 0.25351,-8.30161 l 1.93619,-2.37522 c 9.6047,0.42691 -1.01213,-4.55197 9.25901,-5.89686 l 1.00589,-2.20556 -1.24868,-3.08514 1.66549,-2.32442 c 4.34997,1.67661 0.27736,-1.95554 -1.06203,-3.62137"
       id="path86"
       sodipodi:nodetypes="ccccccccccccccccccccccccccccccccccccccccccccccccc" />
    <path
       style="font-variation-settings:normal;opacity:1;vector-effect:none;fill:none;fill-opacity:1;stroke:#000000;stroke-width:1px;stroke-linecap:butt;stroke-linejoin:miter;stroke-miterlimit:4;stroke-dasharray:none;stroke-dashoffset:0;stroke-opacity:1;stop-color:#000000;stop-opacity:1"
       d="m 176.40288,90.961651 c 2.91599,2.308897 3.35465,1.351685 6.08006,-0.759295 l 1.46122,1.394011 c -1.80623,1.19279 -0.9235,1.319413 0.55307,2.438826 0.77167,3.849572 0.99479,3.488005 4.52205,2.484353 2.18307,1.548281 2.51707,2.49063 4.44278,0.706863 l 1.60203,1.326601 2.98907,-0.358991 0.52314,2.553901 c 2.0042,0.0631 1.99882,0.0569 1.91294,1.95579 l -1.10029,0.73545 0.0525,1.24553 c 1.51763,0.9078 1.34974,1.31763 1.15701,2.95857 -1.75297,1.40597 -3.47028,0.41018 -5.2003,1.75594 0.0702,2.44364 0.15308,2.6537 -2.10368,3.15805 l -0.8946,1.00451 c -2.93784,-0.3705 -2.65991,5.8921 0.007,2.68805 2.72226,1.2344 2.6136,1.6453 2.32953,4.422 2.6731,1.52719 2.9498,2.02167 2.85414,4.88628 l 7.77672,4.47798 c 0.10963,1.97585 -0.67929,2.91671 1.4284,2.32315 0.735,-1.20197 1.44441,-0.74566 2.71367,-0.52932 0.0467,1.56486 -0.60612,2.74256 -1.25702,4.1152 l -0.74883,1.21448 c -2.39452,-0.459 -1.88277,0.31248 -1.782,2.44381 1.91293,1.37685 -1.22018,4.6717 -2.09871,6.34807 0.43461,4.27721 -4.78003,2.5995 -7.9792,2.70846 -1.30237,2.64704 -1.72872,2.58703 -4.47061,2.32828 -1.99498,2.69262 -3.6365,2.26142 -6.79166,2.24803 l -4.70011,3.69346 c 0.43796,4.53217 -3.15074,5.46926 -6.56669,7.81276 l -1.383,1.78207 c -0.25092,12.87208 -6.5316,-0.73476 -3.42038,10.12357 l 0.0624,3.04313 -1.65421,3.68724 1.06481,3.30861 1.76195,2.04424 c 0.21591,1.70936 0.071,1.88846 -1.32032,2.69345 0.16476,2.65292 1.02049,1.64319 3.07278,0.7951 l 0.33483,-2.85582 2.12715,-2.89285 c -0.29215,-3.32429 -0.14104,-4.2662 2.297,-6.19389 l 5.91133,0.19175 1.013,-0.88079 1.52524,0.83818 -0.0427,1.52781 3.66094,0.12525 1.15853,1.96463 2.1167,0.43362 c 10.88324,5.57081 5.06862,-8.94306 10.50207,-3.1273 l 2.45958,-1.7231 c 6.20074,0.12536 6.10051,-1.55521 5.86236,4.44437 l 2.26021,2.15686 c 2.50539,-0.0889 3.37832,0.47006 5.04272,2.11703 0.13272,1.6391 0.0172,1.89952 -1.29068,2.69684 l 0.1965,2.48404 c 2.50228,-0.39787 1.94155,0.58274 1.94094,2.78778 2.73318,0.16569 3.80265,-0.57385 4.03613,2.1736 7.33921,6.77057 -8.5217,1.92236 1.86805,8.06514 l -1.97061,3.36561 c -4.34146,-0.50444 -3.64226,3.07305 0.17171,2.46122 -0.1403,1.97576 -0.29546,1.95816 -2.13907,2.16649 2.68474,3.07219 3.31,3.37287 1.14745,6.57847 l -0.12676,4.0197 1.83343,2.57164 c 2.20238,0.55727 0.13551,1.82574 -0.82892,3.00433 l 0.99557,1.64366 2.20865,1.47259 2.97519,8.00317 -0.4696,6.62335 -0.38475,1.93999 -1.85715,0.32585 -0.0454,2.51637 1.5931,0.40109 0.11335,4.46032 c 1.35052,0.80204 1.01315,1.46711 -0.27745,1.91824 -0.0433,2.65166 1.22095,4.34964 -1.58754,4.77011 l -1.02117,1.12587 5.89953,7.19763 0.11836,3.40407 -0.89951,3.42277 -1.50838,4.29614 -4.62123,8.82038 0.93718,3.03005 c 0.23927,3.49392 -1.68517,6.55081 2.08397,7.33607 1.09732,1.65212 1.07339,2.46294 0.64453,4.265 -3.55673,1.56834 -2.92685,3.08066 -2.91636,6.6958 l -3.56788,4.00228 -0.49743,4.57841 c -4.50023,4.3228 -1.04458,6.35994 2.02828,10.92769 l -2.16881,2.54422 -7.12181,0.12364 -6.03093,-1.31815 -3.21704,-6.27804 c -5.08868,-0.43919 -7.00057,-3.9057 -8.29506,-7.96056 l 1.28588,-4.88079 -6.23723,-6.64997 c 0.4192,-3.46946 -1.53421,-1.87738 -4.09902,-1.13188 -4.00255,-0.0428 -4.25502,-2.53976 -5.03857,-4.68915 l -1.60832,-13.60811 3.71239,-5.42983 -0.92133,-6.84738 -0.61355,-5.6049 c 2.97003,-1.47167 2.83471,-1.87026 2.32542,-4.92453 l 3.55232,-2.56636 c 0.18638,-4.59974 -1.49303,-4.21926 -5.57533,-5.33184 l -4.01865,3.86852 -6.49096,0.14566 c -2.27101,-2.44512 -2.82549,-2.18681 -5.76507,-1.15637 -3.14893,-2.96503 -5.5863,-4.47145 -9.6901,-4.88407 l 0.15885,-2.68145 c -1.7099,-2.84768 -2.53346,-1.91976 -5.39984,-0.89111 l -10.58362,-4.8686 3.60003,-3.48636 c 0.46236,-3.12043 -0.0236,-3.87529 3.06343,-3.68516 l 3.39997,3.06084 3.14359,-0.0449 0.89331,-1.76883 c -5.15205,-6.79798 -6.06972,-6.29739 -14.15038,-6.85075 l -1.94004,-1.07838 0.10733,-3.02095 c -4.14182,-5.70098 -2.47459,-10.76139 -9.63852,-9.64754 l -5.81735,-4.73418 c 1.28968,-9.52431 -8.93558,4.82093 3.15298,-12.27638 l 4.23809,-1.31206 0.96941,-3.53183 c 8.0841,0.47889 4.25587,-2.78141 2.36928,-9.01924 l 2.09189,-4.83268 4.76036,-1.33447 3.07115,-5.0516 c -0.69984,-3.14066 -1.47891,-3.7572 -4.20391,-5.00394 l -0.54831,-2.93197 c -3.74087,-0.86766 -4.28104,-0.45612 -3.12963,-4.03929 l -2.30328,-3.9566 c -6.22525,1.36594 -10.4529,-2.24713 -6.17139,-7.09172 l -1.25185,-1.15571"
       id="path2237"
       sodipodi:nodetypes="cccccccccccccccccccccccccccccccccccccccccccccccccccccccccccccccccccccccccccccccccccccccccccccccccccccccccccccccccccccccccccccccccccccccc" />
    <path
       style="font-variation-settings:normal;opacity:1;vector-effect:none;fill:none;fill-opacity:1;stroke:#000000;stroke-width:1px;stroke-linecap:butt;stroke-linejoin:miter;stroke-miterlimit:4;stroke-dasharray:none;stroke-dashoffset:0;stroke-opacity:1;stop-color:#000000;stop-opacity:1"
       d="m 182.71851,278.24569 -5.07689,2.96599 -1.59985,3.22414 -6.70169,1.94958 c -4.58774,-0.48531 -7.282,-0.80353 -10.64237,2.05895 l -5.24283,0.005 c -1.00733,1.94909 -1.83185,1.32772 -3.80355,0.94246 -2.17737,-2.30521 -2.33855,-1.6225 -4.50241,0.34072 l -3.14476,-0.70536 c -1.21501,-2.18618 -1.57289,-1.54757 -3.59087,-0.48094 l -5.16102,-3.72004 -5.06526,-0.55998 c -0.70403,-3.05548 -2.63177,-2.52297 -5.45249,-2.90564 -2.05473,2.32755 -3.07427,0.77676 -5.45102,-0.63412 -3.401,0.0206 -3.20156,-0.5624 -3.75616,-3.67745 l -6.0373,-3.62703 c -4.0229,0.22182 -7.951694,-1.39702 -10.732811,1.72801 l -3.719011,-0.19216"
       id="path2239"
       sodipodi:nodetypes="cccccccccccccccccc" />
    <path
       style="font-variation-settings:normal;opacity:1;vector-effect:none;fill:none;fill-opacity:1;stroke:#000000;stroke-width:1px;stroke-linecap:butt;stroke-linejoin:miter;stroke-miterlimit:4;stroke-dasharray:none;stroke-dashoffset:0;stroke-opacity:1;stop-color:#000000;stop-opacity:1"
       d="m 222.3093,333.89737 3.8362,-3.23352 17.03051,0.0404 7.65807,-3.34975 3.07117,-5.02543 2.36725,-0.0457 4.59182,-6.34517 2.27922,0.30716 1.38785,-1.97901 4.55945,4.27779 -0.37828,2.47025 -2.91948,-0.34367 -1.09989,1.64051 2.03812,1.75778 -0.75874,1.59579 0.24585,2.65898 c -2.21996,1.56576 -0.57308,1.6658 1.31596,2.61862 0.009,2.96506 -0.22322,3.04072 2.43237,1.84077 l 2.7706,1.73733 2.63843,0.0874 2.39551,-2.20755 3.51702,1.83761 2.83236,0.11126 2.9459,-2.06935 2.18207,0.0448 1.23973,1.47413 5.94045,-0.33338 3.5404,-1.29725 8.14204,-9.55837"
       id="path2241"
       sodipodi:nodetypes="ccccccccccccccccccccccccccccc" />
    <path
       style="font-variation-settings:normal;opacity:1;vector-effect:none;fill:none;fill-opacity:1;stroke:#000000;stroke-width:1px;stroke-linecap:butt;stroke-linejoin:miter;stroke-miterlimit:4;stroke-dasharray:none;stroke-dashoffset:0;stroke-opacity:1;stop-color:#000000;stop-opacity:1"
       d="m 220.14049,336.44159 -0.77199,2.57761 c -3.46456,1.63426 -5.68482,2.79073 -9.18428,1.60251 l -1.18966,0.92035 -3.37894,-0.0121 c -2.17608,-2.02549 -4.48061,0.40614 -7.07992,0.45769 -0.66084,-2.01619 -1.83699,-1.58003 -3.77218,-1.68128 -3.61153,-5.90006 -9.57119,-8.81158 -18.16372,-5.52084 -3.63714,-0.58807 -4.50497,-1.59225 -5.46377,1.93091 -3.23181,-1.01318 -3.54935,0.86077 -3.56045,3.0383 -2.25125,2.95654 -2.68405,3.44515 -6.06192,2.62605 -3.70228,4.64573 -1.45748,-2.62712 -7.45929,3.70246 -2.21375,-0.25195 -5.38297,0.33118 -5.34566,-1.90735 l -3.97948,-1.52967 -4.45699,-1.56298 -0.45455,-2.04516 c -3.45751,-2.68162 -4.01272,-2.60429 -7.55153,-0.56701 -2.41969,2.87044 -2.81959,2.9162 -0.19173,5.37155 l -0.4881,2.4922 -0.78717,0.64602 c 1.85614,8.86471 -6.65591,3.23959 -3.4507,8.92707 l -6.61394,6.35087 -2.13328,0.0885 c -0.67446,-2.40865 -3.19409,-1.09729 -5.22048,-0.86017 l -4.17084,-1.32547"
       id="path2243"
       sodipodi:nodetypes="ccccccccccccccccccccccccc" />
    <path
       style="font-variation-settings:normal;opacity:1;vector-effect:none;fill:none;fill-opacity:1;stroke:#000000;stroke-width:1px;stroke-linecap:butt;stroke-linejoin:miter;stroke-miterlimit:4;stroke-dasharray:none;stroke-dashoffset:0;stroke-opacity:1;stop-color:#000000;stop-opacity:1"
       d="m 219.3685,339.0192 c -0.25748,-1.65914 0.77199,-2.57761 0.77199,-2.57761 l 6.325,17.9208 0.36551,5.08528 c -1.95426,2.0919 -1.53883,2.4112 -0.16527,4.70048 l -1.92031,4.12396 c 10.80756,7.38237 -3.55722,4.87241 4.17697,22.92834 l -6.06183,4.0784 c -0.8973,4.46607 -5.25057,6.28118 -8.67625,8.86761 -11.22168,-6.1337 -9.90562,0.36368 -17.79867,11.08264 l -8.27604,3.35909 c -6.18907,-4.49126 -8.22762,1.06322 -13.67649,5.53797 -3.11562,6.08703 -1.74152,6.57267 -8.11321,5.68563 l -4.78867,1.96969"
       id="path2245"
       sodipodi:nodetypes="cccccccccccccc" />
    <path
       style="font-variation-settings:normal;opacity:1;vector-effect:none;fill:none;fill-opacity:1;stroke:#000000;stroke-width:1px;stroke-linecap:butt;stroke-linejoin:miter;stroke-miterlimit:4;stroke-dasharray:none;stroke-dashoffset:0;stroke-opacity:1;stop-color:#000000;stop-opacity:1"
       d="m 228.92239,391.20045 3.95063,0.0484 3.63501,-2.60392 c 8.49544,-0.57343 6.875,-0.80561 8.34738,7.1807 l 5.0746,-1.20258 9.48332,6.37037 c 6.56137,-3.22472 5.33291,-4.22245 9.09568,1.62848 l 3.72945,1.98752 c -0.38328,3.2089 0.67331,3.06707 3.47169,4.10319 -3.32014,13.68107 3.42814,19.79025 13.7269,23.22933 l 7.45735,9.62181 -1.42103,3.06527 c -2.91045,-0.34875 -2.60374,0.0919 -2.73088,2.79444 l 2.314,1.70307 0.0113,4.06106 3.61762,1.95953 -0.15969,2.27013 c 3.39684,2.58801 1.46817,4.55716 0.13716,8.15733 l -0.16204,14.11864 -6.14744,11.52674 c 1.43735,4.22032 1.85362,2.83143 4.68451,0.17812 2.48537,2.6469 5.64105,1.69728 9.02948,1.63121 l 5.62571,3.73649 c 6.65891,-1.65077 3.16408,4.47285 9.36862,-0.57062 l 1.50629,0.21834 0.68438,1.32018 c 3.94313,-0.75069 5.18068,-0.91239 7.72864,1.84688 -2.90068,16.46844 -3.80215,11.84462 10.8237,19.55738 l 3.32686,4.0592 12.63138,7.23836"
       id="path2247"
       sodipodi:nodetypes="cccccccccccccccccccccccccccccc" />
    <path
       style="font-variation-settings:normal;opacity:1;vector-effect:none;fill:none;fill-opacity:1;stroke:#000000;stroke-width:1px;stroke-linecap:butt;stroke-linejoin:miter;stroke-miterlimit:4;stroke-dasharray:none;stroke-dashoffset:0;stroke-opacity:1;stop-color:#000000;stop-opacity:1"
       d="m 510.6483,221.76717 2.67332,1.64584 5.23907,0.0399 6.55967,-5.69649"
       id="path2249" />
    <path
       style="font-variation-settings:normal;opacity:1;vector-effect:none;fill:none;fill-opacity:1;stroke:#000000;stroke-width:1px;stroke-linecap:butt;stroke-linejoin:miter;stroke-miterlimit:4;stroke-dasharray:none;stroke-dashoffset:0;stroke-opacity:1;stop-color:#000000;stop-opacity:1"
       d="m 518.56069,223.45291 -1.00519,3.64536 3.45386,5.2944"
       id="path2251" />
  </g>
</svg>
