<?xml version="1.0" encoding="UTF-8" standalone="no"?>
<svg
   xmlns:dc="http://purl.org/dc/elements/1.1/"
   xmlns:cc="http://creativecommons.org/ns#"
   xmlns:rdf="http://www.w3.org/1999/02/22-rdf-syntax-ns#"
   xmlns:svg="http://www.w3.org/2000/svg"
   xmlns="http://www.w3.org/2000/svg"
   xmlns:sodipodi="http://sodipodi.sourceforge.net/DTD/sodipodi-0.dtd"
   xmlns:inkscape="http://www.inkscape.org/namespaces/inkscape"
   width="45mm"
   height="8mm"
   viewBox="0 0 45 8"
   version="1.1"
   id="svg8"
   inkscape:version="1.0.2 (e86c870, 2021-01-15)"
   sodipodi:docname="sloane.svg">
  <defs
     id="defs2" />
  <sodipodi:namedview
     id="base"
     pagecolor="#ffffff"
     bordercolor="#666666"
     borderopacity="1.0"
     inkscape:pageopacity="0.0"
     inkscape:pageshadow="2"
     inkscape:zoom="5.6"
     inkscape:cx="82.895267"
     inkscape:cy="38.777707"
     inkscape:document-units="mm"
     inkscape:current-layer="layer1"
     inkscape:document-rotation="0"
     showgrid="false"
     inkscape:window-width="1848"
     inkscape:window-height="1016"
     inkscape:window-x="72"
     inkscape:window-y="27"
     inkscape:window-maximized="1" />
  <metadata
     id="metadata5">
    <rdf:RDF>
      <cc:Work
         rdf:about="">
        <dc:format>image/svg+xml</dc:format>
        <dc:type
           rdf:resource="http://purl.org/dc/dcmitype/StillImage" />
        <dc:title></dc:title>
      </cc:Work>
    </rdf:RDF>
  </metadata>
  <g
     inkscape:label="Calque 1"
     inkscape:groupmode="layer"
     id="layer1">
    <g
       aria-label="Sloane"
       transform="matrix(1.3272912,0,0,0.79491061,-0.28609855,-0.01047039)"
       id="text835"
       style="font-style:normal;font-variant:normal;font-weight:normal;font-stretch:normal;font-size:11.1379px;line-height:1.25;font-family:Stealdream;-inkscape-font-specification:'Stealdream, Normal';font-variant-ligatures:normal;font-variant-caps:normal;font-variant-numeric:normal;font-variant-east-asian:normal;stroke-width:0.27844">
      <path
         id="path1501"
         style="font-style:normal;font-variant:normal;font-weight:normal;font-stretch:normal;font-size:11.1379px;font-family:Stealdream;-inkscape-font-specification:'Stealdream, Normal';font-variant-ligatures:normal;font-variant-caps:normal;font-variant-numeric:normal;font-variant-east-asian:normal;stroke-width:1.05237"
         d="m 37.935547,2.6191406 c -1.592412,0 -3.106095,0.2368368 -4.541016,0.7089844 -1.434921,0.4721478 -2.605675,1.1474324 -3.515625,2.0273438 -0.909949,0.8691809 -1.365234,1.9055915 -1.365234,3.1074218 0,0.9657566 0.33113,1.8397104 0.996094,2.6230474 0.682462,0.772605 1.549667,1.502692 2.599609,2.189453 1.049942,0.676029 2.151704,1.336631 3.306641,1.980468 1.137437,0.622377 2.20568,1.2546 3.203125,1.898438 0.997445,0.643838 1.811441,1.330864 2.441406,2.060547 0.629965,0.729682 0.943359,1.529256 0.943359,2.398437 0,0.729683 -0.392231,1.357012 -1.179687,1.882813 -0.769958,0.525801 -1.715999,0.789062 -2.835938,0.789062 -1.294928,0 -2.361218,-0.236836 -3.201172,-0.708984 -0.822455,-0.472148 -1.321104,-0.938974 -1.496093,-1.400391 -0.17499,-0.472147 -0.263672,-0.826426 -0.263672,-1.0625 0,-0.450686 0.149783,-0.900876 0.447265,-1.351562 0.437476,-0.697491 1.294837,-1.281759 2.572266,-1.753907 -0.892451,-0.311188 -1.767547,-0.466796 -2.625,-0.466796 -0.489973,0 -0.970886,0.04796 -1.443359,0.144531 -1.294929,0.278996 -2.371063,0.805519 -3.228516,1.578125 -0.857453,0.772605 -1.287109,1.620135 -1.287109,2.542969 0,0.643837 0.183301,1.309333 0.550781,1.996093 0.36748,0.67603 0.95481,1.303359 1.759766,1.882813 0.804955,0.568723 1.863353,1.030655 3.175781,1.384765 1.329926,0.364842 2.948073,0.546876 4.855469,0.546876 1.679907,-10e-7 3.25469,-0.327854 4.724609,-0.982422 1.487418,-0.654569 2.685753,-1.506993 3.595703,-2.558594 0.90995,-1.051602 1.365234,-2.167287 1.365234,-3.347656 0,-1.062333 -0.348866,-2.024363 -1.048828,-2.882813 -0.699961,-0.85845 -1.592794,-1.651177 -2.677734,-2.380859 -1.067441,-0.729683 -2.18694,-1.428451 -3.359375,-2.09375 -1.049942,-0.600915 -2.039348,-1.206714 -2.966797,-1.81836 -0.90995,-0.611645 -1.653001,-1.250716 -2.230469,-1.9160152 -0.577468,-0.6760297 -0.867187,-1.4041642 -0.867187,-2.1875 0,-0.6760297 0.289719,-1.2456143 0.867187,-1.7070313 0.577468,-0.4721476 1.330364,-0.7089844 2.257813,-0.7089844 0.839954,0 1.494328,0.1673507 1.966797,0.5 0.489973,0.321919 0.736328,0.6067113 0.736328,0.8535157 0.0175,0.2360736 0.02539,0.363304 0.02539,0.3847656 0,0.4399557 -0.23651,0.885251 -0.708984,1.3359375 0.524971,0.5365314 1.068937,0.869279 1.628906,0.9980469 0.577468,0.1287672 1.048536,0.1933593 1.416016,0.1933593 0.349981,0 0.700801,-0.036214 1.050781,-0.1113281 C 44.297539,9.0265406 44.900652,8.7300066 45.390625,8.3007812 45.880598,7.8608256 46.125,7.3147246 46.125,6.6601562 46.125,5.7802447 45.766288,5.0384153 45.048828,4.4375 44.331368,3.8365849 43.351806,3.3863951 42.109375,3.0859375 40.884442,2.7747493 39.492961,2.6191406 37.935547,2.6191406 Z m 16.144531,0.015625 c -0.752457,0 -1.426516,0.1076531 -2.021484,0.3222656 -0.612467,0.2253433 -0.919922,0.569833 -0.919922,1.03125 0,0.3326494 -0.03353,1.1371176 -0.103516,2.4140626 -0.05251,1.2769447 -0.123449,2.7302726 -0.210937,4.3613282 -0.08749,1.952974 -0.174231,3.803642 -0.261719,5.552734 -0.08749,1.738362 -0.130859,2.882426 -0.130859,3.429688 0,2.22124 0.542014,3.88498 1.626953,4.990234 1.102439,1.094524 2.799423,1.640625 5.091797,1.640625 0.857452,0 1.61824,-0.160503 2.283203,-0.482422 0.664965,-0.332649 1.234559,-0.734883 1.707031,-1.207031 0.472463,-0.482878 0.839065,-0.961446 1.101563,-1.433594 0.02378,-0.04276 0.03292,-0.06891 0.05469,-0.109375 0.02704,0.04161 0.04825,0.08569 0.07617,0.126953 0.682463,1.008679 1.636395,1.822936 2.861328,2.445313 1.224933,0.622376 2.748461,0.933594 4.568359,0.933594 1.627411,0 3.026783,-0.311218 4.199219,-0.933594 1.172433,-0.622377 2.116523,-1.436634 2.833985,-2.445313 0.734969,-1.008679 1.200097,-1.985392 1.392578,-2.929687 0.209984,-0.944295 0.314453,-1.755611 0.314453,-2.431641 0,-0.536531 -0.04337,-1.072843 -0.13086,-1.609375 -0.209991,-1.20183 -0.657383,-2.305774 -1.339843,-3.314453 -0.682464,-1.01941 -1.608814,-1.840514 -2.78125,-2.46289 -1.172434,-0.6223769 -2.589544,-0.9335942 -4.251954,-0.9335942 -1.574911,-1e-7 -2.958503,0.3112173 -4.148437,0.9335942 -1.172436,0.622376 -2.144104,1.44348 -2.914063,2.46289 -0.769945,1.008679 -1.284377,2.016712 -1.546874,3.025391 -0.262498,0.997948 -0.394532,1.905175 -0.394532,2.720703 0,0.397033 0.02561,0.799267 0.07813,1.207031 0.103071,0.793582 0.330271,1.537887 0.658203,2.244141 -0.04642,0.05656 -0.08363,0.09096 -0.132812,0.154297 -0.209998,0.278996 -0.464246,0.568683 -0.761719,0.86914 -0.297483,0.300458 -0.638457,0.561766 -1.023437,0.78711 -0.36748,0.214612 -0.787294,0.322265 -1.259766,0.322265 -0.769958,0 -1.321816,-0.428659 -1.654297,-1.287109 -0.332468,-0.858451 -0.523659,-1.770572 -0.576172,-2.736328 -0.03501,-0.976487 -0.05273,-1.764319 -0.05273,-2.365235 0,-0.901372 0.03548,-1.846766 0.105469,-2.833984 0.122496,-1.652517 0.252577,-3.29962 0.392578,-4.941406 0.279969,-2.4787755 0.419922,-4.5232184 0.419922,-6.1328128 0,-0.4506862 -0.315349,-0.7932228 -0.945313,-1.0292968 C 55.670737,2.7541606 54.97105,2.6347656 54.183594,2.6347656 Z m 37.429688,7.2597656 c -1.259932,1e-7 -2.519366,0.2319428 -3.779297,0.6933598 -1.259931,0.461417 -2.414904,1.120065 -3.464844,1.978515 -1.049943,0.858451 -1.89941,1.899755 -2.546875,3.123047 -0.647465,1.223292 -0.970703,2.602239 -0.970703,4.136719 0,1.920782 0.542011,3.493505 1.626953,4.716797 1.102439,1.212561 2.572757,1.818359 4.410156,1.818359 0.909949,0 1.698319,-0.138972 2.363282,-0.417969 0.664965,-0.278996 1.224712,-0.618591 1.679687,-1.015625 0.472456,-0.407764 0.848905,-0.814892 1.128906,-1.222656 0.29748,-0.407764 0.50641,-0.7503 0.628907,-1.029297 l 0.183593,-0.419922 0.13086,0.419922 c 0.06998,0.278997 0.219776,0.621533 0.447265,1.029297 0.227486,0.407764 0.56846,0.814892 1.023438,1.222656 0.454974,0.397034 1.050196,0.736629 1.785156,1.015625 0.73496,0.278997 1.65342,0.417969 2.755859,0.417969 0.909949,0 1.714101,-0.160503 2.414061,-0.482422 0.69996,-0.332649 1.29519,-0.734883 1.78516,-1.207031 0.40758,-0.401688 0.71857,-0.799096 0.96875,-1.193359 0.0896,0.532584 0.2596,0.979626 0.52734,1.322265 0.40248,0.50434 0.90113,0.868407 1.4961,1.09375 0.59496,0.225343 1.16457,0.359421 1.70703,0.402344 0.55997,0.04292 1.03104,0.06445 1.41601,0.06445 h 0.21094 c 0.3501,0 0.53341,-0.06949 0.55078,-0.208984 0.035,-0.139499 0.0527,-0.252047 0.0527,-0.337891 0,-0.17169 -0.0256,-0.382102 -0.0781,-0.628906 -0.0525,-0.321919 -0.0801,-0.690881 -0.0801,-1.109375 0,-1.749093 0.32519,-3.520485 0.97266,-5.3125 0.66496,-1.802746 1.44348,-3.29424 2.33594,-4.47461 0.90995,-1.1911 1.76731,-1.801793 2.57226,-1.833984 0.31497,0 0.49827,0.122336 0.55078,0.369141 0.07,0.236074 0.10547,0.477805 0.10547,0.724609 0,0.193151 -0.01,0.40161 -0.0273,0.626953 -0.07,0.536532 -0.16461,1.149177 -0.28711,1.835938 -0.15751,0.826258 -0.28165,1.604301 -0.36914,2.333984 -0.0875,0.718952 -0.13086,1.329645 -0.13086,1.833985 0,0.418494 0.0177,0.837364 0.0527,1.255859 0.0875,0.901373 0.34964,1.722477 0.78711,2.462891 0.43748,0.740413 1.12138,1.336422 2.04883,1.787109 0.94495,0.450686 2.22212,0.675781 3.83203,0.675781 0.78746,0 1.50488,-0.160503 2.15235,-0.482422 0.64746,-0.332649 1.20721,-0.734883 1.67968,-1.207031 0.48999,-0.482878 0.87433,-0.961446 1.1543,-1.433594 0.0563,-0.09492 0.0864,-0.158542 0.13281,-0.242187 0.22076,0.307402 0.45995,0.606246 0.73438,0.886718 0.75245,0.751144 1.70443,1.352048 2.85937,1.802735 1.17244,0.450686 2.58165,0.675781 4.22656,0.675781 1.10244,0 2.08201,-0.160503 2.93946,-0.482422 0.85745,-0.332649 1.59261,-0.734883 2.20508,-1.207031 0.61246,-0.482878 1.09337,-0.961446 1.44336,-1.433594 0.36749,-0.472147 0.58626,-0.814684 0.65625,-1.029297 0.07,-0.225343 0.10546,-0.376057 0.10546,-0.451172 0,-0.139499 -0.0513,-0.208984 -0.15625,-0.208984 -0.19249,0 -0.49994,0.19867 -0.91992,0.595703 -0.31498,0.289727 -0.70917,0.600944 -1.18164,0.933594 -0.45498,0.321919 -0.98714,0.604758 -1.59961,0.851563 -0.61246,0.246804 -1.30426,0.371093 -2.07422,0.371093 -0.76995,0 -1.40854,-0.117442 -1.91601,-0.353515 -0.50748,-0.236074 -0.9194,-0.547292 -1.23438,-0.933594 -0.29747,-0.397034 -0.51625,-0.837434 -0.65625,-1.320313 0.92745,-0.547262 1.77692,-1.148166 2.54688,-1.802734 0.78745,-0.654568 1.49503,-1.401292 2.125,-2.238281 0.64746,-0.836989 1.08501,-1.624821 1.3125,-2.365235 0.22749,-0.751144 0.34179,-1.390214 0.34179,-1.916015 0,-0.300458 -0.0256,-0.590144 -0.0781,-0.869141 -0.13999,-0.772605 -0.60512,-1.39504 -1.39258,-1.867187 -0.76996,-0.482879 -1.84609,-0.7246098 -3.22851,-0.7246098 -1.39993,10e-8 -2.62389,0.2417308 -3.67383,0.7246098 -1.04994,0.482878 -1.93293,1.131737 -2.65039,1.947265 -0.69996,0.804797 -1.23409,1.712024 -1.60157,2.720703 -0.36747,0.997949 -0.55078,2.029465 -0.55078,3.091797 0,1.01941 0.17346,2.001017 0.52344,2.945313 0.10703,0.288763 0.23784,0.565236 0.38086,0.835937 -0.0425,0.05348 -0.071,0.08508 -0.11719,0.144531 -0.2275,0.278997 -0.48963,0.575531 -0.78711,0.886719 -0.29748,0.300458 -0.63846,0.556872 -1.02343,0.771485 -0.36748,0.214612 -0.78925,0.322265 -1.26172,0.322265 -0.75247,0 -1.23338,-0.2202 -1.44336,-0.660156 -0.20999,-0.439956 -0.31445,-0.944949 -0.31445,-1.513672 0,-0.171689 0.008,-0.353723 0.0254,-0.546875 0.07,-0.815528 0.20205,-1.715907 0.39453,-2.703125 0.14,-0.826258 0.25431,-1.577877 0.34179,-2.253906 0.0875,-0.67603 0.13086,-1.250509 0.13086,-1.722656 0,-0.321919 -0.0177,-0.638031 -0.0527,-0.949219 -0.0525,-0.772605 -0.24565,-1.459632 -0.57813,-2.060547 -0.33248,-0.611646 -0.85676,-1.095108 -1.57421,-1.449219 -0.71747,-0.364841 -1.69703,-0.5468748 -2.93946,-0.5468748 -1.10244,0 -2.13521,0.2847928 -3.09765,0.8535158 -0.94496,0.557992 -1.80232,1.276338 -2.57227,2.15625 -0.75246,0.879911 -1.39104,1.813563 -1.91602,2.800781 0.0175,-0.289727 0.0431,-0.574519 0.0781,-0.853516 0.1225,-1.384251 0.18359,-2.569422 0.18359,-3.55664 0,-0.472148 -0.31534,-0.819579 -0.94531,-1.044922 -0.61247,-0.236074 -1.31215,-0.3554688 -2.09961,-0.3554688 -0.78745,0 -1.49503,0.1193948 -2.125,0.3554688 -0.61247,0.225343 -0.91992,0.562985 -0.91992,1.013672 -0.19891,3.689707 -0.29615,7.270297 -0.30664,10.757812 -0.0886,0.106883 -0.16953,0.197107 -0.26953,0.332032 -0.2275,0.289727 -0.48964,0.589202 -0.78711,0.90039 -0.27998,0.300458 -0.61307,0.56372 -0.99805,0.789063 -0.38498,0.214612 -0.82253,0.322265 -1.3125,0.322265 -0.61247,0 -1.06776,-0.263261 -1.365233,-0.789062 -0.279992,-0.536532 -0.463293,-1.154072 -0.550781,-1.851563 -0.06999,-0.708221 -0.105469,-1.371764 -0.105469,-1.99414 0,-0.246805 0.008,-0.500278 0.02539,-0.757813 0.0175,-0.901372 0.06283,-1.732266 0.132812,-2.49414 0.05251,-0.686761 0.07813,-1.22992 0.07813,-1.626954 0,-0.246805 -0.279874,-0.450369 -0.839844,-0.611328 -0.55997,-0.160958 -1.068463,-0.251976 -1.523437,-0.273437 -0.437458,-0.03219 -0.74296,-0.04687 -0.917969,-0.04687 -0.507471,0 -0.970649,0.03621 -1.390625,0.111328 -0.55997,0.107306 -0.839844,0.305976 -0.839844,0.595703 0,0.33265 -0.114308,1.00304 -0.341797,2.011719 -0.209988,1.008679 -0.499707,2.081303 -0.867187,3.21875 -0.36748,1.137446 -0.787294,2.121007 -1.259766,2.947266 -0.454974,0.815528 -0.926042,1.239293 -1.416015,1.271484 -0.612473,0 -1.077601,-0.296534 -1.392579,-0.886719 C 87.755349,22.58854 87.59767,22.042439 87.59767,21.54883 v -0.820312 c 0,-0.879912 0.132034,-1.80867 0.394532,-2.785157 0.297482,-1.040871 0.742925,-2.022478 1.33789,-2.945312 0.594969,-0.933565 1.339971,-1.696925 2.232422,-2.287109 0.909949,-0.600916 1.968346,-0.900391 3.175781,-0.900391 0.647462,0 1.26042,0.08612 1.837891,0.257812 0.594965,0.16096 1.111351,0.374313 1.548828,0.642579 0,-0.84772 -0.638587,-1.527899 -1.916016,-2.042969 C 94.931566,10.152901 93.364676,9.8945332 91.50978,9.8945332 Z M 135.68555,11.875 c 0.50747,0 0.76172,0.412023 0.76172,1.238281 0,0.128767 -0.008,0.262845 -0.0254,0.402344 -0.105,1.094524 -0.51692,2.238588 -1.23438,3.429687 -0.71746,1.1911 -1.60045,2.220663 -2.65039,3.089844 -0.035,-0.547262 -0.0527,-1.052255 -0.0527,-1.513672 -1e-5,-0.901373 0.15767,-1.866344 0.47265,-2.896484 0.33248,-1.03014 0.74245,-1.908989 1.23242,-2.638672 0.48998,-0.740413 0.98863,-1.111328 1.4961,-1.111328 z m -63.941409,0.417969 c 0.87495,0 1.592373,0.284792 2.152343,0.853515 0.559958,0.568724 0.971878,1.282175 1.234375,2.140625 0.262497,0.84772 0.392579,1.733416 0.392579,2.65625 v 0.175782 c 0,0.987217 -0.14784,1.920869 -0.445313,2.800781 -0.297483,0.879911 -0.735032,1.605105 -1.3125,2.173828 -0.577468,0.568723 -1.286998,0.853516 -2.126953,0.853516 -0.927447,0 -1.688235,-0.284793 -2.283203,-0.853516 -0.577462,-0.568723 -0.987429,-1.265539 -1.232422,-2.091797 -0.244993,-0.826258 -0.369141,-1.668893 -0.369141,-2.527344 v -0.355468 c 0.0525,-0.987218 0.237757,-1.92087 0.552735,-2.800782 0.332481,-0.879911 0.785813,-1.603151 1.363281,-2.171875 0.577468,-0.568723 1.269262,-0.853515 2.074219,-0.853515 z"
         transform="scale(0.20718963,0.3378757)" />
    </g>
  </g>
</svg>
