<?xml version="1.0" encoding="UTF-8" standalone="no"?>
<svg
   xmlns:dc="http://purl.org/dc/elements/1.1/"
   xmlns:cc="http://creativecommons.org/ns#"
   xmlns:rdf="http://www.w3.org/1999/02/22-rdf-syntax-ns#"
   xmlns:svg="http://www.w3.org/2000/svg"
   xmlns="http://www.w3.org/2000/svg"
   xmlns:sodipodi="http://sodipodi.sourceforge.net/DTD/sodipodi-0.dtd"
   xmlns:inkscape="http://www.inkscape.org/namespaces/inkscape"
   version="1.1"
   id="svg885"
   width="652.69409"
   height="500.01523"
   viewBox="0 0 652.69409 500.01523"
   sodipodi:docname="haiti_v0.svg"
   inkscape:version="1.0.2 (394de47547, 2021-03-26)">
  <metadata
     id="metadata891">
    <rdf:RDF>
      <cc:Work
         rdf:about="">
        <dc:format>image/svg+xml</dc:format>
        <dc:type
           rdf:resource="http://purl.org/dc/dcmitype/StillImage" />
        <dc:title></dc:title>
      </cc:Work>
    </rdf:RDF>
  </metadata>
  <defs
     id="defs889" />
  <sodipodi:namedview
     pagecolor="#ffffff"
     bordercolor="#666666"
     borderopacity="1"
     objecttolerance="10"
     gridtolerance="10"
     guidetolerance="10"
     inkscape:pageopacity="0"
     inkscape:pageshadow="2"
     inkscape:window-width="1848"
     inkscape:window-height="1016"
     id="namedview887"
     showgrid="false"
     fit-margin-top="0"
     fit-margin-left="0"
     fit-margin-right="0"
     fit-margin-bottom="0"
     inkscape:zoom="1.06875"
     inkscape:cx="508.88378"
     inkscape:cy="311.42355"
     inkscape:window-x="72"
     inkscape:window-y="27"
     inkscape:window-maximized="1"
     inkscape:current-layer="g893"
     inkscape:document-rotation="0" />
  <g
     inkscape:groupmode="layer"
     inkscape:label="Image"
     id="g893"
     transform="translate(-91.11622,-110.09691)">
    <path
       style="fill:none;stroke-width:1.33333;stroke:#000000;stroke-opacity:1"
       d="m 232.05042,603.67103 c -0.63633,-0.45854 -2.60308,-3.9834 -4.37056,-7.83303 -1.76748,-3.84964 -4.31119,-7.99263 -5.65267,-9.20665 -1.34149,-1.21403 -2.43906,-3.2015 -2.43906,-4.4166 0,-1.2151 -1.8,-3.54007 -4,-5.1666 -2.2,-1.62654 -4,-3.83936 -4,-4.91742 0,-1.07804 -0.66911,-1.96008 -1.4869,-1.96008 -0.8178,0 -3.0678,-1.55101 -5,-3.44669 -8.79161,-8.6254 -20.12572,-16.70658 -27.07813,-19.30662 -4.17359,-1.56082 -8.62183,-3.97983 -9.88497,-5.3756 -1.26315,-1.39576 -3.66823,-2.53775 -5.34463,-2.53775 -1.6764,0 -3.41881,-0.6 -3.87204,-1.33333 -1.46221,-2.36592 -11.00307,-1.43827 -16.09269,1.56469 -4.47267,2.63893 -5.46138,2.75104 -11.059,1.25391 -3.38096,-0.90427 -7.05495,-2.41719 -8.16443,-3.36203 -1.10947,-0.94485 -3.10524,-2.10487 -4.43505,-2.57783 -1.32982,-0.47294 -2.04902,-1.45668 -1.59823,-2.18608 0.45079,-0.72938 -1.61119,-2.29877 -4.58216,-3.48752 -5.41295,-2.16582 -6.25456,-3.87601 -5.64188,-11.4644 0.1004,-1.24258 -1.3046,-3.42893 -3.12207,-4.85856 -3.98236,-3.13252 -4.05234,-4.18918 -0.71117,-10.73842 1.42633,-2.79584 2.28463,-6.26384 1.90731,-7.7067 -0.38836,-1.48512 0.22197,-3.37692 1.40668,-4.36013 1.15097,-0.95523 2.09269,-2.94249 2.09269,-4.41615 0,-1.47365 1.21675,-4.64809 2.70388,-7.05433 1.84543,-2.98596 2.58623,-6.16423 2.33333,-10.01064 -0.33029,-5.0234 0.064,-5.89453 3.62946,-8.01829 2.2,-1.31044 5.53,-2.42647 7.4,-2.48007 1.87,-0.0536 3.97,-0.64169 4.66666,-1.30688 2.59678,-2.47942 11.65439,-4.12864 13.63719,-2.48306 1.49165,1.23796 2.35768,0.92905 4.18427,-1.49252 2.01488,-2.67118 3.46016,-3.05115 11.54093,-3.03415 9.89347,0.0208 24.16468,4.11911 23.56268,6.76652 -0.18789,0.82625 1.16211,2.18741 3,3.02481 1.83788,0.83739 3.3416,2.00947 3.3416,2.6046 0,1.80396 13.53831,5.01892 21.10571,5.012 3.90814,-0.004 7.9505,0.69461 8.98302,1.55153 1.03252,0.85692 2.76854,1.21604 3.8578,0.79804 1.14838,-0.44066 2.81654,0.43363 3.97032,2.0809 1.6694,2.3834 3.15922,2.79356 9.25174,2.54708 3.99405,-0.16159 7.65046,0.33488 8.12536,1.10328 0.47488,0.76838 1.93502,1.39706 3.24476,1.39706 1.30973,0 3.47485,1.20834 4.81137,2.68518 1.91101,2.11165 3.45028,2.51396 7.20665,1.88357 7.55474,-1.26781 9.53504,-2.00824 8.75348,-3.27283 -0.40069,-0.64832 0.75056,-2.14789 2.55832,-3.33238 2.45962,-1.6116 4.82232,-1.92336 9.38792,-1.23871 3.51368,0.52692 6.80279,0.35427 7.75566,-0.40709 2.217,-1.77143 16.54956,-3.439 17.42218,-2.02706 0.37976,0.61447 -0.41116,2.57768 -1.7576,4.3627 -2.14252,2.8404 -3.58568,3.26968 -11.56238,3.4393 -5.01287,0.10654 -9.91004,-0.43206 -10.8826,-1.19702 -1.26792,-0.9973 -2.09192,-0.8672 -2.91202,0.45976 -1.51076,2.44445 -0.43738,3.97792 2.7844,3.97792 2.15051,0 2.45884,0.61574 1.74084,3.47644 -0.54564,2.17401 -0.25524,3.85796 0.77512,4.49474 3.24627,2.00631 18.48728,0.3761 24.72794,-2.64494 3.34958,-1.62151 7.41657,-2.93982 9.03776,-2.92956 12.9339,0.0817 35.83077,4.42082 43.61425,8.26506 6.54243,3.2313 17.85321,4.47168 23.18737,2.54282 6.59514,-2.38483 15.72367,-0.53392 20.66734,4.1905 4.34982,4.15692 7.91906,4.9645 10.50641,2.37715 4.16189,-4.16189 41.63431,-0.38155 40.62651,4.09853 -0.58312,2.59223 3.63673,3.24751 6.16702,0.95763 2.71507,-2.45709 9.74091,-2.84661 13.64623,-0.75655 4.40803,2.35911 17.42315,2.52755 21.78593,0.28196 4.26584,-2.19569 8.63162,-6.80334 8.70216,-9.18429 0.0828,-2.79428 5.20119,-13.15533 7.95744,-16.10809 3.90144,-4.17956 11.47183,-5.33239 16.662,-2.53731 3.25738,1.75421 6.87096,2.13789 16.82006,1.78587 6.96926,-0.24659 13.29881,-0.83611 14.06566,-1.31006 0.76686,-0.47393 3.31639,0.3072 5.66563,1.73587 2.34925,1.42865 5.41643,2.59756 6.81595,2.59756 2.64553,0 4.84693,-4.31085 3.39833,-6.65473 -0.45728,-0.7399 -0.12107,-1.34527 0.74727,-1.34527 1.10072,0 1.27092,-1.312 0.56217,-4.33333 -1.67248,-7.12971 -1.09813,-10.38649 2.49271,-14.13451 2.29908,-2.39973 3.03842,-4.16014 2.26964,-5.40408 -1.3077,-2.11589 -10.6926,-5.65169 -12.32434,-4.64322 -0.59848,0.36989 -1.08816,-0.1987 -1.08816,-1.26351 0,-2.40393 -2.84728,-3.55468 -8.79532,-3.55468 -3.73324,0 -5.06432,-0.799 -7.21898,-4.33333 -1.45298,-2.38334 -2.79664,-4.79078 -2.98592,-5.34988 -0.18928,-0.55911 -3.82432,-1.58296 -8.07787,-2.27524 -8.23721,-1.34064 -10.84281,-3.3698 -15.48479,-12.05903 -1.3763,-2.57627 -3.93004,-6.17627 -5.67497,-8 -1.74493,-1.82372 -4.82927,-5.88928 -6.85407,-9.03457 -3.78713,-5.88286 -9.71701,-10.38367 -15.57474,-11.82134 -4.33838,-1.06477 -8,-4.30152 -8,-7.0717 0,-2.99758 -7.50658,-9.93236 -14,-12.9336 -3.60672,-1.66702 -5.47439,-3.45833 -5.76902,-5.53323 -0.86446,-6.0877 5.39547,-9.90589 16.7187,-10.19741 7.94294,-0.20449 7.85558,-0.15577 9.08822,-5.06699 0.82283,-3.27842 0.42387,-3.87869 -3.73205,-5.61514 -2.55936,-1.06938 -6.07519,-3.7564 -7.81295,-5.97116 -7.03978,-8.97213 -9.15957,-11.8556 -9.15957,-12.45943 0,-0.34848 1.35,-1.04397 3,-1.54552 1.79969,-0.54705 2.33743,-1.18577 1.34399,-1.5964 -1.18508,-0.48984 -1.2773,-1.39214 -0.32426,-3.17292 0.73248,-1.36864 1.45855,-4.02024 1.6135,-5.89244 0.21058,-2.5444 1.03018,-3.40401 3.24556,-3.40401 1.6301,0 3.29984,-0.54367 3.71052,-1.20816 0.41068,-0.66449 1.91756,-0.90197 3.34864,-0.52773 2.39744,0.62694 2.47917,0.35509 1.03969,-3.45851 -1.11133,-2.94425 -2.43016,-4.13893 -4.56905,-4.13893 -3.9001,0 -7.21936,-6.09828 -5.62438,-10.33334 1.31067,-3.48009 1.65678,-3.56692 5.31508,-1.33333 2.31286,1.41211 3.01187,1.28637 4.57672,-0.82324 1.58604,-2.13817 1.55228,-2.93961 -0.23892,-5.67335 -1.70326,-2.5995 -1.77477,-3.55826 -0.38986,-5.22698 1.47741,-1.78018 1.94326,-1.53304 3.6144,1.91749 1.19678,2.47108 2.62432,3.69017 3.79505,3.24092 2.43059,-0.93271 2.37447,-2.41323 -0.18867,-4.97635 -1.13592,-1.13593 -1.96484,-2.82878 -1.84202,-3.7619 0.57848,-4.39516 -0.0359,-4.83064 -4.91464,-3.48355 -6.82155,1.88352 -10.03026,0.58716 -13.80295,-5.57656 -2.90484,-4.74585 -12.91383,-12.08246 -20.04173,-14.69066 -1.1,-0.40251 -5.3,-2.34911 -9.33334,-4.3258 -4.03333,-1.97668 -7.93946,-3.59983 -8.68029,-3.60699 -1.77616,-0.0172 -8.65304,-6.42829 -8.65304,-8.06699 0,-0.70365 -1.90276,-1.27937 -4.22835,-1.27937 -2.32558,0 -5.35117,-1.01615 -6.72352,-2.25811 -2.18508,-1.97746 -10.74884,-5.66552 -13.28622,-5.72181 -0.49763,-0.0107 -1.91199,0.98715 -3.14304,2.2182 -1.96319,1.96319 -2.99912,2.03493 -8.42858,0.58383 -3.40466,-0.90995 -7.53793,-2.91954 -9.18504,-4.46576 -3.22036,-3.02311 -3.23058,-3.02126 -5.37664,0.97698 -1.23922,2.30878 -3.57637,2.84562 -17.41429,4 -14.92896,1.2454 -16.28363,1.15748 -20.54228,-1.33333 -11.66408,-6.82211 -14.33871,-10.7152 -14.33871,-20.87089 0,-8.52664 4.3583,-17.45852 8.00447,-16.40435 1.10245,0.31873 4.10245,-0.76395 6.66667,-2.40596 l 4.6622,-2.98547 -5.66667,-0.41 c -5.74644,-0.41576 -6.43209,-0.9884 -4.61184,-3.85168 1.11245,-1.7499 10.89193,-2.75264 13.16215,-1.34958 0.78166,0.4831 4.49969,-0.60672 8.26225,-2.42184 3.76257,-1.81514 7.58215,-3.30023 8.48795,-3.30023 1.98704,0 15.79676,-8.30529 22.60017,-13.59196 2.69537,-2.09446 5.23704,-3.2639 5.64813,-2.59873 0.72614,1.17491 17.11942,3.60837 20.43611,3.0336 0.90836,-0.15741 2.80996,0.33373 4.22577,1.09145 1.50936,0.80779 2.75656,0.86999 3.01508,0.15035 0.25187,-0.70112 3.58498,-0.82743 7.77423,-0.29461 5.11476,0.65054 8.4444,0.38957 11.00589,-0.86262 2.01991,-0.98744 6.81991,-2.00233 10.66667,-2.25534 3.84676,-0.25302 6.99411,-0.55708 6.99411,-0.67572 0,-0.11867 1.78504,-0.50498 3.96677,-0.85852 2.18172,-0.35356 4.67825,-1.23332 5.54787,-1.95503 0.8696,-0.72171 3.88454,-1.02004 6.69989,-0.66296 8.20292,1.0404 32.89485,8.82247 35.53328,11.19888 1.49667,1.34804 4.43664,2.09408 7.73409,1.96259 4.50954,-0.17983 6.07078,0.54429 10.25219,4.75501 2.71292,2.73193 6.58257,5.68849 8.59924,6.57013 2.01667,0.88164 3.66667,2.14587 3.66667,2.80939 0,1.6237 5.15032,2.89224 6.02125,1.48304 0.37981,-0.61456 2.33041,-0.26567 4.33467,0.77529 2.17974,1.13213 3.82268,1.36355 4.08852,0.57588 0.24445,-0.72423 1.02985,-1.31679 1.74536,-1.31679 0.7155,0 0.93166,0.59746 0.48037,1.32767 -0.45129,0.73021 0.81564,2.07316 2.81543,2.98432 2.88858,1.31612 3.74908,1.31729 4.18629,0.005 0.77313,-2.31941 4.32811,-2.06553 4.32811,0.3091 0,1.07805 1.86565,3.32805 4.1459,5 2.28024,1.67196 4.66539,4.38992 5.30034,6.03992 1.37978,3.58565 4.41108,4.08474 3.28636,0.54108 -0.71134,-2.24122 -0.2176,-2.37218 5.57682,-1.4792 3.51547,0.54177 6.55591,0.4489 6.80168,-0.20775 0.24446,-0.65311 1.29446,-1.18747 2.33334,-1.18747 1.03889,0 1.88889,-0.9 1.88889,-2 0,-1.4843 1.56197,-2 6.05771,-2 h 6.0577 l -0.39104,5 c -0.37382,4.77983 -0.19638,5.01868 4.02939,5.42431 2.43124,0.23337 5.28865,-0.29625 6.34981,-1.17692 1.55744,-1.29257 2.5565,-0.92456 5.18256,1.90901 2.58287,2.78696 4.48644,3.51027 9.23818,3.51027 3.29174,0 6.36185,-0.60979 6.82246,-1.35508 1.54135,-2.49395 3.59715,0.30216 2.87542,3.91084 -0.73736,3.68677 -0.36135,3.82352 8.11114,2.94951 0.91667,-0.0942 1.66667,-1.63118 1.66667,-3.41509 0,-4.20514 3.10277,-5.1296 11.4086,-3.3991 3.62527,0.7553 8.9914,1.70828 11.92473,2.11772 2.93334,0.40942 6.23334,1.09028 7.33334,1.51298 1.1,0.42272 2.58109,0.62962 3.29132,0.45979 0.71021,-0.16983 4.77762,0.0959 9.03868,0.5904 7.15625,0.83056 7.88662,1.23248 9.57264,5.26767 1.00389,2.40266 2.42957,4.74196 3.16816,5.19844 0.79517,0.49144 1.04876,4.07378 0.62173,8.78304 -0.70099,7.73066 1.23721,16.04588 3.74017,16.04588 1.9098,0 7.08844,12.48954 6.74375,16.2642 -0.18069,1.97864 0.58307,4.9888 1.69723,6.68922 1.77526,2.70939 1.7919,3.74841 0.13456,8.40247 -1.04016,2.92092 -1.91754,7.194 -1.94972,9.49572 -0.0515,3.67801 -0.60163,4.28682 -4.54214,5.02608 -2.46598,0.46261 -5.51014,1.97542 -6.7648,3.3618 -1.25464,1.38637 -3.81296,2.90513 -5.68514,3.37501 l -3.40396,0.85435 2.83542,3.01817 c 1.55948,1.66 2.83543,3.95604 2.83543,5.10232 0,2.36004 2.90884,5.15313 5.81015,5.57895 1.06849,0.15682 3.68945,2.15502 5.82436,4.44044 2.82854,3.02797 5.5843,4.41064 10.15757,5.09645 4.12524,0.61861 6.94965,1.903 8.24192,3.74797 2.55777,3.65172 2.48208,4.88018 -0.30067,4.88018 -1.71185,0 -1.8903,0.37636 -0.72906,1.5376 1.09165,1.09165 1.13666,2.28672 0.1552,4.12061 -0.76032,1.42065 -1.57426,4.6474 -1.80876,7.17054 -0.58487,6.29295 -2.56898,8.22396 -9.52132,9.26654 -3.27392,0.49096 -5.63007,1.21516 -5.23588,1.60933 0.39417,0.39419 0.0364,1.5364 -0.79508,2.53827 -0.83147,1.00185 -1.13602,2.1973 -0.67678,2.65654 1.08455,1.08488 -5.39952,7.10091 -7.653,7.10091 -2.24368,0 -7.46865,4.54013 -7.46865,6.48973 0,0.83064 -0.6,1.51027 -1.33333,1.51027 -0.73334,0 -1.33334,0.85177 -1.33334,1.89282 0,1.41602 -1.52021,1.79035 -6.03478,1.48599 -4.83682,-0.32609 -6.30584,0.0996 -7.40023,2.14451 -0.751,1.40325 -1.97573,2.1742 -2.72163,1.7132 -0.7459,-0.46099 -1.68577,0.42221 -2.08861,1.96265 -0.40284,1.54045 -1.26245,2.80083 -1.91025,2.80083 -0.6478,0 -1.17783,0.91928 -1.17783,2.04284 0,1.66605 1.04519,1.46752 5.66667,-1.07643 5.53561,-3.04713 5.80386,-3.06769 11.59941,-0.88927 4.57907,1.72118 6.25655,3.1917 7.35187,6.44483 0.78052,2.31815 3.70022,6.30459 6.48824,8.85875 4.93698,4.52288 5.07292,4.89557 5.21501,14.29826 0.20005,13.23736 -3.21763,24.56902 -8.04037,26.65871 -6.00611,2.60244 -9.45474,6.86237 -10.41452,12.86457 -0.6562,4.10362 -1.68515,5.93799 -3.72004,6.63196 -3.64343,1.24254 -11.88278,0.90088 -14.27728,-0.59202 -1.02795,-0.64091 -3.96899,-1.29015 -6.53566,-1.44276 -2.56666,-0.15263 -6.39526,-0.70491 -8.50798,-1.2273 -2.87243,-0.71022 -4.1503,-0.3977 -5.06626,1.23903 -0.67372,1.20385 -2.39512,2.18883 -3.82534,2.18883 -1.43023,0 -2.60042,0.6 -2.60042,1.33333 0,0.73333 0.89315,1.33333 1.98476,1.33333 2.42703,0 7.34858,4.04945 7.34858,6.04641 0,0.79959 4.2,6.01187 9.33333,11.58288 5.13333,5.571 9.33333,10.74302 9.33333,11.49339 0,0.75036 -1.2,1.74515 -2.66666,2.21065 -1.69719,0.53867 -2.66667,2.01738 -2.66667,4.06739 0,2.52436 1.43673,3.94907 6.64268,6.58713 3.65348,1.85135 7.62248,4.86146 8.82001,6.68912 1.19754,1.82767 2.79219,3.32303 3.54367,3.32303 0.75148,0 2.03247,0.88789 2.84665,1.97309 0.81418,1.0852 6.26688,4.0449 12.11714,6.57711 5.85025,2.53221 10.8312,5.18716 11.06877,5.89988 0.23757,0.71273 -2.46571,6.60304 -6.00729,13.08956 -6.31192,11.56048 -7.9269,14.8568 -10.78682,22.01681 -1.27197,3.18451 -0.93806,4.02119 3.1926,8 3.40808,3.28279 4.42682,5.22301 3.89984,7.42744 -0.39232,1.64113 -0.0189,4.09564 0.82959,5.45445 1.79059,2.86719 0.66385,10.35472 -2.10867,14.01279 -1.76862,2.33353 -2.14722,2.23757 -7.89134,-2 -3.31848,-2.44812 -6.58395,-5.96223 -7.25659,-7.80913 -2.73984,-7.52288 -23.11625,-24.80061 -30.66891,-26.00503 -2.6994,-0.43046 -5.94985,-1.34988 -7.22324,-2.04314 -1.27338,-0.69328 -3.73577,-1.2605 -5.47197,-1.2605 -1.7362,0 -4.83421,-1.55465 -6.88449,-3.45477 -3.20172,-2.96725 -4.51204,-3.33716 -9.28559,-2.62132 -12.90287,1.93489 -23.57555,2.53945 -37.37604,2.11716 -28.32776,-0.86681 -34.72825,-0.63089 -54.88177,2.02292 -3.23372,0.42581 -5.90872,0.14768 -6.41203,-0.66668 -0.47497,-0.76852 -2.02817,-1.39731 -3.45156,-1.39731 -3.19341,0 -3.58649,5.51146 -0.57153,8.01364 3.07861,2.55503 -0.13439,5.76239 -4.58418,4.57611 -7.46298,-1.98956 -11.78453,-2.40091 -20.09893,-1.91312 -4.76667,0.27965 -11.54741,0.54181 -15.06833,0.58258 -5.42159,0.0628 -6.30827,0.43135 -5.7915,2.40746 0.44959,1.71924 -0.19128,2.33333 -2.43506,2.33333 -1.6749,0 -3.7394,0.83639 -4.58779,1.85864 -2.04651,2.46588 -21.64471,1.84473 -28.11732,-0.89115 -2.56667,-1.08489 -7.66667,-2.39314 -11.33333,-2.90724 -3.66667,-0.51409 -8.01911,-1.8034 -9.6721,-2.86512 -1.85837,-1.19362 -7.45612,-2.09902 -14.66666,-2.37224 -7.87732,-0.29847 -13.82448,-1.33281 -18.32791,-3.18759 -3.69109,-1.52022 -11.31696,-3.08868 -17.08545,-3.51407 -6.82695,-0.50345 -11.1381,-1.48763 -12.50526,-2.85479 -1.15216,-1.15216 -3.05433,-1.7117 -4.24788,-1.24957 -4.99381,1.9336 -14.88825,3.70075 -15.7721,2.81689 -0.52527,-0.52526 -0.22774,-2.11961 0.66116,-3.54297 2.27326,-3.64008 2.03953,-4.68008 -1.3838,-6.15721 -3.3701,-1.45418 -7.66667,-0.91382 -7.66667,0.96418 0,1.7016 -4.47789,1.55768 -6.23599,-0.20041 -1.66017,-1.66017 -12.21081,0.84264 -14.43068,3.42324 -0.73333,0.85249 -2.71626,1.90655 -4.40652,2.34235 -2.4082,0.6209 -3.33872,0.094 -4.30033,-2.4353 -0.85101,-2.23833 -2.25896,-3.22764 -4.59348,-3.22764 -3.52057,0 -4.43316,2.39984 -1.88251,4.9505 2.07715,2.07714 0.1264,4.65042 -2.81716,3.71617 -1.34324,-0.42633 -2.82814,-0.15073 -3.29981,0.61243 -1.28288,2.07574 -4.67449,1.67262 -5.57041,-0.6621 -0.43259,-1.1273 0.27924,-3.2273 1.58184,-4.66666 2.29686,-2.53802 2.2615,-2.617 -1.17163,-2.617 -2.87363,0 -3.53999,0.61864 -3.53999,3.28642 0,1.88458 -1.10009,3.87518 -2.57901,4.66667 -3.29796,1.76501 -4.08765,1.73808 -4.08765,-0.13944 0,-1.56607 -3.86704,-5.02935 -5.69967,-5.10459 -0.56815,-0.0233 -1.55416,1.3076 -2.19113,2.9576 -0.63698,1.65 -4.67212,5.03622 -8.967,7.52492 -4.29488,2.48871 -9.43458,5.63871 -11.42155,7 -1.98697,1.36129 -4.19343,2.47508 -4.90323,2.47508 -2.01233,0 -6.81742,6.74016 -6.81742,9.56288 0,1.39513 2.7,5.16069 6,8.36793 5.62969,5.47144 7.55398,10.28474 4.7937,11.99068 -1.78036,1.10032 -20.98189,1.88468 -22.33141,0.91222 z m 52.87104,-7.77854 c -2.86287,-0.49958 -12,-8.54269 -12,-10.5632 0,-1.54348 8.87052,0.2236 11.68252,2.32726 2.94128,2.20037 7.62996,2.03856 9.08361,-0.31351 2.49266,-4.03319 11.19074,2.87556 9.42232,7.48399 -0.76513,1.99388 -9.82636,2.52468 -18.18845,1.06546 z m 53.33333,-38.89966 c 0,-2.05121 5.11816,-2.6394 5.87204,-0.67483 0.4885,1.27299 -0.31892,1.85266 -2.58054,1.85266 -1.81032,0 -3.2915,-0.53003 -3.2915,-1.17783 z m -35.91294,-74.05061 c -1.29054,-1.555 -1.08055,-1.76638 1.17008,-1.17782 1.50857,0.3945 2.74286,1.2473 2.74286,1.8951 0,1.79842 -2.15257,1.40384 -3.91294,-0.71728 z m -45.00927,-13.03084 c -4.32409,-2.08959 -4.69109,-4.63457 -1.20999,-8.39073 3.52286,-3.80124 5.0171,-3.99462 13.4464,-1.74012 7.05452,1.8868 7.85584,4.75184 2.50599,8.96002 -3.77204,2.96709 -10.00149,3.46183 -14.7424,1.17083 z m 211.62576,-26.97704 c -1.02637,-2.69959 -2.23436,-3.44281 -5.67055,-3.48887 -2.40148,-0.0321 -6.76633,-0.92316 -9.69966,-1.97993 -2.93334,-1.05676 -8.78774,-1.93043 -13.00978,-1.94147 -8.62449,-0.0225 -19.50072,-4.88154 -23.04928,-10.29733 -1.10133,-1.68084 -3.10768,-3.05608 -4.45853,-3.05608 -1.35087,0 -3.99464,-1.2102 -5.87507,-2.68933 -3.15346,-2.48052 -9.57804,-4.41675 -20.67862,-6.23208 -3.16004,-0.51679 -7.00511,-3.32599 -13.60798,-9.94196 -10.36716,-10.38775 -10.69857,-12.65008 -2.65686,-18.13663 6.66301,-4.54591 17.0673,-4.15875 26.16117,0.97351 3.87236,2.18542 9.62088,4.37402 12.77447,4.86354 3.1536,0.48952 6.91732,1.70144 8.36382,2.69316 1.4465,0.99172 3.97563,1.80312 5.62027,1.80312 1.64464,0 4.96115,1.69111 7.36999,3.75802 2.40885,2.0669 6.47973,4.53725 9.0464,5.48966 2.56666,0.9524 6.55734,2.5613 8.86817,3.57531 2.31083,1.01403 5.42177,1.84368 6.9132,1.84368 7.6874,0 18.1684,9.22641 19.69028,17.33333 0.48183,2.56667 1.52517,5.4816 2.31853,6.47762 1.07962,1.35538 0.84235,2.24978 -0.94317,3.5554 -1.40885,1.03017 -2.20715,3.0049 -1.94968,4.82284 0.6424,4.53572 -3.84377,5.00201 -5.52712,0.57449 z m 24.62979,-302.75912 c -3.66667,-0.97275 -9.96667,-2.7146 -14,-3.87077 -4.03334,-1.15617 -10.19832,-2.10925 -13.69998,-2.11796 -3.50165,-0.009 -9.78086,-1.21582 -13.95378,-2.68249 -4.17294,-1.46666 -8.65795,-2.66666 -9.9667,-2.66666 -1.30874,0 -2.37954,-0.80186 -2.37954,-1.7819 0,-2.00377 15.72726,-5.73382 28.52334,-6.76491 6.70848,-0.54056 8.94935,-0.0848 15.33334,3.11836 4.11216,2.06329 10.77665,4.70815 14.80998,5.87747 6.95976,2.01773 17.33334,8.9888 17.33334,11.64804 0,1.79535 -14.22086,1.30461 -22,-0.75918 z"
       id="path899" />
  </g>
</svg>
