<?xml version="1.0" encoding="UTF-8" standalone="no"?>
<svg
   xmlns:dc="http://purl.org/dc/elements/1.1/"
   xmlns:cc="http://creativecommons.org/ns#"
   xmlns:rdf="http://www.w3.org/1999/02/22-rdf-syntax-ns#"
   xmlns:svg="http://www.w3.org/2000/svg"
   xmlns="http://www.w3.org/2000/svg"
   xmlns:sodipodi="http://sodipodi.sourceforge.net/DTD/sodipodi-0.dtd"
   xmlns:inkscape="http://www.inkscape.org/namespaces/inkscape"
   width="70.422768mm"
   height="23.599392mm"
   viewBox="0 0 70.422768 23.599392"
   version="1.1"
   id="svg8"
   inkscape:version="1.0.2 (e86c870, 2021-01-15)"
   sodipodi:docname="melinda.svg">
  <defs
     id="defs2" />
  <sodipodi:namedview
     id="base"
     pagecolor="#ffffff"
     bordercolor="#666666"
     borderopacity="1.0"
     inkscape:pageopacity="0.0"
     inkscape:pageshadow="2"
     inkscape:zoom="1.979899"
     inkscape:cx="248.83995"
     inkscape:cy="32.790585"
     inkscape:document-units="mm"
     inkscape:current-layer="layer2"
     inkscape:document-rotation="0"
     showgrid="false"
     inkscape:window-width="1652"
     inkscape:window-height="948"
     inkscape:window-x="72"
     inkscape:window-y="27"
     inkscape:window-maximized="0"
     fit-margin-top="0"
     fit-margin-left="0"
     fit-margin-right="0"
     fit-margin-bottom="0" />
  <metadata
     id="metadata5">
    <rdf:RDF>
      <cc:Work
         rdf:about="">
        <dc:format>image/svg+xml</dc:format>
        <dc:type
           rdf:resource="http://purl.org/dc/dcmitype/StillImage" />
        <dc:title />
      </cc:Work>
    </rdf:RDF>
  </metadata>
  <g
     inkscape:label="Prenom"
     inkscape:groupmode="layer"
     id="layer1"
     transform="translate(-15.024811,-127.20651)"
     style="display:inline">
    <g
       aria-label="Mélinda"
       id="text1607"
       style="font-size:16.8575px;line-height:1.25;font-family:Madina;-inkscape-font-specification:Madina;stroke-width:0.421439" />
    <path
       id="path1635"
       style="font-style:normal;font-variant:normal;font-weight:normal;font-stretch:normal;font-size:16.8575px;line-height:1.25;font-family:Ananda;-inkscape-font-specification:Ananda;stroke-width:1.59284"
       d="m 124.23828,40.787109 c -0.15928,-0.02123 -0.28028,0.04274 -0.36523,0.191407 -0.12744,0.339804 -0.2554,0.699744 -0.38282,1.082031 -0.12742,0.339805 -0.27541,0.679726 -0.44531,1.019531 -2.16625,2.633474 -4.41775,5.522809 -6.7539,8.666016 -2.33616,3.100699 -4.71562,6.286014 -7.13672,9.55664 -2.37864,3.270627 -4.80009,6.561917 -7.26368,9.875 -2.421105,3.270627 -4.820581,6.413902 -7.199214,9.429688 -2.336156,3.015761 -4.629652,5.819139 -6.880859,8.410156 -2.208731,2.548536 -4.310289,4.758027 -6.306641,6.626953 -1.953877,1.868926 -3.801468,3.312617 -5.542968,4.332031 -1.699024,0.976858 -3.208649,1.380768 -4.525391,1.210938 -1.104365,-0.1699 -2.038174,-0.44584 -2.802735,-0.82812 -0.722086,-0.382292 -1.315972,-0.870203 -1.783203,-1.464849 -0.424756,-0.594671 -0.764677,-1.254496 -1.019531,-1.976562 -0.254861,-0.764573 -0.446798,-1.57041 -0.574219,-2.419922 -0.169902,-1.104353 -0.233888,-2.188104 -0.191406,-3.25 0.04248,-1.104378 0.106468,-2.166133 0.191406,-3.185547 0.21238,-2.038828 0.850221,-4.502285 1.91211,-7.390625 1.104365,-2.88834 2.484075,-5.903694 4.140625,-9.046875 1.656547,-3.185688 3.546142,-6.308945 5.669922,-9.367188 2.166256,-3.058242 4.41775,-5.775663 6.753906,-8.154296 2.378633,-2.42109 4.780062,-4.310703 7.201172,-5.669922 2.463584,-1.359219 4.819107,-1.913044 7.070312,-1.658203 0.722087,0.08496 1.275924,0.362853 1.658203,0.830078 0.424761,0.467225 0.700701,1.061112 0.828121,1.783203 0.16991,0.679609 0.23389,1.443457 0.19141,2.292969 0,0.80703 -0.086,1.614845 -0.25586,2.421875 -0.12742,0.807055 -0.27541,1.550859 -0.445311,2.230468 -0.16989,0.637128 -0.297849,1.147011 -0.382813,1.529297 -0.254846,0.891969 -0.148871,1.337891 0.31836,1.337891 0.467234,-0.04246 1.061114,-0.318418 1.783204,-0.828125 0.76456,-0.552189 1.50838,-1.254004 2.23047,-2.103516 0.76456,-0.849512 1.31644,-1.677345 1.65625,-2.484375 0.3398,-0.891993 0.44773,-1.975719 0.32031,-3.25 -0.12743,-1.316737 -0.46735,-2.570449 -1.01953,-3.759765 -0.55218,-1.189317 -1.31798,-2.207129 -2.29492,-3.056641 -0.97694,-0.849411 -2.12271,-1.295308 -3.439456,-1.337891 -2.88834,-0.04246 -5.735674,0.721391 -8.539063,2.292969 -2.803389,1.529121 -5.478808,3.58867 -8.027343,6.179688 -2.548536,2.548535 -4.926035,5.457888 -7.134766,8.728515 -2.208731,3.270627 -4.164258,6.605859 -5.863281,10.003907 -1.699024,3.398047 -3.078737,6.689337 -4.140625,9.875 -1.061891,3.185662 -1.719756,5.969023 -1.97461,8.347656 -0.169927,1.444182 -0.21387,3.141838 -0.128906,5.095703 0.04248,1.95389 0.320371,3.82346 0.830078,5.607422 0.552182,1.783991 1.38001,3.313631 2.484375,4.587891 1.146842,1.27418 2.67649,1.93203 4.587891,1.97461 1.316744,0.0425 2.632476,-0.23348 3.949218,-0.82813 1.359219,-0.59467 2.676905,-1.38049 3.951172,-2.35742 1.316745,-0.93445 2.590475,-2.0182 3.822266,-3.249998 1.274268,-1.231799 2.463994,-2.463514 3.568359,-3.695313 1.146843,-1.274255 2.20861,-2.484024 3.185547,-3.630859 1.019414,-1.14686 1.931244,-2.144629 2.738282,-2.994141 1.401693,-1.486639 2.741357,-3.038284 4.015624,-4.652343 1.316745,-1.656567 2.610498,-3.33418 3.884768,-5.033204 3.31309,-4.205077 6.47837,-8.474117 9.49414,-12.80664 3.05824,-4.332498 6.07358,-8.727557 9.04687,-13.1875 -1.52912,3.355565 -3.16475,6.880776 -4.90625,10.576172 -1.69902,3.69537 -3.37665,7.390567 -5.0332,11.085937 -1.61407,3.652914 -3.12174,7.178125 -4.52344,10.576172 -1.35922,3.398047 -2.44101,6.477362 -3.24804,9.238281 -0.76456,2.718438 -1.16846,5.011934 -1.210941,6.880856 -0.04248,1.86893 0.467401,3.08065 1.529301,3.63282 0.67961,0.38223 1.37947,0.48818 2.10156,0.31836 0.76456,-0.12742 1.4864,-0.42536 2.16601,-0.89258 0.72209,-0.42477 1.38191,-0.95662 1.97657,-1.59375 0.63713,-0.63713 1.14506,-1.25299 1.52734,-1.84766 4.03518,-6.583709 8.2842,-13.230249 12.74414,-19.941405 4.50241,-6.753613 9.32335,-13.44412 14.46289,-20.070313 -1.57159,3.143182 -3.12322,6.436424 -4.65234,9.876954 -1.52912,3.440529 -2.90883,6.859765 -4.14063,10.257812 -1.23179,3.355565 -2.22958,6.604841 -2.99414,9.748047 -0.72208,3.143181 -1.104,5.966578 -1.14648,8.472656 0,2.506049 0.4459,4.609569 1.33789,6.308589 0.89199,1.74151 2.37768,2.86725 4.45898,3.37696 1.35922,0.38239 2.73893,0.55235 4.14063,0.50976 1.40169,0 2.78336,-0.0639 4.14258,-0.1914 0.29733,-0.0425 0.65727,-0.23442 1.08203,-0.57422 0.46723,-0.29735 0.87113,-0.63727 1.21093,-1.01953 0.3398,-0.33981 0.55176,-0.65773 0.63672,-0.95508 0.12743,-0.25484 0.0434,-0.38281 -0.2539,-0.38281 -1.35922,0.46712 -2.80291,0.72304 -4.33203,0.76562 -1.52913,0.0849 -2.93081,-0.10699 -4.20508,-0.57422 -1.48665,-0.5097 -2.42241,-1.65549 -2.80469,-3.43945 -0.33979,-1.78399 -0.29585,-3.993479 0.12891,-6.626953 0.42475,-2.633499 1.16662,-5.564824 2.22851,-8.792969 1.10437,-3.228145 2.35807,-6.519435 3.75977,-9.875 1.44417,-3.398047 2.97382,-6.733279 4.58789,-10.003906 1.65655,-3.313109 3.24822,-6.328437 4.77734,-9.046875 1.52912,-2.760895 2.93081,-5.118376 4.20508,-7.072266 1.27427,-1.953864 2.27401,-3.29158 2.99609,-4.013672 0.0425,-0.169902 -0.0215,-0.423867 -0.1914,-0.763671 -0.1699,-0.382287 -0.40384,-0.766151 -0.70117,-1.148438 -0.29733,-0.424743 -0.65923,-0.848669 -1.08399,-1.273438 -0.38228,-0.424743 -0.7642,-0.806679 -1.14648,-1.146484 -0.38228,-0.382261 -0.78618,-0.680169 -1.21094,-0.892578 -0.42476,-0.212409 -0.76468,-0.212409 -1.01953,0 -5.52183,6.201449 -10.59673,12.679981 -15.22656,19.433594 -4.58737,6.753612 -9.04835,13.654117 -13.38086,20.705078 -1.48665,2.421115 -2.99432,4.822539 -4.52344,7.201172 -1.52912,2.378633 -2.99479,4.820118 -4.39649,7.326172 -0.1699,0.254866 -0.42386,0.636777 -0.76367,1.146484 -0.29733,0.467225 -0.63725,0.95709 -1.01953,1.466797 -0.3398,0.509707 -0.67973,0.975643 -1.01953,1.400393 -0.3398,0.38218 -0.61574,0.59413 -0.82813,0.63672 -0.1699,0.0849 -0.2539,-0.0631 -0.2539,-0.44532 0,-0.38228 0.18998,-1.082145 0.57226,-2.101559 1.01942,-2.973304 2.06116,-5.776682 3.12305,-8.410156 1.06189,-2.675956 2.16566,-5.289355 3.3125,-7.837891 1.14684,-2.591017 2.31459,-5.18242 3.50391,-7.773437 1.23179,-2.633499 2.50552,-5.39291 3.82226,-8.28125 1.31675,-2.88834 2.67643,-5.96768 4.07813,-9.238281 1.44417,-3.313109 2.95184,-6.946249 4.52344,-10.896485 0.0849,-0.424743 -0.043,-0.996658 -0.38282,-1.71875 -0.3398,-0.722091 -0.74175,-1.401935 -1.20898,-2.039062 -0.46723,-0.67961 -0.93511,-1.211464 -1.40235,-1.59375 -0.23361,-0.191118 -0.43055,-0.297131 -0.58984,-0.31836 z m 58.61719,8.410157 c -0.28671,-0.02123 -0.53762,0.02075 -0.75,0.126953 -0.29733,1.104378 -0.67925,2.316075 -1.14649,3.632812 -0.46723,1.316737 -1.01911,2.696443 -1.65625,4.140625 -0.59465,1.444158 -1.2325,2.929863 -1.91211,4.458985 -0.6796,1.486639 -1.37947,2.974273 -2.10156,4.460937 -1.10436,2.208731 -2.23011,4.396251 -3.37695,6.5625 -1.10437,2.166249 -2.16613,4.353769 -3.18555,6.5625 -0.49677,1.101549 -0.96634,2.214385 -1.4082,3.337891 -0.41667,0.749786 -0.85086,1.517747 -1.33203,2.332031 -0.55219,0.934476 -1.16805,1.890255 -1.84766,2.867188 -1.35922,1.953864 -2.73893,3.611484 -4.14062,4.970703 -1.4017,1.359219 -2.78141,2.462988 -4.14063,3.3125 -1.31674,0.807055 -2.59242,1.358927 -3.82422,1.65625 -1.18931,0.254992 -2.25108,0.276862 -3.18554,0.06445 -0.76456,-0.169903 -1.40045,-0.487828 -1.91016,-0.955078 -0.50971,-0.467226 -0.91361,-1.021076 -1.21094,-1.658204 -0.29733,-0.637127 -0.5093,-1.316971 -0.63672,-2.039062 -0.12744,-0.722091 -0.17138,-1.443924 -0.1289,-2.166016 3.73785,-1.019414 7.15709,-2.653109 10.25781,-4.904296 3.10072,-2.293695 5.60813,-5.161034 7.51953,-8.601563 0.76457,-1.189317 1.21047,-2.295039 1.33789,-3.314453 0.1699,-1.061896 0.084,-1.973733 -0.25586,-2.738281 -0.3398,-0.80703 -0.89169,-1.444859 -1.65625,-1.91211 -0.72208,-0.467225 -1.59191,-0.701172 -2.61133,-0.701172 -1.57159,-0.04248 -3.14324,0.213436 -4.71484,0.765625 -1.57159,0.552189 -3.05924,1.274022 -4.46094,2.166016 -1.40169,0.891969 -2.67542,1.867791 -3.82226,2.929688 -1.14684,1.019414 -2.06063,1.975193 -2.74024,2.867187 -2.12378,2.803402 -3.67345,5.416801 -4.65039,7.837891 -0.93447,2.378633 -1.36035,4.778103 -1.27539,7.199218 0.12743,2.6335 0.99921,4.71502 2.61328,6.244141 1.61408,1.529128 3.86557,2.292968 6.75391,2.292968 0.50971,0 1.16757,-0.0219 1.97461,-0.0644 0.80704,0 1.72082,-0.10595 2.74023,-0.31836 1.01942,-0.25484 2.10121,-0.65875 3.24805,-1.210939 1.14684,-0.594671 2.33657,-1.442522 3.56836,-2.546875 1.23179,-1.104378 2.33556,-2.25209 3.3125,-3.441407 1.01941,-1.231773 1.9332,-2.441542 2.74023,-3.630859 0.075,-0.108696 0.13925,-0.210655 0.21289,-0.318359 -0.23968,1.027815 -0.44243,2.067349 -0.5957,3.121094 -0.21238,1.104352 -0.29639,2.166132 -0.25391,3.185546 0.085,0.976933 0.27494,1.848708 0.57227,2.613282 0.33981,0.764548 0.80769,1.380405 1.40234,1.847657 0.63714,0.42464 1.40099,0.65664 2.29297,0.69922 0.76456,0 1.46638,-0.0841 2.10352,-0.25391 0.67961,-0.21238 1.29547,-0.44633 1.84766,-0.701171 0.59465,-0.297348 1.12651,-0.615273 1.59374,-0.955078 0.46724,-0.339804 0.84916,-0.637737 1.14649,-0.892578 1.18932,-0.976932 2.27111,-2.060683 3.24805,-3.25 0.7092,-0.827409 1.36326,-1.682249 1.99023,-2.550781 -0.0242,0.08378 -0.0553,0.175626 -0.0781,0.257813 -0.3398,1.104352 -0.53174,2.144161 -0.57422,3.121093 -0.0425,0.976958 0.0655,1.848733 0.32031,2.613281 0.25485,0.764574 0.6568,1.380432 1.20898,1.847661 0.55219,0.46712 1.27403,0.72109 2.16602,0.76367 0.72208,0 1.42391,-0.0841 2.10352,-0.25391 0.72208,-0.21238 1.37995,-0.44633 1.9746,-0.701171 0.59466,-0.297348 1.12652,-0.615273 1.59375,-0.955078 0.46724,-0.339804 0.87114,-0.637737 1.21094,-0.892578 2.59101,-1.996346 4.82053,-4.16187 6.68945,-6.498047 0.72347,-0.920778 1.4377,-1.879361 2.14844,-2.857421 -0.16355,0.549065 -0.33744,1.095216 -0.49218,1.646484 -0.63715,2.378633 -1.01907,4.820118 -1.14649,7.326172 0.0425,0.339804 0.29644,0.723669 0.76367,1.148437 0.46724,0.424744 0.97712,0.80668 1.5293,1.146492 0.59466,0.29727 1.12652,0.50922 1.59375,0.63671 0.46723,0.1275 0.69922,0.0415 0.69922,-0.25585 0.21238,-2.80341 0.68026,-5.456845 1.40234,-7.962899 0.72209,-2.548535 1.61389,-5.054006 2.67578,-7.517578 1.35922,-1.656567 2.67691,-3.166171 3.95117,-4.52539 1.27427,-1.359219 2.73994,-2.780939 4.39649,-4.267578 1.48664,-1.274281 2.59041,-2.040081 3.3125,-2.294922 0.72208,-0.297248 1.16799,-0.233337 1.33789,0.191406 0.16989,0.424768 0.1279,1.104612 -0.12695,2.039062 -0.25486,0.891994 -0.61676,1.889763 -1.08399,2.994141 -0.72208,1.74148 -1.37995,3.335114 -1.97461,4.779297 -0.59466,1.401701 -1.10454,2.719399 -1.52929,3.951172 -0.38228,1.189316 -0.70023,2.335075 -0.95508,3.439453 -0.25485,1.061896 -0.40479,2.145647 -0.44727,3.25 -0.0425,1.104378 0.0855,2.060157 0.38281,2.867187 0.29734,0.80703 0.70124,1.464903 1.21094,1.97461 0.50971,0.509707 1.1036,0.891619 1.78321,1.146489 0.72208,0.25484 1.44392,0.38281 2.16601,0.38281 1.27427,0 2.59195,-0.4459 3.95117,-1.337893 1.35922,-0.93445 2.63295,-2.03822 3.82227,-3.3125 1.23179,-1.274255 2.35754,-2.591953 3.37695,-3.951172 0.27664,-0.380374 0.49683,-0.700909 0.74219,-1.046875 -0.0469,0.593516 -0.0693,1.239458 -0.041,2.001953 0.0849,1.146835 0.3609,2.252557 0.82813,3.314453 0.46723,1.061896 1.18908,1.995705 2.16601,2.802735 1.01942,0.764599 2.44308,1.188529 4.26954,1.273439 1.01941,0.085 2.0592,-0.10501 3.12109,-0.57226 1.06189,-0.509714 2.10363,-1.167587 3.12305,-1.974617 1.01941,-0.80703 1.99522,-1.72082 2.92968,-2.740234 0.97694,-1.019414 1.89073,-2.061151 2.74024,-3.123047 -0.29733,1.061896 -0.44531,2.103633 -0.44531,3.123047 0.0425,1.019414 0.25443,1.933204 0.63671,2.740234 0.38228,0.80703 0.93417,1.464903 1.65625,1.974617 0.76457,0.50975 1.74038,0.80766 2.92969,0.89257 0.76456,0.0423 1.46638,-0.0216 2.10352,-0.1914 0.67961,-0.21239 1.29547,-0.4683 1.84765,-0.765631 0.59466,-0.297348 1.10454,-0.615273 1.5293,-0.955078 0.46723,-0.339804 0.84915,-0.637737 1.14649,-0.892578 1.18931,-0.976932 2.27306,-2.060683 3.25,-3.25 0.98439,-1.148461 1.90591,-2.338718 2.77148,-3.566406 -0.0406,0.570479 -0.0599,1.18818 -0.0332,1.910156 0.0849,1.146835 0.36089,2.252557 0.82812,3.314453 0.46723,1.061896 1.19103,1.995705 2.16797,2.802735 1.01941,0.764599 2.44113,1.190479 4.26758,1.275389 1.01941,0.085 2.06115,-0.10696 3.12305,-0.57421 1.06188,-0.509714 2.10167,-1.167587 3.12109,-1.974617 1.01941,-0.80703 1.99718,-1.72082 2.93164,-2.740234 0.97694,-1.019414 1.88877,-2.059198 2.73828,-3.121094 -0.29733,1.061896 -0.44531,2.10168 -0.44531,3.121094 0.0425,1.019414 0.25444,1.933204 0.63672,2.740234 0.38228,0.80703 0.93416,1.464903 1.65625,1.974617 0.76456,0.50975 1.74232,0.80766 2.93164,0.89257 0.76456,0.0423 1.46638,-0.0216 2.10351,-0.1914 0.67961,-0.21239 1.29548,-0.4683 1.84766,-0.765631 0.59466,-0.297348 1.10259,-0.615273 1.52734,-0.955078 0.46724,-0.339804 0.85111,-0.637737 1.14844,-0.892578 1.18932,-0.976932 2.27111,-2.05873 3.24805,-3.248047 1.01941,-1.189316 1.9752,-2.421032 2.86719,-3.695312 0.89198,-1.274255 1.74179,-2.591953 2.54882,-3.951172 0.80704,-1.359219 1.63487,-2.69691 2.48438,-4.013672 0.16993,-0.297298 0.21387,-0.553215 0.1289,-0.765625 -0.0849,-0.212309 -0.23488,-0.382269 -0.44726,-0.509766 -0.1699,-0.127496 -0.38187,-0.169535 -0.63672,-0.126953 -0.25486,0 -0.4468,0.10595 -0.57422,0.31836 -0.76456,1.274255 -1.61241,2.675957 -2.54687,4.205078 -0.89199,1.529121 -1.89173,2.994783 -2.9961,4.396484 -1.06189,1.401701 -2.22964,2.655413 -3.5039,3.759766 -1.2318,1.104378 -2.56951,1.868225 -4.01368,2.292969 h -0.76367 c -0.46724,-0.04248 -0.76516,-0.296447 -0.89258,-0.763672 -0.085,-0.467225 -0.085,-1.063065 0,-1.785156 0.12743,-0.764549 0.3394,-1.592382 0.63672,-2.484376 0.33981,-0.934475 0.67973,-1.868283 1.01953,-2.802734 0.38229,-0.934475 0.74418,-1.848266 1.08399,-2.740234 0.38228,-0.891994 0.70022,-1.655841 0.95508,-2.292969 0.21238,-0.679609 0.12642,-1.381424 -0.25586,-2.103516 -0.38228,-0.722091 -0.89021,-1.357967 -1.52735,-1.910156 -0.63713,-0.552164 -1.31697,-0.978042 -2.03906,-1.275391 -0.72208,-0.297322 -1.29595,-0.339362 -1.7207,-0.126953 -0.0849,0.849512 -0.29692,1.847306 -0.63672,2.994141 -0.29733,1.146835 -0.67925,2.336561 -1.14649,3.568359 -0.55218,0.891994 -1.27598,1.931778 -2.16796,3.121094 -0.89199,1.189317 -1.84778,2.337054 -2.86719,3.441406 -0.97694,1.061896 -1.95275,1.995705 -2.92969,2.802735 -0.97694,0.80713 -1.80476,1.29697 -2.48437,1.466797 -1.44417,0.339754 -2.50594,0.275844 -3.18555,-0.191407 -0.67961,-0.467225 -1.12551,-1.12705 -1.33789,-1.976562 -0.21236,-0.891994 -0.25633,-1.847773 -0.12891,-2.867188 0.12742,-1.019414 0.29738,-1.889262 0.50977,-2.611328 0.29733,-1.061896 0.70123,-2.209608 1.21094,-3.441406 0.55218,-1.274255 1.19002,-2.526014 1.91211,-3.757812 0.72208,-1.274281 1.52793,-2.485978 2.41992,-3.632813 0.89198,-1.189317 1.84777,-2.2291 2.86718,-3.121094 1.01942,-0.891993 2.08119,-1.593808 3.18555,-2.103515 1.14684,-0.509808 2.31459,-0.741802 3.50391,-0.699219 0.97693,0.04248 1.72076,0.296447 2.23047,0.763672 0.5097,0.467225 0.8716,1.019097 1.08398,1.65625 0.25485,0.594645 0.40283,1.2325 0.44531,1.912109 0.0849,0.637153 0.1709,1.167054 0.25586,1.591797 0,0.33988 0.084,0.595798 0.25391,0.765625 0.1699,0.169827 0.36183,0.253906 0.57422,0.253906 0.25484,-0.04258 0.48879,-0.148532 0.70117,-0.318359 0.21238,-0.169902 0.31836,-0.403849 0.31836,-0.701172 0.0425,-0.891994 0.0205,-1.783788 -0.0645,-2.675781 -0.085,-0.934451 -0.2769,-1.782302 -0.57422,-2.546875 -0.29733,-0.80703 -0.72126,-1.486874 -1.27344,-2.039063 -0.50971,-0.594645 -1.18955,-1.020524 -2.03906,-1.27539 -1.95388,-0.509833 -3.86545,-0.529751 -5.73438,-0.0625 -1.86892,0.424743 -3.67451,1.18859 -5.41601,2.292968 -1.69903,1.061871 -3.31268,2.399587 -4.8418,4.013672 -1.48665,1.571603 -2.80238,3.249241 -3.94922,5.033203 -1.14684,1.741506 -2.0826,3.505075 -2.80469,5.289063 -0.0566,0.139791 -0.10084,0.27219 -0.15429,0.410156 -0.10454,0.171356 -0.18427,0.305787 -0.29102,0.480469 -0.89199,1.529121 -1.88977,2.994783 -2.99414,4.396484 -1.06189,1.401701 -2.22964,2.655413 -3.50391,3.759766 -1.23179,1.104378 -2.5695,1.868225 -4.01367,2.292969 h -0.76562 c -0.55219,-0.04248 -0.91213,-0.340415 -1.08203,-0.892578 -0.12742,-0.552189 -0.12742,-1.252051 0,-2.101563 0.12742,-0.891994 0.35941,-1.869745 0.69921,-2.931641 0.33981,-1.104352 0.74371,-2.166132 1.21094,-3.185546 v 0.128906 c 1.2318,-3.355566 2.65546,-6.584823 4.26953,-9.685547 1.61408,-3.100725 3.20575,-6.180039 4.77735,-9.238281 0.72208,-1.359219 1.44393,-2.760921 2.16601,-4.205078 0.76456,-1.48664 1.46638,-2.888316 2.10352,-4.205079 0.67961,-1.316737 1.25347,-2.484492 1.7207,-3.503906 0.50971,-1.061896 0.84963,-1.847715 1.01953,-2.357422 0.21238,-0.679609 0.12642,-1.381449 -0.25586,-2.103515 -0.38228,-0.722092 -0.89216,-1.33795 -1.52929,-1.847657 -0.59466,-0.552189 -1.25253,-0.954143 -1.97461,-1.208984 -0.67961,-0.297323 -1.2315,-0.341316 -1.65625,-0.128906 -0.29733,1.104378 -0.67926,2.316075 -1.14649,3.632812 -0.42475,1.316737 -0.95661,2.718439 -1.59375,4.205078 -0.59466,1.444183 -1.25252,2.929863 -1.97461,4.458985 -0.67961,1.486639 -1.42343,2.952301 -2.23047,4.396484 l -3.3125,6.244141 c -0.29732,-0.80703 -0.7232,-1.506892 -1.27539,-2.101563 -0.5097,-0.594645 -1.18759,-1.020524 -2.03711,-1.27539 -1.95387,-0.509833 -3.86544,-0.531704 -5.73437,-0.06445 -1.86893,0.424744 -3.67452,1.190544 -5.41602,2.294922 -1.69902,1.061871 -3.31267,2.399587 -4.84179,4.013672 -1.48665,1.571603 -2.80434,3.249241 -3.95117,5.033203 -1.14685,1.741506 -2.08066,3.505075 -2.80274,5.289063 -0.0784,0.193732 -0.14244,0.378134 -0.21484,0.568359 -0.31392,0.504749 -0.64306,1.015419 -0.9961,1.533203 -1.65654,2.463597 -3.35615,4.439142 -5.09765,5.925782 -1.69903,1.486639 -3.1647,2.526423 -4.39649,3.121093 -0.46723,0.21241 -0.84915,0.31836 -1.14648,0.31836 -0.29733,0 -0.53127,-0.06391 -0.70117,-0.191407 -0.12742,-0.127496 -0.21143,-0.275485 -0.25391,-0.445312 -0.0425,-0.169827 -0.0644,-0.317816 -0.0644,-0.445312 0.12742,-1.783988 0.40337,-3.377622 0.82812,-4.779297 0.42476,-1.444183 0.9786,-2.929863 1.65821,-4.458985 0.6796,-1.571603 1.46543,-3.335198 2.35742,-5.289062 0.89198,-1.996347 1.86779,-4.437807 2.92968,-7.326172 0.16991,-0.467225 0.14794,-0.999104 -0.0644,-1.59375 -0.21238,-0.594671 -0.53032,-1.146543 -0.95508,-1.65625 -0.38228,-0.552189 -0.85016,-0.998086 -1.40234,-1.337891 -0.50971,-0.382261 -0.99761,-0.574219 -1.46484,-0.574219 -1.14684,0.08494 -2.27259,0.3609 -3.37696,0.828126 -1.10436,0.46725 -2.18615,1.083108 -3.24804,1.847656 -1.06189,0.722091 -2.10364,1.551877 -3.12305,2.486328 -1.01942,0.934475 -1.9752,1.890255 -2.86719,2.867187 0.25485,-0.467225 0.48879,-0.915075 0.70117,-1.339843 0.21239,-0.424744 0.38235,-0.870666 0.50977,-1.337891 0.21238,-0.679609 0.12837,-1.379471 -0.25391,-2.101563 -0.38228,-0.722091 -0.89216,-1.35992 -1.52929,-1.912109 -0.63714,-0.552164 -1.31698,-0.954118 -2.03907,-1.208984 -0.67961,-0.297323 -1.23149,-0.341316 -1.65625,-0.128907 -0.72208,2.42109 -1.55186,4.820586 -2.48633,7.199219 -0.9274,2.360701 -1.81251,4.743991 -2.65624,7.146485 -0.83275,1.184242 -1.71892,2.422091 -2.69532,3.75 -1.01941,1.444157 -2.12318,2.823862 -3.3125,4.140625 -1.14684,1.316737 -2.37857,2.506463 -3.69531,3.568359 -1.31674,1.019414 -2.74041,1.741272 -4.26953,2.166016 h -0.70117 c -0.76458,-0.04248 -1.1045,-0.530394 -1.01953,-1.464844 0.12742,-0.976932 0.46735,-2.208648 1.01953,-3.695313 0.59466,-1.486639 1.36046,-3.122287 2.29492,-4.90625 0.93446,-1.783987 1.84629,-3.503614 2.73828,-5.160156 0.93446,-1.699023 1.78427,-3.2067 2.54883,-4.523437 0.80703,-1.316763 1.33889,-2.272542 1.59375,-2.867188 0.29732,-0.679609 0.27535,-1.381424 -0.0645,-2.103516 -0.29734,-0.722091 -0.74324,-1.35992 -1.3379,-1.912109 -0.55218,-0.552164 -1.18807,-0.954118 -1.91015,-1.208984 -0.67961,-0.297323 -1.23345,-0.341316 -1.65821,-0.128907 -0.59465,1.571578 -1.38048,3.419177 -2.35742,5.542969 -0.97694,2.08131 -1.97472,4.226816 -2.99414,6.435547 -0.44291,0.941178 -0.86825,1.869778 -1.28711,2.794922 -0.55619,0.890347 -1.09643,1.748881 -1.70703,2.748047 -0.89199,1.529121 -1.86975,2.994783 -2.93164,4.396484 -1.06189,1.401701 -2.22964,2.655413 -3.5039,3.759766 -1.2318,1.104378 -2.56951,1.868225 -4.01368,2.292969 h -0.76367 c -0.80705,-0.04248 -1.16895,-0.678383 -1.08398,-1.910157 0.0849,-1.231798 0.42487,-2.783417 1.01953,-4.652343 0.63713,-1.868926 1.44494,-3.928475 2.42187,-6.179688 0.97694,-2.251212 1.95275,-4.396718 2.92969,-6.435547 1.01941,-2.038828 1.9332,-3.844412 2.74024,-5.416015 0.80703,-1.61406 1.35891,-2.71783 1.65624,-3.3125 0.67961,-1.359219 1.40146,-2.760921 2.16602,-4.205078 0.76456,-1.48664 1.46638,-2.888316 2.10352,-4.205079 0.63713,-1.316737 1.18902,-2.484492 1.65625,-3.503906 0.5097,-1.061896 0.84963,-1.847715 1.01953,-2.357422 0.25486,-0.679609 0.19087,-1.381449 -0.19141,-2.103515 -0.38228,-0.722092 -0.89216,-1.33795 -1.5293,-1.847657 -0.63713,-0.552189 -1.31697,-0.956096 -2.03906,-1.210937 -0.36104,-0.148662 -0.68399,-0.232678 -0.9707,-0.253906 z m 13.77734,2.039062 c -0.0425,0.934451 -0.19046,1.932245 -0.44531,2.994141 -0.21238,1.019414 -0.4683,2.039179 -0.76562,3.058593 -0.25485,1.019415 -0.48879,1.997191 -0.70118,2.931641 -0.21237,0.934476 -0.33837,1.762284 -0.38086,2.484375 0,0.339805 0.10598,0.743712 0.31836,1.210938 0.25486,0.424743 0.55082,0.87064 0.89063,1.33789 0.3398,0.424744 0.7017,0.80668 1.08398,1.146485 0.42476,0.339704 0.80668,0.529683 1.14649,0.572265 0.21238,-0.849512 0.53227,-1.697363 0.95703,-2.546875 l 1.27344,-2.548828 c 0.46723,-0.891994 0.89115,-1.741798 1.27343,-2.548828 0.42475,-0.849512 0.74465,-1.677345 0.95703,-2.484375 0,-0.254866 -0.21391,-0.700763 -0.63867,-1.337891 -0.42475,-0.679609 -0.95466,-1.339435 -1.59179,-1.976562 -0.59466,-0.637153 -1.21053,-1.189025 -1.84766,-1.65625 -0.63713,-0.467326 -1.14702,-0.679302 -1.5293,-0.636719 z m -26.65625,2.126953 c -0.0372,-0.0053 -0.0717,0.0072 -0.10351,0.03906 l -9.81055,10.513672 c -0.21238,0.339804 -0.21238,0.635784 0,0.890625 0.25485,0.212409 0.53079,0.212409 0.82812,0 0.89199,-0.509707 1.73984,-0.95563 2.54688,-1.337891 0.80703,-0.424769 1.61484,-0.870665 2.42188,-1.337891 0.84951,-0.467225 1.69931,-0.955136 2.54882,-1.464843 0.84951,-0.552189 1.7633,-1.210037 2.74024,-1.97461 0.12744,-0.169902 0.14746,-0.553792 0.0625,-1.148437 -0.0425,-0.637128 -0.14846,-1.273004 -0.31836,-1.910157 -0.12742,-0.679609 -0.29738,-1.253477 -0.50977,-1.720703 -0.15929,-0.350475 -0.29475,-0.532925 -0.40625,-0.548828 z m 82.85156,18.132813 c 1.35922,0.08496 2.27301,0.532814 2.74024,1.339844 0.50971,0.764548 0.82766,1.57041 0.95508,2.419921 -0.63714,1.359244 -1.27498,2.696935 -1.91211,4.013672 -0.59466,1.274255 -1.14654,2.569957 -1.65625,3.886719 l -0.63672,1.912109 c -0.55218,0.891994 -1.27403,1.931778 -2.16602,3.121094 -0.89198,1.189317 -1.84777,2.337054 -2.86718,3.441406 -0.97694,1.061896 -1.95471,1.995705 -2.93164,2.802735 -0.97694,0.80713 -1.80477,1.295017 -2.48438,1.464844 -1.44417,0.339754 -2.50594,0.277797 -3.18555,-0.189454 -0.6796,-0.467225 -1.1255,-1.12705 -1.33789,-1.976562 -0.21238,-0.891994 -0.25437,-1.847773 -0.12695,-2.867188 0.12742,-1.019414 0.29738,-1.889262 0.50977,-2.611328 0.29732,-1.061896 0.69927,-2.209608 1.20898,-3.441406 0.55218,-1.274255 1.19003,-2.526014 1.91211,-3.757812 0.72209,-1.274281 1.52989,-2.485978 2.42187,-3.632813 0.89199,-1.189317 1.84778,-2.2291 2.86719,-3.121094 1.01942,-0.891993 2.08118,-1.593808 3.18555,-2.103515 1.14684,-0.509808 2.31459,-0.743755 3.5039,-0.701172 z m -92.5957,0.390625 c 0.72474,0.04779 1.19888,0.407195 1.42188,1.076172 0.29732,0.849511 0.14934,1.889295 -0.44532,3.121093 -1.69902,3.228145 -3.93049,5.925523 -6.6914,8.091797 -2.76092,2.123767 -5.86026,3.673459 -9.30078,4.650391 0,-0.08491 0.02,-0.168993 0.0625,-0.253906 0.3398,-1.359219 0.93564,-2.908911 1.78515,-4.650391 0.84951,-1.783987 1.8893,-3.505568 3.1211,-5.162109 1.23179,-1.656567 2.63348,-3.12223 4.20507,-4.396485 1.5716,-1.27428 3.24923,-2.080117 5.03321,-2.419922 0.29733,-0.05309 0.56701,-0.07257 0.80859,-0.05664 z"
       transform="matrix(0.26458333,0,0,0.26458333,0.99250983,119.16721)" />
  </g>
  <g
     inkscape:groupmode="layer"
     id="layer2"
     inkscape:label="Ext"
     style="display:inline">
    <path
       id="text1615"
       style="font-size:10.5833px;line-height:1.25;font-family:Madina;-inkscape-font-specification:Madina;fill:none;fill-opacity:1;stroke:#000000;stroke-width:1.59284;stroke-opacity:1"
       d="m 71.271484,0.796875 c -0.3453,-0.0033 -0.695641,0.0108388 -1.050781,0.0429687 -5.18713,0.643389 -8.251226,5.5059457 -10.441406,9.7597653 C 55.151687,1.6231935 42.663897,0.40321518 34.505859,5.0800781 18.227472,13.860185 8.7710814,30.998426 2.8671875,47.875 c -3.49384796,10.973896 -3.20631688,25.020458 6,33.111328 8.9839895,6.42036 21.5915985,1.723926 27.8789065,-6.302734 2.701202,-1.67017 1.4744,3.137744 3.177734,4.083984 4.974921,7.46242 17.216922,6.409501 22.076172,-0.662109 2.44636,0.0718 2.57446,4.061747 4.84375,5.148437 8.27054,7.69229 23.272247,6.713852 29.654297,-2.892578 3.40694,-1.19962 7.192653,-1.273734 10.441403,-2.927734 4.71465,1.97367 10.13602,3.892521 15.06641,1.300781 2.63957,-1.47704 5.09668,1.833789 8.06445,1.261719 3.76158,0.28649 7.44934,-1.613965 10.67578,-2.740235 4.65047,2.93303 11.32756,3.43853 15.61524,-0.43164 5.29101,4.59493 13.28112,3.302938 19.00195,0.173828 5.41016,3.20134 12.39825,3.32629 18.04688,0.681641 5.60843,3.665879 12.97853,2.381059 18.55468,-0.65625 5.48557,3.383549 12.59782,2.953428 18.26172,0.798828 9.43729,5.37857 21.24373,-0.559014 26.39844,-9.183594 4.10233,-5.608593 9.92361,-11.966403 8.53516,-19.41211 -1.58963,-5.579715 -8.15002,-8.563376 -13.54688,-7.136718 -0.11685,-1.33272 -0.44294,-2.588723 -0.91016,-3.771485 a 11.148832,11.148832 0 0 0 2.30665,-6.791015 11.148832,11.148832 0 0 0 -0.48829,-3.265625 9.2906912,9.2906912 0 0 0 -8.65039,-7.701172 11.148832,11.148832 0 0 0 -2.00976,-0.183594 11.148832,11.148832 0 0 0 -10.83399,8.527344 c -0.5535,0.155692 -1.102,0.33295 -1.63867,0.556641 -0.45041,-2.204031 1.78633,-5.084219 0.84961,-7.720704 -1.1912,-10.24267 -15.35124,-16.8367552 -23.16406,-9.166015 -1.27922,5.537613 -3.30965,10.880149 -5.77539,15.992187 -7.21198,-0.756359 -14.16392,2.492175 -19.77539,6.761719 -4.47081,-6.010545 -13.76594,-8.829187 -20.14063,-4.246094 -4.29172,-0.670828 -2.04393,-5.496712 -3.46093,-8.300781 -2.70794,-8.714155 -12.38119,-13.2882055 -21.06055,-12.085938 -3.82509,-1.2797095 -8.27295,-2.2967213 -12.11719,-0.154296 -2.47818,0.580347 -3.48183,4.590568 -6.13867,2.693359 -4.04143,-1.243956 -7.76797,2.672609 -10.24219,4.691406 C 108.07785,9.2937564 100.10598,0.31236578 90.996094,2.4648438 87.395204,3.4339147 84.770096,6.3896459 82.728516,9.3417969 80.496676,4.9167639 76.450764,0.845706 71.271484,0.796875 Z"
       transform="scale(0.26458333)" />
    <path
       id="path937"
       style="fill:none;fill-opacity:1;stroke:#000000;stroke-width:0.0502055;stroke-linejoin:round;stroke-opacity:1"
       d="m 80.49228,135.54791 a 1.4748976,1.4748976 0 0 1 -1.474898,1.4749 1.4748976,1.4748976 0 0 1 -1.474897,-1.4749 1.4748976,1.4748976 0 0 1 1.474897,-1.47489 1.4748976,1.4748976 0 0 1 1.474898,1.47489 z"
       transform="translate(-15.024811,-127.20651)" />
  </g>
</svg>
