<?xml version="1.0" encoding="UTF-8" standalone="no"?>
<svg
   version="1.1"
   id="svg1574"
   width="900"
   height="740"
   viewBox="0 0 900 740"
   sodipodi:docname="Guadeloupe.svg"
   inkscape:version="1.1 (c68e22c387, 2021-05-23)"
   xmlns:inkscape="http://www.inkscape.org/namespaces/inkscape"
   xmlns:sodipodi="http://sodipodi.sourceforge.net/DTD/sodipodi-0.dtd"
   xmlns="http://www.w3.org/2000/svg"
   xmlns:svg="http://www.w3.org/2000/svg"
   xmlns:rdf="http://www.w3.org/1999/02/22-rdf-syntax-ns#"
   xmlns:cc="http://creativecommons.org/ns#"
   xmlns:dc="http://purl.org/dc/elements/1.1/">
  <metadata
     id="metadata1580">
    <rdf:RDF>
      <cc:Work
         rdf:about="">
        <dc:format>image/svg+xml</dc:format>
        <dc:type
           rdf:resource="http://purl.org/dc/dcmitype/StillImage" />
      </cc:Work>
    </rdf:RDF>
  </metadata>
  <defs
     id="defs1578">
    <rect
       x="361.80124"
       y="440.2704"
       width="144.7944"
       height="101.72737"
       id="rect2388" />
    <filter
       inkscape:collect="always"
       style="color-interpolation-filters:sRGB"
       id="filter2396"
       x="-0.00029346001"
       width="1.0005869"
       y="-0.00029432416"
       height="1.0005886">
      <feGaussianBlur
         inkscape:collect="always"
         stdDeviation="0.067103138"
         id="feGaussianBlur2398" />
    </filter>
  </defs>
  <sodipodi:namedview
     pagecolor="#ffffff"
     bordercolor="#666666"
     borderopacity="1"
     objecttolerance="10"
     gridtolerance="10"
     guidetolerance="10"
     inkscape:pageopacity="0"
     inkscape:pageshadow="2"
     inkscape:window-width="1920"
     inkscape:window-height="1017"
     id="namedview1576"
     showgrid="false"
     inkscape:zoom="2.0470873"
     inkscape:cx="303.6021"
     inkscape:cy="140.93195"
     inkscape:window-x="-8"
     inkscape:window-y="-8"
     inkscape:window-maximized="1"
     inkscape:current-layer="layer1"
     inkscape:pagecheckerboard="0" />
  <g
     inkscape:groupmode="layer"
     id="layer1"
     inkscape:label="contour"
     style="display:inline"
     sodipodi:insensitive="true">
    <path
       style="fill:none;stroke:#000000;stroke-width:1px;stroke-linecap:butt;stroke-linejoin:miter;stroke-opacity:1"
       d="m 370.64546,64.865582 c 0,0 1.92684,3.127088 0.80954,5.072867 -1.11729,1.945778 1.88351,3.615426 1.88351,3.615426 l 0.24414,2.546559 -1.10507,0.613962 0.65629,1.879856 2.01143,0.0498 0.86721,-1.519313 1.87517,0.186835 1.11385,1.250692 4.50619,-0.407678 0.15413,2.225311 2.39329,-0.53055 2.7538,-2.137765 4.54872,0.271658 0.86859,3.423593 0.53662,3.200344 5.84638,4.440856 1.82843,0.210924 3.9594,4.024981 2.06034,0.278126 6.67368,7.646724 0.94765,0.26269 0.51259,-1.39992 1.4051,0.39226 11.27264,10.55914 0.26531,2.61157 2.09862,2.69589 0.0911,5.79301 1.66985,2.24635 0.0253,4.43079 2.93692,0.70086 0.36778,4.17103 1.7974,0.8997 3.0385,10.71228 1.01667,0.24408 -0.0264,3.05563 -1.23717,0.51378 0.25325,2.05729 1.87814,0.74556 -0.031,6.37249 -3.2391,2.56879 0.46285,8.79534 -1.57424,1.85526 -2.65602,-0.0724 0.0391,2.1894 2.6063,2.15599 -0.72862,9.39213 0.37519,3.69312 -1.06458,0.62499 -0.13226,1.72295 2.55701,1.8925 0.39547,2.02512 1.39991,1.91472 0.57912,3.85851 5.14365,8.01661 0.15286,1.49625 2.56166,2.26679 1.10606,-0.0765 9.40501,13.38769 6.68973,6.66915 6.11788,3.67423 4.62102,0.53768 0.48327,4.69018 1.58332,-0.0155 2.59351,-2.85224 6.26221,0.64858 11.84974,0.91199 3.71389,3.63388 2.60207,-3.58806 4.59902,-0.18961 5.07264,-0.58196 2.46762,0.7557 2.62225,1.88949 10.45046,0.0442 1.78182,-1.6705 2.20735,-0.0821 5.2254,5.47587 c 0,0 4.45896,-0.27685 4.35188,-0.098 -0.10707,0.17885 2.72529,-2.25309 2.72529,-2.25309 l 1.23198,1.32066 0.45537,3.39537 4.05316,0.0327 2.75007,1.87334 3.33383,-1.8568 1.92042,1.07821 1.93443,1.07133 1.6273,2.49049 3.24219,0.53716 3.53737,3.46945 1.97423,0.12195 1.78577,2.29117 3.08084,0.22908 3.11431,4.46787 4.87395,0.34774 2.06415,1.47091 0.92907,2.53125 3.01738,1.81188 1.84103,6.39249 1.19707,0.63298 6.80976,12.9429 1.57965,1.32114 -0.002,1.97257 7.24789,5.3721 19.10033,4.23331 14.81824,8.30808 4.94414,-0.68036 1.81863,-2.51496 1.33503,-0.67267 0.60803,2.83983 1.81361,0.81844 2.25659,0.10857 1.03581,-1.26525 4.06395,0.16401 11.10432,7.75409 2.95103,0.64125 0.21411,2.78045 -2.69784,2.0552 -2.35702,-0.90356 -1.47947,-2.31075 -6.22897,0.11693 -2.15896,-1.73255 -21.55604,0.0554 -1.00228,-1.27456 -4.92528,0.14819 -1.77326,-1.63788 -11.30611,0.0944 -3.34301,0.59919 -14.32414,-0.10264 -4.16376,-1.62269 -5.36722,-0.0371 -1.79734,2.11309 -1.82386,-1.41168 -3.79579,0.18357 2.76454,2.54906 0.25855,1.25949 -2.33233,0.0104 -2.1746,3.83762 -5.21606,-0.0816 -2.02476,0.63987 -3.90298,-2.31449 -15.7866,9.07238 -9.11769,0.31996 -1.52811,1.73147 -10.52855,0.30821 -0.92098,2.26416 -3.618,-0.66969 -4.91799,-2.55036 -1.16063,1.29506 -1.61883,3.3305 -8.45039,-0.25589 -1.66365,-1.31573 -2.06821,0.26384 -1.89029,3.0827 -2.83719,-0.0935 -4.47949,3.57398 -3.23433,-0.0521 -4.01267,2.41351 -6.93223,-0.13847 -1.72873,2.02596 -3.9384,0.30476 -5.65198,5.89942 -2.13553,3.4808 -3.04014,2.3037 -6.79867,0.34316 -4.05178,-3.50657 -2.03192,4.18533 -0.70333,4.68871 -1.81838,0.17274 -2.64249,-4.11417 -3.76665,3.54786 -2.62202,3.31917 -5.00269,3.52868 -3.80618,-0.11345 -4.84337,3.27808 -0.84627,1.98807 -4.49934,0.0285 -1.94498,-0.95242 -8.64468,-0.41763 -6.19139,4.47851 -1.1394,2.89752 -7.17106,3.72863 -1.92724,1.30275 -2.31175,-0.21616 -2.35752,-1.7375 -1.86811,1.29592 -1.87454,3.01676 -3.83793,1.26258 -2.27563,-1.05095 -0.68543,-1.87504 -6.49537,0.0325 -2.38084,-1.92158 -5.12722,-0.19393 -0.73402,-1.33775 -23.39157,0.37325 -0.79777,-1.04866 -1.64043,-0.21391 -1.37722,-1.46925 0.0604,-3.16107 -0.71553,-0.67784 1.12883,-2.01478 -0.71739,-2.05852 -3.51223,-0.42922 -7.00238,3.85111 -6.16787,0.22926 -6.66944,-5.47481 -1.27839,-3.62801 5.73602,4.0445 4.64283,0.004 0.31476,-2.11122 -1.35124,-1.28359 -2.4298,-0.61311 -2.18876,-0.32156 -3.66201,-3.84024 -0.71336,-3.43465 -1.70514,-1.35152 -0.56398,-1.67813 -0.63467,-1.92061 -3.57208,-0.34124 -2.42869,-2.77089 -0.86334,-2.83055 -1.30833,-1.43278 -0.37836,-1.84552 -7.0424,-6.07704 -2.17655,-0.52783 -0.50574,2.14297 1.58504,2.11895 2.33004,1.95552 0.71105,1.35695 -3.07915,2.89495 0.0764,3.98598 1.95305,3.02577 2.66328,-0.31699 3.23791,0.18475 -0.14466,5.06388 -5.10339,0.57704 -2.66219,-0.9974 -5.74195,-2.46318 -0.58185,-1.85173 -1.54296,-1.39162 -1.74577,-0.25211 -0.0786,4.1253 -3.37987,-0.16648 -0.71364,-0.53865 -0.73997,-3.9376 -5.30239,2.89284 -3.63658,0.4618 -2.33643,-1.45995 -2.52894,0.1528 -2.61643,3.94694 -0.39661,4.71207 -2.86718,4.45837 -0.007,5.04303 2.7878,2.11723 0.22103,4.05551 -3.15941,2.88683 3.48768,2.22011 1.78318,0.68096 0.28073,4.40261 -5.18481,5.4879 -0.90285,3.09545 0.11322,4.34499 5.89943,8.62984 5.12721,0.0308 0.82767,7.80514 -1.93238,3.40676 -0.24381,4.58316 2.63856,3.10187 0.90222,7.17498 4.62399,0.91137 0.32271,3.90489 -1.46225,2.17156 -0.20363,5.22096 0.70595,1.55798 1.62115,0.0782 0.2119,1.78374 2.24495,1.89577 2.31831,0.22184 1.60943,1.79977 4.04777,0.0868 0.18462,1.29476 2.21241,-0.0943 1.07421,2.81561 0.0824,3.28852 -3.85607,2.37762 -5.26853,8.2529 0.22325,2.35717 2.53381,5.25801 3.44967,2.12346 2.71144,0.22387 0.6604,3.53435 -0.91109,0.96837 2.18253,2.0944 2.23681,4.97251 -0.27974,8.64308 0.51465,7.13253 0.91239,8.85606 -1.02,8.54996 6.64749,8.4039 -6.24147,11.51555 -0.27141,2.97986 -2.21388,2.41933 -0.48865,5.64125 -4.6491,7.94735 -0.16677,4.14655 -4.56508,3.49981 -2.28779,0.39078 -5.82789,6.09566 -3.54098,1.60986 -6.22809,8.75439 -2.52141,2.25588 -2.78627,0.003 -1.82126,2.02642 -1.5883,3.35941 -2.51023,3.5117 -5.31579,3.79356 -1.70227,1.46369 -0.71784,6.2522 -3.45895,4.93164 0.23221,2.50286 1.62999,2.50311 -0.0164,1.63859 -3.47008,1.09944 -5.75567,-0.1925 -4.17339,3.78053 -2.11404,1.34063 -5.83288,0.0646 -9.23936,-0.22623 -9.90532,6.76779 -1.55,1.42312 -2.59533,-0.23418 -2.58023,-2.02595 -2.18267,0.34947 -2.68176,2.57789 -0.2679,2.18873 -6.66441,7.88151 -2.83464,1.6204 -15.58307,4.49738 -1.83515,1.40864 -2.90325,-0.0475 -2.49398,-1.99242 -4.00518,0.0472 -0.66659,-3.86502 -3.11488,-3.18497 -0.3186,-3.45167 0.58002,-1.46767 1.26474,-1.07083 -0.27684,-4.95272 -1.10916,-3.76968 -1.86904,-3.72165 -6.01414,-8.18411 -5.17916,-2.47209 -5.52862,-4.54313 -2.76288,-4.18189 -0.92965,-2.60392 -8.29686,-5.73706 -2.02635,-0.3923 -3.90511,-4.52391 -1.20178,-1.99451 -0.3033,-2.01292 -2.04199,-2.26641 -0.47342,-4.36084 -2.33085,-5.3143 -1.02843,-3.69212 -1.97836,-6.41918 -1.5571,-3.84956 -3.96621,-4.04818 -0.27061,-2.37757 -6.60887,-6.89487 -2.05848,-0.60758 -0.36268,-1.5469 -1.626038,-0.048 -0.231198,-0.99546 -2.121014,0.0273 -0.911446,-1.49787 -0.739749,-6.48644 0.154959,-2.47175 0.889596,-2.74093 -0.239309,-4.50771 0.07111,-4.07788 -0.953193,-1.68833 0.809375,-2.61837 1.423209,-2.91202 -1.040244,-1.69048 -0.428015,-3.77196 -1.346133,-1.71947 -2.193859,-0.37716 -1.617097,-1.40991 -0.528134,-2.00234 1.460951,-2.13566 1.460112,-0.69345 -0.09911,-1.34758 -2.195038,-1.1857 -0.63229,-1.60874 -0.991596,-0.7774 -0.192662,-2.41393 1.013397,-1.64667 -0.0637,-10.90393 -1.530918,-5.56666 0.115476,-5.38227 3.038641,-2.53778 0.649176,-3.78343 -2.684123,-3.68528 -5.644102,-2.72391 -2.455668,-0.58593 -0.900671,-1.46793 1.269479,-1.1773 0.121826,-3.21898 3.034035,-3.35325 -0.799968,-12.43863 -1.754113,-2.21903 1.966416,-2.53546 -1.648098,-1.98807 -0.300175,-3.05515 -2.788826,-2.42694 -3.404429,-0.40323 -1.460377,-1.36254 0.2272,-2.54791 -1.035939,-2.15841 0.542559,-3.73092 1.439219,-3.82678 -0.0094,-1.21933 -1.161862,-1.04055 0.541397,-1.31094 -3.438383,-3.62953 -0.859388,-3.49181 -0.920573,-1.12723 -0.199438,-3.15036 1.397294,-1.34258 0.307958,-3.23781 0.90059,-3.83227 -0.252771,-8.35095 -1.340579,-4.02637 -2.649454,-4.0255 -5.135726,-4.82577 -7.726615,-7.54389 -2.168454,-2.78008 -0.692105,-4.1398 -1.28865,-2.2571 -0.882841,-5.5735 -2.662038,-6.75246 -0.971235,-4.83883 -1.836337,-1.69736 -1.052541,-0.0872 0.08769,-3.07791 -0.938557,-0.73048 1.149247,-1.91744 4.74237,-0.8594 -0.190575,-8.46913 1.744585,-1.59724 -0.412316,-2.65557 -2.562535,-4.22999 -0.539825,-4.85049 1.153902,-1.52483 1.208602,-3.8895 6.360515,-5.16303 -2.213951,-2.46892 -3.77254,-0.32666 -1.616304,-1.36889 0.150429,-3.54941 12.610439,-8.05779 0.05037,-11.91828 8.518361,-12.38148 0.170986,-2.98001 4.626069,-3.65336 5.503483,-0.26588 0.720076,-2.62121 1.981376,-1.33243 3.653075,-1.29762 5.150483,-0.13147 1.996727,1.17516 2.072813,-1.58224 3.800673,-0.23356 2.249829,-5.12994 2.43253,-1.40387 2.34861,0.69481 2.28516,2.22889 9.2711,-0.31384 6.4497,5.88304 2.68493,-0.15379 0.297,4.33748 3.42309,1.04571 3.49729,3.48142 -0.70021,3.84869 2.58624,1.6102 6.7882,0.0781 4.43037,1.13585 4.8709,0.0101 9.45559,4.11326 0.36752,5.31325 5.78859,-0.16714 -0.22755,-6.01273 6.91639,3.57756 2.69039,4.19869 -0.002,3.98757 3.72883,-0.12632 0.55956,-2.57958 3.48748,2.57 2.38431,-3.21135 4.88095,0.25533 3.94894,-1.93269 12.19493,3.90758 -0.0542,2.63628 -2.18702,1.97159 0.53671,2.95443 7.65356,0.62224 1.69698,1.06959 0.1236,2.27387 1.90444,-0.44696 0.93031,1.25338 3.65037,-0.0782 0.96951,1.78349 6.41452,-0.17905 7.69762,-2.5949 3.73974,-0.60523 4.59987,-0.4737 1.01433,0.31373 0.12824,1.92944 1.85808,-0.2166 -0.10795,2.26715 -1.5524,2.41981 -3.33845,-0.15541 -3.32465,3.7962 -0.99055,2.37854 0.40793,6.5231 -2.48553,3.24589 -2.55663,0.24341 -1.78997,0.96948 0.0579,-2.79953 1.34551,-2.36253 -0.15727,-3.37407 -4.34969,-3.01235 0.22265,8.2404 -5.07109,4.71236 0.41182,3.77084 5.83273,0.27631 5.90496,-2.68057 2.76982,0.14081 -0.0422,6.36973 -1.94612,2.19988 0.13984,1.54752 1.27275,0.76903 3.08102,0.17956 6.45179,-6.82938 0.33466,-3.86235 1.20519,-2.4095 2.98804,-2.77991 0.47242,3.20819 -1.15536,1.98537 2.12125,2.30528 -0.0186,3.24694 -2.9492,2.80675 2.90907,2.38772 7.29173,-1.11705 9.13462,-11.94918 0.22158,-5.40848 2.45308,-1.53668 1.64272,0.14116 2.36132,1.7981 2.41075,-0.99209 5.09987,-3.87852 2.02776,-0.13549 1.27751,1.17836 2.10312,-1.56718 2.53359,0.66741 4.23005,3.42716 1.19957,5.22944 2.09494,-0.18058 -0.14551,-2.65249 2.2106,-0.91401 0.16677,-2.66294 -2.43667,-1.03334 0.0172,-3.2287 1.16091,-0.34197 -0.0282,-5.00632 2.20446,0.0438 4.03499,3.37776 0.75963,-6.44936 -2.16999,0.39909 -1.62777,-1.36927 0.11363,-1.29909 -2.44928,-0.22478 0.51032,-3.83537 2.40775,-0.22245 1.39837,0.47426 4.99597,-6.04353 1.47393,-6.6394 1.15879,-3.50952 -1.21065,-2.43084 0.66122,-1.66729 -0.12902,-4.79352 1.75484,-1.6148 -2.56424,-2.92549 -0.054,-3.3245 8.08376,-5.60486 1.63842,-2.64854 0.4051,-2.879 -1.23595,-0.6239 0.17292,-3.7979 4.55939,2.82994 0.29954,1.25374 5.30029,-0.36913 2.05761,2.43793 5.95199,-4.9407 0.19187,-2.81549 -1.61704,-1.86821 10.10728,-4.61277 -3.30183,-2.27578 2.25627,-0.87283 -0.12205,-3.93387 -1.00283,-2.28325 -2.41414,-1.62039 3.34099,-2.99729 0.48501,-9.60624 -2.33666,-4.56174 -9.64913,-7.93156 -0.43789,3.71832 -3.84933,0.3142 -0.45484,-2.89332 -7.16567,-2.63584 -2.53807,-0.74852 -3.28885,-1.35497 -3.30251,-3.43045 -2.06071,-3.94255 -1.43352,-3.48858 0.49944,-3.56717 -4.57456,-6.99092 -0.93229,-2.01674 0.0206,-6.9149 -2.95255,-4.11212 0.51742,-2.8744 -1.15464,-1.78044 -0.1632,-2.22741 -2.8309,-2.34095 -1.1938,-0.99708 c 0,0 -0.23621,-1.58097 -0.19347,-1.70219 0.0428,-0.12122 2.88204,-3.66055 2.88204,-3.66055 l 1.17901,-3.4741 0.56775,-7.42696 0.57135,-1.52079 2.47611,-0.76196 3.86579,-3.98922 1.17204,-2.73826 1.73126,0.61382 4.33315,-3.63109 0.75012,-3.28388 3.9692,-3.41019 3.90368,-0.25982 3.56534,-3.2872 1.54052,-2.21829 0.0682,-6.06117 2.76116,-0.5047 3.77031,-0.870086 5.20667,-6.54838 4.45047,-1 2.47956,-2.662837 4.0276,-4.79184 2.35202,-4.356562 0.60041,-2.885336 3.07114,-2.44744 -0.0402,-3.966427 3.33942,-2.345727 5.50218,-0.398668 z"
       id="path2148" />
  </g>
  <g
     inkscape:groupmode="layer"
     id="layer2"
     inkscape:label="commune"
     style="display:inline"
     sodipodi:insensitive="true">
    <path
       style="fill:none;stroke:#000000;stroke-width:1px;stroke-linecap:butt;stroke-linejoin:miter;stroke-opacity:1"
       d="m 529.34022,332.12219 -0.23255,-11.07315 -2.83651,-8.57211 c -5.8023,-6.11667 -9.32263,-14.40944 -12.11777,-23.39376 5.93874,-1.46589 12.66695,-2.32412 16.08426,-5.73075 -0.16257,-4.33856 -0.0862,-6.96098 1.00779,-9.46787 0.67431,-0.97011 3.24645,-1.94229 5.82411,-0.97931 l 1.02377,1.79737 c 2.36308,-3.94224 4.45708,-5.63189 6.60963,-7.81173 4.50123,1.08491 8.48251,2.51169 10.63545,5.14059 1.04583,-0.94503 0.8952,-1.6444 4.16719,-3.04653 3.42803,-1.1648 6.48051,-0.91838 9.48126,-0.47758 2.65171,-4.55978 3.27722,-8.03214 3.92236,-11.51503"
       id="path2169"
       sodipodi:nodetypes="ccccccccccccc" />
    <path
       style="fill:none;stroke:#000000;stroke-width:1px;stroke-linecap:butt;stroke-linejoin:miter;stroke-opacity:1"
       d="m 514.15339,289.08317 -3.61484,-3.84527 -6.14701,3.73381 -11.8475,0.49026 -5.17587,-2.22334 -0.75058,-5.45338 4.55851,-2.78775 -1.13625,-5.29783 -11.66596,5.90417 -2.72635,4.65379 -10.94574,1.54551 -3.51625,3.53634 -14.48032,4.02271 -4.01017,-0.15064 -16.3921,9.7177 -14.37361,-0.21483 -6.55363,5.87787 1.81318,3.61957 -0.25049,9.21282 -5.32621,0.52319 -3.8583,4.8318 6.08783,7.03648 6.04781,0.40321 8.0693,5.65954 8.53365,16.90074 7.71663,8.49372 2.20093,8.29691"
       id="path2171" />
    <path
       style="fill:none;stroke:#000000;stroke-width:1px;stroke-linecap:butt;stroke-linejoin:miter;stroke-opacity:1"
       d="m 411.92935,302.71442 -4.48837,-6.41139 -2.4956,-0.6274 c 0.53037,-2.32283 0.18911,-4.94018 2.47838,-6.66869 3.3963,-1.2818 5.55347,-3.33304 7.28728,-5.64717 0.0788,-4.09892 1.71218,-7.74701 3.09074,-11.46899 1.9428,-0.20059 3.55907,-0.29708 4.31493,-0.1193 1.67073,2.69627 3.36402,5.31981 5.51691,6.46234 3.14735,-1.56268 6.10098,-1.76815 9.02489,-1.76539 6.2673,-2.15164 8.94602,-4.92232 11.64449,-7.6896 l -2.85885,-8.66525 -2.93746,-2.07542 -0.47529,-5.66919 c 0.1195,-2.65781 -1.70305,-2.9509 -2.64694,-4.31387 -3.15932,0.10007 -5.91519,0.652 -8.16258,1.7734 -3.26005,-0.25669 -5.20589,-1.48027 -6.77211,-2.98314 0.27816,-3.27971 -1.3238,-4.13973 -2.24907,-5.87065 -1.16819,-1.30901 -3.00608,-2.37687 -5.2693,-3.29158 2.201,-3.11855 4.2267,-6.60643 4.94713,-12.84414 2.02595,-1.14431 4.0836,-1.72848 6.03467,-4.19647 1.13749,-1.43155 0.36752,-4.56902 -0.22681,-7.54941 -3.03094,-0.69208 -3.07612,-2.6011 -4.20329,-4.27481 -0.23483,-1.52317 0.57338,-2.19359 1.48015,-3.46342 2.44116,-2.26651 4.59372,-3.94354 6.29767,-4.70432 -7.04466,-9.56814 -4.2718,-10.144 -4.45283,-13.42546 4.54715,-2.11203 8.24188,-2.51244 11.51553,-2.06732"
       id="path2173"
       sodipodi:nodetypes="cccccccccccccccccccccccccc" />
    <path
       style="fill:none;stroke:#000000;stroke-width:1px;stroke-linecap:butt;stroke-linejoin:miter;stroke-opacity:1"
       d="m 433.41926,128.80057 c -1.57477,1.14583 -3.2931,2.76175 -4.75304,6.02269 -0.69006,4.09061 -1.57532,7.02394 -2.28062,13.19066 -1.75089,2.119 -4.60712,2.53293 -7.614,2.71446 0.13356,2.85387 -0.50753,5.17678 -1.46482,7.28298 -2.27188,-1.88488 -3.15601,-1.73553 -4.40281,-2.11779 -1.12043,-0.47709 -3.0003,-0.36541 -5.25182,0.0344 -2.14337,-2.79718 -1.34493,-7.41783 -0.84425,-12.93646 -3.08297,-0.6437 -4.14424,-2.31459 -5.72875,-3.71963 0.62259,2.16195 0.40427,3.66244 -0.85978,6.19932 -1.78232,3.00868 -7.70508,4.31205 -13.50375,5.66652 -1.72085,5.98633 -1.20904,10.02721 -6.20973,20.54473 -3.94562,1.62736 -8.12867,1.9394 -12.45426,1.46171 -2.14023,-1.48003 -5.34951,-2.55526 -10.01032,-3.08087 -4.26892,-1.17992 -7.58699,-0.24712 -11.08268,0.29104 -0.36312,2.52877 -1.32779,5.05231 -4.67651,7.55514 -1.78562,2.77256 -2.55761,5.34391 -2.91852,7.83367 -2.0236,2.88662 -4.24831,2.15523 -6.40976,2.5619 -0.80442,0.75215 -2.08956,1.15076 -0.98625,3.30599 1.12938,1.27158 1.98761,2.5361 5.04449,3.85791"
       id="path2175"
       sodipodi:nodetypes="cccccccccccccccccccc" />
    <path
       style="fill:none;stroke:#000000;stroke-width:1px;stroke-linecap:butt;stroke-linejoin:miter;stroke-opacity:1"
       d="m 304.72289,129.40054 c 6.11445,-0.55637 12.11045,-0.97588 17.11705,-0.252 3.47251,0.76113 7.66595,3.18117 11.802,5.46913 1.85808,-0.67299 3.17082,-0.34923 4.49032,-0.0378 4.6152,2.35714 9.21179,4.68564 15.11241,9.02085 6.0394,-2.24743 8.20378,-1.94439 11.11449,-2.13257 1.51442,-2.88162 5.35986,-4.88705 9.09398,-6.93433 2.9717,-0.89478 6.41547,-1.25477 10.5233,-0.86247 1.46064,-1.74234 2.93658,-3.47694 5.2696,-4.77775 1.35323,-0.50798 2.59808,-0.44031 3.76919,0.019 1.32527,2.81196 1.27503,4.1357 5.0152,9.56046 l 2.59623,0.0601"
       id="path2177"
       sodipodi:nodetypes="cccccccccccc" />
    <path
       style="fill:none;stroke:#000000;stroke-width:1px;stroke-linecap:butt;stroke-linejoin:miter;stroke-opacity:1"
       d="m 348.71089,228.40331 c 5.08411,1.09721 10.05197,2.23091 19.67584,1.90309 4.41348,-2.34001 8.73279,-4.22923 13.06585,-6.18426 3.72199,-0.54371 8.19257,-0.54792 13.78078,0.25335 0.93483,1.8845 0.75622,5.45248 2.20494,6.02844 -0.25635,0.93589 0.90076,1.18686 5.89859,0.74896 3.2718,5.16441 3.25579,6.74697 3.62752,8.75196 0.92097,1.11253 2.42118,1.69006 4.78773,1.46742 l 0.8728,-3.37214 4.30646,-0.317"
       id="path2179"
       sodipodi:nodetypes="cccccccccc" />
    <path
       style="fill:none;stroke:#000000;stroke-width:1px;stroke-linecap:butt;stroke-linejoin:miter;stroke-opacity:1"
       d="m 314.22433,275.45677 9.72939,3.036 11.2095,6.63365 8.1207,0.65156 0.15284,-5.97135 c 3.37549,1.4537 6.55923,2.15381 9.29786,1.10445 l 6.71261,4.22589 c 3.75693,-0.83421 5.75978,-3.98969 7.96507,-6.87728 2.7603,1.98964 5.71017,3.21081 8.35749,6.98484 l 8.11512,-0.52275 c 3.43881,1.3209 5.7295,3.47414 7.59651,5.93454 l 0.5507,3.93026 3.59076,-0.26927 2.08036,2.37457 7.24214,-1.01625"
       id="path2181"
       sodipodi:nodetypes="ccccccccccccccc" />
    <path
       style="fill:none;stroke:#000000;stroke-width:1px;stroke-linecap:butt;stroke-linejoin:miter;stroke-opacity:1"
       d="m 397.7539,326.77967 -17.85821,5.71489 c -7.03674,2.95041 -14.17201,6.3994 -21.6777,11.72287 l -12.20568,8.60394 c -0.60159,-1.65361 -2.07068,-2.31987 -3.47588,-3.05886 -2.04231,0.69382 -3.9512,1.82907 -5.26152,4.9448 l -1.33942,4.5305 -7.00658,8.97937"
       id="path2183"
       sodipodi:nodetypes="cccccccc" />
    <path
       style="fill:none;stroke:#000000;stroke-width:1px;stroke-linecap:butt;stroke-linejoin:miter;stroke-opacity:1"
       d="m 320.65964,359.26921 2.97837,-4.26772 0.46083,-7.42202 1.40554,-6.55922 -7.7892,-1.45061 -6.30583,-1.53318 -5.07733,-3.94983 -4.34076,3.2387 -0.30002,2.51929"
       id="path2185" />
    <path
       style="fill:none;stroke:#000000;stroke-width:1px;stroke-linecap:butt;stroke-linejoin:miter;stroke-opacity:1"
       d="m 306.33202,334.08663 -1.70625,-4.90342 0.16094,-7.78392 -3.15949,-8.31441"
       id="path2187" />
    <path
       style="fill:none;stroke:#000000;stroke-width:1px;stroke-linecap:butt;stroke-linejoin:miter;stroke-opacity:1"
       d="m 226.17295,318.54712 -5.70703,17.06143 c 1.32681,4.1627 1.69393,8.43517 0.9918,12.82995 l -4.1526,10.28 -4.50841,6.37804 -1.61832,7.48976 1.1518,4.70541 -4.57452,2.50167 -0.45995,3.96185 3.6471,0.54238 3.9259,-4.15268 15.84022,-5.81004 5.79803,-5.4268 10.35568,-0.42747 c 1.82132,-3.43606 3.7137,-6.84334 9.46164,-8.68973 l 10.41586,-0.52624 5.06735,2.0907"
       id="path2189"
       sodipodi:nodetypes="ccccccccccccccccc" />
    <path
       style="fill:none;stroke:#000000;stroke-width:1px;stroke-linecap:butt;stroke-linejoin:miter;stroke-opacity:1"
       d="m 246.45067,289.65726 c -3.05828,3.19654 -6.43812,6.21225 -10.95224,8.5901 -4.14558,0.34749 -8.31325,0.71452 -15.1788,-0.38332 -1.82762,-1.09176 -1.65268,-2.59088 -4.7927,-1.85209 -2.50058,0.92639 -3.27016,2.26748 -4.05579,3.42532 -5.26266,-0.73706 -10.52533,-0.62855 -15.78799,-0.42508 -1.63537,0.18407 -3.15677,0.73238 -4.4061,2.15017 -0.74872,1.1656 -1.18979,2.28089 1.93976,2.8123 1.09923,1.8791 0.16214,2.73379 -1.27565,3.33659 -2.09229,-0.56428 -4.26192,-0.86999 -6.84665,0.2121 -2.08351,1.2877 -1.93516,2.89445 -1.40062,4.55642 1.01656,4.86272 -0.0848,6.51133 -0.77165,8.789 -2.93813,0.74285 -5.23062,2.28578 -5.46383,6.38053 -0.71906,2.50805 0.72516,4.35017 3.72203,5.71433 0.10712,1.54955 -0.57416,2.88257 -2.67068,3.82694 -0.38307,1.0342 -2.05214,1.67693 0.45057,3.58961 l 3.26987,0.85932 -0.46743,2.76683 0.97413,3.73319 c -1.30493,1.88521 -3.65778,2.84387 -5.95929,4.18634 l -3.7397,-0.74915 -1.59724,7.01238 c -1.863,4.95718 -6.24731,7.97031 -10.58497,11.01942 -3.72292,-0.37626 -6.5105,1.35175 -9.53596,2.5446 -2.25971,1.70136 -3.85236,3.40368 -5.5767,5.10581 -4.89054,0.25629 -9.64284,0.0211 -13.79239,-2.35669 0.006,3.34004 -1.23118,6.55356 -3.54249,9.65778 -3.54793,1.18572 -3.64608,3.79514 -4.67905,6.01877 -0.017,1.77917 0.45756,3.49761 3.03975,4.95566 -0.0396,1.37612 0.57734,1.03703 -0.61196,5.41632 -1.92607,2.39748 -1.60157,6.51594 -0.60344,11.14951 4.02139,1.60412 4.94143,2.76979 6.99957,4.09636 l 4.33983,-4.03417 c 5.14068,-0.93162 9.55625,0.15537 14.15718,0.72634 4.01586,-6.65654 8.0835,-8.77646 12.1498,-11.01407 l 24.01586,-2.67781 2.08736,-6.28474 17.99266,-8.75695"
       id="path2191"
       sodipodi:nodetypes="cccccccccccccccccccccccccccccccccccccc" />
    <path
       style="fill:none;stroke:#000000;stroke-width:1px;stroke-linecap:butt;stroke-linejoin:miter;stroke-opacity:1"
       d="m 99.685991,248.22415 c -1.351415,6.8593 -2.522733,12.95553 -2.959764,15.94055 l 0.947587,5.95136 c 0.501604,4.63303 0.762225,9.21572 0.43759,13.67619 -1.630065,6.1571 -4.352922,6.61657 -6.715583,8.95403 0.07368,10.74711 0.895523,20.15137 1.108893,32.57281 l 3.847424,4.1948 c 0.285192,2.36984 0.57529,4.69739 0.950575,6.29053 0.0406,2.54851 -1.005298,4.01152 -2.064922,5.46083 0.604106,4.20788 2.805473,6.57257 5.108699,8.81972 l 5.76977,0.82195 c 3.32473,1.68632 7.40421,1.88256 10.79623,6.37425 0.70705,1.96093 1.45087,4.02287 1.57183,4.37358 1.94144,0.36395 3.83347,0.50978 5.73065,0.67839 4.97392,6.32055 5.7277,8.65206 7.73568,12.16909"
       id="path2193"
       sodipodi:nodetypes="ccccccccccccccc" />
    <path
       style="fill:none;stroke:#000000;stroke-width:1px;stroke-linecap:butt;stroke-linejoin:miter;stroke-opacity:1"
       d="m 47.369201,341.96777 c 8.534168,-4.42131 15.482689,-6.81734 21.713879,-8.29716 8.155536,0.38055 16.386032,1.8754 24.324083,-0.97703 l 2.944975,-3.17969"
       id="path2195"
       sodipodi:nodetypes="cccc" />
    <path
       style="fill:none;stroke:#000000;stroke-width:1px;stroke-linecap:butt;stroke-linejoin:miter;stroke-opacity:1"
       d="m 76.581474,420.46443 c 4.016651,-2.34671 5.603263,-0.65749 8.06826,-0.42714 0.981875,4.00936 4.442695,4.68893 7.277188,6.2098 3.969976,1.56524 6.399266,0.83908 8.720428,-0.0479 2.20409,-3.25618 5.51589,-4.1274 8.94094,-4.75482 l 7.61153,0.31156 7.09642,2.25499 c 2.77971,-2.5778 5.80939,-3.69562 8.25679,-8.21434"
       id="path2197"
       sodipodi:nodetypes="cccccccc" />
    <path
       style="fill:none;stroke:#000000;stroke-width:1px;stroke-linecap:butt;stroke-linejoin:miter;stroke-opacity:1"
       d="m 124.29624,424.01092 3.4132,12.06873 1.56728,12.05318 c 1.93549,4.01534 4.01736,8.51516 6.98632,15.95104 l 0.53243,7.95586 -5.98896,6.19548 -0.005,10.39861 c -1.71836,2.5669 -3.56328,4.71907 -5.64876,6.08297 l -5.72597,0.43261 c -6.13822,5.45097 -12.39984,9.91255 -18.2537,17.64347 -2.392667,1.26492 -3.864192,4.09561 -4.663287,8.06929"
       id="path2199"
       sodipodi:nodetypes="ccccccccccc" />
    <path
       style="fill:none;stroke:#000000;stroke-width:1px;stroke-linecap:butt;stroke-linejoin:miter;stroke-opacity:1"
       d="m 136.79547,472.03973 7.79401,2.51846 2.40994,8.78401 2.90933,4.33049 6.8059,-0.40233 4.14563,-2.46377 3.80824,3.13477 c 4.80417,-1.93403 9.47868,-2.11851 14.00036,-0.24099 l 12.3149,8.97177 c 3.81983,-1.55437 7.63594,-3.6026 11.44828,-6.15238 2.23888,-4.33198 4.17389,-8.93241 3.99462,-15.40061 -1.77392,-6.97736 -1.37741,-11.04437 -1.22267,-15.43557 -0.54991,-3.72206 2.06895,-3.55813 3.64368,-5.00186 7.91939,1.07092 15.28661,0.0804 23.03127,-0.0521 4.39963,-3.88339 7.20525,-4.44801 9.99614,-4.98197 l 4.85097,-0.26042 c 10.13229,-6.51108 15.71639,-12.59617 21.58582,-18.70799 l 9.32951,-1.36317"
       id="path2201"
       sodipodi:nodetypes="cccccccccccccccccc" />
    <path
       style="fill:none;stroke:#000000;stroke-width:1px;stroke-linecap:butt;stroke-linejoin:miter;stroke-opacity:1"
       d="m 294.40856,484.77613 -12.3293,6.568 -13.98856,11.94412 -6.53653,0.30376 -17.68284,11.4205 -11.50908,1.29729 c -10.45852,-4.2356 -21.05001,-7.96387 -32.43517,-8.66429 l -8.9433,-10.97337"
       id="path2203"
       sodipodi:nodetypes="cccccccc" />
    <path
       style="fill:none;stroke:#000000;stroke-width:1px;stroke-linecap:butt;stroke-linejoin:miter;stroke-opacity:1"
       d="m 199.92708,507.64551 -6.08684,5.31636 -9.60166,0.18292 -4.92597,2.29146 c -6.252,4.86988 -12.36741,9.37575 -19.57331,16.78786 -3.77751,7.55474 -8.39654,14.48909 -14.58991,20.26279 -3.84348,1.15152 -7.51945,2.67944 -10.08601,6.70045 -3.92051,4.87225 -7.14783,9.67762 -9.44486,14.39324 -3.13391,0.80578 -6.31324,1.86598 -9.3426,2.08613"
       id="path2205"
       sodipodi:nodetypes="ccccccccc" />
    <path
       style="fill:none;stroke:#000000;stroke-width:1px;stroke-linecap:butt;stroke-linejoin:miter;stroke-opacity:1"
       d="m 179.31261,515.43625 1.14685,18.39122 -10.28314,13.5454 -6.46777,1.33746 -6.90175,11.69409 -0.47633,5.03579 -2.82408,3.50325 -0.25863,14.21736 c -2.53681,5.46255 -7.16449,9.59453 -11.60297,13.84691 -5.75722,0.24831 -11.27122,1.26324 -16.01074,4.71927"
       id="path2207"
       sodipodi:nodetypes="cccccccccc" />
    <path
       style="fill:none;stroke:#000000;stroke-width:1px;stroke-linecap:butt;stroke-linejoin:miter;stroke-opacity:1"
       d="m 149.08352,623.70921 3.16111,-7.01017 3.95301,-2.82916 c -0.70178,-3.25028 -0.94985,-6.41078 -4.19375,-10.1641 -2.62583,-2.77206 -5.33157,-5.49202 -10.3591,-6.69805"
       id="path2209"
       sodipodi:nodetypes="ccccc" />
    <path
       style="fill:none;stroke:#000000;stroke-width:1px;stroke-linecap:butt;stroke-linejoin:miter;stroke-opacity:1"
       d="m 156.19764,613.86988 20.94974,-13.16426 0.57798,-4.36292 16.87844,-2.14367 12.02986,-12.77248 0.0463,-6.92846 -3.15078,-4.53792 -0.0169,-3.25419 5.19246,-3.15362 -0.28929,-4.69072 -1.0167,-1.75516 c -1.83675,-0.12177 -1.9337,-1.63921 -5.38465,-0.24414 l -0.70991,-9.29838 -3.12629,-2.38706 -3.0345,0.36811 -4.28428,-10.24274 0.11505,-6.31461 -11.39513,-9.93322"
       id="path2211"
       sodipodi:nodetypes="cccccccccccccccccc" />
    <path
       style="fill:none;stroke:#000000;stroke-width:1px;stroke-linecap:butt;stroke-linejoin:miter;stroke-opacity:1"
       d="m 208.70474,563.55236 2.22847,8.665 3.91215,2.22592 5.49924,0.25137 1.828,-1.65689 14.61576,13.39618 7.86058,14.85196 v 3.78322 c 0.86834,5.39322 3.20483,6.77609 5.07071,9.44447 l 6.34898,3.43128"
       id="path2213"
       sodipodi:nodetypes="cccccccccc" />
    <path
       style="fill:none;stroke:#000000;stroke-width:1px;stroke-linecap:butt;stroke-linejoin:miter;stroke-opacity:1"
       d="m 210.93321,572.21736 -1.77393,18.08969 -8.80281,17.53306 5.514,10.41576 0.83218,14.6014 0.92787,2.40875 -0.39134,6.0523"
       id="path2217" />
    <path
       style="fill:none;stroke:#000000;stroke-width:1px;stroke-linecap:butt;stroke-linejoin:miter;stroke-opacity:1"
       d="m 162.14586,638.08706 15.7875,-0.72691 2.02387,-3.42119 9.66252,1.25759 4.37106,-3.57489 4.66764,-1.92639 4.81987,-0.29086 3.22433,3.45286"
       id="path2219" />
  </g>
  <g
     inkscape:groupmode="layer"
     id="layer3"
     inkscape:label="noms communes"
     style="display:inline;filter:url(#filter2396)"
     sodipodi:insensitive="true">
    <text
       xml:space="preserve"
       style="font-style:normal;font-variant:normal;font-weight:normal;font-stretch:normal;font-size:10.6667px;line-height:1.25;font-family:sans-serif;-inkscape-font-specification:'sans-serif, Normal';font-variant-ligatures:normal;font-variant-caps:normal;font-variant-numeric:normal;font-variant-east-asian:normal;fill:#000000;fill-opacity:1;stroke:none"
       x="342.93335"
       y="118.33865"
       id="text2242"><tspan
         sodipodi:role="line"
         id="tspan2240"
         x="342.93335"
         y="118.33865">Anse-Bertrand</tspan></text>
    <text
       xml:space="preserve"
       style="font-style:normal;font-variant:normal;font-weight:normal;font-stretch:normal;font-size:10.6667px;line-height:1.25;font-family:sans-serif;-inkscape-font-specification:'sans-serif, Normal';font-variant-ligatures:normal;font-variant-caps:normal;font-variant-numeric:normal;font-variant-east-asian:normal;fill:#000000;fill-opacity:1;stroke:none"
       x="321.32568"
       y="158.94377"
       id="text2270"><tspan
         sodipodi:role="line"
         id="tspan2268"
         x="321.32568"
         y="158.94377">Port Louis</tspan></text>
    <text
       xml:space="preserve"
       style="font-style:normal;font-variant:normal;font-weight:normal;font-stretch:normal;font-size:10.6667px;line-height:1.25;font-family:sans-serif;-inkscape-font-specification:'sans-serif, Normal';font-variant-ligatures:normal;font-variant-caps:normal;font-variant-numeric:normal;font-variant-east-asian:normal;fill:#000000;fill-opacity:1;stroke:none"
       x="362.59122"
       y="191.38947"
       id="text2274"><tspan
         sodipodi:role="line"
         id="tspan2272"
         x="362.59122"
         y="191.38947">Petit Canal</tspan></text>
    <text
       xml:space="preserve"
       style="font-style:normal;font-variant:normal;font-weight:normal;font-stretch:normal;font-size:10.6667px;line-height:1.25;font-family:sans-serif;-inkscape-font-specification:'sans-serif, Normal';font-variant-ligatures:normal;font-variant-caps:normal;font-variant-numeric:normal;font-variant-east-asian:normal;fill:#000000;fill-opacity:1;stroke:none"
       x="463.38513"
       y="258.81714"
       id="text2278"><tspan
         sodipodi:role="line"
         id="tspan2276"
         x="463.38513"
         y="258.81714">Le Moule</tspan></text>
    <text
       xml:space="preserve"
       style="font-style:normal;font-variant:normal;font-weight:normal;font-stretch:normal;font-size:10.6667px;line-height:1.25;font-family:sans-serif;-inkscape-font-specification:'sans-serif, Normal';font-variant-ligatures:normal;font-variant-caps:normal;font-variant-numeric:normal;font-variant-east-asian:normal;fill:#000000;fill-opacity:1;stroke:none"
       x="527.96039"
       y="303.85919"
       id="text2282"><tspan
         sodipodi:role="line"
         id="tspan2280"
         x="527.96039"
         y="303.85919">Saint-François</tspan></text>
    <text
       xml:space="preserve"
       style="font-style:normal;font-variant:normal;font-weight:normal;font-stretch:normal;font-size:10.6667px;line-height:1.25;font-family:sans-serif;-inkscape-font-specification:'sans-serif, Normal';font-variant-ligatures:normal;font-variant-caps:normal;font-variant-numeric:normal;font-variant-east-asian:normal;fill:#000000;fill-opacity:1;stroke:none"
       x="431.88699"
       y="334.42899"
       id="text2286"><tspan
         sodipodi:role="line"
         id="tspan2284"
         x="431.88699"
         y="334.42899">Sainte-Anne</tspan></text>
    <text
       xml:space="preserve"
       style="font-style:normal;font-variant:normal;font-weight:normal;font-stretch:normal;font-size:10.6667px;line-height:1.25;font-family:sans-serif;-inkscape-font-specification:'sans-serif, Normal';font-variant-ligatures:normal;font-variant-caps:normal;font-variant-numeric:normal;font-variant-east-asian:normal;fill:#000000;fill-opacity:1;stroke:none"
       x="342.00455"
       y="259.10452"
       id="text2290"><tspan
         sodipodi:role="line"
         id="tspan2288"
         x="342.00455"
         y="259.10452">Morne-à-l'Eau</tspan></text>
    <text
       xml:space="preserve"
       style="font-style:normal;font-variant:normal;font-weight:normal;font-stretch:normal;font-size:10.6667px;line-height:1.25;font-family:sans-serif;-inkscape-font-specification:'sans-serif, Normal';font-variant-ligatures:normal;font-variant-caps:normal;font-variant-numeric:normal;font-variant-east-asian:normal;fill:#000000;fill-opacity:1;stroke:none"
       x="323.1868"
       y="306.65213"
       id="text2294"><tspan
         sodipodi:role="line"
         id="tspan2292"
         x="323.1868"
         y="306.65213">Les Abymes</tspan></text>
    <text
       xml:space="preserve"
       style="font-style:normal;font-variant:normal;font-weight:normal;font-stretch:normal;font-size:10.6667px;line-height:1.25;font-family:sans-serif;-inkscape-font-specification:'sans-serif, Normal';font-variant-ligatures:normal;font-variant-caps:normal;font-variant-numeric:normal;font-variant-east-asian:normal;fill:#000000;fill-opacity:1;stroke:none"
       x="360.6015"
       y="364.48438"
       id="text2298"><tspan
         sodipodi:role="line"
         id="tspan2296"
         x="360.6015"
         y="364.48438">Le Gosier</tspan></text>
    <text
       xml:space="preserve"
       style="font-style:normal;font-variant:normal;font-weight:normal;font-stretch:normal;font-size:10.6667px;line-height:1.25;font-family:sans-serif;-inkscape-font-specification:'sans-serif, Normal';font-variant-ligatures:normal;font-variant-caps:normal;font-variant-numeric:normal;font-variant-east-asian:normal;fill:#000000;fill-opacity:1;stroke:none"
       x="225.96886"
       y="346.00839"
       id="text2302"><tspan
         sodipodi:role="line"
         id="tspan2300"
         x="225.96886"
         y="346.00839">Baie-Mahault</tspan></text>
    <text
       xml:space="preserve"
       style="font-style:normal;font-variant:normal;font-weight:normal;font-stretch:normal;font-size:10.6667px;line-height:1.25;font-family:sans-serif;-inkscape-font-specification:'sans-serif, Normal';font-variant-ligatures:normal;font-variant-caps:normal;font-variant-numeric:normal;font-variant-east-asian:normal;fill:#000000;fill-opacity:1;stroke:none"
       x="110.08926"
       y="308.58743"
       id="text2306"><tspan
         sodipodi:role="line"
         id="tspan2304"
         x="110.08926"
         y="308.58743">Sainte-Rose</tspan></text>
    <text
       xml:space="preserve"
       style="font-style:normal;font-variant:normal;font-weight:normal;font-stretch:normal;font-size:10.6667px;line-height:1.25;font-family:sans-serif;-inkscape-font-specification:'sans-serif, Normal';font-variant-ligatures:normal;font-variant-caps:normal;font-variant-numeric:normal;font-variant-east-asian:normal;fill:#000000;fill-opacity:1;stroke:none"
       x="152.67427"
       y="381.97546"
       id="text2310"><tspan
         sodipodi:role="line"
         id="tspan2308"
         x="152.67427"
         y="381.97546">Lamentin</tspan></text>
    <text
       xml:space="preserve"
       style="font-style:normal;font-variant:normal;font-weight:normal;font-stretch:normal;font-size:10.6667px;line-height:1.25;font-family:sans-serif;-inkscape-font-specification:'sans-serif, Normal';font-variant-ligatures:normal;font-variant-caps:normal;font-variant-numeric:normal;font-variant-east-asian:normal;fill:#000000;fill-opacity:1;stroke:none"
       x="-233.26077"
       y="223.10899"
       id="text2314"
       transform="rotate(-57.179875)"
       inkscape:transform-center-x="0.52751265"
       inkscape:transform-center-y="-0.40650602"><tspan
         sodipodi:role="line"
         id="tspan2312"
         x="-233.26077"
         y="223.10899">Deshaies</tspan></text>
    <text
       xml:space="preserve"
       style="font-style:normal;font-variant:normal;font-weight:normal;font-stretch:normal;font-size:10.6667px;line-height:1.25;font-family:sans-serif;-inkscape-font-specification:'sans-serif, Normal';font-variant-ligatures:normal;font-variant-caps:normal;font-variant-numeric:normal;font-variant-east-asian:normal;text-align:center;text-anchor:middle;fill:#000000;fill-opacity:1;stroke:none"
       x="95.31826"
       y="377.42764"
       id="text2318"><tspan
         sodipodi:role="line"
         x="95.31826"
         y="377.42764"
         id="tspan2320">Pointe-</tspan><tspan
         sodipodi:role="line"
         x="95.31826"
         y="390.76102"
         id="tspan2324">Noire</tspan></text>
    <text
       xml:space="preserve"
       style="font-style:normal;font-variant:normal;font-weight:normal;font-stretch:normal;font-size:10.6667px;line-height:1.25;font-family:sans-serif;-inkscape-font-specification:'sans-serif, Normal';font-variant-ligatures:normal;font-variant-caps:normal;font-variant-numeric:normal;font-variant-east-asian:normal;fill:#000000;fill-opacity:1;stroke:none"
       x="167.80673"
       y="433.49649"
       id="text2328"><tspan
         sodipodi:role="line"
         id="tspan2326"
         x="167.80673"
         y="433.49649">Petit-Bourg</tspan></text>
    <text
       xml:space="preserve"
       style="font-style:normal;font-variant:normal;font-weight:normal;font-stretch:normal;font-size:10.6667px;line-height:1.25;font-family:sans-serif;-inkscape-font-specification:'sans-serif, Normal';font-variant-ligatures:normal;font-variant-caps:normal;font-variant-numeric:normal;font-variant-east-asian:normal;fill:#000000;fill-opacity:1;stroke:none"
       x="416.73569"
       y="177.66898"
       id="text2332"
       transform="rotate(55.481226)"><tspan
         sodipodi:role="line"
         id="tspan2330"
         x="416.73569"
         y="177.66898">Bouillante</tspan></text>
    <text
       xml:space="preserve"
       style="font-style:normal;font-variant:normal;font-weight:normal;font-stretch:normal;font-size:10.6667px;line-height:1.25;font-family:sans-serif;-inkscape-font-specification:'sans-serif, Normal';font-variant-ligatures:normal;font-variant-caps:normal;font-variant-numeric:normal;font-variant-east-asian:normal;fill:#000000;fill-opacity:1;stroke:none"
       x="233.90204"
       y="484.5708"
       id="text2336"><tspan
         sodipodi:role="line"
         id="tspan2334"
         x="233.90204"
         y="484.5708">Goyave</tspan></text>
    <text
       xml:space="preserve"
       style="font-style:normal;font-variant:normal;font-weight:normal;font-stretch:normal;font-size:10.6667px;line-height:1.25;font-family:sans-serif;-inkscape-font-specification:'sans-serif, Normal';font-variant-ligatures:normal;font-variant-caps:normal;font-variant-numeric:normal;font-variant-east-asian:normal;text-align:center;text-anchor:middle;fill:#000000;fill-opacity:1;stroke:none"
       x="128.82135"
       y="519.90973"
       id="text2340"><tspan
         sodipodi:role="line"
         id="tspan2338"
         x="128.82135"
         y="519.90973">Vieux-</tspan><tspan
         sodipodi:role="line"
         x="128.82135"
         y="533.2431"
         id="tspan2342">Habitants</tspan></text>
    <text
       xml:space="preserve"
       style="font-style:normal;font-variant:normal;font-weight:normal;font-stretch:normal;font-size:10.6667px;line-height:1.25;font-family:sans-serif;-inkscape-font-specification:'sans-serif, Normal';font-variant-ligatures:normal;font-variant-caps:normal;font-variant-numeric:normal;font-variant-east-asian:normal;fill:#000000;fill-opacity:1;stroke:none"
       x="121.8773"
       y="585.81366"
       id="text2346"><tspan
         sodipodi:role="line"
         id="tspan2344"
         x="121.8773"
         y="585.81366">Bailif</tspan></text>
    <text
       xml:space="preserve"
       style="font-style:normal;font-variant:normal;font-weight:normal;font-stretch:normal;font-size:10.6667px;line-height:1.25;font-family:sans-serif;-inkscape-font-specification:'sans-serif, Normal';font-variant-ligatures:normal;font-variant-caps:normal;font-variant-numeric:normal;font-variant-east-asian:normal;text-align:center;text-anchor:middle;fill:#000000;fill-opacity:1;stroke:none"
       x="178.72514"
       y="569.5387"
       id="text2350"><tspan
         sodipodi:role="line"
         id="tspan2348"
         x="178.72514"
         y="569.5387">Saint-</tspan><tspan
         sodipodi:role="line"
         x="178.72514"
         y="582.87207"
         id="tspan2352">Claude</tspan></text>
    <text
       xml:space="preserve"
       style="font-style:normal;font-variant:normal;font-weight:normal;font-stretch:normal;font-size:10.6667px;line-height:1.25;font-family:sans-serif;-inkscape-font-specification:'sans-serif, Normal';font-variant-ligatures:normal;font-variant-caps:normal;font-variant-numeric:normal;font-variant-east-asian:normal;text-align:center;text-anchor:middle;fill:#000000;fill-opacity:1;stroke:none"
       x="256.86542"
       y="539.57043"
       id="text2356"><tspan
         sodipodi:role="line"
         id="tspan2354"
         x="256.86542"
         y="539.57043">Capesterre-</tspan><tspan
         sodipodi:role="line"
         x="256.86542"
         y="552.90381"
         id="tspan2358">Belle-Eau</tspan></text>
    <text
       xml:space="preserve"
       style="font-style:normal;font-variant:normal;font-weight:normal;font-stretch:normal;font-size:10.6667px;line-height:1.25;font-family:sans-serif;-inkscape-font-specification:'sans-serif, Normal';font-variant-ligatures:normal;font-variant-caps:normal;font-variant-numeric:normal;font-variant-east-asian:normal;text-align:center;text-anchor:middle;fill:#000000;fill-opacity:1;stroke:none"
       x="229.52153"
       y="611.15143"
       id="text2362"><tspan
         sodipodi:role="line"
         id="tspan2360"
         x="229.52153"
         y="611.15143">Trois-</tspan><tspan
         sodipodi:role="line"
         x="229.52153"
         y="624.4848"
         id="tspan2364">Rivières</tspan></text>
    <text
       xml:space="preserve"
       style="font-style:normal;font-variant:normal;font-weight:normal;font-stretch:normal;font-size:10.6667px;line-height:1.25;font-family:sans-serif;-inkscape-font-specification:'sans-serif, Normal';font-variant-ligatures:normal;font-variant-caps:normal;font-variant-numeric:normal;font-variant-east-asian:normal;fill:#000000;fill-opacity:1;stroke:none"
       x="151.47638"
       y="623"
       id="text2368"><tspan
         sodipodi:role="line"
         id="tspan2366"
         x="151.47638"
         y="623">Gourbeyre</tspan></text>
    <text
       xml:space="preserve"
       style="font-style:normal;font-variant:normal;font-weight:normal;font-stretch:normal;font-size:10.6667px;line-height:1.25;font-family:sans-serif;-inkscape-font-specification:'sans-serif, Normal';font-variant-ligatures:normal;font-variant-caps:normal;font-variant-numeric:normal;font-variant-east-asian:normal;text-align:center;text-anchor:middle;fill:#000000;fill-opacity:1;stroke:none"
       x="184.36702"
       y="643.91705"
       id="text2372"><tspan
         sodipodi:role="line"
         id="tspan2370"
         x="184.36702"
         y="643.91705">Vieux-</tspan><tspan
         sodipodi:role="line"
         x="184.36702"
         y="657.25043"
         id="tspan2374">Fort</tspan></text>
    <text
       xml:space="preserve"
       style="font-style:normal;font-variant:normal;font-weight:normal;font-stretch:normal;font-size:10.6667px;line-height:1.25;font-family:sans-serif;-inkscape-font-specification:'sans-serif, Normal';font-variant-ligatures:normal;font-variant-caps:normal;font-variant-numeric:normal;font-variant-east-asian:normal;fill:#000000;fill-opacity:1;stroke:none"
       x="497.01459"
       y="370.67392"
       id="text2378"
       transform="rotate(40.708761)"><tspan
         sodipodi:role="line"
         id="tspan2376"
         x="497.01459"
         y="370.67392">B-T</tspan></text>
    <text
       xml:space="preserve"
       style="font-style:normal;font-weight:normal;font-size:40px;line-height:1.25;font-family:sans-serif;fill:#000000;fill-opacity:1;stroke:none"
       x="374.01489"
       y="448.96475"
       id="text2382"><tspan
         sodipodi:role="line"
         id="tspan2380"
         x="374.01489"
         y="448.96475" /></text>
    <text
       xml:space="preserve"
       id="text2386"
       style="font-style:normal;font-variant:normal;font-weight:normal;font-stretch:normal;font-size:10.6667px;line-height:1.25;font-family:sans-serif;-inkscape-font-specification:'sans-serif, Normal';font-variant-ligatures:normal;font-variant-caps:normal;font-variant-numeric:normal;font-variant-east-asian:normal;white-space:pre;shape-inside:url(#rect2388);fill:#000000;fill-opacity:1;stroke:none"
       transform="translate(-60.675285,-100.15096)"><tspan
         x="361.80078"
         y="450.00109"
         id="tspan301">P-à-P</tspan></text>
  </g>
</svg>
