<?xml version="1.0" standalone="no"?>
<!DOCTYPE svg PUBLIC "-//W3C//DTD SVG 20010904//EN"
 "http://www.w3.org/TR/2001/REC-SVG-20010904/DTD/svg10.dtd">
<svg version="1.0" xmlns="http://www.w3.org/2000/svg"
 width="1280.000000pt" height="1074.000000pt" viewBox="0 0 1280.000000 1074.000000"
 preserveAspectRatio="xMidYMid meet">
<metadata>
Created by potrace 1.15, written by Peter Selinger 2001-2017
</metadata>
<g transform="translate(0.000000,1074.000000) scale(0.100000,-0.100000)"
fill="#000000" stroke="none">
<path d="M7 10733 c-4 -6 23 -18 66 -28 864 -205 1272 -342 1777 -595 487
-245 736 -452 875 -730 50 -100 70 -155 125 -350 114 -399 211 -636 385 -949
117 -210 212 -438 295 -711 169 -551 235 -723 426 -1110 217 -441 433 -793
836 -1363 323 -458 401 -582 453 -722 15 -38 35 -79 45 -90 13 -15 19 -41 22
-107 4 -71 10 -97 36 -150 61 -125 102 -142 226 -92 60 24 66 29 66 54 0 16
-5 41 -10 55 -8 20 12 7 76 -54 48 -45 90 -81 94 -81 9 0 216 -229 285 -315
162 -202 264 -403 325 -639 32 -128 52 -260 81 -546 35 -354 86 -611 163 -835
61 -180 104 -409 126 -670 27 -328 33 -386 52 -475 11 -52 28 -111 38 -130 25
-48 84 -103 106 -98 40 7 70 105 114 368 58 349 76 531 91 909 16 415 2 836
-67 2031 -34 576 -39 1251 -12 1415 25 150 53 231 97 277 33 35 46 42 110 54
90 17 109 30 146 100 46 88 57 93 238 109 159 14 178 19 277 76 32 19 45 20
140 13 188 -14 207 -8 231 65 26 80 64 98 225 106 204 11 239 26 284 128 43
98 99 137 197 137 92 0 123 38 123 155 0 53 4 69 21 86 20 20 26 21 148 13 69
-5 160 -8 203 -7 131 3 190 50 204 162 3 31 11 64 15 73 13 25 65 36 214 47
248 18 339 79 352 234 9 99 10 100 111 92 76 -6 95 -4 147 15 79 30 151 99
160 155 18 110 4 105 450 159 143 17 215 39 250 76 22 23 27 41 36 125 16 156
29 173 239 304 134 85 160 107 199 176 36 61 151 205 341 425 78 91 190 221
249 289 130 151 291 352 291 363 0 15 -98 8 -232 -17 -204 -38 -457 -100
-1133 -280 -341 -90 -699 -182 -795 -204 -96 -22 -187 -44 -202 -50 -43 -16
-340 -37 -818 -56 -278 -12 -656 -36 -783 -50 -150 -17 -233 -19 -242 -5 -7
12 44 118 194 405 61 116 138 275 172 355 83 196 144 314 254 499 96 162 128
221 139 259 6 19 4 22 -21 22 -118 -1 -556 -280 -1368 -871 -769 -561 -1116
-769 -1471 -883 -164 -53 -260 -66 -539 -72 l-260 -6 -145 223 c-251 388 -649
998 -753 1154 -229 342 -316 439 -497 557 -318 206 -522 237 -1351 208 l-276
-10 -354 166 c-468 219 -565 259 -834 349 -343 114 -867 241 -1191 289 -148
22 -280 31 -287 19z m5523 -6773 c13 -8 13 -10 -1 -10 -9 0 -23 -8 -32 -18
-16 -17 -15 -20 11 -52 26 -31 27 -35 13 -50 -15 -15 -18 -14 -48 9 -29 23
-30 27 -17 45 8 11 14 33 14 47 0 25 7 31 40 38 3 0 12 -4 20 -9z"/>
</g>
</svg>
